<svg width="1363" height="167" viewBox="0 0 1363 167" fill="none" xmlns="http://www.w3.org/2000/svg">
<rect width="1363" height="167" rx="15" fill="#F0F0F0"/>
<path d="M0 15C0 6.71573 6.71573 0 15 0H37V167H15C6.71573 167 0 160.284 0 152V15Z" fill="#424241"/>
<path d="M100.906 54.9219L93.3945 52.2383V49.0859L103.602 53.375V55.6367L100.906 54.9219ZM93.3945 57.1719L100.918 54.4297L103.602 53.7852V56.0352L93.3945 60.3242V57.1719ZM122.867 59.2578V62H114.277V59.2578H122.867ZM115.414 44.9375V62H111.898V44.9375H115.414ZM128.234 49.3203V62H124.848V49.3203H128.234ZM124.637 46.0156C124.637 45.5234 124.809 45.1172 125.152 44.7969C125.496 44.4766 125.957 44.3164 126.535 44.3164C127.105 44.3164 127.562 44.4766 127.906 44.7969C128.258 45.1172 128.434 45.5234 128.434 46.0156C128.434 46.5078 128.258 46.9141 127.906 47.2344C127.562 47.5547 127.105 47.7148 126.535 47.7148C125.957 47.7148 125.496 47.5547 125.152 47.2344C124.809 46.9141 124.637 46.5078 124.637 46.0156ZM137.867 59.1406V53.4922C137.867 53.0859 137.801 52.7383 137.668 52.4492C137.535 52.1523 137.328 51.9219 137.047 51.7578C136.773 51.5938 136.418 51.5117 135.98 51.5117C135.605 51.5117 135.281 51.5781 135.008 51.7109C134.734 51.8359 134.523 52.0195 134.375 52.2617C134.227 52.4961 134.152 52.7734 134.152 53.0938H130.777C130.777 52.5547 130.902 52.043 131.152 51.5586C131.402 51.0742 131.766 50.6484 132.242 50.2812C132.719 49.9062 133.285 49.6133 133.941 49.4023C134.605 49.1914 135.348 49.0859 136.168 49.0859C137.152 49.0859 138.027 49.25 138.793 49.5781C139.559 49.9062 140.16 50.3984 140.598 51.0547C141.043 51.7109 141.266 52.5312 141.266 53.5156V58.9414C141.266 59.6367 141.309 60.207 141.395 60.6523C141.48 61.0898 141.605 61.4727 141.77 61.8008V62H138.359C138.195 61.6562 138.07 61.2266 137.984 60.7109C137.906 60.1875 137.867 59.6641 137.867 59.1406ZM138.312 54.2773L138.336 56.1875H136.449C136.004 56.1875 135.617 56.2383 135.289 56.3398C134.961 56.4414 134.691 56.5859 134.48 56.7734C134.27 56.9531 134.113 57.1641 134.012 57.4062C133.918 57.6484 133.871 57.9141 133.871 58.2031C133.871 58.4922 133.938 58.7539 134.07 58.9883C134.203 59.2148 134.395 59.3945 134.645 59.5273C134.895 59.6523 135.188 59.7148 135.523 59.7148C136.031 59.7148 136.473 59.6133 136.848 59.4102C137.223 59.207 137.512 58.957 137.715 58.6602C137.926 58.3633 138.035 58.082 138.043 57.8164L138.934 59.2461C138.809 59.5664 138.637 59.8984 138.418 60.2422C138.207 60.5859 137.938 60.9102 137.609 61.2148C137.281 61.5117 136.887 61.7578 136.426 61.9531C135.965 62.1406 135.418 62.2344 134.785 62.2344C133.98 62.2344 133.25 62.0742 132.594 61.7539C131.945 61.4258 131.43 60.9766 131.047 60.4062C130.672 59.8281 130.484 59.1719 130.484 58.4375C130.484 57.7734 130.609 57.1836 130.859 56.668C131.109 56.1523 131.477 55.7188 131.961 55.3672C132.453 55.0078 133.066 54.7383 133.801 54.5586C134.535 54.3711 135.387 54.2773 136.355 54.2773H138.312ZM147.43 49.3203V62H144.043V49.3203H147.43ZM143.832 46.0156C143.832 45.5234 144.004 45.1172 144.348 44.7969C144.691 44.4766 145.152 44.3164 145.73 44.3164C146.301 44.3164 146.758 44.4766 147.102 44.7969C147.453 45.1172 147.629 45.5234 147.629 46.0156C147.629 46.5078 147.453 46.9141 147.102 47.2344C146.758 47.5547 146.301 47.7148 145.73 47.7148C145.152 47.7148 144.691 47.5547 144.348 47.2344C144.004 46.9141 143.832 46.5078 143.832 46.0156ZM157.074 58.4961C157.074 58.2539 157.004 58.0352 156.863 57.8398C156.723 57.6445 156.461 57.4648 156.078 57.3008C155.703 57.1289 155.16 56.9727 154.449 56.832C153.809 56.6914 153.211 56.5156 152.656 56.3047C152.109 56.0859 151.633 55.8242 151.227 55.5195C150.828 55.2148 150.516 54.8555 150.289 54.4414C150.062 54.0195 149.949 53.5391 149.949 53C149.949 52.4688 150.062 51.9688 150.289 51.5C150.523 51.0312 150.855 50.6172 151.285 50.2578C151.723 49.8906 152.254 49.6055 152.879 49.4023C153.512 49.1914 154.223 49.0859 155.012 49.0859C156.113 49.0859 157.059 49.2617 157.848 49.6133C158.645 49.9648 159.254 50.4492 159.676 51.0664C160.105 51.6758 160.32 52.3711 160.32 53.1523H156.945C156.945 52.8242 156.875 52.5312 156.734 52.2734C156.602 52.0078 156.391 51.8008 156.102 51.6523C155.82 51.4961 155.453 51.418 155 51.418C154.625 51.418 154.301 51.4844 154.027 51.6172C153.754 51.7422 153.543 51.9141 153.395 52.1328C153.254 52.3438 153.184 52.5781 153.184 52.8359C153.184 53.0312 153.223 53.207 153.301 53.3633C153.387 53.5117 153.523 53.6484 153.711 53.7734C153.898 53.8984 154.141 54.0156 154.438 54.125C154.742 54.2266 155.117 54.3203 155.562 54.4062C156.477 54.5938 157.293 54.8398 158.012 55.1445C158.73 55.4414 159.301 55.8477 159.723 56.3633C160.145 56.8711 160.355 57.5391 160.355 58.3672C160.355 58.9297 160.23 59.4453 159.98 59.9141C159.73 60.3828 159.371 60.793 158.902 61.1445C158.434 61.4883 157.871 61.7578 157.215 61.9531C156.566 62.1406 155.836 62.2344 155.023 62.2344C153.844 62.2344 152.844 62.0234 152.023 61.6016C151.211 61.1797 150.594 60.6445 150.172 59.9961C149.758 59.3398 149.551 58.668 149.551 57.9805H152.75C152.766 58.4414 152.883 58.8125 153.102 59.0938C153.328 59.375 153.613 59.5781 153.957 59.7031C154.309 59.8281 154.688 59.8906 155.094 59.8906C155.531 59.8906 155.895 59.832 156.184 59.7148C156.473 59.5898 156.691 59.4258 156.84 59.2227C156.996 59.0117 157.074 58.7695 157.074 58.4961ZM162.008 55.7891V55.543C162.008 54.6133 162.141 53.7578 162.406 52.9766C162.672 52.1875 163.059 51.5039 163.566 50.9258C164.074 50.3477 164.699 49.8984 165.441 49.5781C166.184 49.25 167.035 49.0859 167.996 49.0859C168.957 49.0859 169.812 49.25 170.562 49.5781C171.312 49.8984 171.941 50.3477 172.449 50.9258C172.965 51.5039 173.355 52.1875 173.621 52.9766C173.887 53.7578 174.02 54.6133 174.02 55.543V55.7891C174.02 56.7109 173.887 57.5664 173.621 58.3555C173.355 59.1367 172.965 59.8203 172.449 60.4062C171.941 60.9844 171.316 61.4336 170.574 61.7539C169.832 62.0742 168.98 62.2344 168.02 62.2344C167.059 62.2344 166.203 62.0742 165.453 61.7539C164.711 61.4336 164.082 60.9844 163.566 60.4062C163.059 59.8203 162.672 59.1367 162.406 58.3555C162.141 57.5664 162.008 56.7109 162.008 55.7891ZM165.383 55.543V55.7891C165.383 56.3203 165.43 56.8164 165.523 57.2773C165.617 57.7383 165.766 58.1445 165.969 58.4961C166.18 58.8398 166.453 59.1094 166.789 59.3047C167.125 59.5 167.535 59.5977 168.02 59.5977C168.488 59.5977 168.891 59.5 169.227 59.3047C169.562 59.1094 169.832 58.8398 170.035 58.4961C170.238 58.1445 170.387 57.7383 170.48 57.2773C170.582 56.8164 170.633 56.3203 170.633 55.7891V55.543C170.633 55.0273 170.582 54.543 170.48 54.0898C170.387 53.6289 170.234 53.2227 170.023 52.8711C169.82 52.5117 169.551 52.2305 169.215 52.0273C168.879 51.8242 168.473 51.7227 167.996 51.7227C167.52 51.7227 167.113 51.8242 166.777 52.0273C166.449 52.2305 166.18 52.5117 165.969 52.8711C165.766 53.2227 165.617 53.6289 165.523 54.0898C165.43 54.543 165.383 55.0273 165.383 55.543ZM179.398 52.0273V62H176.023V49.3203H179.188L179.398 52.0273ZM178.906 55.2148H177.992C177.992 54.2773 178.113 53.4336 178.355 52.6836C178.598 51.9258 178.938 51.2812 179.375 50.75C179.812 50.2109 180.332 49.8008 180.934 49.5195C181.543 49.2305 182.223 49.0859 182.973 49.0859C183.566 49.0859 184.109 49.1719 184.602 49.3438C185.094 49.5156 185.516 49.7891 185.867 50.1641C186.227 50.5391 186.5 51.0352 186.688 51.6523C186.883 52.2695 186.98 53.0234 186.98 53.9141V62H183.582V53.9023C183.582 53.3398 183.504 52.9023 183.348 52.5898C183.191 52.2773 182.961 52.0586 182.656 51.9336C182.359 51.8008 181.992 51.7344 181.555 51.7344C181.102 51.7344 180.707 51.8242 180.371 52.0039C180.043 52.1836 179.77 52.4336 179.551 52.7539C179.34 53.0664 179.18 53.4336 179.07 53.8555C178.961 54.2773 178.906 54.7305 178.906 55.2148Z" fill="#888888"/>
<path d="M102.635 86.0078V118H94.9443V86.0078H102.635ZM115.181 99.2573V118H107.776V94.2256H114.72L115.181 99.2573ZM114.28 105.3L112.588 105.344C112.588 103.674 112.786 102.136 113.182 100.729C113.577 99.3232 114.163 98.1001 114.939 97.0601C115.716 96.02 116.668 95.2144 117.796 94.6431C118.938 94.0718 120.257 93.7861 121.751 93.7861C122.791 93.7861 123.736 93.9473 124.585 94.2695C125.435 94.5771 126.167 95.0679 126.783 95.7417C127.398 96.4009 127.867 97.2651 128.189 98.3345C128.526 99.3892 128.694 100.656 128.694 102.136V118H121.29V103.081C121.29 102.07 121.172 101.308 120.938 100.795C120.718 100.283 120.396 99.9385 119.971 99.7627C119.546 99.5869 119.026 99.499 118.411 99.499C117.767 99.499 117.188 99.6455 116.675 99.9385C116.163 100.231 115.723 100.642 115.357 101.169C115.005 101.682 114.734 102.29 114.544 102.993C114.368 103.696 114.28 104.465 114.28 105.3ZM127.859 105.3L125.794 105.344C125.794 103.674 125.977 102.136 126.343 100.729C126.724 99.3232 127.288 98.1001 128.035 97.0601C128.797 96.02 129.742 95.2144 130.87 94.6431C131.998 94.0718 133.309 93.7861 134.803 93.7861C135.887 93.7861 136.883 93.9473 137.791 94.2695C138.699 94.5918 139.483 95.1118 140.142 95.8296C140.801 96.5474 141.314 97.4995 141.68 98.686C142.046 99.8579 142.229 101.308 142.229 103.037V118H134.803V103.037C134.803 102.055 134.686 101.315 134.451 100.817C134.231 100.305 133.909 99.9604 133.484 99.7847C133.06 99.5942 132.554 99.499 131.968 99.499C131.265 99.499 130.657 99.6455 130.145 99.9385C129.632 100.231 129.2 100.642 128.848 101.169C128.511 101.682 128.262 102.29 128.101 102.993C127.94 103.696 127.859 104.465 127.859 105.3ZM153.941 98.7959V127.141H146.536V94.2256H153.436L153.941 98.7959ZM168.531 105.827V106.289C168.531 108.017 168.333 109.621 167.938 111.101C167.542 112.58 166.956 113.869 166.18 114.968C165.403 116.066 164.437 116.923 163.279 117.539C162.137 118.139 160.811 118.439 159.302 118.439C157.881 118.439 156.658 118.125 155.633 117.495C154.607 116.865 153.75 115.993 153.062 114.88C152.374 113.767 151.817 112.492 151.392 111.057C150.967 109.621 150.63 108.105 150.381 106.508V105.915C150.63 104.201 150.967 102.612 151.392 101.147C151.817 99.6675 152.374 98.3784 153.062 97.2798C153.75 96.1812 154.6 95.3242 155.611 94.709C156.636 94.0938 157.859 93.7861 159.28 93.7861C160.789 93.7861 162.115 94.0718 163.257 94.6431C164.415 95.2144 165.381 96.0347 166.158 97.104C166.949 98.1587 167.542 99.4258 167.938 100.905C168.333 102.385 168.531 104.025 168.531 105.827ZM161.126 106.289V105.827C161.126 104.904 161.06 104.062 160.928 103.3C160.796 102.524 160.584 101.85 160.291 101.279C160.013 100.708 159.639 100.268 159.17 99.9604C158.702 99.6528 158.123 99.499 157.435 99.499C156.644 99.499 155.977 99.6235 155.435 99.8726C154.908 100.107 154.483 100.473 154.161 100.971C153.853 101.455 153.633 102.062 153.501 102.795C153.384 103.513 153.333 104.355 153.348 105.322V107.124C153.318 108.237 153.428 109.218 153.677 110.068C153.926 110.903 154.358 111.555 154.974 112.023C155.589 112.492 156.424 112.727 157.479 112.727C158.182 112.727 158.768 112.565 159.236 112.243C159.705 111.906 160.079 111.445 160.357 110.859C160.635 110.258 160.833 109.57 160.95 108.793C161.067 108.017 161.126 107.182 161.126 106.289ZM179.649 84.25V118H172.222V84.25H179.649ZM195.733 118.439C193.799 118.439 192.071 118.139 190.547 117.539C189.024 116.923 187.735 116.081 186.68 115.012C185.64 113.942 184.842 112.712 184.285 111.32C183.743 109.929 183.472 108.457 183.472 106.904V106.069C183.472 104.326 183.714 102.714 184.197 101.235C184.681 99.7407 185.398 98.437 186.351 97.3237C187.303 96.2104 188.497 95.3462 189.932 94.731C191.368 94.1011 193.038 93.7861 194.942 93.7861C196.626 93.7861 198.135 94.0571 199.468 94.5991C200.801 95.1411 201.929 95.9175 202.852 96.9282C203.79 97.939 204.5 99.1621 204.983 100.598C205.481 102.033 205.73 103.645 205.73 105.432V108.442H186.307V103.806H198.501V103.234C198.516 102.443 198.377 101.77 198.084 101.213C197.806 100.656 197.396 100.231 196.854 99.9385C196.312 99.6455 195.652 99.499 194.876 99.499C194.07 99.499 193.404 99.6748 192.876 100.026C192.364 100.378 191.961 100.861 191.668 101.477C191.39 102.077 191.192 102.773 191.075 103.564C190.958 104.355 190.899 105.19 190.899 106.069V106.904C190.899 107.783 191.016 108.581 191.25 109.299C191.5 110.017 191.851 110.632 192.305 111.145C192.774 111.643 193.331 112.031 193.975 112.309C194.634 112.587 195.381 112.727 196.216 112.727C197.227 112.727 198.223 112.536 199.205 112.155C200.186 111.774 201.028 111.145 201.731 110.266L205.093 114.265C204.61 114.953 203.921 115.62 203.028 116.264C202.149 116.909 201.094 117.436 199.864 117.846C198.633 118.242 197.256 118.439 195.733 118.439ZM216.211 99.2573V118H208.807V94.2256H215.75L216.211 99.2573ZM215.311 105.3L213.619 105.344C213.619 103.674 213.816 102.136 214.212 100.729C214.607 99.3232 215.193 98.1001 215.97 97.0601C216.746 96.02 217.698 95.2144 218.826 94.6431C219.969 94.0718 221.287 93.7861 222.781 93.7861C223.821 93.7861 224.766 93.9473 225.616 94.2695C226.465 94.5771 227.198 95.0679 227.813 95.7417C228.428 96.4009 228.897 97.2651 229.219 98.3345C229.556 99.3892 229.725 100.656 229.725 102.136V118H222.32V103.081C222.32 102.07 222.203 101.308 221.968 100.795C221.749 100.283 221.426 99.9385 221.001 99.7627C220.577 99.5869 220.057 99.499 219.441 99.499C218.797 99.499 218.218 99.6455 217.706 99.9385C217.193 100.231 216.753 100.642 216.387 101.169C216.036 101.682 215.765 102.29 215.574 102.993C215.398 103.696 215.311 104.465 215.311 105.3ZM228.89 105.3L226.824 105.344C226.824 103.674 227.007 102.136 227.374 100.729C227.754 99.3232 228.318 98.1001 229.065 97.0601C229.827 96.02 230.772 95.2144 231.9 94.6431C233.028 94.0718 234.339 93.7861 235.833 93.7861C236.917 93.7861 237.913 93.9473 238.821 94.2695C239.729 94.5918 240.513 95.1118 241.172 95.8296C241.832 96.5474 242.344 97.4995 242.71 98.686C243.077 99.8579 243.26 101.308 243.26 103.037V118H235.833V103.037C235.833 102.055 235.716 101.315 235.481 100.817C235.262 100.305 234.939 99.9604 234.515 99.7847C234.09 99.5942 233.584 99.499 232.999 99.499C232.295 99.499 231.688 99.6455 231.175 99.9385C230.662 100.231 230.23 100.642 229.878 101.169C229.542 101.682 229.292 102.29 229.131 102.993C228.97 103.696 228.89 104.465 228.89 105.3ZM259.014 118.439C257.081 118.439 255.352 118.139 253.829 117.539C252.305 116.923 251.016 116.081 249.961 115.012C248.921 113.942 248.123 112.712 247.566 111.32C247.024 109.929 246.753 108.457 246.753 106.904V106.069C246.753 104.326 246.995 102.714 247.479 101.235C247.962 99.7407 248.68 98.437 249.632 97.3237C250.584 96.2104 251.778 95.3462 253.213 94.731C254.649 94.1011 256.319 93.7861 258.223 93.7861C259.908 93.7861 261.417 94.0571 262.75 94.5991C264.083 95.1411 265.21 95.9175 266.133 96.9282C267.071 97.939 267.781 99.1621 268.265 100.598C268.763 102.033 269.012 103.645 269.012 105.432V108.442H249.588V103.806H261.783V103.234C261.797 102.443 261.658 101.77 261.365 101.213C261.087 100.656 260.677 100.231 260.135 99.9385C259.593 99.6455 258.934 99.499 258.157 99.499C257.352 99.499 256.685 99.6748 256.158 100.026C255.645 100.378 255.242 100.861 254.949 101.477C254.671 102.077 254.473 102.773 254.356 103.564C254.239 104.355 254.18 105.19 254.18 106.069V106.904C254.18 107.783 254.297 108.581 254.532 109.299C254.781 110.017 255.132 110.632 255.586 111.145C256.055 111.643 256.612 112.031 257.256 112.309C257.916 112.587 258.663 112.727 259.498 112.727C260.508 112.727 261.504 112.536 262.486 112.155C263.467 111.774 264.31 111.145 265.013 110.266L268.375 114.265C267.891 114.953 267.203 115.62 266.309 116.264C265.43 116.909 264.375 117.436 263.145 117.846C261.915 118.242 260.538 118.439 259.014 118.439ZM279.295 99.3013V118H271.89V94.2256H278.833L279.295 99.3013ZM278.416 105.3L276.68 105.344C276.68 103.527 276.9 101.909 277.339 100.488C277.779 99.0522 278.401 97.8364 279.207 96.8403C280.013 95.8442 280.972 95.0898 282.085 94.5771C283.213 94.0498 284.466 93.7861 285.843 93.7861C286.941 93.7861 287.945 93.9473 288.853 94.2695C289.776 94.5918 290.567 95.1118 291.226 95.8296C291.9 96.5474 292.413 97.4995 292.764 98.686C293.13 99.8579 293.313 101.308 293.313 103.037V118H285.865V103.015C285.865 102.062 285.733 101.337 285.469 100.839C285.206 100.327 284.825 99.9751 284.327 99.7847C283.829 99.5942 283.221 99.499 282.503 99.499C281.741 99.499 281.097 99.6455 280.569 99.9385C280.042 100.231 279.617 100.642 279.295 101.169C278.987 101.682 278.76 102.29 278.614 102.993C278.482 103.696 278.416 104.465 278.416 105.3ZM309.947 94.2256V99.3672H295.621V94.2256H309.947ZM298.631 88.3149H306.036V110.244C306.036 110.874 306.109 111.364 306.255 111.716C306.402 112.053 306.651 112.294 307.002 112.441C307.369 112.573 307.852 112.639 308.453 112.639C308.877 112.639 309.229 112.631 309.507 112.617C309.786 112.587 310.049 112.551 310.298 112.507V117.802C309.668 118.007 309.009 118.161 308.321 118.264C307.632 118.381 306.9 118.439 306.124 118.439C304.542 118.439 303.187 118.19 302.059 117.692C300.945 117.194 300.096 116.411 299.51 115.341C298.924 114.272 298.631 112.88 298.631 111.167V88.3149ZM325.24 112.023V102.224C325.24 101.55 325.145 100.971 324.954 100.488C324.764 100.004 324.463 99.6309 324.053 99.3672C323.643 99.0889 323.094 98.9497 322.405 98.9497C321.849 98.9497 321.373 99.0449 320.977 99.2354C320.582 99.4258 320.281 99.7114 320.076 100.092C319.871 100.473 319.769 100.957 319.769 101.542H312.364C312.364 100.444 312.605 99.4258 313.089 98.4883C313.587 97.5361 314.29 96.7085 315.198 96.0054C316.121 95.3022 317.22 94.7603 318.494 94.3794C319.783 93.9839 321.219 93.7861 322.801 93.7861C324.69 93.7861 326.375 94.1011 327.854 94.731C329.349 95.3608 330.528 96.3057 331.392 97.5654C332.256 98.8105 332.688 100.378 332.688 102.268V112.001C332.688 113.554 332.776 114.733 332.952 115.539C333.128 116.33 333.377 117.026 333.699 117.626V118H326.272C325.921 117.268 325.657 116.374 325.481 115.319C325.32 114.25 325.24 113.151 325.24 112.023ZM326.141 103.476L326.185 107.431H322.911C322.222 107.431 321.636 107.526 321.153 107.717C320.684 107.907 320.303 108.171 320.01 108.508C319.732 108.83 319.527 109.196 319.395 109.606C319.278 110.017 319.219 110.449 319.219 110.903C319.219 111.342 319.322 111.738 319.527 112.089C319.747 112.426 320.04 112.69 320.406 112.88C320.772 113.071 321.182 113.166 321.636 113.166C322.457 113.166 323.152 113.012 323.724 112.705C324.31 112.382 324.756 111.994 325.064 111.54C325.372 111.086 325.525 110.661 325.525 110.266L327.151 113.298C326.858 113.884 326.521 114.477 326.141 115.078C325.774 115.678 325.313 116.235 324.756 116.748C324.214 117.246 323.548 117.656 322.757 117.978C321.966 118.286 321.006 118.439 319.878 118.439C318.414 118.439 317.066 118.139 315.835 117.539C314.62 116.938 313.646 116.103 312.913 115.034C312.181 113.95 311.814 112.705 311.814 111.298C311.814 110.068 312.034 108.969 312.474 108.002C312.928 107.036 313.609 106.215 314.517 105.542C315.425 104.868 316.583 104.355 317.989 104.003C319.395 103.652 321.05 103.476 322.955 103.476H326.141ZM349.322 94.2256V99.3672H334.996V94.2256H349.322ZM338.006 88.3149H345.411V110.244C345.411 110.874 345.484 111.364 345.63 111.716C345.777 112.053 346.026 112.294 346.377 112.441C346.744 112.573 347.227 112.639 347.828 112.639C348.252 112.639 348.604 112.631 348.882 112.617C349.161 112.587 349.424 112.551 349.673 112.507V117.802C349.043 118.007 348.384 118.161 347.696 118.264C347.007 118.381 346.275 118.439 345.499 118.439C343.917 118.439 342.562 118.19 341.434 117.692C340.32 117.194 339.471 116.411 338.885 115.341C338.299 114.272 338.006 112.88 338.006 111.167V88.3149ZM360.088 94.2256V118H352.662V94.2256H360.088ZM352.222 88.0952C352.222 87.0405 352.603 86.1763 353.365 85.5024C354.126 84.8286 355.115 84.4917 356.331 84.4917C357.547 84.4917 358.536 84.8286 359.297 85.5024C360.059 86.1763 360.44 87.0405 360.44 88.0952C360.44 89.1499 360.059 90.0142 359.297 90.688C358.536 91.3618 357.547 91.6987 356.331 91.6987C355.115 91.6987 354.126 91.3618 353.365 90.688C352.603 90.0142 352.222 89.1499 352.222 88.0952ZM363.736 106.354V105.893C363.736 104.15 363.985 102.546 364.483 101.081C364.981 99.6016 365.713 98.3198 366.68 97.2358C367.647 96.1519 368.841 95.3096 370.262 94.709C371.683 94.0938 373.323 93.7861 375.184 93.7861C377.059 93.7861 378.707 94.0938 380.127 94.709C381.563 95.3096 382.764 96.1519 383.731 97.2358C384.698 98.3198 385.43 99.6016 385.928 101.081C386.426 102.546 386.675 104.15 386.675 105.893V106.354C386.675 108.083 386.426 109.687 385.928 111.167C385.43 112.631 384.698 113.913 383.731 115.012C382.764 116.096 381.57 116.938 380.149 117.539C378.729 118.139 377.088 118.439 375.228 118.439C373.367 118.439 371.719 118.139 370.284 117.539C368.848 116.938 367.647 116.096 366.68 115.012C365.713 113.913 364.981 112.631 364.483 111.167C363.985 109.687 363.736 108.083 363.736 106.354ZM371.141 105.893V106.354C371.141 107.248 371.207 108.083 371.338 108.859C371.47 109.636 371.69 110.317 371.998 110.903C372.305 111.474 372.723 111.921 373.25 112.243C373.777 112.565 374.437 112.727 375.228 112.727C376.004 112.727 376.648 112.565 377.161 112.243C377.688 111.921 378.106 111.474 378.414 110.903C378.721 110.317 378.941 109.636 379.073 108.859C379.205 108.083 379.271 107.248 379.271 106.354V105.893C379.271 105.029 379.205 104.216 379.073 103.454C378.941 102.678 378.721 101.997 378.414 101.411C378.106 100.81 377.688 100.341 377.161 100.004C376.634 99.6675 375.975 99.499 375.184 99.499C374.407 99.499 373.755 99.6675 373.228 100.004C372.715 100.341 372.305 100.81 371.998 101.411C371.69 101.997 371.47 102.678 371.338 103.454C371.207 104.216 371.141 105.029 371.141 105.893ZM397.244 99.3013V118H389.839V94.2256H396.783L397.244 99.3013ZM396.365 105.3L394.629 105.344C394.629 103.527 394.849 101.909 395.289 100.488C395.728 99.0522 396.351 97.8364 397.156 96.8403C397.962 95.8442 398.921 95.0898 400.035 94.5771C401.163 94.0498 402.415 93.7861 403.792 93.7861C404.891 93.7861 405.894 93.9473 406.802 94.2695C407.725 94.5918 408.516 95.1118 409.175 95.8296C409.849 96.5474 410.362 97.4995 410.713 98.686C411.08 99.8579 411.263 101.308 411.263 103.037V118H403.814V103.015C403.814 102.062 403.682 101.337 403.418 100.839C403.155 100.327 402.774 99.9751 402.276 99.7847C401.778 99.5942 401.17 99.499 400.452 99.499C399.69 99.499 399.046 99.6455 398.519 99.9385C397.991 100.231 397.566 100.642 397.244 101.169C396.937 101.682 396.709 102.29 396.563 102.993C396.431 103.696 396.365 104.465 396.365 105.3Z" fill="#424241"/>
<path d="M1363 15C1363 6.71573 1356.28 0 1348 0H1134V167H1348C1356.28 167 1363 160.284 1363 152V15Z" fill="#1877F2"/>
<path d="M1281.5 49H1216.5L1214 51.5V116.5L1216.5 119H1281.5L1284 116.5V51.5L1281.5 49ZM1279 114H1234V104H1245.5C1247 107 1250.5 109 1254 109C1259.5 109 1264 104.5 1264 99C1264 93.5 1259.5 89 1254 89C1248.5 89 1244 93.5 1244 99H1229V114H1219V54H1229V65.5C1226 67 1224 70.5 1224 74C1224 79.5 1228.5 84 1234 84C1239.5 84 1244 79.5 1244 74H1254C1254 79.5 1258.5 84 1264 84C1269.5 84 1274 79.5 1274 74C1274 68.5 1269.5 64 1264 64C1260.5 64 1257 66 1255.5 69H1242.5C1241 66 1237.5 64 1234 64V54H1279V114ZM1249 99C1249 96 1251 94 1254 94C1257 94 1259 96 1259 99C1259 102 1257 104 1254 104C1251 104 1249 102 1249 99ZM1234 69C1237 69 1239 71 1239 74C1239 77 1237 79 1234 79C1231 79 1229 77 1229 74C1229 71 1231 69 1234 69ZM1264 69C1267 69 1269 71 1269 74C1269 77 1267 79 1264 79C1261 79 1259 77 1259 74C1259 71 1261 69 1264 69Z" fill="white"/>
</svg>
