<svg width="1363" height="167" viewBox="0 0 1363 167" fill="none" xmlns="http://www.w3.org/2000/svg">
<rect width="1363" height="167" rx="15" fill="#F0F0F0"/>
<path d="M0 15C0 6.71573 6.71573 0 15 0H37V167H15C6.71573 167 0 160.284 0 152V15Z" fill="#424241"/>
<path d="M100.906 50.9219L93.3945 48.2383V45.0859L103.602 49.375V51.6367L100.906 50.9219ZM93.3945 53.1719L100.918 50.4297L103.602 49.7852V52.0352L93.3945 56.3242V53.1719ZM122.867 55.2578V58H114.277V55.2578H122.867ZM115.414 40.9375V58H111.898V40.9375H115.414ZM128.234 45.3203V58H124.848V45.3203H128.234ZM124.637 42.0156C124.637 41.5234 124.809 41.1172 125.152 40.7969C125.496 40.4766 125.957 40.3164 126.535 40.3164C127.105 40.3164 127.562 40.4766 127.906 40.7969C128.258 41.1172 128.434 41.5234 128.434 42.0156C128.434 42.5078 128.258 42.9141 127.906 43.2344C127.562 43.5547 127.105 43.7148 126.535 43.7148C125.957 43.7148 125.496 43.5547 125.152 43.2344C124.809 42.9141 124.637 42.5078 124.637 42.0156ZM137.867 55.1406V49.4922C137.867 49.0859 137.801 48.7383 137.668 48.4492C137.535 48.1523 137.328 47.9219 137.047 47.7578C136.773 47.5938 136.418 47.5117 135.98 47.5117C135.605 47.5117 135.281 47.5781 135.008 47.7109C134.734 47.8359 134.523 48.0195 134.375 48.2617C134.227 48.4961 134.152 48.7734 134.152 49.0938H130.777C130.777 48.5547 130.902 48.043 131.152 47.5586C131.402 47.0742 131.766 46.6484 132.242 46.2812C132.719 45.9062 133.285 45.6133 133.941 45.4023C134.605 45.1914 135.348 45.0859 136.168 45.0859C137.152 45.0859 138.027 45.25 138.793 45.5781C139.559 45.9062 140.16 46.3984 140.598 47.0547C141.043 47.7109 141.266 48.5312 141.266 49.5156V54.9414C141.266 55.6367 141.309 56.207 141.395 56.6523C141.48 57.0898 141.605 57.4727 141.77 57.8008V58H138.359C138.195 57.6562 138.07 57.2266 137.984 56.7109C137.906 56.1875 137.867 55.6641 137.867 55.1406ZM138.312 50.2773L138.336 52.1875H136.449C136.004 52.1875 135.617 52.2383 135.289 52.3398C134.961 52.4414 134.691 52.5859 134.48 52.7734C134.27 52.9531 134.113 53.1641 134.012 53.4062C133.918 53.6484 133.871 53.9141 133.871 54.2031C133.871 54.4922 133.938 54.7539 134.07 54.9883C134.203 55.2148 134.395 55.3945 134.645 55.5273C134.895 55.6523 135.188 55.7148 135.523 55.7148C136.031 55.7148 136.473 55.6133 136.848 55.4102C137.223 55.207 137.512 54.957 137.715 54.6602C137.926 54.3633 138.035 54.082 138.043 53.8164L138.934 55.2461C138.809 55.5664 138.637 55.8984 138.418 56.2422C138.207 56.5859 137.938 56.9102 137.609 57.2148C137.281 57.5117 136.887 57.7578 136.426 57.9531C135.965 58.1406 135.418 58.2344 134.785 58.2344C133.98 58.2344 133.25 58.0742 132.594 57.7539C131.945 57.4258 131.43 56.9766 131.047 56.4062C130.672 55.8281 130.484 55.1719 130.484 54.4375C130.484 53.7734 130.609 53.1836 130.859 52.668C131.109 52.1523 131.477 51.7188 131.961 51.3672C132.453 51.0078 133.066 50.7383 133.801 50.5586C134.535 50.3711 135.387 50.2773 136.355 50.2773H138.312ZM147.43 45.3203V58H144.043V45.3203H147.43ZM143.832 42.0156C143.832 41.5234 144.004 41.1172 144.348 40.7969C144.691 40.4766 145.152 40.3164 145.73 40.3164C146.301 40.3164 146.758 40.4766 147.102 40.7969C147.453 41.1172 147.629 41.5234 147.629 42.0156C147.629 42.5078 147.453 42.9141 147.102 43.2344C146.758 43.5547 146.301 43.7148 145.73 43.7148C145.152 43.7148 144.691 43.5547 144.348 43.2344C144.004 42.9141 143.832 42.5078 143.832 42.0156ZM157.074 54.4961C157.074 54.2539 157.004 54.0352 156.863 53.8398C156.723 53.6445 156.461 53.4648 156.078 53.3008C155.703 53.1289 155.16 52.9727 154.449 52.832C153.809 52.6914 153.211 52.5156 152.656 52.3047C152.109 52.0859 151.633 51.8242 151.227 51.5195C150.828 51.2148 150.516 50.8555 150.289 50.4414C150.062 50.0195 149.949 49.5391 149.949 49C149.949 48.4688 150.062 47.9688 150.289 47.5C150.523 47.0312 150.855 46.6172 151.285 46.2578C151.723 45.8906 152.254 45.6055 152.879 45.4023C153.512 45.1914 154.223 45.0859 155.012 45.0859C156.113 45.0859 157.059 45.2617 157.848 45.6133C158.645 45.9648 159.254 46.4492 159.676 47.0664C160.105 47.6758 160.32 48.3711 160.32 49.1523H156.945C156.945 48.8242 156.875 48.5312 156.734 48.2734C156.602 48.0078 156.391 47.8008 156.102 47.6523C155.82 47.4961 155.453 47.418 155 47.418C154.625 47.418 154.301 47.4844 154.027 47.6172C153.754 47.7422 153.543 47.9141 153.395 48.1328C153.254 48.3438 153.184 48.5781 153.184 48.8359C153.184 49.0312 153.223 49.207 153.301 49.3633C153.387 49.5117 153.523 49.6484 153.711 49.7734C153.898 49.8984 154.141 50.0156 154.438 50.125C154.742 50.2266 155.117 50.3203 155.562 50.4062C156.477 50.5938 157.293 50.8398 158.012 51.1445C158.73 51.4414 159.301 51.8477 159.723 52.3633C160.145 52.8711 160.355 53.5391 160.355 54.3672C160.355 54.9297 160.23 55.4453 159.98 55.9141C159.73 56.3828 159.371 56.793 158.902 57.1445C158.434 57.4883 157.871 57.7578 157.215 57.9531C156.566 58.1406 155.836 58.2344 155.023 58.2344C153.844 58.2344 152.844 58.0234 152.023 57.6016C151.211 57.1797 150.594 56.6445 150.172 55.9961C149.758 55.3398 149.551 54.668 149.551 53.9805H152.75C152.766 54.4414 152.883 54.8125 153.102 55.0938C153.328 55.375 153.613 55.5781 153.957 55.7031C154.309 55.8281 154.688 55.8906 155.094 55.8906C155.531 55.8906 155.895 55.832 156.184 55.7148C156.473 55.5898 156.691 55.4258 156.84 55.2227C156.996 55.0117 157.074 54.7695 157.074 54.4961ZM162.008 51.7891V51.543C162.008 50.6133 162.141 49.7578 162.406 48.9766C162.672 48.1875 163.059 47.5039 163.566 46.9258C164.074 46.3477 164.699 45.8984 165.441 45.5781C166.184 45.25 167.035 45.0859 167.996 45.0859C168.957 45.0859 169.812 45.25 170.562 45.5781C171.312 45.8984 171.941 46.3477 172.449 46.9258C172.965 47.5039 173.355 48.1875 173.621 48.9766C173.887 49.7578 174.02 50.6133 174.02 51.543V51.7891C174.02 52.7109 173.887 53.5664 173.621 54.3555C173.355 55.1367 172.965 55.8203 172.449 56.4062C171.941 56.9844 171.316 57.4336 170.574 57.7539C169.832 58.0742 168.98 58.2344 168.02 58.2344C167.059 58.2344 166.203 58.0742 165.453 57.7539C164.711 57.4336 164.082 56.9844 163.566 56.4062C163.059 55.8203 162.672 55.1367 162.406 54.3555C162.141 53.5664 162.008 52.7109 162.008 51.7891ZM165.383 51.543V51.7891C165.383 52.3203 165.43 52.8164 165.523 53.2773C165.617 53.7383 165.766 54.1445 165.969 54.4961C166.18 54.8398 166.453 55.1094 166.789 55.3047C167.125 55.5 167.535 55.5977 168.02 55.5977C168.488 55.5977 168.891 55.5 169.227 55.3047C169.562 55.1094 169.832 54.8398 170.035 54.4961C170.238 54.1445 170.387 53.7383 170.48 53.2773C170.582 52.8164 170.633 52.3203 170.633 51.7891V51.543C170.633 51.0273 170.582 50.543 170.48 50.0898C170.387 49.6289 170.234 49.2227 170.023 48.8711C169.82 48.5117 169.551 48.2305 169.215 48.0273C168.879 47.8242 168.473 47.7227 167.996 47.7227C167.52 47.7227 167.113 47.8242 166.777 48.0273C166.449 48.2305 166.18 48.5117 165.969 48.8711C165.766 49.2227 165.617 49.6289 165.523 50.0898C165.43 50.543 165.383 51.0273 165.383 51.543ZM179.398 48.0273V58H176.023V45.3203H179.188L179.398 48.0273ZM178.906 51.2148H177.992C177.992 50.2773 178.113 49.4336 178.355 48.6836C178.598 47.9258 178.938 47.2812 179.375 46.75C179.812 46.2109 180.332 45.8008 180.934 45.5195C181.543 45.2305 182.223 45.0859 182.973 45.0859C183.566 45.0859 184.109 45.1719 184.602 45.3438C185.094 45.5156 185.516 45.7891 185.867 46.1641C186.227 46.5391 186.5 47.0352 186.688 47.6523C186.883 48.2695 186.98 49.0234 186.98 49.9141V58H183.582V49.9023C183.582 49.3398 183.504 48.9023 183.348 48.5898C183.191 48.2773 182.961 48.0586 182.656 47.9336C182.359 47.8008 181.992 47.7344 181.555 47.7344C181.102 47.7344 180.707 47.8242 180.371 48.0039C180.043 48.1836 179.77 48.4336 179.551 48.7539C179.34 49.0664 179.18 49.4336 179.07 49.8555C178.961 50.2773 178.906 50.7305 178.906 51.2148Z" fill="#888888"/>
<path d="M115.994 98.708V104.641H99.5806V98.708H115.994ZM102.151 86.0078V118H94.439V86.0078H102.151ZM121.18 86.0078V118H113.489V86.0078H121.18ZM124.805 106.354V105.893C124.805 104.15 125.054 102.546 125.552 101.081C126.05 99.6016 126.783 98.3198 127.75 97.2358C128.716 96.1519 129.91 95.3096 131.331 94.709C132.752 94.0938 134.393 93.7861 136.253 93.7861C138.128 93.7861 139.776 94.0938 141.197 94.709C142.632 95.3096 143.833 96.1519 144.8 97.2358C145.767 98.3198 146.5 99.6016 146.998 101.081C147.496 102.546 147.745 104.15 147.745 105.893V106.354C147.745 108.083 147.496 109.687 146.998 111.167C146.5 112.631 145.767 113.913 144.8 115.012C143.833 116.096 142.64 116.938 141.219 117.539C139.798 118.139 138.157 118.439 136.297 118.439C134.437 118.439 132.789 118.139 131.353 117.539C129.917 116.938 128.716 116.096 127.75 115.012C126.783 113.913 126.05 112.631 125.552 111.167C125.054 109.687 124.805 108.083 124.805 106.354ZM132.21 105.893V106.354C132.21 107.248 132.276 108.083 132.408 108.859C132.54 109.636 132.759 110.317 133.067 110.903C133.375 111.474 133.792 111.921 134.319 112.243C134.847 112.565 135.506 112.727 136.297 112.727C137.073 112.727 137.718 112.565 138.23 112.243C138.758 111.921 139.175 111.474 139.483 110.903C139.791 110.317 140.01 109.636 140.142 108.859C140.274 108.083 140.34 107.248 140.34 106.354V105.893C140.34 105.029 140.274 104.216 140.142 103.454C140.01 102.678 139.791 101.997 139.483 101.411C139.175 100.81 138.758 100.341 138.23 100.004C137.703 99.6675 137.044 99.499 136.253 99.499C135.477 99.499 134.825 99.6675 134.297 100.004C133.785 100.341 133.375 100.81 133.067 101.411C132.759 101.997 132.54 102.678 132.408 103.454C132.276 104.216 132.21 105.029 132.21 105.893ZM158.27 110.925L162.664 94.2256H167.3L165.652 102.597L161.302 118H157.588L158.27 110.925ZM156.534 94.2256L159.258 110.793L159.566 118H155.062L149.437 94.2256H156.534ZM171.211 110.441L173.958 94.2256H181.055L175.474 118H170.97L171.211 110.441ZM167.828 94.2256L172.266 110.881L172.947 118H169.19L164.927 102.641L163.345 94.2256H167.828ZM209.466 86.0078V118H201.753V86.0078H209.466ZM219.09 86.0078V91.9624H192.349V86.0078H219.09ZM216.475 106.354V105.893C216.475 104.15 216.724 102.546 217.222 101.081C217.72 99.6016 218.453 98.3198 219.419 97.2358C220.386 96.1519 221.58 95.3096 223.001 94.709C224.422 94.0938 226.062 93.7861 227.923 93.7861C229.798 93.7861 231.446 94.0938 232.867 94.709C234.302 95.3096 235.503 96.1519 236.47 97.2358C237.437 98.3198 238.169 99.6016 238.667 101.081C239.166 102.546 239.415 104.15 239.415 105.893V106.354C239.415 108.083 239.166 109.687 238.667 111.167C238.169 112.631 237.437 113.913 236.47 115.012C235.503 116.096 234.31 116.938 232.889 117.539C231.468 118.139 229.827 118.439 227.967 118.439C226.106 118.439 224.458 118.139 223.023 117.539C221.587 116.938 220.386 116.096 219.419 115.012C218.453 113.913 217.72 112.631 217.222 111.167C216.724 109.687 216.475 108.083 216.475 106.354ZM223.88 105.893V106.354C223.88 107.248 223.946 108.083 224.078 108.859C224.209 109.636 224.429 110.317 224.737 110.903C225.044 111.474 225.462 111.921 225.989 112.243C226.517 112.565 227.176 112.727 227.967 112.727C228.743 112.727 229.388 112.565 229.9 112.243C230.428 111.921 230.845 111.474 231.153 110.903C231.46 110.317 231.68 109.636 231.812 108.859C231.944 108.083 232.01 107.248 232.01 106.354V105.893C232.01 105.029 231.944 104.216 231.812 103.454C231.68 102.678 231.46 101.997 231.153 101.411C230.845 100.81 230.428 100.341 229.9 100.004C229.373 99.6675 228.714 99.499 227.923 99.499C227.146 99.499 226.495 99.6675 225.967 100.004C225.455 100.341 225.044 100.81 224.737 101.411C224.429 101.997 224.209 102.678 224.078 103.454C223.946 104.216 223.88 105.029 223.88 105.893ZM254.268 86.0078H266.858C269.319 86.0078 271.458 86.374 273.274 87.1064C275.091 87.8389 276.49 88.9229 277.471 90.3584C278.467 91.7939 278.965 93.5664 278.965 95.6758C278.965 97.5068 278.68 99.0376 278.108 100.268C277.537 101.499 276.739 102.517 275.713 103.322C274.703 104.113 273.523 104.765 272.176 105.278L269.649 106.706H259.08L259.036 100.751H266.858C267.84 100.751 268.653 100.576 269.297 100.224C269.942 99.8726 270.425 99.3745 270.748 98.73C271.084 98.0708 271.253 97.2871 271.253 96.3789C271.253 95.4561 271.084 94.665 270.748 94.0059C270.411 93.3467 269.913 92.8413 269.253 92.4897C268.609 92.1382 267.811 91.9624 266.858 91.9624H261.98V118H254.268V86.0078ZM271.78 118L264.705 103.85L272.879 103.806L280.042 117.67V118H271.78ZM297.159 112.221V94.2256H304.585V118H297.642L297.159 112.221ZM297.862 107.387L299.795 107.343C299.795 108.94 299.605 110.419 299.224 111.782C298.843 113.129 298.279 114.301 297.532 115.297C296.8 116.293 295.892 117.07 294.808 117.626C293.738 118.168 292.5 118.439 291.094 118.439C289.922 118.439 288.846 118.278 287.864 117.956C286.897 117.619 286.062 117.099 285.359 116.396C284.656 115.678 284.107 114.763 283.711 113.649C283.331 112.521 283.14 111.174 283.14 109.606V94.2256H290.545V109.65C290.545 110.178 290.611 110.632 290.743 111.013C290.875 111.394 291.065 111.716 291.314 111.979C291.563 112.229 291.871 112.419 292.237 112.551C292.618 112.668 293.05 112.727 293.533 112.727C294.646 112.727 295.518 112.492 296.148 112.023C296.778 111.555 297.217 110.917 297.466 110.112C297.73 109.306 297.862 108.398 297.862 107.387ZM315.945 99.3013V118H308.541V94.2256H315.484L315.945 99.3013ZM315.066 105.3L313.331 105.344C313.331 103.527 313.55 101.909 313.99 100.488C314.429 99.0522 315.052 97.8364 315.857 96.8403C316.663 95.8442 317.623 95.0898 318.736 94.5771C319.864 94.0498 321.116 93.7861 322.493 93.7861C323.592 93.7861 324.595 93.9473 325.503 94.2695C326.426 94.5918 327.217 95.1118 327.876 95.8296C328.55 96.5474 329.063 97.4995 329.415 98.686C329.781 99.8579 329.964 101.308 329.964 103.037V118H322.515V103.015C322.515 102.062 322.383 101.337 322.12 100.839C321.856 100.327 321.475 99.9751 320.977 99.7847C320.479 99.5942 319.871 99.499 319.153 99.499C318.392 99.499 317.747 99.6455 317.22 99.9385C316.692 100.231 316.268 100.642 315.945 101.169C315.638 101.682 315.411 102.29 315.264 102.993C315.132 103.696 315.066 104.465 315.066 105.3ZM345.85 107.871H339.544C339.544 106.582 339.632 105.446 339.808 104.465C339.998 103.469 340.32 102.575 340.774 101.784C341.229 100.993 341.844 100.261 342.62 99.5869C343.309 99.0156 343.902 98.4663 344.4 97.939C344.898 97.4116 345.279 96.877 345.542 96.335C345.806 95.793 345.938 95.2144 345.938 94.5991C345.938 93.8374 345.828 93.2148 345.608 92.7314C345.403 92.248 345.088 91.8892 344.664 91.6548C344.253 91.4058 343.733 91.2812 343.104 91.2812C342.591 91.2812 342.107 91.4058 341.653 91.6548C341.214 91.9038 340.855 92.292 340.577 92.8193C340.298 93.332 340.145 94.0132 340.115 94.8628H332.667C332.71 92.6802 333.194 90.9077 334.117 89.5454C335.054 88.1685 336.299 87.165 337.852 86.5352C339.419 85.8906 341.17 85.5684 343.104 85.5684C345.242 85.5684 347.081 85.8979 348.619 86.5571C350.157 87.2163 351.336 88.1978 352.156 89.5015C352.977 90.7905 353.387 92.3799 353.387 94.2695C353.387 95.5293 353.145 96.6279 352.662 97.5654C352.193 98.4883 351.556 99.3525 350.75 100.158C349.959 100.949 349.073 101.799 348.091 102.707C347.242 103.454 346.663 104.216 346.355 104.992C346.048 105.754 345.879 106.713 345.85 107.871ZM338.643 114.55C338.643 113.496 339.024 112.617 339.786 111.914C340.547 111.196 341.536 110.837 342.752 110.837C343.968 110.837 344.957 111.196 345.718 111.914C346.48 112.617 346.861 113.496 346.861 114.55C346.861 115.605 346.48 116.491 345.718 117.209C344.957 117.912 343.968 118.264 342.752 118.264C341.536 118.264 340.547 117.912 339.786 117.209C339.024 116.491 338.643 115.605 338.643 114.55Z" fill="#424241"/>
<path d="M1363 15C1363 6.71573 1356.28 0 1348 0H1134V167H1348C1356.28 167 1363 160.284 1363 152V15Z" fill="#1877F2"/>
<path d="M1260.77 81.3079C1263.96 81.3079 1267.09 82.2553 1269.74 84.0303C1272.4 85.8053 1274.47 88.3282 1275.69 91.2799C1276.92 94.2316 1277.24 97.4796 1276.61 100.613C1275.99 103.747 1274.45 106.625 1272.19 108.884C1269.93 111.143 1267.05 112.682 1263.92 113.305C1260.79 113.928 1257.54 113.608 1254.59 112.386C1251.64 111.163 1249.11 109.093 1247.34 106.436C1245.56 103.78 1244.62 100.657 1244.62 97.4617C1244.62 93.1774 1246.32 89.0686 1249.35 86.0392C1252.38 83.0098 1256.48 81.3079 1260.77 81.3079ZM1260.77 75.9233C1256.51 75.9233 1252.35 77.1865 1248.8 79.5532C1245.26 81.9198 1242.5 85.2837 1240.87 89.2193C1239.24 93.1549 1238.81 97.4856 1239.64 101.664C1240.48 105.842 1242.53 109.679 1245.54 112.692C1248.55 115.704 1252.39 117.755 1256.57 118.586C1260.75 119.417 1265.08 118.991 1269.01 117.361C1272.95 115.73 1276.31 112.97 1278.68 109.428C1281.04 105.886 1282.31 101.722 1282.31 97.4617C1282.31 91.7493 1280.04 86.271 1276 82.2317C1271.96 78.1925 1266.48 75.9233 1260.77 75.9233Z" fill="white"/>
<path d="M1274.23 49H1220.38C1218.96 49 1217.59 49.5673 1216.58 50.5771C1215.57 51.5869 1215 52.9565 1215 54.3846V108.231C1215 109.659 1215.57 111.028 1216.58 112.038C1217.59 113.048 1218.96 113.615 1220.38 113.615H1231.15V108.231H1220.38V70.5384H1279.62V54.3846C1279.62 52.9565 1279.05 51.5869 1278.04 50.5771C1277.03 49.5673 1275.66 49 1274.23 49ZM1220.38 65.1538V54.3846H1274.23V65.1538H1220.38Z" fill="white"/>
<path d="M1255.38 89.3849V105.539L1268.85 97.4618L1255.38 89.3849Z" fill="white"/>
</svg>
