<svg width="1363" height="167" viewBox="0 0 1363 167" fill="none" xmlns="http://www.w3.org/2000/svg">
<rect width="1363" height="167" rx="15" fill="#F0F0F0"/>
<path d="M0 15C0 6.71573 6.71573 0 15 0H37V167H15C6.71573 167 0 160.284 0 152V15Z" fill="#424241"/>
<path d="M100.906 50.9219L93.3945 48.2383V45.0859L103.602 49.375V51.6367L100.906 50.9219ZM93.3945 53.1719L100.918 50.4297L103.602 49.7852V52.0352L93.3945 56.3242V53.1719ZM122.867 55.2578V58H114.277V55.2578H122.867ZM115.414 40.9375V58H111.898V40.9375H115.414ZM128.234 45.3203V58H124.848V45.3203H128.234ZM124.637 42.0156C124.637 41.5234 124.809 41.1172 125.152 40.7969C125.496 40.4766 125.957 40.3164 126.535 40.3164C127.105 40.3164 127.562 40.4766 127.906 40.7969C128.258 41.1172 128.434 41.5234 128.434 42.0156C128.434 42.5078 128.258 42.9141 127.906 43.2344C127.562 43.5547 127.105 43.7148 126.535 43.7148C125.957 43.7148 125.496 43.5547 125.152 43.2344C124.809 42.9141 124.637 42.5078 124.637 42.0156ZM137.867 55.1406V49.4922C137.867 49.0859 137.801 48.7383 137.668 48.4492C137.535 48.1523 137.328 47.9219 137.047 47.7578C136.773 47.5938 136.418 47.5117 135.98 47.5117C135.605 47.5117 135.281 47.5781 135.008 47.7109C134.734 47.8359 134.523 48.0195 134.375 48.2617C134.227 48.4961 134.152 48.7734 134.152 49.0938H130.777C130.777 48.5547 130.902 48.043 131.152 47.5586C131.402 47.0742 131.766 46.6484 132.242 46.2812C132.719 45.9062 133.285 45.6133 133.941 45.4023C134.605 45.1914 135.348 45.0859 136.168 45.0859C137.152 45.0859 138.027 45.25 138.793 45.5781C139.559 45.9062 140.16 46.3984 140.598 47.0547C141.043 47.7109 141.266 48.5312 141.266 49.5156V54.9414C141.266 55.6367 141.309 56.207 141.395 56.6523C141.48 57.0898 141.605 57.4727 141.77 57.8008V58H138.359C138.195 57.6562 138.07 57.2266 137.984 56.7109C137.906 56.1875 137.867 55.6641 137.867 55.1406ZM138.312 50.2773L138.336 52.1875H136.449C136.004 52.1875 135.617 52.2383 135.289 52.3398C134.961 52.4414 134.691 52.5859 134.48 52.7734C134.27 52.9531 134.113 53.1641 134.012 53.4062C133.918 53.6484 133.871 53.9141 133.871 54.2031C133.871 54.4922 133.938 54.7539 134.07 54.9883C134.203 55.2148 134.395 55.3945 134.645 55.5273C134.895 55.6523 135.188 55.7148 135.523 55.7148C136.031 55.7148 136.473 55.6133 136.848 55.4102C137.223 55.207 137.512 54.957 137.715 54.6602C137.926 54.3633 138.035 54.082 138.043 53.8164L138.934 55.2461C138.809 55.5664 138.637 55.8984 138.418 56.2422C138.207 56.5859 137.938 56.9102 137.609 57.2148C137.281 57.5117 136.887 57.7578 136.426 57.9531C135.965 58.1406 135.418 58.2344 134.785 58.2344C133.98 58.2344 133.25 58.0742 132.594 57.7539C131.945 57.4258 131.43 56.9766 131.047 56.4062C130.672 55.8281 130.484 55.1719 130.484 54.4375C130.484 53.7734 130.609 53.1836 130.859 52.668C131.109 52.1523 131.477 51.7188 131.961 51.3672C132.453 51.0078 133.066 50.7383 133.801 50.5586C134.535 50.3711 135.387 50.2773 136.355 50.2773H138.312ZM147.43 45.3203V58H144.043V45.3203H147.43ZM143.832 42.0156C143.832 41.5234 144.004 41.1172 144.348 40.7969C144.691 40.4766 145.152 40.3164 145.73 40.3164C146.301 40.3164 146.758 40.4766 147.102 40.7969C147.453 41.1172 147.629 41.5234 147.629 42.0156C147.629 42.5078 147.453 42.9141 147.102 43.2344C146.758 43.5547 146.301 43.7148 145.73 43.7148C145.152 43.7148 144.691 43.5547 144.348 43.2344C144.004 42.9141 143.832 42.5078 143.832 42.0156ZM157.074 54.4961C157.074 54.2539 157.004 54.0352 156.863 53.8398C156.723 53.6445 156.461 53.4648 156.078 53.3008C155.703 53.1289 155.16 52.9727 154.449 52.832C153.809 52.6914 153.211 52.5156 152.656 52.3047C152.109 52.0859 151.633 51.8242 151.227 51.5195C150.828 51.2148 150.516 50.8555 150.289 50.4414C150.062 50.0195 149.949 49.5391 149.949 49C149.949 48.4688 150.062 47.9688 150.289 47.5C150.523 47.0312 150.855 46.6172 151.285 46.2578C151.723 45.8906 152.254 45.6055 152.879 45.4023C153.512 45.1914 154.223 45.0859 155.012 45.0859C156.113 45.0859 157.059 45.2617 157.848 45.6133C158.645 45.9648 159.254 46.4492 159.676 47.0664C160.105 47.6758 160.32 48.3711 160.32 49.1523H156.945C156.945 48.8242 156.875 48.5312 156.734 48.2734C156.602 48.0078 156.391 47.8008 156.102 47.6523C155.82 47.4961 155.453 47.418 155 47.418C154.625 47.418 154.301 47.4844 154.027 47.6172C153.754 47.7422 153.543 47.9141 153.395 48.1328C153.254 48.3438 153.184 48.5781 153.184 48.8359C153.184 49.0312 153.223 49.207 153.301 49.3633C153.387 49.5117 153.523 49.6484 153.711 49.7734C153.898 49.8984 154.141 50.0156 154.438 50.125C154.742 50.2266 155.117 50.3203 155.562 50.4062C156.477 50.5938 157.293 50.8398 158.012 51.1445C158.73 51.4414 159.301 51.8477 159.723 52.3633C160.145 52.8711 160.355 53.5391 160.355 54.3672C160.355 54.9297 160.23 55.4453 159.98 55.9141C159.73 56.3828 159.371 56.793 158.902 57.1445C158.434 57.4883 157.871 57.7578 157.215 57.9531C156.566 58.1406 155.836 58.2344 155.023 58.2344C153.844 58.2344 152.844 58.0234 152.023 57.6016C151.211 57.1797 150.594 56.6445 150.172 55.9961C149.758 55.3398 149.551 54.668 149.551 53.9805H152.75C152.766 54.4414 152.883 54.8125 153.102 55.0938C153.328 55.375 153.613 55.5781 153.957 55.7031C154.309 55.8281 154.688 55.8906 155.094 55.8906C155.531 55.8906 155.895 55.832 156.184 55.7148C156.473 55.5898 156.691 55.4258 156.84 55.2227C156.996 55.0117 157.074 54.7695 157.074 54.4961ZM162.008 51.7891V51.543C162.008 50.6133 162.141 49.7578 162.406 48.9766C162.672 48.1875 163.059 47.5039 163.566 46.9258C164.074 46.3477 164.699 45.8984 165.441 45.5781C166.184 45.25 167.035 45.0859 167.996 45.0859C168.957 45.0859 169.812 45.25 170.562 45.5781C171.312 45.8984 171.941 46.3477 172.449 46.9258C172.965 47.5039 173.355 48.1875 173.621 48.9766C173.887 49.7578 174.02 50.6133 174.02 51.543V51.7891C174.02 52.7109 173.887 53.5664 173.621 54.3555C173.355 55.1367 172.965 55.8203 172.449 56.4062C171.941 56.9844 171.316 57.4336 170.574 57.7539C169.832 58.0742 168.98 58.2344 168.02 58.2344C167.059 58.2344 166.203 58.0742 165.453 57.7539C164.711 57.4336 164.082 56.9844 163.566 56.4062C163.059 55.8203 162.672 55.1367 162.406 54.3555C162.141 53.5664 162.008 52.7109 162.008 51.7891ZM165.383 51.543V51.7891C165.383 52.3203 165.43 52.8164 165.523 53.2773C165.617 53.7383 165.766 54.1445 165.969 54.4961C166.18 54.8398 166.453 55.1094 166.789 55.3047C167.125 55.5 167.535 55.5977 168.02 55.5977C168.488 55.5977 168.891 55.5 169.227 55.3047C169.562 55.1094 169.832 54.8398 170.035 54.4961C170.238 54.1445 170.387 53.7383 170.48 53.2773C170.582 52.8164 170.633 52.3203 170.633 51.7891V51.543C170.633 51.0273 170.582 50.543 170.48 50.0898C170.387 49.6289 170.234 49.2227 170.023 48.8711C169.82 48.5117 169.551 48.2305 169.215 48.0273C168.879 47.8242 168.473 47.7227 167.996 47.7227C167.52 47.7227 167.113 47.8242 166.777 48.0273C166.449 48.2305 166.18 48.5117 165.969 48.8711C165.766 49.2227 165.617 49.6289 165.523 50.0898C165.43 50.543 165.383 51.0273 165.383 51.543ZM179.398 48.0273V58H176.023V45.3203H179.188L179.398 48.0273ZM178.906 51.2148H177.992C177.992 50.2773 178.113 49.4336 178.355 48.6836C178.598 47.9258 178.938 47.2812 179.375 46.75C179.812 46.2109 180.332 45.8008 180.934 45.5195C181.543 45.2305 182.223 45.0859 182.973 45.0859C183.566 45.0859 184.109 45.1719 184.602 45.3438C185.094 45.5156 185.516 45.7891 185.867 46.1641C186.227 46.5391 186.5 47.0352 186.688 47.6523C186.883 48.2695 186.98 49.0234 186.98 49.9141V58H183.582V49.9023C183.582 49.3398 183.504 48.9023 183.348 48.5898C183.191 48.2773 182.961 48.0586 182.656 47.9336C182.359 47.8008 181.992 47.7344 181.555 47.7344C181.102 47.7344 180.707 47.8242 180.371 48.0039C180.043 48.1836 179.77 48.4336 179.551 48.7539C179.34 49.0664 179.18 49.4336 179.07 49.8555C178.961 50.2773 178.906 50.7305 178.906 51.2148Z" fill="#888888"/>
<path d="M109.93 86.0078V118H102.217V86.0078H109.93ZM119.554 86.0078V91.9624H92.813V86.0078H119.554ZM132.012 118.439C130.079 118.439 128.35 118.139 126.827 117.539C125.303 116.923 124.014 116.081 122.959 115.012C121.919 113.942 121.121 112.712 120.564 111.32C120.022 109.929 119.751 108.457 119.751 106.904V106.069C119.751 104.326 119.993 102.714 120.477 101.235C120.96 99.7407 121.678 98.437 122.63 97.3237C123.582 96.2104 124.776 95.3462 126.211 94.731C127.647 94.1011 129.317 93.7861 131.221 93.7861C132.906 93.7861 134.415 94.0571 135.748 94.5991C137.081 95.1411 138.208 95.9175 139.131 96.9282C140.069 97.939 140.779 99.1621 141.263 100.598C141.761 102.033 142.01 103.645 142.01 105.432V108.442H122.586V103.806H134.781V103.234C134.795 102.443 134.656 101.77 134.363 101.213C134.085 100.656 133.675 100.231 133.133 99.9385C132.591 99.6455 131.932 99.499 131.155 99.499C130.35 99.499 129.683 99.6748 129.156 100.026C128.643 100.378 128.24 100.861 127.947 101.477C127.669 102.077 127.471 102.773 127.354 103.564C127.237 104.355 127.178 105.19 127.178 106.069V106.904C127.178 107.783 127.295 108.581 127.53 109.299C127.779 110.017 128.13 110.632 128.584 111.145C129.053 111.643 129.61 112.031 130.254 112.309C130.914 112.587 131.661 112.727 132.496 112.727C133.506 112.727 134.502 112.536 135.484 112.155C136.465 111.774 137.308 111.145 138.011 110.266L141.373 114.265C140.889 114.953 140.201 115.62 139.307 116.264C138.428 116.909 137.374 117.436 136.143 117.846C134.913 118.242 133.536 118.439 132.012 118.439ZM155.062 112.727C155.75 112.727 156.336 112.602 156.819 112.353C157.317 112.089 157.691 111.723 157.94 111.254C158.204 110.771 158.328 110.192 158.313 109.519H165.279C165.293 111.306 164.854 112.873 163.96 114.221C163.082 115.554 161.88 116.594 160.357 117.341C158.848 118.073 157.142 118.439 155.237 118.439C153.377 118.439 151.751 118.139 150.359 117.539C148.968 116.923 147.803 116.074 146.866 114.99C145.943 113.891 145.247 112.609 144.778 111.145C144.324 109.68 144.097 108.09 144.097 106.376V105.871C144.097 104.157 144.324 102.568 144.778 101.103C145.247 99.6235 145.943 98.3418 146.866 97.2578C147.803 96.1592 148.96 95.3096 150.337 94.709C151.729 94.0938 153.348 93.7861 155.193 93.7861C157.171 93.7861 158.914 94.1597 160.423 94.9067C161.946 95.6538 163.14 96.7378 164.004 98.1587C164.869 99.5796 165.293 101.301 165.279 103.322H158.313C158.328 102.604 158.218 101.96 157.984 101.389C157.75 100.817 157.383 100.363 156.885 100.026C156.402 99.6748 155.779 99.499 155.018 99.499C154.256 99.499 153.641 99.6675 153.172 100.004C152.703 100.341 152.344 100.81 152.095 101.411C151.861 101.997 151.7 102.67 151.612 103.432C151.539 104.194 151.502 105.007 151.502 105.871V106.376C151.502 107.255 151.539 108.083 151.612 108.859C151.7 109.621 151.868 110.295 152.117 110.881C152.366 111.452 152.725 111.906 153.194 112.243C153.663 112.565 154.285 112.727 155.062 112.727ZM175.694 84.25V118H168.289V84.25H175.694ZM174.815 105.3L173.079 105.344C173.079 103.674 173.284 102.136 173.694 100.729C174.104 99.3232 174.69 98.1001 175.452 97.0601C176.214 96.02 177.129 95.2144 178.199 94.6431C179.268 94.0718 180.455 93.7861 181.758 93.7861C182.93 93.7861 184 93.9546 184.966 94.2915C185.948 94.6284 186.79 95.1704 187.493 95.9175C188.211 96.6646 188.76 97.6387 189.141 98.8398C189.537 100.041 189.734 101.506 189.734 103.234V118H182.286V103.19C182.286 102.224 182.146 101.477 181.868 100.949C181.604 100.407 181.224 100.034 180.726 99.8286C180.228 99.6089 179.62 99.499 178.902 99.499C178.038 99.499 177.334 99.6455 176.792 99.9385C176.25 100.231 175.833 100.642 175.54 101.169C175.262 101.682 175.071 102.29 174.969 102.993C174.866 103.696 174.815 104.465 174.815 105.3ZM221.88 109.497C221.88 108.999 221.807 108.552 221.661 108.156C221.514 107.746 221.243 107.365 220.848 107.014C220.452 106.662 219.881 106.311 219.134 105.959C218.401 105.593 217.435 105.212 216.233 104.816C214.827 104.348 213.472 103.82 212.168 103.234C210.865 102.634 209.7 101.938 208.675 101.147C207.649 100.341 206.836 99.4038 206.236 98.3345C205.635 97.2505 205.335 95.9907 205.335 94.5552C205.335 93.1782 205.643 91.9404 206.258 90.8418C206.873 89.7285 207.73 88.7837 208.829 88.0073C209.942 87.2163 211.246 86.6157 212.74 86.2056C214.234 85.7808 215.867 85.5684 217.64 85.5684C219.983 85.5684 222.049 85.9785 223.836 86.7988C225.638 87.6045 227.044 88.7544 228.055 90.2485C229.08 91.728 229.593 93.4785 229.593 95.5H221.924C221.924 94.6943 221.756 93.9839 221.419 93.3687C221.097 92.7534 220.606 92.27 219.947 91.9185C219.288 91.5669 218.46 91.3911 217.464 91.3911C216.497 91.3911 215.684 91.5376 215.025 91.8306C214.366 92.1235 213.868 92.519 213.531 93.0171C213.194 93.5005 213.025 94.0352 213.025 94.6211C213.025 95.1045 213.157 95.5439 213.421 95.9395C213.699 96.3203 214.087 96.6792 214.585 97.0161C215.098 97.353 215.713 97.6753 216.431 97.9829C217.164 98.2905 217.984 98.5908 218.892 98.8838C220.591 99.4258 222.1 100.034 223.418 100.708C224.751 101.367 225.872 102.121 226.78 102.971C227.703 103.806 228.399 104.758 228.868 105.827C229.351 106.896 229.593 108.105 229.593 109.453C229.593 110.888 229.314 112.163 228.758 113.276C228.201 114.389 227.403 115.334 226.363 116.11C225.323 116.872 224.078 117.451 222.627 117.846C221.177 118.242 219.559 118.439 217.771 118.439C216.131 118.439 214.512 118.234 212.916 117.824C211.333 117.399 209.898 116.755 208.609 115.891C207.32 115.012 206.287 113.891 205.511 112.529C204.749 111.152 204.368 109.519 204.368 107.629H212.103C212.103 108.566 212.227 109.357 212.476 110.002C212.725 110.646 213.091 111.167 213.575 111.562C214.058 111.943 214.651 112.221 215.354 112.397C216.058 112.558 216.863 112.639 217.771 112.639C218.753 112.639 219.544 112.5 220.145 112.221C220.745 111.928 221.185 111.547 221.463 111.079C221.741 110.595 221.88 110.068 221.88 109.497ZM245.743 94.2256V99.3672H231.417V94.2256H245.743ZM234.427 88.3149H241.832V110.244C241.832 110.874 241.905 111.364 242.051 111.716C242.198 112.053 242.447 112.294 242.798 112.441C243.165 112.573 243.648 112.639 244.249 112.639C244.673 112.639 245.025 112.631 245.303 112.617C245.582 112.587 245.845 112.551 246.094 112.507V117.802C245.464 118.007 244.805 118.161 244.117 118.264C243.428 118.381 242.696 118.439 241.919 118.439C240.337 118.439 238.982 118.19 237.854 117.692C236.741 117.194 235.892 116.411 235.306 115.341C234.72 114.272 234.427 112.88 234.427 111.167V88.3149ZM261.036 112.023V102.224C261.036 101.55 260.94 100.971 260.75 100.488C260.56 100.004 260.259 99.6309 259.849 99.3672C259.439 99.0889 258.89 98.9497 258.201 98.9497C257.645 98.9497 257.168 99.0449 256.773 99.2354C256.377 99.4258 256.077 99.7114 255.872 100.092C255.667 100.473 255.564 100.957 255.564 101.542H248.16C248.16 100.444 248.401 99.4258 248.885 98.4883C249.383 97.5361 250.086 96.7085 250.994 96.0054C251.917 95.3022 253.016 94.7603 254.29 94.3794C255.579 93.9839 257.015 93.7861 258.597 93.7861C260.486 93.7861 262.171 94.1011 263.65 94.731C265.145 95.3608 266.324 96.3057 267.188 97.5654C268.052 98.8105 268.484 100.378 268.484 102.268V112.001C268.484 113.554 268.572 114.733 268.748 115.539C268.924 116.33 269.173 117.026 269.495 117.626V118H262.068C261.717 117.268 261.453 116.374 261.277 115.319C261.116 114.25 261.036 113.151 261.036 112.023ZM261.937 103.476L261.98 107.431H258.707C258.018 107.431 257.432 107.526 256.949 107.717C256.48 107.907 256.099 108.171 255.806 108.508C255.528 108.83 255.323 109.196 255.191 109.606C255.074 110.017 255.015 110.449 255.015 110.903C255.015 111.342 255.118 111.738 255.323 112.089C255.542 112.426 255.835 112.69 256.202 112.88C256.568 113.071 256.978 113.166 257.432 113.166C258.252 113.166 258.948 113.012 259.52 112.705C260.105 112.382 260.552 111.994 260.86 111.54C261.167 111.086 261.321 110.661 261.321 110.266L262.947 113.298C262.654 113.884 262.317 114.477 261.937 115.078C261.57 115.678 261.109 116.235 260.552 116.748C260.01 117.246 259.344 117.656 258.553 117.978C257.762 118.286 256.802 118.439 255.674 118.439C254.209 118.439 252.862 118.139 251.631 117.539C250.416 116.938 249.441 116.103 248.709 115.034C247.977 113.95 247.61 112.705 247.61 111.298C247.61 110.068 247.83 108.969 248.27 108.002C248.724 107.036 249.405 106.215 250.313 105.542C251.221 104.868 252.378 104.355 253.785 104.003C255.191 103.652 256.846 103.476 258.75 103.476H261.937ZM282.635 112.727C283.323 112.727 283.909 112.602 284.393 112.353C284.891 112.089 285.264 111.723 285.513 111.254C285.777 110.771 285.901 110.192 285.887 109.519H292.852C292.867 111.306 292.427 112.873 291.534 114.221C290.655 115.554 289.454 116.594 287.93 117.341C286.421 118.073 284.715 118.439 282.811 118.439C280.95 118.439 279.324 118.139 277.933 117.539C276.541 116.923 275.376 116.074 274.439 114.99C273.516 113.891 272.82 112.609 272.352 111.145C271.897 109.68 271.67 108.09 271.67 106.376V105.871C271.67 104.157 271.897 102.568 272.352 101.103C272.82 99.6235 273.516 98.3418 274.439 97.2578C275.376 96.1592 276.534 95.3096 277.911 94.709C279.302 94.0938 280.921 93.7861 282.767 93.7861C284.744 93.7861 286.487 94.1597 287.996 94.9067C289.52 95.6538 290.713 96.7378 291.578 98.1587C292.442 99.5796 292.867 101.301 292.852 103.322H285.887C285.901 102.604 285.792 101.96 285.557 101.389C285.323 100.817 284.957 100.363 284.458 100.026C283.975 99.6748 283.353 99.499 282.591 99.499C281.829 99.499 281.214 99.6675 280.745 100.004C280.276 100.341 279.917 100.81 279.668 101.411C279.434 101.997 279.273 102.67 279.185 103.432C279.112 104.194 279.075 105.007 279.075 105.871V106.376C279.075 107.255 279.112 108.083 279.185 108.859C279.273 109.621 279.441 110.295 279.69 110.881C279.939 111.452 280.298 111.906 280.767 112.243C281.236 112.565 281.858 112.727 282.635 112.727ZM303.487 84.228V118H296.082V84.228H303.487ZM318.692 94.2256L308.365 106.333L302.959 111.738L299.729 107.036L304.234 101.169L309.815 94.2256H318.692ZM310.76 118L304.41 107.167L309.881 103.278L319.241 118H310.76Z" fill="#424241"/>
<path d="M1363 15C1363 6.71573 1356.28 0 1348 0H1134V167H1348C1356.28 167 1363 160.284 1363 152V15Z" fill="#1877F2"/>
<path fill-rule="evenodd" clip-rule="evenodd" d="M1218.5 55C1218.37 55 1218.24 55.0527 1218.15 55.1464C1218.05 55.2402 1218 55.3674 1218 55.5V111.5C1218 111.633 1218.05 111.76 1218.15 111.854C1218.24 111.947 1218.37 112 1218.5 112H1278C1278.13 112 1278.26 111.947 1278.35 111.854C1278.45 111.76 1278.5 111.633 1278.5 111.5V66C1278.5 65.8674 1278.45 65.7402 1278.35 65.6464C1278.26 65.5527 1278.13 65.5 1278 65.5H1248.25C1247.36 65.5 1246.52 65.1045 1245.95 64.4206L1238.09 55H1218.5ZM1213.9 50.9038C1215.12 49.6848 1216.78 49 1218.5 49H1239.5C1240.39 49 1241.23 49.3955 1241.8 50.0794L1249.66 59.5H1278C1279.72 59.5 1281.38 60.1848 1282.6 61.4038C1283.82 62.6228 1284.5 64.2761 1284.5 66V111.5C1284.5 113.224 1283.82 114.877 1282.6 116.096C1281.38 117.315 1279.72 118 1278 118H1218.5C1216.78 118 1215.12 117.315 1213.9 116.096C1212.68 114.877 1212 113.224 1212 111.5V55.5C1212 53.7761 1212.68 52.1228 1213.9 50.9038Z" fill="white"/>
<path fill-rule="evenodd" clip-rule="evenodd" d="M1243.72 77.5251C1245.09 78.892 1245.09 81.108 1243.72 82.4749L1237.45 88.75L1243.72 95.0251C1245.09 96.392 1245.09 98.608 1243.72 99.9749C1242.36 101.342 1240.14 101.342 1238.78 99.9749L1230.03 91.2249C1228.66 89.858 1228.66 87.642 1230.03 86.2751L1238.78 77.5251C1240.14 76.1583 1242.36 76.1583 1243.72 77.5251Z" fill="white"/>
<path fill-rule="evenodd" clip-rule="evenodd" d="M1252.03 99.9749C1250.66 98.608 1250.66 96.392 1252.03 95.0251L1258.3 88.75L1252.03 82.4749C1250.66 81.108 1250.66 78.892 1252.03 77.5251C1253.39 76.1583 1255.61 76.1583 1256.97 77.5251L1265.72 86.2751C1267.09 87.642 1267.09 89.858 1265.72 91.2249L1256.97 99.9749C1255.61 101.342 1253.39 101.342 1252.03 99.9749Z" fill="white"/>
</svg>
