<svg width="1363" height="301" viewBox="0 0 1363 301" fill="none" xmlns="http://www.w3.org/2000/svg">
<rect width="1363" height="301" rx="15" fill="#F0F0F0"/>
<path d="M0 15C0 6.71573 6.71573 0 15 0H37V301H15C6.71573 301 0 294.284 0 286V15Z" fill="#1877F2"/>
<path d="M120.816 136.749V144H101.05V136.749H120.816ZM104.407 104.898V144H94.981V104.898H104.407ZM133.921 114.942V144H124.844V114.942H133.921ZM124.307 107.45C124.307 106.161 124.773 105.104 125.704 104.281C126.635 103.457 127.843 103.045 129.329 103.045C130.815 103.045 132.024 103.457 132.955 104.281C133.886 105.104 134.351 106.161 134.351 107.45C134.351 108.739 133.886 109.795 132.955 110.619C132.024 111.442 130.815 111.854 129.329 111.854C127.843 111.854 126.635 111.442 125.704 110.619C124.773 109.795 124.307 108.739 124.307 107.45ZM154.6 136.695V124.718C154.6 123.894 154.484 123.187 154.251 122.596C154.018 122.005 153.651 121.549 153.15 121.227C152.649 120.886 151.977 120.716 151.136 120.716C150.455 120.716 149.874 120.833 149.39 121.065C148.907 121.298 148.54 121.647 148.289 122.113C148.038 122.578 147.913 123.169 147.913 123.885H138.863C138.863 122.542 139.158 121.298 139.749 120.152C140.358 118.989 141.217 117.977 142.327 117.118C143.455 116.258 144.798 115.596 146.355 115.13C147.931 114.647 149.686 114.405 151.619 114.405C153.929 114.405 155.988 114.79 157.796 115.56C159.622 116.33 161.063 117.485 162.12 119.024C163.176 120.546 163.704 122.462 163.704 124.771V136.668C163.704 138.566 163.812 140.007 164.026 140.992C164.241 141.959 164.546 142.809 164.939 143.543V144H155.862C155.433 143.105 155.11 142.013 154.896 140.724C154.699 139.417 154.6 138.074 154.6 136.695ZM155.701 126.249L155.755 131.083H151.753C150.912 131.083 150.196 131.199 149.605 131.432C149.032 131.664 148.567 131.987 148.208 132.398C147.868 132.792 147.618 133.24 147.457 133.741C147.313 134.243 147.242 134.771 147.242 135.326C147.242 135.863 147.367 136.346 147.618 136.776C147.886 137.188 148.244 137.51 148.692 137.743C149.139 137.975 149.641 138.092 150.196 138.092C151.198 138.092 152.049 137.904 152.747 137.528C153.463 137.134 154.009 136.66 154.385 136.104C154.761 135.549 154.949 135.03 154.949 134.547L156.937 138.253C156.578 138.969 156.167 139.694 155.701 140.428C155.254 141.162 154.69 141.843 154.009 142.469C153.347 143.078 152.532 143.579 151.565 143.973C150.599 144.349 149.426 144.537 148.047 144.537C146.257 144.537 144.61 144.17 143.106 143.436C141.62 142.702 140.429 141.681 139.534 140.375C138.639 139.05 138.191 137.528 138.191 135.809C138.191 134.305 138.46 132.962 138.997 131.781C139.552 130.599 140.385 129.597 141.495 128.773C142.605 127.949 144.019 127.323 145.738 126.893C147.457 126.463 149.48 126.249 151.807 126.249H155.701ZM178.287 114.942V144H169.209V114.942H178.287ZM168.672 107.45C168.672 106.161 169.138 105.104 170.069 104.281C171 103.457 172.208 103.045 173.694 103.045C175.18 103.045 176.389 103.457 177.32 104.281C178.251 105.104 178.716 106.161 178.716 107.45C178.716 108.739 178.251 109.795 177.32 110.619C176.389 111.442 175.18 111.854 173.694 111.854C172.208 111.854 171 111.442 170.069 110.619C169.138 109.795 168.672 108.739 168.672 107.45ZM199.1 135.836C199.1 135.335 198.93 134.905 198.589 134.547C198.267 134.171 197.694 133.831 196.871 133.526C196.047 133.204 194.892 132.882 193.406 132.56C191.992 132.255 190.658 131.852 189.405 131.351C188.169 130.85 187.086 130.241 186.155 129.525C185.224 128.809 184.49 127.958 183.953 126.974C183.434 125.989 183.174 124.861 183.174 123.59C183.174 122.354 183.434 121.191 183.953 120.099C184.49 118.989 185.269 118.013 186.29 117.171C187.328 116.312 188.59 115.641 190.076 115.157C191.562 114.656 193.254 114.405 195.152 114.405C197.766 114.405 200.022 114.808 201.919 115.614C203.817 116.402 205.276 117.512 206.297 118.944C207.335 120.358 207.854 121.996 207.854 123.858H198.804C198.804 123.124 198.679 122.498 198.428 121.979C198.195 121.459 197.811 121.065 197.273 120.797C196.736 120.51 196.02 120.367 195.125 120.367C194.498 120.367 193.925 120.484 193.406 120.716C192.905 120.949 192.502 121.271 192.198 121.683C191.893 122.095 191.741 122.578 191.741 123.133C191.741 123.527 191.831 123.885 192.01 124.208C192.207 124.512 192.502 124.798 192.896 125.067C193.29 125.318 193.791 125.55 194.4 125.765C195.009 125.962 195.743 126.141 196.602 126.302C198.554 126.66 200.38 127.171 202.081 127.833C203.781 128.495 205.16 129.435 206.216 130.653C207.291 131.87 207.828 133.508 207.828 135.567C207.828 136.856 207.532 138.047 206.941 139.139C206.351 140.213 205.5 141.162 204.39 141.986C203.28 142.792 201.946 143.418 200.389 143.866C198.831 144.313 197.076 144.537 195.125 144.537C192.35 144.537 190.005 144.045 188.089 143.06C186.173 142.057 184.723 140.804 183.738 139.3C182.771 137.778 182.288 136.239 182.288 134.681H190.721C190.757 135.576 190.971 136.31 191.365 136.883C191.777 137.456 192.323 137.877 193.003 138.146C193.684 138.414 194.472 138.548 195.367 138.548C196.19 138.548 196.871 138.432 197.408 138.199C197.963 137.966 198.383 137.653 198.67 137.259C198.956 136.847 199.1 136.373 199.1 135.836ZM210.943 129.767V129.203C210.943 127.072 211.247 125.112 211.856 123.321C212.465 121.513 213.36 119.946 214.542 118.622C215.723 117.297 217.182 116.267 218.919 115.533C220.656 114.781 222.661 114.405 224.935 114.405C227.226 114.405 229.24 114.781 230.977 115.533C232.732 116.267 234.2 117.297 235.381 118.622C236.563 119.946 237.458 121.513 238.067 123.321C238.676 125.112 238.98 127.072 238.98 129.203V129.767C238.98 131.879 238.676 133.84 238.067 135.648C237.458 137.438 236.563 139.005 235.381 140.348C234.2 141.673 232.741 142.702 231.004 143.436C229.267 144.17 227.262 144.537 224.988 144.537C222.715 144.537 220.7 144.17 218.946 143.436C217.191 142.702 215.723 141.673 214.542 140.348C213.36 139.005 212.465 137.438 211.856 135.648C211.247 133.84 210.943 131.879 210.943 129.767ZM219.993 129.203V129.767C219.993 130.859 220.074 131.879 220.235 132.828C220.396 133.777 220.665 134.61 221.041 135.326C221.417 136.024 221.927 136.57 222.571 136.964C223.216 137.358 224.021 137.555 224.988 137.555C225.937 137.555 226.725 137.358 227.352 136.964C227.996 136.57 228.506 136.024 228.882 135.326C229.258 134.61 229.527 133.777 229.688 132.828C229.849 131.879 229.93 130.859 229.93 129.767V129.203C229.93 128.146 229.849 127.153 229.688 126.222C229.527 125.273 229.258 124.44 228.882 123.724C228.506 122.99 227.996 122.417 227.352 122.005C226.707 121.594 225.901 121.388 224.935 121.388C223.986 121.388 223.189 121.594 222.544 122.005C221.918 122.417 221.417 122.99 221.041 123.724C220.665 124.44 220.396 125.273 220.235 126.222C220.074 127.153 219.993 128.146 219.993 129.203ZM251.897 121.146V144H242.847V114.942H251.333L251.897 121.146ZM250.823 128.478L248.702 128.531C248.702 126.311 248.97 124.333 249.507 122.596C250.044 120.842 250.805 119.356 251.79 118.138C252.775 116.921 253.947 115.999 255.308 115.372C256.687 114.728 258.217 114.405 259.9 114.405C261.243 114.405 262.47 114.602 263.58 114.996C264.708 115.39 265.674 116.026 266.48 116.903C267.304 117.78 267.93 118.944 268.36 120.394C268.807 121.826 269.031 123.599 269.031 125.711V144H259.927V125.685C259.927 124.521 259.766 123.635 259.444 123.026C259.122 122.399 258.656 121.97 258.047 121.737C257.439 121.504 256.696 121.388 255.818 121.388C254.887 121.388 254.1 121.567 253.455 121.925C252.811 122.283 252.291 122.784 251.897 123.429C251.521 124.055 251.244 124.798 251.065 125.658C250.904 126.517 250.823 127.457 250.823 128.478Z" fill="black"/>
<path d="M96.563 55.1172H100.904L107.295 73.3862L113.687 55.1172H118.028L109.039 80H105.552L96.563 55.1172ZM94.2217 55.1172H98.5454L99.3315 72.9248V80H94.2217V55.1172ZM116.045 55.1172H120.386V80H115.259V72.9248L116.045 55.1172ZM123.787 70.9424V70.5835C123.787 69.2277 123.981 67.9801 124.368 66.8408C124.756 65.6901 125.319 64.6932 126.06 63.8501C126.801 63.007 127.712 62.3519 128.794 61.8848C129.877 61.4062 131.119 61.167 132.52 61.167C133.921 61.167 135.169 61.4062 136.263 61.8848C137.356 62.3519 138.274 63.007 139.014 63.8501C139.766 64.6932 140.336 65.6901 140.723 66.8408C141.111 67.9801 141.304 69.2277 141.304 70.5835V70.9424C141.304 72.2868 141.111 73.5343 140.723 74.6851C140.336 75.8244 139.766 76.8213 139.014 77.6758C138.274 78.5189 137.362 79.174 136.28 79.6411C135.197 80.1082 133.956 80.3418 132.554 80.3418C131.153 80.3418 129.905 80.1082 128.812 79.6411C127.729 79.174 126.812 78.5189 126.06 77.6758C125.319 76.8213 124.756 75.8244 124.368 74.6851C123.981 73.5343 123.787 72.2868 123.787 70.9424ZM128.709 70.5835V70.9424C128.709 71.7171 128.777 72.4406 128.914 73.1128C129.051 73.785 129.267 74.3774 129.563 74.8901C129.871 75.3914 130.27 75.7845 130.76 76.0693C131.25 76.3542 131.848 76.4966 132.554 76.4966C133.238 76.4966 133.825 76.3542 134.314 76.0693C134.804 75.7845 135.197 75.3914 135.494 74.8901C135.79 74.3774 136.006 73.785 136.143 73.1128C136.291 72.4406 136.365 71.7171 136.365 70.9424V70.5835C136.365 69.8315 136.291 69.1252 136.143 68.4644C136.006 67.7922 135.784 67.1997 135.477 66.687C135.18 66.1629 134.787 65.7528 134.297 65.4565C133.807 65.1603 133.215 65.0122 132.52 65.0122C131.825 65.0122 131.233 65.1603 130.743 65.4565C130.264 65.7528 129.871 66.1629 129.563 66.687C129.267 67.1997 129.051 67.7922 128.914 68.4644C128.777 69.1252 128.709 69.8315 128.709 70.5835ZM149.131 53.75V80H144.209V53.75H149.131ZM148.431 70.105H147.081C147.092 68.8175 147.263 67.6326 147.593 66.5503C147.924 65.4565 148.396 64.5109 149.012 63.7134C149.627 62.9045 150.362 62.2778 151.216 61.8335C152.082 61.3892 153.039 61.167 154.087 61.167C154.999 61.167 155.825 61.298 156.565 61.5601C157.317 61.8107 157.961 62.2209 158.497 62.7905C159.043 63.3488 159.465 64.0837 159.761 64.9951C160.057 65.9066 160.206 67.0117 160.206 68.3105V80H155.25V68.2764C155.25 67.4561 155.13 66.8123 154.891 66.3452C154.663 65.8667 154.327 65.5306 153.882 65.3369C153.449 65.1318 152.914 65.0293 152.276 65.0293C151.569 65.0293 150.966 65.1603 150.464 65.4224C149.974 65.6844 149.581 66.049 149.285 66.5161C148.989 66.9718 148.772 67.5073 148.636 68.1226C148.499 68.7378 148.431 69.3986 148.431 70.105ZM173.929 75.8301V67.5928C173.929 67.0003 173.832 66.4933 173.638 66.0718C173.444 65.6388 173.143 65.3027 172.732 65.0635C172.334 64.8242 171.815 64.7046 171.177 64.7046C170.63 64.7046 170.158 64.8014 169.759 64.9951C169.36 65.1774 169.052 65.4451 168.836 65.7983C168.619 66.1401 168.511 66.5446 168.511 67.0117H163.589C163.589 66.2256 163.772 65.4793 164.136 64.7729C164.501 64.0666 165.031 63.4456 165.726 62.9102C166.421 62.3633 167.247 61.936 168.204 61.6284C169.172 61.3208 170.254 61.167 171.451 61.167C172.886 61.167 174.162 61.4062 175.279 61.8848C176.395 62.3633 177.273 63.0811 177.911 64.0381C178.56 64.9951 178.885 66.1914 178.885 67.627V75.5396C178.885 76.5535 178.947 77.3853 179.073 78.0347C179.198 78.6727 179.38 79.231 179.62 79.7095V80H174.646C174.407 79.4987 174.225 78.8721 174.1 78.1201C173.986 77.3568 173.929 76.5934 173.929 75.8301ZM174.578 68.7378L174.612 71.5234H171.861C171.211 71.5234 170.647 71.5975 170.169 71.7456C169.69 71.8937 169.297 72.1045 168.99 72.3779C168.682 72.64 168.454 72.9476 168.306 73.3008C168.169 73.654 168.101 74.0413 168.101 74.4629C168.101 74.8844 168.198 75.2661 168.392 75.6079C168.585 75.9383 168.864 76.2004 169.229 76.394C169.594 76.5763 170.021 76.6675 170.511 76.6675C171.251 76.6675 171.895 76.5194 172.442 76.2231C172.989 75.9269 173.41 75.5623 173.707 75.1294C174.014 74.6965 174.174 74.2863 174.185 73.8989L175.484 75.9839C175.302 76.451 175.051 76.9352 174.732 77.4365C174.424 77.9378 174.031 78.4106 173.553 78.855C173.074 79.2879 172.499 79.6468 171.827 79.9316C171.154 80.2051 170.357 80.3418 169.434 80.3418C168.261 80.3418 167.195 80.1082 166.238 79.6411C165.293 79.1626 164.541 78.5075 163.982 77.6758C163.436 76.8327 163.162 75.8757 163.162 74.8047C163.162 73.8363 163.344 72.9761 163.709 72.2241C164.074 71.4722 164.609 70.8398 165.315 70.3271C166.033 69.8031 166.928 69.41 167.999 69.1479C169.069 68.8745 170.311 68.7378 171.724 68.7378H174.578ZM187.601 65.3369V80H182.662V61.5088H187.293L187.601 65.3369ZM186.917 70.105H185.55C185.55 68.8175 185.704 67.6326 186.011 66.5503C186.33 65.4565 186.792 64.5109 187.396 63.7134C188.011 62.9045 188.768 62.2778 189.668 61.8335C190.569 61.3892 191.611 61.167 192.796 61.167C193.616 61.167 194.368 61.2923 195.052 61.543C195.735 61.7822 196.322 62.1639 196.812 62.688C197.313 63.2007 197.701 63.8729 197.974 64.7046C198.248 65.5249 198.384 66.5104 198.384 67.6611V80H193.462V68.208C193.462 67.3649 193.348 66.7155 193.121 66.2598C192.893 65.804 192.568 65.485 192.146 65.3027C191.736 65.1204 191.241 65.0293 190.66 65.0293C190.022 65.0293 189.463 65.1603 188.985 65.4224C188.518 65.6844 188.13 66.049 187.823 66.5161C187.515 66.9718 187.287 67.5073 187.139 68.1226C186.991 68.7378 186.917 69.3986 186.917 70.105ZM197.923 69.541L196.163 69.7632C196.163 68.5555 196.311 67.4333 196.607 66.3965C196.915 65.3597 197.365 64.4482 197.957 63.6621C198.561 62.876 199.307 62.2664 200.196 61.8335C201.084 61.3892 202.11 61.167 203.272 61.167C204.161 61.167 204.97 61.298 205.699 61.5601C206.428 61.8107 207.049 62.2152 207.562 62.7734C208.086 63.3203 208.484 64.0381 208.758 64.9268C209.043 65.8154 209.185 66.9035 209.185 68.1909V80H204.246V68.1909C204.246 67.3364 204.132 66.687 203.904 66.2427C203.688 65.7869 203.369 65.4736 202.947 65.3027C202.537 65.1204 202.047 65.0293 201.478 65.0293C200.885 65.0293 200.367 65.1489 199.922 65.3882C199.478 65.616 199.108 65.9351 198.812 66.3452C198.515 66.7554 198.293 67.2339 198.145 67.7808C197.997 68.3162 197.923 68.903 197.923 69.541ZM217.918 65.3369V80H212.979V61.5088H217.61L217.918 65.3369ZM217.234 70.105H215.867C215.867 68.8175 216.021 67.6326 216.329 66.5503C216.648 65.4565 217.109 64.5109 217.713 63.7134C218.328 62.9045 219.086 62.2778 219.986 61.8335C220.886 61.3892 221.928 61.167 223.113 61.167C223.934 61.167 224.686 61.2923 225.369 61.543C226.053 61.7822 226.639 62.1639 227.129 62.688C227.631 63.2007 228.018 63.8729 228.292 64.7046C228.565 65.5249 228.702 66.5104 228.702 67.6611V80H223.78V68.208C223.78 67.3649 223.666 66.7155 223.438 66.2598C223.21 65.804 222.885 65.485 222.464 65.3027C222.054 65.1204 221.558 65.0293 220.977 65.0293C220.339 65.0293 219.781 65.1603 219.302 65.4224C218.835 65.6844 218.448 66.049 218.14 66.5161C217.833 66.9718 217.605 67.5073 217.457 68.1226C217.308 68.7378 217.234 69.3986 217.234 70.105ZM228.24 69.541L226.48 69.7632C226.48 68.5555 226.628 67.4333 226.924 66.3965C227.232 65.3597 227.682 64.4482 228.274 63.6621C228.878 62.876 229.625 62.2664 230.513 61.8335C231.402 61.3892 232.427 61.167 233.589 61.167C234.478 61.167 235.287 61.298 236.016 61.5601C236.745 61.8107 237.366 62.2152 237.879 62.7734C238.403 63.3203 238.802 64.0381 239.075 64.9268C239.36 65.8154 239.502 66.9035 239.502 68.1909V80H234.563V68.1909C234.563 67.3364 234.45 66.687 234.222 66.2427C234.005 65.7869 233.686 65.4736 233.265 65.3027C232.854 65.1204 232.365 65.0293 231.795 65.0293C231.202 65.0293 230.684 65.1489 230.24 65.3882C229.795 65.616 229.425 65.9351 229.129 66.3452C228.833 66.7554 228.611 67.2339 228.462 67.7808C228.314 68.3162 228.24 68.903 228.24 69.541ZM253.294 75.8301V67.5928C253.294 67.0003 253.197 66.4933 253.003 66.0718C252.81 65.6388 252.508 65.3027 252.098 65.0635C251.699 64.8242 251.181 64.7046 250.542 64.7046C249.996 64.7046 249.523 64.8014 249.124 64.9951C248.725 65.1774 248.418 65.4451 248.201 65.7983C247.985 66.1401 247.876 66.5446 247.876 67.0117H242.955C242.955 66.2256 243.137 65.4793 243.501 64.7729C243.866 64.0666 244.396 63.4456 245.091 62.9102C245.786 62.3633 246.612 61.936 247.569 61.6284C248.537 61.3208 249.62 61.167 250.816 61.167C252.251 61.167 253.528 61.4062 254.644 61.8848C255.761 62.3633 256.638 63.0811 257.276 64.0381C257.925 64.9951 258.25 66.1914 258.25 67.627V75.5396C258.25 76.5535 258.313 77.3853 258.438 78.0347C258.563 78.6727 258.746 79.231 258.985 79.7095V80H254.012C253.772 79.4987 253.59 78.8721 253.465 78.1201C253.351 77.3568 253.294 76.5934 253.294 75.8301ZM253.943 68.7378L253.978 71.5234H251.226C250.577 71.5234 250.013 71.5975 249.534 71.7456C249.056 71.8937 248.663 72.1045 248.355 72.3779C248.047 72.64 247.819 72.9476 247.671 73.3008C247.535 73.654 247.466 74.0413 247.466 74.4629C247.466 74.8844 247.563 75.2661 247.757 75.6079C247.951 75.9383 248.23 76.2004 248.594 76.394C248.959 76.5763 249.386 76.6675 249.876 76.6675C250.617 76.6675 251.26 76.5194 251.807 76.2231C252.354 75.9269 252.776 75.5623 253.072 75.1294C253.379 74.6965 253.539 74.2863 253.55 73.8989L254.849 75.9839C254.667 76.451 254.416 76.9352 254.097 77.4365C253.79 77.9378 253.396 78.4106 252.918 78.855C252.439 79.2879 251.864 79.6468 251.192 79.9316C250.52 80.2051 249.722 80.3418 248.799 80.3418C247.626 80.3418 246.561 80.1082 245.604 79.6411C244.658 79.1626 243.906 78.5075 243.348 77.6758C242.801 76.8327 242.527 75.8757 242.527 74.8047C242.527 73.8363 242.71 72.9761 243.074 72.2241C243.439 71.4722 243.974 70.8398 244.681 70.3271C245.398 69.8031 246.293 69.41 247.364 69.1479C248.435 68.8745 249.677 68.7378 251.089 68.7378H253.943ZM272.964 75.9668V53.75H277.92V80H273.46L272.964 75.9668ZM261.275 70.9766V70.6177C261.275 69.2049 261.434 67.9232 261.753 66.7725C262.072 65.6104 262.54 64.6134 263.155 63.7817C263.77 62.95 264.528 62.3063 265.428 61.8506C266.328 61.3949 267.353 61.167 268.504 61.167C269.586 61.167 270.532 61.3949 271.341 61.8506C272.161 62.3063 272.856 62.9557 273.426 63.7988C274.007 64.6305 274.474 65.616 274.827 66.7554C275.18 67.8833 275.437 69.1195 275.596 70.4639V71.25C275.437 72.5374 275.18 73.7337 274.827 74.8389C274.474 75.944 274.007 76.9124 273.426 77.7441C272.856 78.5645 272.161 79.2025 271.341 79.6582C270.521 80.1139 269.563 80.3418 268.47 80.3418C267.319 80.3418 266.294 80.1082 265.394 79.6411C264.505 79.174 263.753 78.5189 263.138 77.6758C262.534 76.8327 262.072 75.8415 261.753 74.7021C261.434 73.5628 261.275 72.321 261.275 70.9766ZM266.197 70.6177V70.9766C266.197 71.7399 266.254 72.452 266.368 73.1128C266.493 73.7736 266.692 74.3604 266.966 74.873C267.251 75.3743 267.615 75.7674 268.06 76.0522C268.515 76.3257 269.068 76.4624 269.717 76.4624C270.56 76.4624 271.255 76.2744 271.802 75.8984C272.349 75.5111 272.765 74.9813 273.05 74.3091C273.346 73.6369 273.517 72.8621 273.562 71.9849V69.7461C273.528 69.0283 273.426 68.3846 273.255 67.8149C273.095 67.2339 272.856 66.7383 272.537 66.3281C272.229 65.918 271.842 65.599 271.375 65.3711C270.919 65.1432 270.378 65.0293 269.751 65.0293C269.113 65.0293 268.567 65.1774 268.111 65.4736C267.655 65.7585 267.285 66.1515 267 66.6528C266.727 67.1541 266.521 67.7466 266.385 68.4302C266.259 69.1024 266.197 69.8315 266.197 70.6177ZM295.916 55.1172V80H290.789V55.1172H295.916ZM310.818 55.1172L300.958 67.4048L295.267 73.5229L294.344 68.6694L298.189 63.4058L304.529 55.1172H310.818ZM304.991 80L297.659 68.4985L301.453 65.3198L311.058 80H304.991ZM322.713 75.8301V67.5928C322.713 67.0003 322.616 66.4933 322.422 66.0718C322.229 65.6388 321.927 65.3027 321.517 65.0635C321.118 64.8242 320.599 64.7046 319.961 64.7046C319.415 64.7046 318.942 64.8014 318.543 64.9951C318.144 65.1774 317.837 65.4451 317.62 65.7983C317.404 66.1401 317.295 66.5446 317.295 67.0117H312.374C312.374 66.2256 312.556 65.4793 312.92 64.7729C313.285 64.0666 313.815 63.4456 314.51 62.9102C315.205 62.3633 316.031 61.936 316.988 61.6284C317.956 61.3208 319.039 61.167 320.235 61.167C321.67 61.167 322.946 61.4062 324.063 61.8848C325.18 62.3633 326.057 63.0811 326.695 64.0381C327.344 64.9951 327.669 66.1914 327.669 67.627V75.5396C327.669 76.5535 327.732 77.3853 327.857 78.0347C327.982 78.6727 328.165 79.231 328.404 79.7095V80H323.431C323.191 79.4987 323.009 78.8721 322.884 78.1201C322.77 77.3568 322.713 76.5934 322.713 75.8301ZM323.362 68.7378L323.396 71.5234H320.645C319.996 71.5234 319.432 71.5975 318.953 71.7456C318.475 71.8937 318.082 72.1045 317.774 72.3779C317.466 72.64 317.238 72.9476 317.09 73.3008C316.954 73.654 316.885 74.0413 316.885 74.4629C316.885 74.8844 316.982 75.2661 317.176 75.6079C317.369 75.9383 317.649 76.2004 318.013 76.394C318.378 76.5763 318.805 76.6675 319.295 76.6675C320.035 76.6675 320.679 76.5194 321.226 76.2231C321.773 75.9269 322.194 75.5623 322.491 75.1294C322.798 74.6965 322.958 74.2863 322.969 73.8989L324.268 75.9839C324.086 76.451 323.835 76.9352 323.516 77.4365C323.208 77.9378 322.815 78.4106 322.337 78.855C321.858 79.2879 321.283 79.6468 320.611 79.9316C319.939 80.2051 319.141 80.3418 318.218 80.3418C317.045 80.3418 315.979 80.1082 315.022 79.6411C314.077 79.1626 313.325 78.5075 312.767 77.6758C312.22 76.8327 311.946 75.8757 311.946 74.8047C311.946 73.8363 312.129 72.9761 312.493 72.2241C312.858 71.4722 313.393 70.8398 314.1 70.3271C314.817 69.8031 315.712 69.41 316.783 69.1479C317.854 68.8745 319.096 68.7378 320.508 68.7378H323.362ZM341.46 74.8901C341.46 74.5369 341.358 74.2179 341.153 73.9331C340.948 73.6483 340.566 73.3862 340.008 73.147C339.461 72.8963 338.669 72.6685 337.632 72.4634C336.698 72.2583 335.826 72.002 335.018 71.6943C334.22 71.3753 333.525 70.9937 332.933 70.5493C332.352 70.105 331.896 69.5809 331.565 68.9771C331.235 68.3618 331.07 67.6611 331.07 66.875C331.07 66.1003 331.235 65.3711 331.565 64.6875C331.907 64.0039 332.391 63.4001 333.018 62.876C333.656 62.3405 334.431 61.9246 335.342 61.6284C336.265 61.3208 337.302 61.167 338.453 61.167C340.059 61.167 341.438 61.4233 342.588 61.936C343.75 62.4487 344.639 63.1551 345.254 64.0552C345.881 64.9438 346.194 65.9578 346.194 67.0972H341.272C341.272 66.6187 341.17 66.1914 340.965 65.8154C340.771 65.4281 340.464 65.1261 340.042 64.9097C339.632 64.6818 339.096 64.5679 338.436 64.5679C337.889 64.5679 337.416 64.6647 337.017 64.8584C336.618 65.0407 336.311 65.2913 336.094 65.6104C335.889 65.918 335.787 66.2598 335.787 66.6357C335.787 66.9206 335.844 67.1769 335.958 67.4048C336.083 67.6213 336.282 67.8206 336.556 68.0029C336.829 68.1852 337.182 68.3561 337.615 68.5156C338.06 68.6637 338.606 68.8005 339.256 68.9258C340.589 69.1992 341.779 69.5581 342.828 70.0024C343.876 70.4354 344.708 71.0278 345.323 71.7798C345.938 72.5203 346.246 73.4945 346.246 74.7021C346.246 75.5225 346.063 76.2744 345.699 76.958C345.334 77.6416 344.81 78.2397 344.126 78.7524C343.443 79.2537 342.623 79.6468 341.666 79.9316C340.72 80.2051 339.655 80.3418 338.47 80.3418C336.749 80.3418 335.291 80.0342 334.095 79.4189C332.91 78.8037 332.01 78.0233 331.395 77.0776C330.791 76.1206 330.489 75.1408 330.489 74.1382H335.154C335.177 74.8104 335.348 75.3516 335.667 75.7617C335.997 76.1719 336.413 76.4681 336.915 76.6504C337.427 76.8327 337.98 76.9238 338.572 76.9238C339.21 76.9238 339.74 76.8384 340.162 76.6675C340.583 76.4852 340.902 76.2459 341.119 75.9497C341.347 75.6421 341.46 75.2889 341.46 74.8901ZM359.439 74.8901C359.439 74.5369 359.336 74.2179 359.131 73.9331C358.926 73.6483 358.545 73.3862 357.986 73.147C357.439 72.8963 356.648 72.6685 355.611 72.4634C354.677 72.2583 353.805 72.002 352.996 71.6943C352.199 71.3753 351.504 70.9937 350.911 70.5493C350.33 70.105 349.874 69.5809 349.544 68.9771C349.214 68.3618 349.048 67.6611 349.048 66.875C349.048 66.1003 349.214 65.3711 349.544 64.6875C349.886 64.0039 350.37 63.4001 350.997 62.876C351.635 62.3405 352.409 61.9246 353.321 61.6284C354.244 61.3208 355.28 61.167 356.431 61.167C358.038 61.167 359.416 61.4233 360.567 61.936C361.729 62.4487 362.618 63.1551 363.233 64.0552C363.86 64.9438 364.173 65.9578 364.173 67.0972H359.251C359.251 66.6187 359.148 66.1914 358.943 65.8154C358.75 65.4281 358.442 65.1261 358.021 64.9097C357.61 64.6818 357.075 64.5679 356.414 64.5679C355.867 64.5679 355.394 64.6647 354.996 64.8584C354.597 65.0407 354.289 65.2913 354.073 65.6104C353.868 65.918 353.765 66.2598 353.765 66.6357C353.765 66.9206 353.822 67.1769 353.936 67.4048C354.061 67.6213 354.261 67.8206 354.534 68.0029C354.808 68.1852 355.161 68.3561 355.594 68.5156C356.038 68.6637 356.585 68.8005 357.234 68.9258C358.567 69.1992 359.758 69.5581 360.806 70.0024C361.854 70.4354 362.686 71.0278 363.301 71.7798C363.917 72.5203 364.224 73.4945 364.224 74.7021C364.224 75.5225 364.042 76.2744 363.677 76.958C363.313 77.6416 362.789 78.2397 362.105 78.7524C361.421 79.2537 360.601 79.6468 359.644 79.9316C358.698 80.2051 357.633 80.3418 356.448 80.3418C354.728 80.3418 353.27 80.0342 352.073 79.4189C350.888 78.8037 349.988 78.0233 349.373 77.0776C348.769 76.1206 348.467 75.1408 348.467 74.1382H353.133C353.156 74.8104 353.326 75.3516 353.646 75.7617C353.976 76.1719 354.392 76.4681 354.893 76.6504C355.406 76.8327 355.958 76.9238 356.551 76.9238C357.189 76.9238 357.719 76.8384 358.14 76.6675C358.562 76.4852 358.881 76.2459 359.097 75.9497C359.325 75.6421 359.439 75.2889 359.439 74.8901ZM375.931 80.3418C374.495 80.3418 373.208 80.1139 372.068 79.6582C370.929 79.1911 369.961 78.5474 369.163 77.7271C368.377 76.9067 367.773 75.9554 367.352 74.873C366.93 73.7793 366.719 72.6172 366.719 71.3867V70.7031C366.719 69.3018 366.919 68.02 367.317 66.8579C367.716 65.6958 368.286 64.6875 369.026 63.833C369.778 62.9785 370.69 62.3234 371.761 61.8677C372.832 61.4006 374.039 61.167 375.384 61.167C376.694 61.167 377.856 61.3835 378.87 61.8164C379.884 62.2493 380.733 62.8646 381.417 63.6621C382.111 64.4596 382.636 65.4167 382.989 66.5332C383.342 67.6383 383.519 68.8688 383.519 70.2246V72.2754H368.821V68.9941H378.682V68.6182C378.682 67.9346 378.557 67.325 378.306 66.7896C378.067 66.2427 377.702 65.8097 377.212 65.4907C376.722 65.1717 376.096 65.0122 375.333 65.0122C374.683 65.0122 374.125 65.1546 373.658 65.4395C373.191 65.7243 372.809 66.123 372.513 66.6357C372.228 67.1484 372.011 67.7523 371.863 68.4473C371.727 69.1309 371.658 69.8828 371.658 70.7031V71.3867C371.658 72.1273 371.761 72.8109 371.966 73.4375C372.182 74.0641 372.484 74.6053 372.872 75.061C373.27 75.5168 373.749 75.87 374.307 76.1206C374.877 76.3713 375.521 76.4966 376.238 76.4966C377.127 76.4966 377.953 76.3257 378.716 75.9839C379.491 75.6307 380.158 75.1009 380.716 74.3945L383.108 76.9922C382.721 77.5505 382.191 78.0859 381.519 78.5986C380.858 79.1113 380.061 79.5329 379.126 79.8633C378.192 80.1823 377.127 80.3418 375.931 80.3418ZM391.243 65.3369V80H386.304V61.5088H390.936L391.243 65.3369ZM390.56 70.105H389.192C389.192 68.8175 389.346 67.6326 389.654 66.5503C389.973 65.4565 390.434 64.5109 391.038 63.7134C391.653 62.9045 392.411 62.2778 393.311 61.8335C394.211 61.3892 395.254 61.167 396.438 61.167C397.259 61.167 398.011 61.2923 398.694 61.543C399.378 61.7822 399.965 62.1639 400.455 62.688C400.956 63.2007 401.343 63.8729 401.617 64.7046C401.89 65.5249 402.027 66.5104 402.027 67.6611V80H397.105V68.208C397.105 67.3649 396.991 66.7155 396.763 66.2598C396.535 65.804 396.211 65.485 395.789 65.3027C395.379 65.1204 394.883 65.0293 394.302 65.0293C393.664 65.0293 393.106 65.1603 392.627 65.4224C392.16 65.6844 391.773 66.049 391.465 66.5161C391.158 66.9718 390.93 67.5073 390.782 68.1226C390.634 68.7378 390.56 69.3986 390.56 70.105ZM401.565 69.541L399.805 69.7632C399.805 68.5555 399.953 67.4333 400.25 66.3965C400.557 65.3597 401.007 64.4482 401.6 63.6621C402.203 62.876 402.95 62.2664 403.838 61.8335C404.727 61.3892 405.752 61.167 406.915 61.167C407.803 61.167 408.612 61.298 409.341 61.5601C410.07 61.8107 410.691 62.2152 411.204 62.7734C411.728 63.3203 412.127 64.0381 412.4 64.9268C412.685 65.8154 412.828 66.9035 412.828 68.1909V80H407.889V68.1909C407.889 67.3364 407.775 66.687 407.547 66.2427C407.33 65.7869 407.011 65.4736 406.59 65.3027C406.18 65.1204 405.69 65.0293 405.12 65.0293C404.528 65.0293 404.009 65.1489 403.565 65.3882C403.121 65.616 402.75 65.9351 402.454 66.3452C402.158 66.7554 401.936 67.2339 401.788 67.7808C401.639 68.3162 401.565 68.903 401.565 69.541Z" fill="#888888"/>
<rect x="92" y="181" width="1179" height="91" rx="13.3333" fill="#CCCCCC"/>
<rect x="115" y="201.667" width="208" height="49.3333" rx="4.66667" fill="#888888" stroke="#888888" stroke-width="4"/>
<path d="M188.729 221.688L185.031 233.667H181.104L186.677 218.5H189.167L188.729 221.688ZM191.792 233.667L188.083 221.688L187.604 218.5H190.125L195.729 233.667H191.792ZM191.646 228.01V230.833H183.865V228.01H191.646ZM199.625 224.802V233.667H196.115V222.396H199.406L199.625 224.802ZM199.208 227.646L198.385 227.667C198.385 226.806 198.49 226.038 198.698 225.365C198.906 224.684 199.201 224.108 199.583 223.635C199.965 223.163 200.42 222.806 200.948 222.563C201.483 222.313 202.076 222.188 202.729 222.188C203.25 222.188 203.726 222.264 204.156 222.417C204.594 222.569 204.969 222.816 205.281 223.156C205.601 223.497 205.844 223.948 206.01 224.51C206.184 225.066 206.271 225.753 206.271 226.573V233.667H202.74V226.563C202.74 226.111 202.677 225.767 202.552 225.531C202.427 225.288 202.247 225.122 202.01 225.031C201.774 224.941 201.486 224.896 201.146 224.896C200.785 224.896 200.479 224.965 200.229 225.104C199.979 225.243 199.778 225.438 199.625 225.688C199.479 225.931 199.372 226.219 199.302 226.552C199.24 226.885 199.208 227.25 199.208 227.646ZM215.302 222.396H218.49V233.229C218.49 234.271 218.25 235.153 217.771 235.875C217.292 236.604 216.622 237.156 215.76 237.531C214.906 237.913 213.906 238.104 212.76 238.104C212.253 238.104 211.736 238.038 211.208 237.906C210.681 237.781 210.187 237.594 209.729 237.344C209.271 237.094 208.885 236.785 208.573 236.417L210.042 234.354C210.326 234.674 210.684 234.944 211.115 235.167C211.545 235.396 212.052 235.51 212.635 235.51C213.142 235.51 213.566 235.42 213.906 235.24C214.253 235.059 214.517 234.795 214.698 234.448C214.878 234.108 214.969 233.694 214.969 233.208V225.063L215.302 222.396ZM207.812 228.167V227.948C207.812 227.094 207.917 226.316 208.125 225.615C208.34 224.906 208.646 224.299 209.042 223.792C209.444 223.278 209.931 222.882 210.5 222.604C211.069 222.326 211.712 222.188 212.427 222.188C213.198 222.188 213.83 222.337 214.323 222.635C214.823 222.927 215.222 223.337 215.521 223.865C215.826 224.392 216.062 225.01 216.229 225.719C216.403 226.42 216.549 227.177 216.667 227.99V228.25C216.549 229.014 216.385 229.736 216.177 230.417C215.976 231.09 215.712 231.688 215.385 232.208C215.059 232.729 214.649 233.139 214.156 233.438C213.67 233.729 213.087 233.875 212.406 233.875C211.698 233.875 211.059 233.733 210.49 233.448C209.927 233.163 209.444 232.764 209.042 232.25C208.646 231.736 208.34 231.132 208.125 230.438C207.917 229.743 207.812 228.986 207.812 228.167ZM211.323 227.948V228.167C211.323 228.59 211.361 228.983 211.437 229.344C211.521 229.705 211.646 230.024 211.812 230.302C211.979 230.573 212.184 230.785 212.427 230.938C212.677 231.09 212.969 231.167 213.302 231.167C213.809 231.167 214.219 231.059 214.531 230.844C214.844 230.628 215.069 230.323 215.208 229.927C215.347 229.531 215.406 229.066 215.385 228.531V227.708C215.399 227.25 215.368 226.847 215.292 226.5C215.215 226.146 215.094 225.851 214.927 225.615C214.767 225.378 214.552 225.201 214.281 225.083C214.017 224.958 213.698 224.896 213.323 224.896C212.997 224.896 212.708 224.972 212.458 225.125C212.208 225.278 212 225.493 211.833 225.771C211.667 226.042 211.538 226.365 211.448 226.74C211.365 227.108 211.323 227.51 211.323 227.948ZM227.094 230.927V222.396H230.615V233.667H227.323L227.094 230.927ZM227.427 228.635L228.344 228.615C228.344 229.372 228.253 230.073 228.073 230.719C227.892 231.358 227.625 231.913 227.271 232.385C226.924 232.858 226.493 233.226 225.979 233.49C225.472 233.747 224.885 233.875 224.219 233.875C223.663 233.875 223.153 233.799 222.687 233.646C222.229 233.486 221.833 233.24 221.5 232.906C221.167 232.566 220.906 232.132 220.719 231.604C220.538 231.069 220.448 230.431 220.448 229.688V222.396H223.958V229.708C223.958 229.958 223.99 230.174 224.052 230.354C224.115 230.535 224.205 230.688 224.323 230.813C224.441 230.931 224.587 231.021 224.76 231.083C224.941 231.139 225.146 231.167 225.375 231.167C225.903 231.167 226.316 231.056 226.615 230.833C226.913 230.611 227.122 230.309 227.24 229.927C227.365 229.545 227.427 229.115 227.427 228.635ZM236.26 217.667V233.667H232.74V217.667H236.26ZM244.281 230.833V226.188C244.281 225.868 244.236 225.594 244.146 225.365C244.056 225.135 243.913 224.958 243.719 224.833C243.524 224.701 243.264 224.635 242.938 224.635C242.674 224.635 242.448 224.681 242.26 224.771C242.073 224.861 241.931 224.997 241.833 225.177C241.736 225.358 241.688 225.587 241.688 225.865H238.177C238.177 225.344 238.292 224.861 238.521 224.417C238.757 223.965 239.09 223.573 239.521 223.24C239.958 222.906 240.479 222.649 241.083 222.469C241.694 222.281 242.375 222.188 243.125 222.188C244.021 222.188 244.819 222.337 245.521 222.635C246.229 222.934 246.788 223.382 247.198 223.979C247.608 224.569 247.813 225.313 247.813 226.208V230.823C247.813 231.559 247.854 232.118 247.938 232.5C248.021 232.875 248.139 233.205 248.292 233.49V233.667H244.771C244.604 233.319 244.479 232.896 244.396 232.396C244.319 231.889 244.281 231.368 244.281 230.833ZM244.708 226.781L244.729 228.656H243.177C242.851 228.656 242.573 228.701 242.344 228.792C242.122 228.882 241.941 229.007 241.802 229.167C241.67 229.319 241.573 229.493 241.51 229.688C241.455 229.882 241.427 230.087 241.427 230.302C241.427 230.51 241.476 230.698 241.573 230.865C241.677 231.024 241.816 231.149 241.99 231.24C242.163 231.33 242.358 231.375 242.573 231.375C242.962 231.375 243.292 231.302 243.563 231.156C243.84 231.003 244.052 230.819 244.198 230.604C244.344 230.389 244.417 230.188 244.417 230L245.188 231.438C245.049 231.715 244.889 231.997 244.708 232.281C244.535 232.566 244.316 232.83 244.052 233.073C243.795 233.309 243.479 233.503 243.104 233.656C242.729 233.802 242.274 233.875 241.74 233.875C241.045 233.875 240.406 233.733 239.823 233.448C239.247 233.163 238.785 232.767 238.438 232.26C238.09 231.747 237.917 231.156 237.917 230.49C237.917 229.906 238.021 229.385 238.229 228.927C238.444 228.469 238.767 228.08 239.198 227.76C239.628 227.441 240.177 227.198 240.844 227.031C241.51 226.865 242.295 226.781 243.198 226.781H244.708ZM253.302 225.188V233.667H249.792V222.396H253.073L253.302 225.188ZM256.635 222.313L256.573 225.573C256.434 225.559 256.247 225.542 256.01 225.521C255.774 225.5 255.576 225.49 255.417 225.49C255.007 225.49 254.653 225.538 254.354 225.635C254.062 225.726 253.819 225.865 253.625 226.052C253.437 226.233 253.299 226.462 253.208 226.74C253.125 227.017 253.087 227.34 253.094 227.708L252.458 227.292C252.458 226.535 252.531 225.847 252.677 225.229C252.83 224.604 253.045 224.066 253.323 223.615C253.601 223.156 253.937 222.806 254.333 222.563C254.729 222.313 255.174 222.188 255.667 222.188C255.84 222.188 256.01 222.198 256.177 222.219C256.351 222.24 256.503 222.271 256.635 222.313Z" fill="white"/>
<rect x="347" y="201.667" width="208" height="49.3333" rx="4.66667" fill="#888888" stroke="#888888" stroke-width="4"/>
<path d="M427.937 218.5V233.667H424.292L418.927 224.229V233.667H415.271V218.5H418.927L424.292 227.938V218.5H427.937ZM429.646 228.146V227.927C429.646 227.101 429.764 226.34 430 225.646C430.236 224.944 430.583 224.337 431.042 223.823C431.5 223.309 432.066 222.91 432.74 222.625C433.413 222.333 434.191 222.188 435.073 222.188C435.962 222.188 436.743 222.333 437.417 222.625C438.097 222.91 438.667 223.309 439.125 223.823C439.583 224.337 439.931 224.944 440.167 225.646C440.403 226.34 440.521 227.101 440.521 227.927V228.146C440.521 228.965 440.403 229.726 440.167 230.427C439.931 231.122 439.583 231.729 439.125 232.25C438.667 232.764 438.101 233.163 437.427 233.448C436.753 233.733 435.976 233.875 435.094 233.875C434.212 233.875 433.431 233.733 432.75 233.448C432.069 233.163 431.5 232.764 431.042 232.25C430.583 231.729 430.236 231.122 430 230.427C429.764 229.726 429.646 228.965 429.646 228.146ZM433.156 227.927V228.146C433.156 228.569 433.187 228.965 433.25 229.333C433.312 229.701 433.417 230.024 433.562 230.302C433.708 230.573 433.906 230.785 434.156 230.938C434.406 231.09 434.719 231.167 435.094 231.167C435.462 231.167 435.767 231.09 436.01 230.938C436.26 230.785 436.458 230.573 436.604 230.302C436.75 230.024 436.854 229.701 436.917 229.333C436.979 228.965 437.01 228.569 437.01 228.146V227.927C437.01 227.517 436.979 227.132 436.917 226.771C436.854 226.403 436.75 226.08 436.604 225.802C436.458 225.517 436.26 225.295 436.01 225.135C435.76 224.976 435.448 224.896 435.073 224.896C434.705 224.896 434.396 224.976 434.146 225.135C433.903 225.295 433.708 225.517 433.562 225.802C433.417 226.08 433.312 226.403 433.25 226.771C433.187 227.132 433.156 227.517 433.156 227.927ZM448.563 231.083V217.667H452.094V233.667H448.927L448.563 231.083ZM441.646 228.167V227.948C441.646 227.094 441.74 226.316 441.927 225.615C442.115 224.906 442.392 224.299 442.76 223.792C443.128 223.278 443.587 222.882 444.135 222.604C444.684 222.326 445.316 222.188 446.031 222.188C446.67 222.188 447.229 222.337 447.708 222.635C448.188 222.927 448.597 223.337 448.938 223.865C449.278 224.392 449.556 225.01 449.771 225.719C449.986 226.42 450.149 227.177 450.26 227.99V228.25C450.149 229.014 449.986 229.736 449.771 230.417C449.556 231.09 449.278 231.688 448.938 232.208C448.597 232.729 448.184 233.139 447.698 233.438C447.219 233.729 446.656 233.875 446.01 233.875C445.295 233.875 444.663 233.733 444.115 233.448C443.573 233.163 443.118 232.764 442.75 232.25C442.389 231.736 442.115 231.132 441.927 230.438C441.74 229.743 441.646 228.986 441.646 228.167ZM445.156 227.948V228.167C445.156 228.59 445.184 228.983 445.24 229.344C445.295 229.705 445.389 230.024 445.521 230.302C445.66 230.573 445.84 230.785 446.063 230.938C446.292 231.09 446.573 231.167 446.906 231.167C447.358 231.167 447.729 231.059 448.021 230.844C448.319 230.628 448.538 230.323 448.677 229.927C448.823 229.531 448.885 229.066 448.865 228.531V227.708C448.878 227.25 448.847 226.847 448.771 226.5C448.694 226.146 448.573 225.851 448.406 225.615C448.247 225.378 448.042 225.201 447.792 225.083C447.549 224.958 447.26 224.896 446.927 224.896C446.601 224.896 446.323 224.972 446.094 225.125C445.872 225.278 445.691 225.493 445.552 225.771C445.413 226.042 445.313 226.365 445.25 226.74C445.188 227.108 445.156 227.51 445.156 227.948ZM459.542 233.875C458.625 233.875 457.806 233.733 457.083 233.448C456.361 233.156 455.75 232.757 455.25 232.25C454.757 231.743 454.378 231.16 454.115 230.5C453.858 229.84 453.729 229.142 453.729 228.406V228.01C453.729 227.184 453.844 226.42 454.073 225.719C454.302 225.01 454.642 224.392 455.094 223.865C455.545 223.337 456.111 222.927 456.792 222.635C457.472 222.337 458.264 222.188 459.167 222.188C459.965 222.188 460.681 222.316 461.313 222.573C461.944 222.83 462.479 223.198 462.917 223.677C463.361 224.156 463.698 224.736 463.927 225.417C464.163 226.097 464.281 226.861 464.281 227.708V229.135H455.073V226.938H460.854V226.667C460.861 226.292 460.795 225.972 460.656 225.708C460.524 225.444 460.33 225.243 460.073 225.104C459.816 224.965 459.503 224.896 459.135 224.896C458.753 224.896 458.438 224.979 458.188 225.146C457.944 225.313 457.753 225.542 457.615 225.833C457.483 226.118 457.389 226.448 457.333 226.823C457.278 227.198 457.25 227.594 457.25 228.01V228.406C457.25 228.823 457.306 229.201 457.417 229.542C457.535 229.882 457.701 230.174 457.917 230.417C458.139 230.653 458.403 230.837 458.708 230.969C459.021 231.101 459.375 231.167 459.771 231.167C460.25 231.167 460.722 231.076 461.188 230.896C461.653 230.715 462.052 230.417 462.385 230L463.979 231.896C463.75 232.222 463.424 232.538 463 232.844C462.583 233.149 462.083 233.399 461.5 233.594C460.917 233.781 460.264 233.875 459.542 233.875ZM465.938 232.021C465.938 231.521 466.118 231.104 466.479 230.771C466.84 230.431 467.306 230.26 467.875 230.26C468.451 230.26 468.917 230.431 469.271 230.771C469.632 231.104 469.813 231.521 469.813 232.021C469.813 232.521 469.632 232.941 469.271 233.281C468.917 233.615 468.451 233.781 467.875 233.781C467.306 233.781 466.84 233.615 466.479 233.281C466.118 232.941 465.938 232.521 465.938 232.021ZM472.427 222.396H475.948V234.031C475.948 234.934 475.774 235.694 475.427 236.313C475.08 236.938 474.583 237.41 473.937 237.729C473.292 238.056 472.521 238.219 471.625 238.219C471.326 238.219 471.052 238.205 470.802 238.177C470.545 238.156 470.264 238.111 469.958 238.042V235.385C470.139 235.413 470.306 235.434 470.458 235.448C470.611 235.469 470.778 235.479 470.958 235.479C471.278 235.479 471.545 235.427 471.76 235.323C471.976 235.219 472.139 235.059 472.25 234.844C472.368 234.628 472.427 234.358 472.427 234.031V222.396ZM472.167 219.49C472.167 218.99 472.347 218.58 472.708 218.26C473.069 217.941 473.538 217.781 474.115 217.781C474.691 217.781 475.16 217.941 475.521 218.26C475.882 218.58 476.062 218.99 476.062 219.49C476.062 219.99 475.882 220.399 475.521 220.719C475.16 221.038 474.691 221.198 474.115 221.198C473.538 221.198 473.069 221.038 472.708 220.719C472.347 220.399 472.167 219.99 472.167 219.49ZM483.844 230.5C483.844 230.306 483.778 230.139 483.646 230C483.521 229.854 483.299 229.722 482.979 229.604C482.66 229.479 482.212 229.354 481.635 229.229C481.087 229.111 480.569 228.955 480.083 228.76C479.604 228.566 479.184 228.33 478.823 228.052C478.462 227.774 478.177 227.444 477.969 227.063C477.767 226.681 477.667 226.243 477.667 225.75C477.667 225.271 477.767 224.819 477.969 224.396C478.177 223.965 478.479 223.587 478.875 223.26C479.278 222.927 479.767 222.667 480.344 222.479C480.92 222.285 481.576 222.188 482.312 222.188C483.326 222.188 484.201 222.344 484.937 222.656C485.674 222.962 486.24 223.392 486.635 223.948C487.038 224.497 487.24 225.132 487.24 225.854H483.729C483.729 225.569 483.681 225.326 483.583 225.125C483.493 224.924 483.344 224.771 483.135 224.667C482.927 224.556 482.649 224.5 482.302 224.5C482.059 224.5 481.837 224.545 481.635 224.635C481.441 224.726 481.285 224.851 481.167 225.01C481.049 225.17 480.99 225.358 480.99 225.573C480.99 225.726 481.024 225.865 481.094 225.99C481.17 226.108 481.285 226.219 481.437 226.323C481.59 226.42 481.785 226.51 482.021 226.594C482.257 226.67 482.542 226.74 482.875 226.802C483.632 226.941 484.34 227.139 485 227.396C485.66 227.653 486.194 228.017 486.604 228.49C487.021 228.962 487.229 229.597 487.229 230.396C487.229 230.896 487.115 231.358 486.885 231.781C486.656 232.198 486.326 232.566 485.896 232.885C485.465 233.198 484.948 233.441 484.344 233.615C483.74 233.788 483.059 233.875 482.302 233.875C481.226 233.875 480.316 233.684 479.573 233.302C478.83 232.913 478.267 232.427 477.885 231.844C477.51 231.253 477.323 230.656 477.323 230.052H480.594C480.608 230.399 480.691 230.684 480.844 230.906C481.003 231.128 481.215 231.292 481.479 231.396C481.743 231.5 482.049 231.552 482.396 231.552C482.715 231.552 482.979 231.507 483.187 231.417C483.403 231.326 483.566 231.205 483.677 231.052C483.788 230.892 483.844 230.708 483.844 230.5Z" fill="white"/>
<rect x="579" y="201.667" width="208" height="49.3333" rx="4.66667" fill="#888888" stroke="#888888" stroke-width="4"/>
<path d="M644.844 230.854V233.667H636.76V230.854H644.844ZM638.063 218.5V233.667H634.406V218.5H638.063ZM643.802 224.521V227.24H636.76V224.521H643.802ZM644.875 218.5V221.323H636.76V218.5H644.875ZM649.156 222.396L650.74 225.5L652.375 222.396H656.021L653.063 227.885L656.177 233.667H652.5L650.74 230.333L648.99 233.667H645.313L648.427 227.885L645.479 222.396H649.156ZM660.719 224.563V238H657.208V222.396H660.479L660.719 224.563ZM667.635 227.896V228.115C667.635 228.934 667.542 229.694 667.354 230.396C667.167 231.097 666.889 231.708 666.521 232.229C666.153 232.75 665.694 233.156 665.146 233.448C664.604 233.733 663.976 233.875 663.26 233.875C662.587 233.875 662.007 233.726 661.521 233.427C661.035 233.128 660.628 232.715 660.302 232.188C659.976 231.66 659.712 231.056 659.51 230.375C659.309 229.694 659.149 228.976 659.031 228.219V227.938C659.149 227.125 659.309 226.372 659.51 225.677C659.712 224.976 659.976 224.365 660.302 223.844C660.628 223.323 661.031 222.917 661.51 222.625C661.997 222.333 662.576 222.188 663.25 222.188C663.965 222.188 664.594 222.323 665.135 222.594C665.684 222.865 666.142 223.253 666.51 223.76C666.885 224.26 667.167 224.861 667.354 225.563C667.542 226.264 667.635 227.042 667.635 227.896ZM664.125 228.115V227.896C664.125 227.458 664.094 227.059 664.031 226.698C663.969 226.33 663.868 226.01 663.729 225.74C663.597 225.469 663.42 225.26 663.198 225.115C662.976 224.969 662.701 224.896 662.375 224.896C662 224.896 661.684 224.955 661.427 225.073C661.177 225.184 660.976 225.358 660.823 225.594C660.677 225.823 660.573 226.111 660.51 226.458C660.455 226.799 660.431 227.198 660.438 227.656V228.51C660.424 229.038 660.476 229.503 660.594 229.906C660.712 230.302 660.917 230.611 661.208 230.833C661.5 231.056 661.896 231.167 662.396 231.167C662.729 231.167 663.007 231.09 663.229 230.938C663.451 230.778 663.628 230.559 663.76 230.281C663.892 229.997 663.986 229.67 664.042 229.302C664.097 228.934 664.125 228.538 664.125 228.115ZM672.74 225.188V233.667H669.229V222.396H672.51L672.74 225.188ZM676.073 222.313L676.01 225.573C675.872 225.559 675.684 225.542 675.448 225.521C675.212 225.5 675.014 225.49 674.854 225.49C674.444 225.49 674.09 225.538 673.792 225.635C673.5 225.726 673.257 225.865 673.063 226.052C672.875 226.233 672.736 226.462 672.646 226.74C672.563 227.017 672.524 227.34 672.531 227.708L671.896 227.292C671.896 226.535 671.969 225.847 672.115 225.229C672.267 224.604 672.483 224.066 672.76 223.615C673.038 223.156 673.375 222.806 673.771 222.563C674.167 222.313 674.611 222.188 675.104 222.188C675.278 222.188 675.448 222.198 675.615 222.219C675.788 222.24 675.941 222.271 676.073 222.313ZM682.531 233.875C681.615 233.875 680.795 233.733 680.073 233.448C679.351 233.156 678.74 232.757 678.24 232.25C677.747 231.743 677.368 231.16 677.104 230.5C676.847 229.84 676.719 229.142 676.719 228.406V228.01C676.719 227.184 676.833 226.42 677.063 225.719C677.292 225.01 677.632 224.392 678.083 223.865C678.535 223.337 679.101 222.927 679.781 222.635C680.462 222.337 681.253 222.188 682.156 222.188C682.955 222.188 683.67 222.316 684.302 222.573C684.934 222.83 685.469 223.198 685.906 223.677C686.351 224.156 686.688 224.736 686.917 225.417C687.153 226.097 687.271 226.861 687.271 227.708V229.135H678.063V226.938H683.844V226.667C683.851 226.292 683.785 225.972 683.646 225.708C683.514 225.444 683.319 225.243 683.063 225.104C682.806 224.965 682.493 224.896 682.125 224.896C681.743 224.896 681.427 224.979 681.177 225.146C680.934 225.313 680.743 225.542 680.604 225.833C680.472 226.118 680.378 226.448 680.323 226.823C680.267 227.198 680.24 227.594 680.24 228.01V228.406C680.24 228.823 680.295 229.201 680.406 229.542C680.524 229.882 680.691 230.174 680.906 230.417C681.128 230.653 681.392 230.837 681.698 230.969C682.01 231.101 682.365 231.167 682.76 231.167C683.24 231.167 683.712 231.076 684.177 230.896C684.642 230.715 685.042 230.417 685.375 230L686.969 231.896C686.74 232.222 686.413 232.538 685.99 232.844C685.573 233.149 685.073 233.399 684.49 233.594C683.906 233.781 683.253 233.875 682.531 233.875ZM694.604 230.5C694.604 230.306 694.538 230.139 694.406 230C694.281 229.854 694.059 229.722 693.74 229.604C693.42 229.479 692.972 229.354 692.396 229.229C691.847 229.111 691.33 228.955 690.844 228.76C690.365 228.566 689.944 228.33 689.583 228.052C689.222 227.774 688.938 227.444 688.729 227.063C688.528 226.681 688.427 226.243 688.427 225.75C688.427 225.271 688.528 224.819 688.729 224.396C688.938 223.965 689.24 223.587 689.635 223.26C690.038 222.927 690.528 222.667 691.104 222.479C691.681 222.285 692.337 222.188 693.073 222.188C694.087 222.188 694.962 222.344 695.698 222.656C696.434 222.962 697 223.392 697.396 223.948C697.799 224.497 698 225.132 698 225.854H694.49C694.49 225.569 694.441 225.326 694.344 225.125C694.253 224.924 694.104 224.771 693.896 224.667C693.688 224.556 693.41 224.5 693.063 224.5C692.819 224.5 692.597 224.545 692.396 224.635C692.201 224.726 692.045 224.851 691.927 225.01C691.809 225.17 691.75 225.358 691.75 225.573C691.75 225.726 691.785 225.865 691.854 225.99C691.931 226.108 692.045 226.219 692.198 226.323C692.351 226.42 692.545 226.51 692.781 226.594C693.017 226.67 693.302 226.74 693.635 226.802C694.392 226.941 695.101 227.139 695.76 227.396C696.42 227.653 696.955 228.017 697.365 228.49C697.781 228.962 697.99 229.597 697.99 230.396C697.99 230.896 697.875 231.358 697.646 231.781C697.417 232.198 697.087 232.566 696.656 232.885C696.226 233.198 695.708 233.441 695.104 233.615C694.5 233.788 693.819 233.875 693.063 233.875C691.986 233.875 691.076 233.684 690.333 233.302C689.59 232.913 689.028 232.427 688.646 231.844C688.271 231.253 688.083 230.656 688.083 230.052H691.354C691.368 230.399 691.451 230.684 691.604 230.906C691.764 231.128 691.976 231.292 692.24 231.396C692.503 231.5 692.809 231.552 693.156 231.552C693.476 231.552 693.74 231.507 693.948 231.417C694.163 231.326 694.326 231.205 694.438 231.052C694.549 230.892 694.604 230.708 694.604 230.5ZM705.542 230.5C705.542 230.306 705.476 230.139 705.344 230C705.219 229.854 704.997 229.722 704.677 229.604C704.358 229.479 703.91 229.354 703.333 229.229C702.785 229.111 702.267 228.955 701.781 228.76C701.302 228.566 700.882 228.33 700.521 228.052C700.16 227.774 699.875 227.444 699.667 227.063C699.465 226.681 699.365 226.243 699.365 225.75C699.365 225.271 699.465 224.819 699.667 224.396C699.875 223.965 700.177 223.587 700.573 223.26C700.976 222.927 701.465 222.667 702.042 222.479C702.618 222.285 703.274 222.188 704.01 222.188C705.024 222.188 705.899 222.344 706.635 222.656C707.372 222.962 707.938 223.392 708.333 223.948C708.736 224.497 708.938 225.132 708.938 225.854H705.427C705.427 225.569 705.378 225.326 705.281 225.125C705.191 224.924 705.042 224.771 704.833 224.667C704.625 224.556 704.347 224.5 704 224.5C703.757 224.5 703.535 224.545 703.333 224.635C703.139 224.726 702.983 224.851 702.865 225.01C702.747 225.17 702.688 225.358 702.688 225.573C702.688 225.726 702.722 225.865 702.792 225.99C702.868 226.108 702.983 226.219 703.135 226.323C703.288 226.42 703.483 226.51 703.719 226.594C703.955 226.67 704.24 226.74 704.573 226.802C705.33 226.941 706.038 227.139 706.698 227.396C707.358 227.653 707.892 228.017 708.302 228.49C708.719 228.962 708.927 229.597 708.927 230.396C708.927 230.896 708.813 231.358 708.583 231.781C708.354 232.198 708.024 232.566 707.594 232.885C707.163 233.198 706.646 233.441 706.042 233.615C705.438 233.788 704.757 233.875 704 233.875C702.924 233.875 702.014 233.684 701.271 233.302C700.528 232.913 699.965 232.427 699.583 231.844C699.208 231.253 699.021 230.656 699.021 230.052H702.292C702.306 230.399 702.389 230.684 702.542 230.906C702.701 231.128 702.913 231.292 703.177 231.396C703.441 231.5 703.747 231.552 704.094 231.552C704.413 231.552 704.677 231.507 704.885 231.417C705.101 231.326 705.264 231.205 705.375 231.052C705.486 230.892 705.542 230.708 705.542 230.5ZM710.802 232.021C710.802 231.521 710.983 231.104 711.344 230.771C711.705 230.431 712.17 230.26 712.74 230.26C713.316 230.26 713.781 230.431 714.135 230.771C714.497 231.104 714.677 231.521 714.677 232.021C714.677 232.521 714.497 232.941 714.135 233.281C713.781 233.615 713.316 233.781 712.74 233.781C712.17 233.781 711.705 233.615 711.344 233.281C710.983 232.941 710.802 232.521 710.802 232.021ZM717.292 222.396H720.812V234.031C720.812 234.934 720.639 235.694 720.292 236.313C719.944 236.938 719.448 237.41 718.802 237.729C718.156 238.056 717.385 238.219 716.49 238.219C716.191 238.219 715.917 238.205 715.667 238.177C715.41 238.156 715.128 238.111 714.823 238.042V235.385C715.003 235.413 715.17 235.434 715.323 235.448C715.476 235.469 715.642 235.479 715.823 235.479C716.142 235.479 716.41 235.427 716.625 235.323C716.84 235.219 717.003 235.059 717.115 234.844C717.233 234.628 717.292 234.358 717.292 234.031V222.396ZM717.031 219.49C717.031 218.99 717.212 218.58 717.573 218.26C717.934 217.941 718.403 217.781 718.979 217.781C719.556 217.781 720.024 217.941 720.385 218.26C720.747 218.58 720.927 218.99 720.927 219.49C720.927 219.99 720.747 220.399 720.385 220.719C720.024 221.038 719.556 221.198 718.979 221.198C718.403 221.198 717.934 221.038 717.573 220.719C717.212 220.399 717.031 219.99 717.031 219.49ZM728.708 230.5C728.708 230.306 728.642 230.139 728.51 230C728.385 229.854 728.163 229.722 727.844 229.604C727.524 229.479 727.076 229.354 726.5 229.229C725.951 229.111 725.434 228.955 724.948 228.76C724.469 228.566 724.049 228.33 723.688 228.052C723.326 227.774 723.042 227.444 722.833 227.063C722.632 226.681 722.531 226.243 722.531 225.75C722.531 225.271 722.632 224.819 722.833 224.396C723.042 223.965 723.344 223.587 723.74 223.26C724.142 222.927 724.632 222.667 725.208 222.479C725.785 222.285 726.441 222.188 727.177 222.188C728.191 222.188 729.066 222.344 729.802 222.656C730.538 222.962 731.104 223.392 731.5 223.948C731.903 224.497 732.104 225.132 732.104 225.854H728.594C728.594 225.569 728.545 225.326 728.448 225.125C728.358 224.924 728.208 224.771 728 224.667C727.792 224.556 727.514 224.5 727.167 224.5C726.924 224.5 726.701 224.545 726.5 224.635C726.306 224.726 726.149 224.851 726.031 225.01C725.913 225.17 725.854 225.358 725.854 225.573C725.854 225.726 725.889 225.865 725.958 225.99C726.035 226.108 726.149 226.219 726.302 226.323C726.455 226.42 726.649 226.51 726.885 226.594C727.122 226.67 727.406 226.74 727.74 226.802C728.497 226.941 729.205 227.139 729.865 227.396C730.524 227.653 731.059 228.017 731.469 228.49C731.885 228.962 732.094 229.597 732.094 230.396C732.094 230.896 731.979 231.358 731.75 231.781C731.521 232.198 731.191 232.566 730.76 232.885C730.33 233.198 729.813 233.441 729.208 233.615C728.604 233.788 727.924 233.875 727.167 233.875C726.09 233.875 725.181 233.684 724.438 233.302C723.694 232.913 723.132 232.427 722.75 231.844C722.375 231.253 722.188 230.656 722.188 230.052H725.458C725.472 230.399 725.556 230.684 725.708 230.906C725.868 231.128 726.08 231.292 726.344 231.396C726.608 231.5 726.913 231.552 727.26 231.552C727.58 231.552 727.844 231.507 728.052 231.417C728.267 231.326 728.431 231.205 728.542 231.052C728.653 230.892 728.708 230.708 728.708 230.5Z" fill="white"/>
<rect x="811" y="201.667" width="208" height="49.3333" rx="4.66667" fill="#888888" stroke="#888888" stroke-width="4"/>
<path d="M870.656 218.5H873.635L877.021 229.052L880.406 218.5H883.385L878.229 233.667H875.813L870.656 218.5ZM868.844 218.5H871.927L872.5 230.125V233.667H868.844V218.5ZM882.115 218.5H885.208V233.667H881.542V230.125L882.115 218.5ZM886.948 228.146V227.927C886.948 227.101 887.066 226.34 887.302 225.646C887.538 224.944 887.885 224.337 888.344 223.823C888.802 223.309 889.368 222.91 890.042 222.625C890.715 222.333 891.493 222.188 892.375 222.188C893.264 222.188 894.045 222.333 894.719 222.625C895.399 222.91 895.969 223.309 896.427 223.823C896.885 224.337 897.233 224.944 897.469 225.646C897.705 226.34 897.823 227.101 897.823 227.927V228.146C897.823 228.965 897.705 229.726 897.469 230.427C897.233 231.122 896.885 231.729 896.427 232.25C895.969 232.764 895.403 233.163 894.729 233.448C894.056 233.733 893.278 233.875 892.396 233.875C891.514 233.875 890.733 233.733 890.052 233.448C889.372 233.163 888.802 232.764 888.344 232.25C887.885 231.729 887.538 231.122 887.302 230.427C887.066 229.726 886.948 228.965 886.948 228.146ZM890.458 227.927V228.146C890.458 228.569 890.49 228.965 890.552 229.333C890.615 229.701 890.719 230.024 890.865 230.302C891.01 230.573 891.208 230.785 891.458 230.938C891.708 231.09 892.021 231.167 892.396 231.167C892.764 231.167 893.069 231.09 893.313 230.938C893.563 230.785 893.76 230.573 893.906 230.302C894.052 230.024 894.156 229.701 894.219 229.333C894.281 228.965 894.313 228.569 894.313 228.146V227.927C894.313 227.517 894.281 227.132 894.219 226.771C894.156 226.403 894.052 226.08 893.906 225.802C893.76 225.517 893.563 225.295 893.313 225.135C893.063 224.976 892.75 224.896 892.375 224.896C892.007 224.896 891.698 224.976 891.448 225.135C891.205 225.295 891.01 225.517 890.865 225.802C890.719 226.08 890.615 226.403 890.552 226.771C890.49 227.132 890.458 227.517 890.458 227.927ZM902.833 224.802V233.667H899.323V222.396H902.615L902.833 224.802ZM902.417 227.646L901.594 227.667C901.594 226.806 901.698 226.038 901.906 225.365C902.115 224.684 902.41 224.108 902.792 223.635C903.174 223.163 903.628 222.806 904.156 222.563C904.691 222.313 905.285 222.188 905.938 222.188C906.458 222.188 906.934 222.264 907.365 222.417C907.802 222.569 908.177 222.816 908.49 223.156C908.809 223.497 909.052 223.948 909.219 224.51C909.392 225.066 909.479 225.753 909.479 226.573V233.667H905.948V226.563C905.948 226.111 905.885 225.767 905.76 225.531C905.635 225.288 905.455 225.122 905.219 225.031C904.983 224.941 904.694 224.896 904.354 224.896C903.993 224.896 903.688 224.965 903.438 225.104C903.188 225.243 902.986 225.438 902.833 225.688C902.688 225.931 902.58 226.219 902.51 226.552C902.448 226.885 902.417 227.25 902.417 227.646ZM918.51 222.396H921.698V233.229C921.698 234.271 921.458 235.153 920.979 235.875C920.5 236.604 919.83 237.156 918.969 237.531C918.115 237.913 917.115 238.104 915.969 238.104C915.462 238.104 914.944 238.038 914.417 237.906C913.889 237.781 913.396 237.594 912.938 237.344C912.479 237.094 912.094 236.785 911.781 236.417L913.25 234.354C913.535 234.674 913.892 234.944 914.323 235.167C914.753 235.396 915.26 235.51 915.844 235.51C916.351 235.51 916.774 235.42 917.115 235.24C917.462 235.059 917.726 234.795 917.906 234.448C918.087 234.108 918.177 233.694 918.177 233.208V225.063L918.51 222.396ZM911.021 228.167V227.948C911.021 227.094 911.125 226.316 911.333 225.615C911.549 224.906 911.854 224.299 912.25 223.792C912.653 223.278 913.139 222.882 913.708 222.604C914.278 222.326 914.92 222.188 915.635 222.188C916.406 222.188 917.038 222.337 917.531 222.635C918.031 222.927 918.431 223.337 918.729 223.865C919.035 224.392 919.271 225.01 919.438 225.719C919.611 226.42 919.757 227.177 919.875 227.99V228.25C919.757 229.014 919.594 229.736 919.385 230.417C919.184 231.09 918.92 231.688 918.594 232.208C918.267 232.729 917.858 233.139 917.365 233.438C916.878 233.729 916.295 233.875 915.615 233.875C914.906 233.875 914.267 233.733 913.698 233.448C913.135 233.163 912.653 232.764 912.25 232.25C911.854 231.736 911.549 231.132 911.333 230.438C911.125 229.743 911.021 228.986 911.021 228.167ZM914.531 227.948V228.167C914.531 228.59 914.569 228.983 914.646 229.344C914.729 229.705 914.854 230.024 915.021 230.302C915.188 230.573 915.392 230.785 915.635 230.938C915.885 231.09 916.177 231.167 916.51 231.167C917.017 231.167 917.427 231.059 917.74 230.844C918.052 230.628 918.278 230.323 918.417 229.927C918.556 229.531 918.615 229.066 918.594 228.531V227.708C918.608 227.25 918.576 226.847 918.5 226.5C918.424 226.146 918.302 225.851 918.135 225.615C917.976 225.378 917.76 225.201 917.49 225.083C917.226 224.958 916.906 224.896 916.531 224.896C916.205 224.896 915.917 224.972 915.667 225.125C915.417 225.278 915.208 225.493 915.042 225.771C914.875 226.042 914.747 226.365 914.656 226.74C914.573 227.108 914.531 227.51 914.531 227.948ZM923.281 228.146V227.927C923.281 227.101 923.399 226.34 923.635 225.646C923.872 224.944 924.219 224.337 924.677 223.823C925.135 223.309 925.701 222.91 926.375 222.625C927.049 222.333 927.826 222.188 928.708 222.188C929.597 222.188 930.378 222.333 931.052 222.625C931.733 222.91 932.302 223.309 932.76 223.823C933.219 224.337 933.566 224.944 933.802 225.646C934.038 226.34 934.156 227.101 934.156 227.927V228.146C934.156 228.965 934.038 229.726 933.802 230.427C933.566 231.122 933.219 231.729 932.76 232.25C932.302 232.764 931.736 233.163 931.063 233.448C930.389 233.733 929.611 233.875 928.729 233.875C927.847 233.875 927.066 233.733 926.385 233.448C925.705 233.163 925.135 232.764 924.677 232.25C924.219 231.729 923.872 231.122 923.635 230.427C923.399 229.726 923.281 228.965 923.281 228.146ZM926.792 227.927V228.146C926.792 228.569 926.823 228.965 926.885 229.333C926.948 229.701 927.052 230.024 927.198 230.302C927.344 230.573 927.542 230.785 927.792 230.938C928.042 231.09 928.354 231.167 928.729 231.167C929.097 231.167 929.403 231.09 929.646 230.938C929.896 230.785 930.094 230.573 930.24 230.302C930.385 230.024 930.49 229.701 930.552 229.333C930.615 228.965 930.646 228.569 930.646 228.146V227.927C930.646 227.517 930.615 227.132 930.552 226.771C930.49 226.403 930.385 226.08 930.24 225.802C930.094 225.517 929.896 225.295 929.646 225.135C929.396 224.976 929.083 224.896 928.708 224.896C928.34 224.896 928.031 224.976 927.781 225.135C927.538 225.295 927.344 225.517 927.198 225.802C927.052 226.08 926.948 226.403 926.885 226.771C926.823 227.132 926.792 227.517 926.792 227.927ZM940.813 233.667H937.448L937.469 230.854H940.813C941.507 230.854 942.094 230.688 942.573 230.354C943.059 230.021 943.427 229.524 943.677 228.865C943.934 228.198 944.063 227.378 944.063 226.406V225.75C944.063 225.021 943.99 224.382 943.844 223.833C943.705 223.278 943.497 222.816 943.219 222.448C942.941 222.073 942.594 221.792 942.177 221.604C941.767 221.417 941.295 221.323 940.76 221.323H937.385V218.5H940.76C941.788 218.5 942.729 218.677 943.583 219.031C944.444 219.378 945.188 219.878 945.813 220.531C946.444 221.177 946.931 221.944 947.271 222.833C947.618 223.715 947.792 224.694 947.792 225.771V226.406C947.792 227.476 947.618 228.455 947.271 229.344C946.931 230.233 946.448 231 945.823 231.646C945.198 232.292 944.458 232.792 943.604 233.146C942.757 233.493 941.826 233.667 940.813 233.667ZM939.542 218.5V233.667H935.885V218.5H939.542ZM955.885 227.219H951.979L951.958 224.823H955.125C955.694 224.823 956.149 224.76 956.49 224.635C956.83 224.503 957.076 224.313 957.229 224.063C957.389 223.813 957.469 223.5 957.469 223.125C957.469 222.694 957.389 222.347 957.229 222.083C957.069 221.819 956.816 221.628 956.469 221.51C956.128 221.385 955.688 221.323 955.146 221.323H953.354V233.667H949.698V218.5H955.146C956.083 218.5 956.92 218.587 957.656 218.76C958.392 218.927 959.017 219.184 959.531 219.531C960.052 219.878 960.448 220.316 960.719 220.844C960.99 221.365 961.125 221.979 961.125 222.688C961.125 223.306 960.993 223.885 960.729 224.427C960.465 224.969 960.024 225.41 959.406 225.75C958.795 226.083 957.958 226.257 956.896 226.271L955.885 227.219ZM955.74 233.667H951.094L952.344 230.854H955.74C956.24 230.854 956.639 230.778 956.938 230.625C957.243 230.465 957.462 230.257 957.594 230C957.733 229.736 957.802 229.444 957.802 229.125C957.802 228.736 957.736 228.399 957.604 228.115C957.479 227.83 957.278 227.611 957 227.458C956.722 227.299 956.351 227.219 955.885 227.219H952.813L952.833 224.823H956.51L957.365 225.781C958.378 225.74 959.181 225.882 959.771 226.208C960.368 226.535 960.795 226.965 961.052 227.5C961.309 228.035 961.438 228.594 961.438 229.177C961.438 230.17 961.222 231 960.792 231.667C960.368 232.333 959.733 232.833 958.885 233.167C958.038 233.5 956.99 233.667 955.74 233.667Z" fill="white"/>
<rect x="1043" y="201.667" width="208" height="49.3333" rx="4.66667" fill="#888888" stroke="#888888" stroke-width="4"/>
<path d="M1104.17 218.5V233.667H1100.51V218.5H1104.17ZM1108.73 218.5V221.323H1096.05V218.5H1108.73ZM1112.72 232.344L1115.64 222.396H1119.41L1114.87 235.344C1114.78 235.628 1114.65 235.934 1114.49 236.26C1114.33 236.594 1114.11 236.91 1113.83 237.208C1113.56 237.507 1113.2 237.75 1112.76 237.938C1112.33 238.125 1111.8 238.219 1111.16 238.219C1110.82 238.219 1110.57 238.201 1110.41 238.167C1110.25 238.139 1110.02 238.087 1109.7 238.01V235.5C1109.79 235.5 1109.86 235.5 1109.93 235.5C1110 235.5 1110.07 235.5 1110.16 235.5C1110.53 235.5 1110.83 235.462 1111.05 235.385C1111.28 235.309 1111.45 235.198 1111.57 235.052C1111.7 234.906 1111.8 234.729 1111.86 234.521L1112.72 232.344ZM1111.98 222.396L1114.2 230.281L1114.58 234H1112.23L1108.22 222.396H1111.98ZM1123.86 224.563V238H1120.35V222.396H1123.62L1123.86 224.563ZM1130.78 227.896V228.115C1130.78 228.934 1130.69 229.694 1130.5 230.396C1130.31 231.097 1130.03 231.708 1129.67 232.229C1129.3 232.75 1128.84 233.156 1128.29 233.448C1127.75 233.733 1127.12 233.875 1126.41 233.875C1125.73 233.875 1125.15 233.726 1124.67 233.427C1124.18 233.128 1123.77 232.715 1123.45 232.188C1123.12 231.66 1122.86 231.056 1122.66 230.375C1122.45 229.694 1122.3 228.976 1122.18 228.219V227.938C1122.3 227.125 1122.45 226.372 1122.66 225.677C1122.86 224.976 1123.12 224.365 1123.45 223.844C1123.77 223.323 1124.18 222.917 1124.66 222.625C1125.14 222.333 1125.72 222.188 1126.4 222.188C1127.11 222.188 1127.74 222.323 1128.28 222.594C1128.83 222.865 1129.29 223.253 1129.66 223.76C1130.03 224.26 1130.31 224.861 1130.5 225.563C1130.69 226.264 1130.78 227.042 1130.78 227.896ZM1127.27 228.115V227.896C1127.27 227.458 1127.24 227.059 1127.18 226.698C1127.11 226.33 1127.01 226.01 1126.87 225.74C1126.74 225.469 1126.57 225.26 1126.34 225.115C1126.12 224.969 1125.85 224.896 1125.52 224.896C1125.15 224.896 1124.83 224.955 1124.57 225.073C1124.32 225.184 1124.12 225.358 1123.97 225.594C1123.82 225.823 1123.72 226.111 1123.66 226.458C1123.6 226.799 1123.58 227.198 1123.58 227.656V228.51C1123.57 229.038 1123.62 229.503 1123.74 229.906C1123.86 230.302 1124.06 230.611 1124.35 230.833C1124.65 231.056 1125.04 231.167 1125.54 231.167C1125.87 231.167 1126.15 231.09 1126.37 230.938C1126.6 230.778 1126.77 230.559 1126.91 230.281C1127.04 229.997 1127.13 229.67 1127.19 229.302C1127.24 228.934 1127.27 228.538 1127.27 228.115ZM1137.8 233.875C1136.89 233.875 1136.07 233.733 1135.34 233.448C1134.62 233.156 1134.01 232.757 1133.51 232.25C1133.02 231.743 1132.64 231.16 1132.37 230.5C1132.12 229.84 1131.99 229.142 1131.99 228.406V228.01C1131.99 227.184 1132.1 226.42 1132.33 225.719C1132.56 225.01 1132.9 224.392 1133.35 223.865C1133.81 223.337 1134.37 222.927 1135.05 222.635C1135.73 222.337 1136.52 222.188 1137.43 222.188C1138.23 222.188 1138.94 222.316 1139.57 222.573C1140.2 222.83 1140.74 223.198 1141.18 223.677C1141.62 224.156 1141.96 224.736 1142.19 225.417C1142.42 226.097 1142.54 226.861 1142.54 227.708V229.135H1133.33V226.938H1139.11V226.667C1139.12 226.292 1139.06 225.972 1138.92 225.708C1138.78 225.444 1138.59 225.243 1138.33 225.104C1138.08 224.965 1137.76 224.896 1137.4 224.896C1137.01 224.896 1136.7 224.979 1136.45 225.146C1136.2 225.313 1136.01 225.542 1135.87 225.833C1135.74 226.118 1135.65 226.448 1135.59 226.823C1135.54 227.198 1135.51 227.594 1135.51 228.01V228.406C1135.51 228.823 1135.57 229.201 1135.68 229.542C1135.8 229.882 1135.96 230.174 1136.18 230.417C1136.4 230.653 1136.66 230.837 1136.97 230.969C1137.28 231.101 1137.64 231.167 1138.03 231.167C1138.51 231.167 1138.98 231.076 1139.45 230.896C1139.91 230.715 1140.31 230.417 1140.65 230L1142.24 231.896C1142.01 232.222 1141.68 232.538 1141.26 232.844C1140.84 233.149 1140.34 233.399 1139.76 233.594C1139.18 233.781 1138.52 233.875 1137.8 233.875ZM1149.87 230.5C1149.87 230.306 1149.81 230.139 1149.68 230C1149.55 229.854 1149.33 229.722 1149.01 229.604C1148.69 229.479 1148.24 229.354 1147.67 229.229C1147.12 229.111 1146.6 228.955 1146.11 228.76C1145.64 228.566 1145.22 228.33 1144.85 228.052C1144.49 227.774 1144.21 227.444 1144 227.063C1143.8 226.681 1143.7 226.243 1143.7 225.75C1143.7 225.271 1143.8 224.819 1144 224.396C1144.21 223.965 1144.51 223.587 1144.91 223.26C1145.31 222.927 1145.8 222.667 1146.37 222.479C1146.95 222.285 1147.61 222.188 1148.34 222.188C1149.36 222.188 1150.23 222.344 1150.97 222.656C1151.7 222.962 1152.27 223.392 1152.67 223.948C1153.07 224.497 1153.27 225.132 1153.27 225.854H1149.76C1149.76 225.569 1149.71 225.326 1149.61 225.125C1149.52 224.924 1149.37 224.771 1149.17 224.667C1148.96 224.556 1148.68 224.5 1148.33 224.5C1148.09 224.5 1147.87 224.545 1147.67 224.635C1147.47 224.726 1147.32 224.851 1147.2 225.01C1147.08 225.17 1147.02 225.358 1147.02 225.573C1147.02 225.726 1147.06 225.865 1147.12 225.99C1147.2 226.108 1147.32 226.219 1147.47 226.323C1147.62 226.42 1147.82 226.51 1148.05 226.594C1148.29 226.67 1148.57 226.74 1148.91 226.802C1149.66 226.941 1150.37 227.139 1151.03 227.396C1151.69 227.653 1152.23 228.017 1152.64 228.49C1153.05 228.962 1153.26 229.597 1153.26 230.396C1153.26 230.896 1153.15 231.358 1152.92 231.781C1152.69 232.198 1152.36 232.566 1151.93 232.885C1151.5 233.198 1150.98 233.441 1150.37 233.615C1149.77 233.788 1149.09 233.875 1148.33 233.875C1147.26 233.875 1146.35 233.684 1145.6 233.302C1144.86 232.913 1144.3 232.427 1143.92 231.844C1143.54 231.253 1143.35 230.656 1143.35 230.052H1146.62C1146.64 230.399 1146.72 230.684 1146.87 230.906C1147.03 231.128 1147.25 231.292 1147.51 231.396C1147.77 231.5 1148.08 231.552 1148.43 231.552C1148.75 231.552 1149.01 231.507 1149.22 231.417C1149.43 231.326 1149.6 231.205 1149.71 231.052C1149.82 230.892 1149.87 230.708 1149.87 230.5ZM1159.67 231.167C1159.99 231.167 1160.27 231.108 1160.5 230.99C1160.74 230.865 1160.91 230.691 1161.03 230.469C1161.16 230.24 1161.22 229.965 1161.21 229.646H1164.51C1164.52 230.493 1164.31 231.236 1163.89 231.875C1163.47 232.507 1162.9 233 1162.18 233.354C1161.46 233.701 1160.65 233.875 1159.75 233.875C1158.87 233.875 1158.1 233.733 1157.44 233.448C1156.78 233.156 1156.23 232.753 1155.78 232.24C1155.34 231.719 1155.01 231.111 1154.79 230.417C1154.58 229.722 1154.47 228.969 1154.47 228.156V227.917C1154.47 227.104 1154.58 226.351 1154.79 225.656C1155.01 224.955 1155.34 224.347 1155.78 223.833C1156.23 223.313 1156.77 222.91 1157.43 222.625C1158.09 222.333 1158.85 222.188 1159.73 222.188C1160.67 222.188 1161.49 222.365 1162.21 222.719C1162.93 223.073 1163.5 223.587 1163.91 224.26C1164.32 224.934 1164.52 225.75 1164.51 226.708H1161.21C1161.22 226.368 1161.16 226.063 1161.05 225.792C1160.94 225.521 1160.77 225.306 1160.53 225.146C1160.3 224.979 1160.01 224.896 1159.65 224.896C1159.28 224.896 1158.99 224.976 1158.77 225.135C1158.55 225.295 1158.38 225.517 1158.26 225.802C1158.15 226.08 1158.07 226.399 1158.03 226.76C1158 227.122 1157.98 227.507 1157.98 227.917V228.156C1157.98 228.573 1158 228.965 1158.03 229.333C1158.07 229.694 1158.15 230.014 1158.27 230.292C1158.39 230.563 1158.56 230.778 1158.78 230.938C1159 231.09 1159.3 231.167 1159.67 231.167ZM1169.55 225.188V233.667H1166.04V222.396H1169.32L1169.55 225.188ZM1172.89 222.313L1172.82 225.573C1172.68 225.559 1172.5 225.542 1172.26 225.521C1172.02 225.5 1171.83 225.49 1171.67 225.49C1171.26 225.49 1170.9 225.538 1170.6 225.635C1170.31 225.726 1170.07 225.865 1169.88 226.052C1169.69 226.233 1169.55 226.462 1169.46 226.74C1169.38 227.017 1169.34 227.34 1169.34 227.708L1168.71 227.292C1168.71 226.535 1168.78 225.847 1168.93 225.229C1169.08 224.604 1169.3 224.066 1169.57 223.615C1169.85 223.156 1170.19 222.806 1170.58 222.563C1170.98 222.313 1171.42 222.188 1171.92 222.188C1172.09 222.188 1172.26 222.198 1172.43 222.219C1172.6 222.24 1172.75 222.271 1172.89 222.313ZM1177.8 222.396V233.667H1174.28V222.396H1177.8ZM1174.07 219.49C1174.07 218.99 1174.25 218.58 1174.61 218.26C1174.98 217.941 1175.44 217.781 1176.02 217.781C1176.6 217.781 1177.07 217.941 1177.43 218.26C1177.79 218.58 1177.97 218.99 1177.97 219.49C1177.97 219.99 1177.79 220.399 1177.43 220.719C1177.07 221.038 1176.6 221.198 1176.02 221.198C1175.44 221.198 1174.98 221.038 1174.61 220.719C1174.25 220.399 1174.07 219.99 1174.07 219.49ZM1183.51 224.563V238H1180V222.396H1183.27L1183.51 224.563ZM1190.43 227.896V228.115C1190.43 228.934 1190.33 229.694 1190.15 230.396C1189.96 231.097 1189.68 231.708 1189.31 232.229C1188.94 232.75 1188.49 233.156 1187.94 233.448C1187.4 233.733 1186.77 233.875 1186.05 233.875C1185.38 233.875 1184.8 233.726 1184.31 233.427C1183.83 233.128 1183.42 232.715 1183.09 232.188C1182.77 231.66 1182.5 231.056 1182.3 230.375C1182.1 229.694 1181.94 228.976 1181.82 228.219V227.938C1181.94 227.125 1182.1 226.372 1182.3 225.677C1182.5 224.976 1182.77 224.365 1183.09 223.844C1183.42 223.323 1183.82 222.917 1184.3 222.625C1184.79 222.333 1185.37 222.188 1186.04 222.188C1186.76 222.188 1187.39 222.323 1187.93 222.594C1188.48 222.865 1188.93 223.253 1189.3 223.76C1189.68 224.26 1189.96 224.861 1190.15 225.563C1190.33 226.264 1190.43 227.042 1190.43 227.896ZM1186.92 228.115V227.896C1186.92 227.458 1186.89 227.059 1186.82 226.698C1186.76 226.33 1186.66 226.01 1186.52 225.74C1186.39 225.469 1186.21 225.26 1185.99 225.115C1185.77 224.969 1185.49 224.896 1185.17 224.896C1184.79 224.896 1184.48 224.955 1184.22 225.073C1183.97 225.184 1183.77 225.358 1183.61 225.594C1183.47 225.823 1183.36 226.111 1183.3 226.458C1183.25 226.799 1183.22 227.198 1183.23 227.656V228.51C1183.22 229.038 1183.27 229.503 1183.39 229.906C1183.5 230.302 1183.71 230.611 1184 230.833C1184.29 231.056 1184.69 231.167 1185.19 231.167C1185.52 231.167 1185.8 231.09 1186.02 230.938C1186.24 230.778 1186.42 230.559 1186.55 230.281C1186.68 229.997 1186.78 229.67 1186.83 229.302C1186.89 228.934 1186.92 228.538 1186.92 228.115ZM1197.93 222.396V224.833H1191.14V222.396H1197.93ZM1192.56 219.594H1196.07V229.99C1196.07 230.288 1196.11 230.521 1196.18 230.688C1196.25 230.847 1196.36 230.962 1196.53 231.031C1196.7 231.094 1196.93 231.125 1197.22 231.125C1197.42 231.125 1197.59 231.122 1197.72 231.115C1197.85 231.101 1197.98 231.083 1198.09 231.063V233.573C1197.8 233.67 1197.48 233.743 1197.16 233.792C1196.83 233.847 1196.48 233.875 1196.11 233.875C1195.36 233.875 1194.72 233.757 1194.19 233.521C1193.66 233.285 1193.26 232.913 1192.98 232.406C1192.7 231.899 1192.56 231.24 1192.56 230.427V219.594Z" fill="white"/>
</svg>
