<svg width="1363" height="301" viewBox="0 0 1363 301" fill="none" xmlns="http://www.w3.org/2000/svg">
<rect width="1363" height="301" rx="15" fill="#F0F0F0"/>
<path d="M0 15C0 6.71573 6.71573 0 15 0H37V301H15C6.71573 301 0 294.284 0 286V15Z" fill="#1877F2"/>
<path d="M117.217 130.76H126.617C126.491 133.482 125.757 135.881 124.415 137.958C123.072 140.034 121.21 141.655 118.829 142.818C116.465 143.964 113.672 144.537 110.45 144.537C107.836 144.537 105.499 144.098 103.44 143.221C101.399 142.344 99.6628 141.082 98.2305 139.435C96.8161 137.787 95.7329 135.791 94.981 133.446C94.2469 131.1 93.8799 128.46 93.8799 125.523V123.402C93.8799 120.466 94.2648 117.825 95.0347 115.479C95.8224 113.116 96.9325 111.111 98.3647 109.464C99.8149 107.799 101.552 106.528 103.575 105.65C105.598 104.773 107.845 104.334 110.315 104.334C113.717 104.334 116.591 104.943 118.936 106.161C121.281 107.378 123.099 109.052 124.388 111.183C125.677 113.295 126.438 115.703 126.67 118.407H117.271C117.235 116.939 116.985 115.712 116.519 114.728C116.054 113.725 115.319 112.973 114.317 112.472C113.314 111.97 111.98 111.72 110.315 111.72C109.152 111.72 108.14 111.935 107.281 112.364C106.421 112.794 105.705 113.474 105.132 114.405C104.559 115.336 104.13 116.545 103.843 118.031C103.575 119.499 103.44 121.271 103.44 123.348V125.523C103.44 127.6 103.566 129.373 103.816 130.841C104.067 132.309 104.47 133.508 105.025 134.439C105.58 135.37 106.296 136.06 107.173 136.507C108.069 136.937 109.161 137.152 110.45 137.152C111.882 137.152 113.09 136.928 114.075 136.48C115.06 136.015 115.821 135.317 116.358 134.386C116.895 133.437 117.181 132.228 117.217 130.76ZM129.517 129.767V129.203C129.517 127.072 129.821 125.112 130.43 123.321C131.039 121.513 131.934 119.946 133.116 118.622C134.297 117.297 135.757 116.267 137.493 115.533C139.23 114.781 141.235 114.405 143.509 114.405C145.8 114.405 147.815 114.781 149.551 115.533C151.306 116.267 152.774 117.297 153.956 118.622C155.137 119.946 156.032 121.513 156.641 123.321C157.25 125.112 157.554 127.072 157.554 129.203V129.767C157.554 131.879 157.25 133.84 156.641 135.648C156.032 137.438 155.137 139.005 153.956 140.348C152.774 141.673 151.315 142.702 149.578 143.436C147.841 144.17 145.836 144.537 143.562 144.537C141.289 144.537 139.275 144.17 137.52 143.436C135.765 142.702 134.297 141.673 133.116 140.348C131.934 139.005 131.039 137.438 130.43 135.648C129.821 133.84 129.517 131.879 129.517 129.767ZM138.567 129.203V129.767C138.567 130.859 138.648 131.879 138.809 132.828C138.97 133.777 139.239 134.61 139.615 135.326C139.991 136.024 140.501 136.57 141.146 136.964C141.79 137.358 142.596 137.555 143.562 137.555C144.511 137.555 145.299 137.358 145.926 136.964C146.57 136.57 147.081 136.024 147.457 135.326C147.833 134.61 148.101 133.777 148.262 132.828C148.423 131.879 148.504 130.859 148.504 129.767V129.203C148.504 128.146 148.423 127.153 148.262 126.222C148.101 125.273 147.833 124.44 147.457 123.724C147.081 122.99 146.57 122.417 145.926 122.005C145.281 121.594 144.476 121.388 143.509 121.388C142.56 121.388 141.763 121.594 141.119 122.005C140.492 122.417 139.991 122.99 139.615 123.724C139.239 124.44 138.97 125.273 138.809 126.222C138.648 127.153 138.567 128.146 138.567 129.203ZM170.713 121.092V144H161.663V114.942H170.149L170.713 121.092ZM169.612 128.478L167.544 128.531C167.544 126.49 167.786 124.61 168.27 122.892C168.753 121.173 169.469 119.678 170.418 118.407C171.367 117.136 172.531 116.151 173.909 115.453C175.306 114.754 176.917 114.405 178.743 114.405C180.014 114.405 181.169 114.602 182.208 114.996C183.246 115.372 184.141 115.972 184.893 116.795C185.645 117.601 186.218 118.657 186.612 119.964C187.024 121.253 187.229 122.802 187.229 124.61V144H178.179V125.765C178.179 124.53 178.036 123.599 177.75 122.972C177.481 122.346 177.087 121.925 176.568 121.71C176.049 121.495 175.413 121.388 174.661 121.388C173.873 121.388 173.166 121.567 172.54 121.925C171.913 122.283 171.376 122.784 170.928 123.429C170.499 124.055 170.167 124.798 169.935 125.658C169.72 126.517 169.612 127.457 169.612 128.478ZM186.209 128.478L183.685 128.531C183.685 126.49 183.908 124.61 184.356 122.892C184.821 121.173 185.511 119.678 186.424 118.407C187.355 117.136 188.51 116.151 189.888 115.453C191.267 114.754 192.869 114.405 194.695 114.405C196.02 114.405 197.238 114.602 198.348 114.996C199.458 115.39 200.416 116.026 201.221 116.903C202.027 117.78 202.653 118.944 203.101 120.394C203.549 121.826 203.772 123.599 203.772 125.711V144H194.695V125.711C194.695 124.512 194.552 123.608 194.266 122.999C193.997 122.372 193.603 121.952 193.084 121.737C192.565 121.504 191.947 121.388 191.231 121.388C190.372 121.388 189.629 121.567 189.002 121.925C188.375 122.283 187.847 122.784 187.417 123.429C187.006 124.055 186.701 124.798 186.504 125.658C186.307 126.517 186.209 127.457 186.209 128.478ZM218.086 120.528V155.172H209.036V114.942H217.469L218.086 120.528ZM235.918 129.122V129.686C235.918 131.799 235.677 133.759 235.193 135.567C234.71 137.376 233.994 138.951 233.045 140.294C232.096 141.637 230.914 142.684 229.5 143.436C228.104 144.17 226.483 144.537 224.639 144.537C222.903 144.537 221.408 144.152 220.154 143.382C218.901 142.612 217.854 141.547 217.012 140.187C216.171 138.826 215.49 137.268 214.971 135.514C214.452 133.759 214.04 131.906 213.736 129.955V129.229C214.04 127.135 214.452 125.192 214.971 123.402C215.49 121.594 216.171 120.018 217.012 118.675C217.854 117.333 218.892 116.285 220.127 115.533C221.381 114.781 222.876 114.405 224.612 114.405C226.456 114.405 228.077 114.754 229.473 115.453C230.888 116.151 232.069 117.153 233.018 118.46C233.985 119.75 234.71 121.298 235.193 123.106C235.677 124.915 235.918 126.92 235.918 129.122ZM226.868 129.686V129.122C226.868 127.994 226.788 126.965 226.626 126.034C226.465 125.085 226.206 124.261 225.848 123.563C225.507 122.865 225.051 122.328 224.478 121.952C223.905 121.576 223.198 121.388 222.356 121.388C221.39 121.388 220.575 121.54 219.913 121.844C219.268 122.131 218.749 122.578 218.355 123.187C217.979 123.778 217.71 124.521 217.549 125.416C217.406 126.293 217.343 127.323 217.361 128.504V130.707C217.326 132.067 217.46 133.267 217.764 134.305C218.069 135.326 218.597 136.122 219.349 136.695C220.101 137.268 221.121 137.555 222.41 137.555C223.27 137.555 223.986 137.358 224.559 136.964C225.132 136.552 225.588 135.988 225.928 135.272C226.268 134.538 226.51 133.696 226.653 132.748C226.797 131.799 226.868 130.778 226.868 129.686ZM255.254 114.942V121.227H237.745V114.942H255.254ZM241.424 107.718H250.474V134.52C250.474 135.29 250.564 135.89 250.743 136.319C250.922 136.731 251.226 137.027 251.656 137.206C252.103 137.367 252.694 137.447 253.428 137.447C253.947 137.447 254.377 137.438 254.717 137.42C255.057 137.385 255.38 137.34 255.684 137.286V143.758C254.914 144.009 254.109 144.197 253.267 144.322C252.426 144.465 251.53 144.537 250.582 144.537C248.648 144.537 246.992 144.233 245.613 143.624C244.253 143.015 243.214 142.057 242.498 140.75C241.782 139.444 241.424 137.743 241.424 135.648V107.718ZM275.826 136.937V114.942H284.903V144H276.417L275.826 136.937ZM276.685 131.029L279.048 130.975C279.048 132.927 278.816 134.735 278.35 136.4C277.885 138.047 277.195 139.479 276.282 140.697C275.387 141.914 274.277 142.863 272.952 143.543C271.645 144.206 270.132 144.537 268.414 144.537C266.981 144.537 265.665 144.34 264.466 143.946C263.284 143.535 262.264 142.899 261.404 142.04C260.545 141.162 259.874 140.043 259.39 138.683C258.925 137.304 258.692 135.657 258.692 133.741V114.942H267.742V133.795C267.742 134.439 267.823 134.994 267.984 135.46C268.145 135.925 268.378 136.319 268.682 136.642C268.986 136.946 269.362 137.179 269.81 137.34C270.276 137.483 270.804 137.555 271.395 137.555C272.755 137.555 273.82 137.268 274.59 136.695C275.36 136.122 275.897 135.344 276.202 134.359C276.524 133.374 276.685 132.264 276.685 131.029ZM305.206 114.942V121.227H287.696V114.942H305.206ZM291.375 107.718H300.425V134.52C300.425 135.29 300.515 135.89 300.694 136.319C300.873 136.731 301.177 137.027 301.607 137.206C302.055 137.367 302.645 137.447 303.379 137.447C303.899 137.447 304.328 137.438 304.668 137.42C305.009 137.385 305.331 137.34 305.635 137.286V143.758C304.865 144.009 304.06 144.197 303.218 144.322C302.377 144.465 301.482 144.537 300.533 144.537C298.599 144.537 296.943 144.233 295.564 143.624C294.204 143.015 293.165 142.057 292.449 140.75C291.733 139.444 291.375 137.743 291.375 135.648V107.718ZM306.871 129.767V129.203C306.871 127.072 307.175 125.112 307.784 123.321C308.392 121.513 309.288 119.946 310.469 118.622C311.651 117.297 313.11 116.267 314.847 115.533C316.583 114.781 318.589 114.405 320.862 114.405C323.154 114.405 325.168 114.781 326.905 115.533C328.659 116.267 330.127 117.297 331.309 118.622C332.491 119.946 333.386 121.513 333.995 123.321C334.603 125.112 334.908 127.072 334.908 129.203V129.767C334.908 131.879 334.603 133.84 333.995 135.648C333.386 137.438 332.491 139.005 331.309 140.348C330.127 141.673 328.668 142.702 326.932 143.436C325.195 144.17 323.19 144.537 320.916 144.537C318.642 144.537 316.628 144.17 314.874 143.436C313.119 142.702 311.651 141.673 310.469 140.348C309.288 139.005 308.392 137.438 307.784 135.648C307.175 133.84 306.871 131.879 306.871 129.767ZM315.921 129.203V129.767C315.921 130.859 316.001 131.879 316.163 132.828C316.324 133.777 316.592 134.61 316.968 135.326C317.344 136.024 317.854 136.57 318.499 136.964C319.144 137.358 319.949 137.555 320.916 137.555C321.865 137.555 322.653 137.358 323.279 136.964C323.924 136.57 324.434 136.024 324.81 135.326C325.186 134.61 325.455 133.777 325.616 132.828C325.777 131.879 325.857 130.859 325.857 129.767V129.203C325.857 128.146 325.777 127.153 325.616 126.222C325.455 125.273 325.186 124.44 324.81 123.724C324.434 122.99 323.924 122.417 323.279 122.005C322.635 121.594 321.829 121.388 320.862 121.388C319.913 121.388 319.117 121.594 318.472 122.005C317.846 122.417 317.344 122.99 316.968 123.724C316.592 124.44 316.324 125.273 316.163 126.222C316.001 127.153 315.921 128.146 315.921 129.203ZM348.067 122.14V144H339.017V114.942H347.476L348.067 122.14ZM356.661 114.728L356.5 123.133C356.141 123.097 355.658 123.053 355.049 122.999C354.441 122.945 353.93 122.918 353.519 122.918C352.462 122.918 351.549 123.044 350.779 123.294C350.027 123.527 349.401 123.885 348.899 124.369C348.416 124.834 348.058 125.425 347.825 126.141C347.61 126.857 347.512 127.69 347.53 128.639L345.892 127.564C345.892 125.613 346.08 123.84 346.456 122.247C346.849 120.636 347.404 119.248 348.121 118.084C348.837 116.903 349.705 115.999 350.726 115.372C351.746 114.728 352.892 114.405 354.163 114.405C354.611 114.405 355.049 114.432 355.479 114.486C355.927 114.54 356.32 114.62 356.661 114.728Z" fill="black"/>
<path d="M96.563 55.1172H100.904L107.295 73.3862L113.687 55.1172H118.028L109.039 80H105.552L96.563 55.1172ZM94.2217 55.1172H98.5454L99.3315 72.9248V80H94.2217V55.1172ZM116.045 55.1172H120.386V80H115.259V72.9248L116.045 55.1172ZM123.787 70.9424V70.5835C123.787 69.2277 123.981 67.9801 124.368 66.8408C124.756 65.6901 125.319 64.6932 126.06 63.8501C126.801 63.007 127.712 62.3519 128.794 61.8848C129.877 61.4062 131.119 61.167 132.52 61.167C133.921 61.167 135.169 61.4062 136.263 61.8848C137.356 62.3519 138.274 63.007 139.014 63.8501C139.766 64.6932 140.336 65.6901 140.723 66.8408C141.111 67.9801 141.304 69.2277 141.304 70.5835V70.9424C141.304 72.2868 141.111 73.5343 140.723 74.6851C140.336 75.8244 139.766 76.8213 139.014 77.6758C138.274 78.5189 137.362 79.174 136.28 79.6411C135.197 80.1082 133.956 80.3418 132.554 80.3418C131.153 80.3418 129.905 80.1082 128.812 79.6411C127.729 79.174 126.812 78.5189 126.06 77.6758C125.319 76.8213 124.756 75.8244 124.368 74.6851C123.981 73.5343 123.787 72.2868 123.787 70.9424ZM128.709 70.5835V70.9424C128.709 71.7171 128.777 72.4406 128.914 73.1128C129.051 73.785 129.267 74.3774 129.563 74.8901C129.871 75.3914 130.27 75.7845 130.76 76.0693C131.25 76.3542 131.848 76.4966 132.554 76.4966C133.238 76.4966 133.825 76.3542 134.314 76.0693C134.804 75.7845 135.197 75.3914 135.494 74.8901C135.79 74.3774 136.006 73.785 136.143 73.1128C136.291 72.4406 136.365 71.7171 136.365 70.9424V70.5835C136.365 69.8315 136.291 69.1252 136.143 68.4644C136.006 67.7922 135.784 67.1997 135.477 66.687C135.18 66.1629 134.787 65.7528 134.297 65.4565C133.807 65.1603 133.215 65.0122 132.52 65.0122C131.825 65.0122 131.233 65.1603 130.743 65.4565C130.264 65.7528 129.871 66.1629 129.563 66.687C129.267 67.1997 129.051 67.7922 128.914 68.4644C128.777 69.1252 128.709 69.8315 128.709 70.5835ZM149.131 53.75V80H144.209V53.75H149.131ZM148.431 70.105H147.081C147.092 68.8175 147.263 67.6326 147.593 66.5503C147.924 65.4565 148.396 64.5109 149.012 63.7134C149.627 62.9045 150.362 62.2778 151.216 61.8335C152.082 61.3892 153.039 61.167 154.087 61.167C154.999 61.167 155.825 61.298 156.565 61.5601C157.317 61.8107 157.961 62.2209 158.497 62.7905C159.043 63.3488 159.465 64.0837 159.761 64.9951C160.057 65.9066 160.206 67.0117 160.206 68.3105V80H155.25V68.2764C155.25 67.4561 155.13 66.8123 154.891 66.3452C154.663 65.8667 154.327 65.5306 153.882 65.3369C153.449 65.1318 152.914 65.0293 152.276 65.0293C151.569 65.0293 150.966 65.1603 150.464 65.4224C149.974 65.6844 149.581 66.049 149.285 66.5161C148.989 66.9718 148.772 67.5073 148.636 68.1226C148.499 68.7378 148.431 69.3986 148.431 70.105ZM173.929 75.8301V67.5928C173.929 67.0003 173.832 66.4933 173.638 66.0718C173.444 65.6388 173.143 65.3027 172.732 65.0635C172.334 64.8242 171.815 64.7046 171.177 64.7046C170.63 64.7046 170.158 64.8014 169.759 64.9951C169.36 65.1774 169.052 65.4451 168.836 65.7983C168.619 66.1401 168.511 66.5446 168.511 67.0117H163.589C163.589 66.2256 163.772 65.4793 164.136 64.7729C164.501 64.0666 165.031 63.4456 165.726 62.9102C166.421 62.3633 167.247 61.936 168.204 61.6284C169.172 61.3208 170.254 61.167 171.451 61.167C172.886 61.167 174.162 61.4062 175.279 61.8848C176.395 62.3633 177.273 63.0811 177.911 64.0381C178.56 64.9951 178.885 66.1914 178.885 67.627V75.5396C178.885 76.5535 178.947 77.3853 179.073 78.0347C179.198 78.6727 179.38 79.231 179.62 79.7095V80H174.646C174.407 79.4987 174.225 78.8721 174.1 78.1201C173.986 77.3568 173.929 76.5934 173.929 75.8301ZM174.578 68.7378L174.612 71.5234H171.861C171.211 71.5234 170.647 71.5975 170.169 71.7456C169.69 71.8937 169.297 72.1045 168.99 72.3779C168.682 72.64 168.454 72.9476 168.306 73.3008C168.169 73.654 168.101 74.0413 168.101 74.4629C168.101 74.8844 168.198 75.2661 168.392 75.6079C168.585 75.9383 168.864 76.2004 169.229 76.394C169.594 76.5763 170.021 76.6675 170.511 76.6675C171.251 76.6675 171.895 76.5194 172.442 76.2231C172.989 75.9269 173.41 75.5623 173.707 75.1294C174.014 74.6965 174.174 74.2863 174.185 73.8989L175.484 75.9839C175.302 76.451 175.051 76.9352 174.732 77.4365C174.424 77.9378 174.031 78.4106 173.553 78.855C173.074 79.2879 172.499 79.6468 171.827 79.9316C171.154 80.2051 170.357 80.3418 169.434 80.3418C168.261 80.3418 167.195 80.1082 166.238 79.6411C165.293 79.1626 164.541 78.5075 163.982 77.6758C163.436 76.8327 163.162 75.8757 163.162 74.8047C163.162 73.8363 163.344 72.9761 163.709 72.2241C164.074 71.4722 164.609 70.8398 165.315 70.3271C166.033 69.8031 166.928 69.41 167.999 69.1479C169.069 68.8745 170.311 68.7378 171.724 68.7378H174.578ZM187.601 65.3369V80H182.662V61.5088H187.293L187.601 65.3369ZM186.917 70.105H185.55C185.55 68.8175 185.704 67.6326 186.011 66.5503C186.33 65.4565 186.792 64.5109 187.396 63.7134C188.011 62.9045 188.768 62.2778 189.668 61.8335C190.569 61.3892 191.611 61.167 192.796 61.167C193.616 61.167 194.368 61.2923 195.052 61.543C195.735 61.7822 196.322 62.1639 196.812 62.688C197.313 63.2007 197.701 63.8729 197.974 64.7046C198.248 65.5249 198.384 66.5104 198.384 67.6611V80H193.462V68.208C193.462 67.3649 193.348 66.7155 193.121 66.2598C192.893 65.804 192.568 65.485 192.146 65.3027C191.736 65.1204 191.241 65.0293 190.66 65.0293C190.022 65.0293 189.463 65.1603 188.985 65.4224C188.518 65.6844 188.13 66.049 187.823 66.5161C187.515 66.9718 187.287 67.5073 187.139 68.1226C186.991 68.7378 186.917 69.3986 186.917 70.105ZM197.923 69.541L196.163 69.7632C196.163 68.5555 196.311 67.4333 196.607 66.3965C196.915 65.3597 197.365 64.4482 197.957 63.6621C198.561 62.876 199.307 62.2664 200.196 61.8335C201.084 61.3892 202.11 61.167 203.272 61.167C204.161 61.167 204.97 61.298 205.699 61.5601C206.428 61.8107 207.049 62.2152 207.562 62.7734C208.086 63.3203 208.484 64.0381 208.758 64.9268C209.043 65.8154 209.185 66.9035 209.185 68.1909V80H204.246V68.1909C204.246 67.3364 204.132 66.687 203.904 66.2427C203.688 65.7869 203.369 65.4736 202.947 65.3027C202.537 65.1204 202.047 65.0293 201.478 65.0293C200.885 65.0293 200.367 65.1489 199.922 65.3882C199.478 65.616 199.108 65.9351 198.812 66.3452C198.515 66.7554 198.293 67.2339 198.145 67.7808C197.997 68.3162 197.923 68.903 197.923 69.541ZM217.918 65.3369V80H212.979V61.5088H217.61L217.918 65.3369ZM217.234 70.105H215.867C215.867 68.8175 216.021 67.6326 216.329 66.5503C216.648 65.4565 217.109 64.5109 217.713 63.7134C218.328 62.9045 219.086 62.2778 219.986 61.8335C220.886 61.3892 221.928 61.167 223.113 61.167C223.934 61.167 224.686 61.2923 225.369 61.543C226.053 61.7822 226.639 62.1639 227.129 62.688C227.631 63.2007 228.018 63.8729 228.292 64.7046C228.565 65.5249 228.702 66.5104 228.702 67.6611V80H223.78V68.208C223.78 67.3649 223.666 66.7155 223.438 66.2598C223.21 65.804 222.885 65.485 222.464 65.3027C222.054 65.1204 221.558 65.0293 220.977 65.0293C220.339 65.0293 219.781 65.1603 219.302 65.4224C218.835 65.6844 218.448 66.049 218.14 66.5161C217.833 66.9718 217.605 67.5073 217.457 68.1226C217.308 68.7378 217.234 69.3986 217.234 70.105ZM228.24 69.541L226.48 69.7632C226.48 68.5555 226.628 67.4333 226.924 66.3965C227.232 65.3597 227.682 64.4482 228.274 63.6621C228.878 62.876 229.625 62.2664 230.513 61.8335C231.402 61.3892 232.427 61.167 233.589 61.167C234.478 61.167 235.287 61.298 236.016 61.5601C236.745 61.8107 237.366 62.2152 237.879 62.7734C238.403 63.3203 238.802 64.0381 239.075 64.9268C239.36 65.8154 239.502 66.9035 239.502 68.1909V80H234.563V68.1909C234.563 67.3364 234.45 66.687 234.222 66.2427C234.005 65.7869 233.686 65.4736 233.265 65.3027C232.854 65.1204 232.365 65.0293 231.795 65.0293C231.202 65.0293 230.684 65.1489 230.24 65.3882C229.795 65.616 229.425 65.9351 229.129 66.3452C228.833 66.7554 228.611 67.2339 228.462 67.7808C228.314 68.3162 228.24 68.903 228.24 69.541ZM253.294 75.8301V67.5928C253.294 67.0003 253.197 66.4933 253.003 66.0718C252.81 65.6388 252.508 65.3027 252.098 65.0635C251.699 64.8242 251.181 64.7046 250.542 64.7046C249.996 64.7046 249.523 64.8014 249.124 64.9951C248.725 65.1774 248.418 65.4451 248.201 65.7983C247.985 66.1401 247.876 66.5446 247.876 67.0117H242.955C242.955 66.2256 243.137 65.4793 243.501 64.7729C243.866 64.0666 244.396 63.4456 245.091 62.9102C245.786 62.3633 246.612 61.936 247.569 61.6284C248.537 61.3208 249.62 61.167 250.816 61.167C252.251 61.167 253.528 61.4062 254.644 61.8848C255.761 62.3633 256.638 63.0811 257.276 64.0381C257.925 64.9951 258.25 66.1914 258.25 67.627V75.5396C258.25 76.5535 258.313 77.3853 258.438 78.0347C258.563 78.6727 258.746 79.231 258.985 79.7095V80H254.012C253.772 79.4987 253.59 78.8721 253.465 78.1201C253.351 77.3568 253.294 76.5934 253.294 75.8301ZM253.943 68.7378L253.978 71.5234H251.226C250.577 71.5234 250.013 71.5975 249.534 71.7456C249.056 71.8937 248.663 72.1045 248.355 72.3779C248.047 72.64 247.819 72.9476 247.671 73.3008C247.535 73.654 247.466 74.0413 247.466 74.4629C247.466 74.8844 247.563 75.2661 247.757 75.6079C247.951 75.9383 248.23 76.2004 248.594 76.394C248.959 76.5763 249.386 76.6675 249.876 76.6675C250.617 76.6675 251.26 76.5194 251.807 76.2231C252.354 75.9269 252.776 75.5623 253.072 75.1294C253.379 74.6965 253.539 74.2863 253.55 73.8989L254.849 75.9839C254.667 76.451 254.416 76.9352 254.097 77.4365C253.79 77.9378 253.396 78.4106 252.918 78.855C252.439 79.2879 251.864 79.6468 251.192 79.9316C250.52 80.2051 249.722 80.3418 248.799 80.3418C247.626 80.3418 246.561 80.1082 245.604 79.6411C244.658 79.1626 243.906 78.5075 243.348 77.6758C242.801 76.8327 242.527 75.8757 242.527 74.8047C242.527 73.8363 242.71 72.9761 243.074 72.2241C243.439 71.4722 243.974 70.8398 244.681 70.3271C245.398 69.8031 246.293 69.41 247.364 69.1479C248.435 68.8745 249.677 68.7378 251.089 68.7378H253.943ZM272.964 75.9668V53.75H277.92V80H273.46L272.964 75.9668ZM261.275 70.9766V70.6177C261.275 69.2049 261.434 67.9232 261.753 66.7725C262.072 65.6104 262.54 64.6134 263.155 63.7817C263.77 62.95 264.528 62.3063 265.428 61.8506C266.328 61.3949 267.353 61.167 268.504 61.167C269.586 61.167 270.532 61.3949 271.341 61.8506C272.161 62.3063 272.856 62.9557 273.426 63.7988C274.007 64.6305 274.474 65.616 274.827 66.7554C275.18 67.8833 275.437 69.1195 275.596 70.4639V71.25C275.437 72.5374 275.18 73.7337 274.827 74.8389C274.474 75.944 274.007 76.9124 273.426 77.7441C272.856 78.5645 272.161 79.2025 271.341 79.6582C270.521 80.1139 269.563 80.3418 268.47 80.3418C267.319 80.3418 266.294 80.1082 265.394 79.6411C264.505 79.174 263.753 78.5189 263.138 77.6758C262.534 76.8327 262.072 75.8415 261.753 74.7021C261.434 73.5628 261.275 72.321 261.275 70.9766ZM266.197 70.6177V70.9766C266.197 71.7399 266.254 72.452 266.368 73.1128C266.493 73.7736 266.692 74.3604 266.966 74.873C267.251 75.3743 267.615 75.7674 268.06 76.0522C268.515 76.3257 269.068 76.4624 269.717 76.4624C270.56 76.4624 271.255 76.2744 271.802 75.8984C272.349 75.5111 272.765 74.9813 273.05 74.3091C273.346 73.6369 273.517 72.8621 273.562 71.9849V69.7461C273.528 69.0283 273.426 68.3846 273.255 67.8149C273.095 67.2339 272.856 66.7383 272.537 66.3281C272.229 65.918 271.842 65.599 271.375 65.3711C270.919 65.1432 270.378 65.0293 269.751 65.0293C269.113 65.0293 268.567 65.1774 268.111 65.4736C267.655 65.7585 267.285 66.1515 267 66.6528C266.727 67.1541 266.521 67.7466 266.385 68.4302C266.259 69.1024 266.197 69.8315 266.197 70.6177ZM295.916 55.1172V80H290.789V55.1172H295.916ZM310.818 55.1172L300.958 67.4048L295.267 73.5229L294.344 68.6694L298.189 63.4058L304.529 55.1172H310.818ZM304.991 80L297.659 68.4985L301.453 65.3198L311.058 80H304.991ZM322.713 75.8301V67.5928C322.713 67.0003 322.616 66.4933 322.422 66.0718C322.229 65.6388 321.927 65.3027 321.517 65.0635C321.118 64.8242 320.599 64.7046 319.961 64.7046C319.415 64.7046 318.942 64.8014 318.543 64.9951C318.144 65.1774 317.837 65.4451 317.62 65.7983C317.404 66.1401 317.295 66.5446 317.295 67.0117H312.374C312.374 66.2256 312.556 65.4793 312.92 64.7729C313.285 64.0666 313.815 63.4456 314.51 62.9102C315.205 62.3633 316.031 61.936 316.988 61.6284C317.956 61.3208 319.039 61.167 320.235 61.167C321.67 61.167 322.946 61.4062 324.063 61.8848C325.18 62.3633 326.057 63.0811 326.695 64.0381C327.344 64.9951 327.669 66.1914 327.669 67.627V75.5396C327.669 76.5535 327.732 77.3853 327.857 78.0347C327.982 78.6727 328.165 79.231 328.404 79.7095V80H323.431C323.191 79.4987 323.009 78.8721 322.884 78.1201C322.77 77.3568 322.713 76.5934 322.713 75.8301ZM323.362 68.7378L323.396 71.5234H320.645C319.996 71.5234 319.432 71.5975 318.953 71.7456C318.475 71.8937 318.082 72.1045 317.774 72.3779C317.466 72.64 317.238 72.9476 317.09 73.3008C316.954 73.654 316.885 74.0413 316.885 74.4629C316.885 74.8844 316.982 75.2661 317.176 75.6079C317.369 75.9383 317.649 76.2004 318.013 76.394C318.378 76.5763 318.805 76.6675 319.295 76.6675C320.035 76.6675 320.679 76.5194 321.226 76.2231C321.773 75.9269 322.194 75.5623 322.491 75.1294C322.798 74.6965 322.958 74.2863 322.969 73.8989L324.268 75.9839C324.086 76.451 323.835 76.9352 323.516 77.4365C323.208 77.9378 322.815 78.4106 322.337 78.855C321.858 79.2879 321.283 79.6468 320.611 79.9316C319.939 80.2051 319.141 80.3418 318.218 80.3418C317.045 80.3418 315.979 80.1082 315.022 79.6411C314.077 79.1626 313.325 78.5075 312.767 77.6758C312.22 76.8327 311.946 75.8757 311.946 74.8047C311.946 73.8363 312.129 72.9761 312.493 72.2241C312.858 71.4722 313.393 70.8398 314.1 70.3271C314.817 69.8031 315.712 69.41 316.783 69.1479C317.854 68.8745 319.096 68.7378 320.508 68.7378H323.362ZM341.46 74.8901C341.46 74.5369 341.358 74.2179 341.153 73.9331C340.948 73.6483 340.566 73.3862 340.008 73.147C339.461 72.8963 338.669 72.6685 337.632 72.4634C336.698 72.2583 335.826 72.002 335.018 71.6943C334.22 71.3753 333.525 70.9937 332.933 70.5493C332.352 70.105 331.896 69.5809 331.565 68.9771C331.235 68.3618 331.07 67.6611 331.07 66.875C331.07 66.1003 331.235 65.3711 331.565 64.6875C331.907 64.0039 332.391 63.4001 333.018 62.876C333.656 62.3405 334.431 61.9246 335.342 61.6284C336.265 61.3208 337.302 61.167 338.453 61.167C340.059 61.167 341.438 61.4233 342.588 61.936C343.75 62.4487 344.639 63.1551 345.254 64.0552C345.881 64.9438 346.194 65.9578 346.194 67.0972H341.272C341.272 66.6187 341.17 66.1914 340.965 65.8154C340.771 65.4281 340.464 65.1261 340.042 64.9097C339.632 64.6818 339.096 64.5679 338.436 64.5679C337.889 64.5679 337.416 64.6647 337.017 64.8584C336.618 65.0407 336.311 65.2913 336.094 65.6104C335.889 65.918 335.787 66.2598 335.787 66.6357C335.787 66.9206 335.844 67.1769 335.958 67.4048C336.083 67.6213 336.282 67.8206 336.556 68.0029C336.829 68.1852 337.182 68.3561 337.615 68.5156C338.06 68.6637 338.606 68.8005 339.256 68.9258C340.589 69.1992 341.779 69.5581 342.828 70.0024C343.876 70.4354 344.708 71.0278 345.323 71.7798C345.938 72.5203 346.246 73.4945 346.246 74.7021C346.246 75.5225 346.063 76.2744 345.699 76.958C345.334 77.6416 344.81 78.2397 344.126 78.7524C343.443 79.2537 342.623 79.6468 341.666 79.9316C340.72 80.2051 339.655 80.3418 338.47 80.3418C336.749 80.3418 335.291 80.0342 334.095 79.4189C332.91 78.8037 332.01 78.0233 331.395 77.0776C330.791 76.1206 330.489 75.1408 330.489 74.1382H335.154C335.177 74.8104 335.348 75.3516 335.667 75.7617C335.997 76.1719 336.413 76.4681 336.915 76.6504C337.427 76.8327 337.98 76.9238 338.572 76.9238C339.21 76.9238 339.74 76.8384 340.162 76.6675C340.583 76.4852 340.902 76.2459 341.119 75.9497C341.347 75.6421 341.46 75.2889 341.46 74.8901ZM359.439 74.8901C359.439 74.5369 359.336 74.2179 359.131 73.9331C358.926 73.6483 358.545 73.3862 357.986 73.147C357.439 72.8963 356.648 72.6685 355.611 72.4634C354.677 72.2583 353.805 72.002 352.996 71.6943C352.199 71.3753 351.504 70.9937 350.911 70.5493C350.33 70.105 349.874 69.5809 349.544 68.9771C349.214 68.3618 349.048 67.6611 349.048 66.875C349.048 66.1003 349.214 65.3711 349.544 64.6875C349.886 64.0039 350.37 63.4001 350.997 62.876C351.635 62.3405 352.409 61.9246 353.321 61.6284C354.244 61.3208 355.28 61.167 356.431 61.167C358.038 61.167 359.416 61.4233 360.567 61.936C361.729 62.4487 362.618 63.1551 363.233 64.0552C363.86 64.9438 364.173 65.9578 364.173 67.0972H359.251C359.251 66.6187 359.148 66.1914 358.943 65.8154C358.75 65.4281 358.442 65.1261 358.021 64.9097C357.61 64.6818 357.075 64.5679 356.414 64.5679C355.867 64.5679 355.394 64.6647 354.996 64.8584C354.597 65.0407 354.289 65.2913 354.073 65.6104C353.868 65.918 353.765 66.2598 353.765 66.6357C353.765 66.9206 353.822 67.1769 353.936 67.4048C354.061 67.6213 354.261 67.8206 354.534 68.0029C354.808 68.1852 355.161 68.3561 355.594 68.5156C356.038 68.6637 356.585 68.8005 357.234 68.9258C358.567 69.1992 359.758 69.5581 360.806 70.0024C361.854 70.4354 362.686 71.0278 363.301 71.7798C363.917 72.5203 364.224 73.4945 364.224 74.7021C364.224 75.5225 364.042 76.2744 363.677 76.958C363.313 77.6416 362.789 78.2397 362.105 78.7524C361.421 79.2537 360.601 79.6468 359.644 79.9316C358.698 80.2051 357.633 80.3418 356.448 80.3418C354.728 80.3418 353.27 80.0342 352.073 79.4189C350.888 78.8037 349.988 78.0233 349.373 77.0776C348.769 76.1206 348.467 75.1408 348.467 74.1382H353.133C353.156 74.8104 353.326 75.3516 353.646 75.7617C353.976 76.1719 354.392 76.4681 354.893 76.6504C355.406 76.8327 355.958 76.9238 356.551 76.9238C357.189 76.9238 357.719 76.8384 358.14 76.6675C358.562 76.4852 358.881 76.2459 359.097 75.9497C359.325 75.6421 359.439 75.2889 359.439 74.8901ZM375.931 80.3418C374.495 80.3418 373.208 80.1139 372.068 79.6582C370.929 79.1911 369.961 78.5474 369.163 77.7271C368.377 76.9067 367.773 75.9554 367.352 74.873C366.93 73.7793 366.719 72.6172 366.719 71.3867V70.7031C366.719 69.3018 366.919 68.02 367.317 66.8579C367.716 65.6958 368.286 64.6875 369.026 63.833C369.778 62.9785 370.69 62.3234 371.761 61.8677C372.832 61.4006 374.039 61.167 375.384 61.167C376.694 61.167 377.856 61.3835 378.87 61.8164C379.884 62.2493 380.733 62.8646 381.417 63.6621C382.111 64.4596 382.636 65.4167 382.989 66.5332C383.342 67.6383 383.519 68.8688 383.519 70.2246V72.2754H368.821V68.9941H378.682V68.6182C378.682 67.9346 378.557 67.325 378.306 66.7896C378.067 66.2427 377.702 65.8097 377.212 65.4907C376.722 65.1717 376.096 65.0122 375.333 65.0122C374.683 65.0122 374.125 65.1546 373.658 65.4395C373.191 65.7243 372.809 66.123 372.513 66.6357C372.228 67.1484 372.011 67.7523 371.863 68.4473C371.727 69.1309 371.658 69.8828 371.658 70.7031V71.3867C371.658 72.1273 371.761 72.8109 371.966 73.4375C372.182 74.0641 372.484 74.6053 372.872 75.061C373.27 75.5168 373.749 75.87 374.307 76.1206C374.877 76.3713 375.521 76.4966 376.238 76.4966C377.127 76.4966 377.953 76.3257 378.716 75.9839C379.491 75.6307 380.158 75.1009 380.716 74.3945L383.108 76.9922C382.721 77.5505 382.191 78.0859 381.519 78.5986C380.858 79.1113 380.061 79.5329 379.126 79.8633C378.192 80.1823 377.127 80.3418 375.931 80.3418ZM391.243 65.3369V80H386.304V61.5088H390.936L391.243 65.3369ZM390.56 70.105H389.192C389.192 68.8175 389.346 67.6326 389.654 66.5503C389.973 65.4565 390.434 64.5109 391.038 63.7134C391.653 62.9045 392.411 62.2778 393.311 61.8335C394.211 61.3892 395.254 61.167 396.438 61.167C397.259 61.167 398.011 61.2923 398.694 61.543C399.378 61.7822 399.965 62.1639 400.455 62.688C400.956 63.2007 401.343 63.8729 401.617 64.7046C401.89 65.5249 402.027 66.5104 402.027 67.6611V80H397.105V68.208C397.105 67.3649 396.991 66.7155 396.763 66.2598C396.535 65.804 396.211 65.485 395.789 65.3027C395.379 65.1204 394.883 65.0293 394.302 65.0293C393.664 65.0293 393.106 65.1603 392.627 65.4224C392.16 65.6844 391.773 66.049 391.465 66.5161C391.158 66.9718 390.93 67.5073 390.782 68.1226C390.634 68.7378 390.56 69.3986 390.56 70.105ZM401.565 69.541L399.805 69.7632C399.805 68.5555 399.953 67.4333 400.25 66.3965C400.557 65.3597 401.007 64.4482 401.6 63.6621C402.203 62.876 402.95 62.2664 403.838 61.8335C404.727 61.3892 405.752 61.167 406.915 61.167C407.803 61.167 408.612 61.298 409.341 61.5601C410.07 61.8107 410.691 62.2152 411.204 62.7734C411.728 63.3203 412.127 64.0381 412.4 64.9268C412.685 65.8154 412.828 66.9035 412.828 68.1909V80H407.889V68.1909C407.889 67.3364 407.775 66.687 407.547 66.2427C407.33 65.7869 407.011 65.4736 406.59 65.3027C406.18 65.1204 405.69 65.0293 405.12 65.0293C404.528 65.0293 404.009 65.1489 403.565 65.3882C403.121 65.616 402.75 65.9351 402.454 66.3452C402.158 66.7554 401.936 67.2339 401.788 67.7808C401.639 68.3162 401.565 68.903 401.565 69.541Z" fill="#888888"/>
<rect x="92" y="181" width="1179" height="91" rx="13.3333" fill="#CCCCCC"/>
<rect x="115" y="201.667" width="208" height="49.3333" rx="4.66667" fill="#888888" stroke="#888888" stroke-width="4"/>
<path d="M158.833 218.5H164.802C165.969 218.5 166.983 218.674 167.844 219.021C168.705 219.368 169.368 219.882 169.833 220.563C170.306 221.243 170.542 222.083 170.542 223.083C170.542 223.951 170.406 224.677 170.135 225.26C169.865 225.844 169.486 226.326 169 226.708C168.521 227.083 167.962 227.392 167.323 227.635L166.125 228.313H161.115L161.094 225.49H164.802C165.267 225.49 165.653 225.406 165.958 225.24C166.264 225.073 166.493 224.837 166.646 224.531C166.806 224.219 166.885 223.847 166.885 223.417C166.885 222.979 166.806 222.604 166.646 222.292C166.486 221.979 166.25 221.74 165.937 221.573C165.632 221.406 165.253 221.323 164.802 221.323H162.49V233.667H158.833V218.5ZM167.135 233.667L163.781 226.958L167.656 226.938L171.052 233.51V233.667H167.135ZM178.042 233.875C177.125 233.875 176.306 233.733 175.583 233.448C174.861 233.156 174.25 232.757 173.75 232.25C173.257 231.743 172.878 231.16 172.615 230.5C172.358 229.84 172.229 229.142 172.229 228.406V228.01C172.229 227.184 172.344 226.42 172.573 225.719C172.802 225.01 173.142 224.392 173.594 223.865C174.045 223.337 174.611 222.927 175.292 222.635C175.972 222.337 176.764 222.188 177.667 222.188C178.465 222.188 179.181 222.316 179.813 222.573C180.444 222.83 180.979 223.198 181.417 223.677C181.861 224.156 182.198 224.736 182.427 225.417C182.663 226.097 182.781 226.861 182.781 227.708V229.135H173.573V226.938H179.354V226.667C179.361 226.292 179.295 225.972 179.156 225.708C179.024 225.444 178.83 225.243 178.573 225.104C178.316 224.965 178.003 224.896 177.635 224.896C177.253 224.896 176.938 224.979 176.688 225.146C176.444 225.313 176.253 225.542 176.115 225.833C175.983 226.118 175.889 226.448 175.833 226.823C175.778 227.198 175.75 227.594 175.75 228.01V228.406C175.75 228.823 175.806 229.201 175.917 229.542C176.035 229.882 176.201 230.174 176.417 230.417C176.639 230.653 176.903 230.837 177.208 230.969C177.521 231.101 177.875 231.167 178.271 231.167C178.75 231.167 179.222 231.076 179.688 230.896C180.153 230.715 180.552 230.417 180.885 230L182.479 231.896C182.25 232.222 181.924 232.538 181.5 232.844C181.083 233.149 180.583 233.399 180 233.594C179.417 233.781 178.764 233.875 178.042 233.875ZM190.063 230.833V226.188C190.063 225.868 190.017 225.594 189.927 225.365C189.837 225.135 189.694 224.958 189.5 224.833C189.306 224.701 189.045 224.635 188.719 224.635C188.455 224.635 188.229 224.681 188.042 224.771C187.854 224.861 187.712 224.997 187.615 225.177C187.517 225.358 187.469 225.587 187.469 225.865H183.958C183.958 225.344 184.073 224.861 184.302 224.417C184.538 223.965 184.872 223.573 185.302 223.24C185.74 222.906 186.26 222.649 186.865 222.469C187.476 222.281 188.156 222.188 188.906 222.188C189.802 222.188 190.601 222.337 191.302 222.635C192.01 222.934 192.569 223.382 192.979 223.979C193.389 224.569 193.594 225.313 193.594 226.208V230.823C193.594 231.559 193.635 232.118 193.719 232.5C193.802 232.875 193.92 233.205 194.073 233.49V233.667H190.552C190.385 233.319 190.26 232.896 190.177 232.396C190.101 231.889 190.063 231.368 190.063 230.833ZM190.49 226.781L190.51 228.656H188.958C188.632 228.656 188.354 228.701 188.125 228.792C187.903 228.882 187.722 229.007 187.583 229.167C187.451 229.319 187.354 229.493 187.292 229.688C187.236 229.882 187.208 230.087 187.208 230.302C187.208 230.51 187.257 230.698 187.354 230.865C187.458 231.024 187.597 231.149 187.771 231.24C187.944 231.33 188.139 231.375 188.354 231.375C188.743 231.375 189.073 231.302 189.344 231.156C189.622 231.003 189.833 230.819 189.979 230.604C190.125 230.389 190.198 230.188 190.198 230L190.969 231.438C190.83 231.715 190.67 231.997 190.49 232.281C190.316 232.566 190.097 232.83 189.833 233.073C189.576 233.309 189.26 233.503 188.885 233.656C188.51 233.802 188.056 233.875 187.521 233.875C186.826 233.875 186.188 233.733 185.604 233.448C185.028 233.163 184.566 232.767 184.219 232.26C183.872 231.747 183.698 231.156 183.698 230.49C183.698 229.906 183.802 229.385 184.01 228.927C184.226 228.469 184.549 228.08 184.979 227.76C185.41 227.441 185.958 227.198 186.625 227.031C187.292 226.865 188.076 226.781 188.979 226.781H190.49ZM200.302 231.167C200.628 231.167 200.906 231.108 201.135 230.99C201.372 230.865 201.549 230.691 201.667 230.469C201.792 230.24 201.851 229.965 201.844 229.646H205.146C205.153 230.493 204.944 231.236 204.521 231.875C204.104 232.507 203.535 233 202.812 233.354C202.097 233.701 201.288 233.875 200.385 233.875C199.503 233.875 198.733 233.733 198.073 233.448C197.413 233.156 196.861 232.753 196.417 232.24C195.979 231.719 195.649 231.111 195.427 230.417C195.212 229.722 195.104 228.969 195.104 228.156V227.917C195.104 227.104 195.212 226.351 195.427 225.656C195.649 224.955 195.979 224.347 196.417 223.833C196.861 223.313 197.41 222.91 198.062 222.625C198.722 222.333 199.49 222.188 200.365 222.188C201.302 222.188 202.128 222.365 202.844 222.719C203.566 223.073 204.132 223.587 204.542 224.26C204.951 224.934 205.153 225.75 205.146 226.708H201.844C201.851 226.368 201.799 226.063 201.687 225.792C201.576 225.521 201.403 225.306 201.167 225.146C200.937 224.979 200.642 224.896 200.281 224.896C199.92 224.896 199.628 224.976 199.406 225.135C199.184 225.295 199.014 225.517 198.896 225.802C198.785 226.08 198.708 226.399 198.667 226.76C198.632 227.122 198.615 227.507 198.615 227.917V228.156C198.615 228.573 198.632 228.965 198.667 229.333C198.708 229.694 198.788 230.014 198.906 230.292C199.024 230.563 199.194 230.778 199.417 230.938C199.639 231.09 199.934 231.167 200.302 231.167ZM212.583 222.396V224.833H205.792V222.396H212.583ZM207.219 219.594H210.729V229.99C210.729 230.288 210.764 230.521 210.833 230.688C210.903 230.847 211.021 230.962 211.188 231.031C211.361 231.094 211.59 231.125 211.875 231.125C212.076 231.125 212.243 231.122 212.375 231.115C212.507 231.101 212.632 231.083 212.75 231.063V233.573C212.451 233.67 212.139 233.743 211.813 233.792C211.486 233.847 211.139 233.875 210.771 233.875C210.021 233.875 209.378 233.757 208.844 233.521C208.316 233.285 207.913 232.913 207.635 232.406C207.358 231.899 207.219 231.24 207.219 230.427V219.594ZM232.125 218.5V233.667H228.479L223.115 224.229V233.667H219.458V218.5H223.115L228.479 227.938V218.5H232.125ZM240.125 230.833V226.188C240.125 225.868 240.08 225.594 239.99 225.365C239.899 225.135 239.757 224.958 239.563 224.833C239.368 224.701 239.108 224.635 238.781 224.635C238.517 224.635 238.292 224.681 238.104 224.771C237.917 224.861 237.774 224.997 237.677 225.177C237.58 225.358 237.531 225.587 237.531 225.865H234.021C234.021 225.344 234.135 224.861 234.365 224.417C234.601 223.965 234.934 223.573 235.365 223.24C235.802 222.906 236.323 222.649 236.927 222.469C237.538 222.281 238.219 222.188 238.969 222.188C239.865 222.188 240.663 222.337 241.365 222.635C242.073 222.934 242.632 223.382 243.042 223.979C243.451 224.569 243.656 225.313 243.656 226.208V230.823C243.656 231.559 243.698 232.118 243.781 232.5C243.865 232.875 243.983 233.205 244.135 233.49V233.667H240.615C240.448 233.319 240.323 232.896 240.24 232.396C240.163 231.889 240.125 231.368 240.125 230.833ZM240.552 226.781L240.573 228.656H239.021C238.694 228.656 238.417 228.701 238.188 228.792C237.965 228.882 237.785 229.007 237.646 229.167C237.514 229.319 237.417 229.493 237.354 229.688C237.299 229.882 237.271 230.087 237.271 230.302C237.271 230.51 237.319 230.698 237.417 230.865C237.521 231.024 237.66 231.149 237.833 231.24C238.007 231.33 238.201 231.375 238.417 231.375C238.806 231.375 239.135 231.302 239.406 231.156C239.684 231.003 239.896 230.819 240.042 230.604C240.188 230.389 240.26 230.188 240.26 230L241.031 231.438C240.892 231.715 240.733 231.997 240.552 232.281C240.378 232.566 240.16 232.83 239.896 233.073C239.639 233.309 239.323 233.503 238.948 233.656C238.573 233.802 238.118 233.875 237.583 233.875C236.889 233.875 236.25 233.733 235.667 233.448C235.09 233.163 234.628 232.767 234.281 232.26C233.934 231.747 233.76 231.156 233.76 230.49C233.76 229.906 233.865 229.385 234.073 228.927C234.288 228.469 234.611 228.08 235.042 227.76C235.472 227.441 236.021 227.198 236.688 227.031C237.354 226.865 238.139 226.781 239.042 226.781H240.552ZM251.542 222.396V224.833H244.75V222.396H251.542ZM246.177 219.594H249.687V229.99C249.687 230.288 249.722 230.521 249.792 230.688C249.861 230.847 249.979 230.962 250.146 231.031C250.319 231.094 250.549 231.125 250.833 231.125C251.035 231.125 251.201 231.122 251.333 231.115C251.465 231.101 251.59 231.083 251.708 231.063V233.573C251.41 233.67 251.097 233.743 250.771 233.792C250.444 233.847 250.097 233.875 249.729 233.875C248.979 233.875 248.337 233.757 247.802 233.521C247.274 233.285 246.872 232.913 246.594 232.406C246.316 231.899 246.177 231.24 246.177 230.427V219.594ZM256.646 222.396V233.667H253.125V222.396H256.646ZM252.917 219.49C252.917 218.99 253.097 218.58 253.458 218.26C253.819 217.941 254.288 217.781 254.865 217.781C255.441 217.781 255.91 217.941 256.271 218.26C256.632 218.58 256.813 218.99 256.813 219.49C256.813 219.99 256.632 220.399 256.271 220.719C255.91 221.038 255.441 221.198 254.865 221.198C254.288 221.198 253.819 221.038 253.458 220.719C253.097 220.399 252.917 219.99 252.917 219.49ZM262.875 231.26L265.094 222.396H268.792L265.104 233.667H262.917L262.875 231.26ZM261.563 222.396L263.75 231.26L263.729 233.667H261.531L257.854 222.396H261.563ZM275.146 233.875C274.229 233.875 273.41 233.733 272.688 233.448C271.965 233.156 271.354 232.757 270.854 232.25C270.361 231.743 269.983 231.16 269.719 230.5C269.462 229.84 269.333 229.142 269.333 228.406V228.01C269.333 227.184 269.448 226.42 269.677 225.719C269.906 225.01 270.247 224.392 270.698 223.865C271.149 223.337 271.715 222.927 272.396 222.635C273.076 222.337 273.868 222.188 274.771 222.188C275.569 222.188 276.285 222.316 276.917 222.573C277.549 222.83 278.083 223.198 278.521 223.677C278.965 224.156 279.302 224.736 279.531 225.417C279.767 226.097 279.885 226.861 279.885 227.708V229.135H270.677V226.938H276.458V226.667C276.465 226.292 276.399 225.972 276.26 225.708C276.128 225.444 275.934 225.243 275.677 225.104C275.42 224.965 275.108 224.896 274.74 224.896C274.358 224.896 274.042 224.979 273.792 225.146C273.549 225.313 273.358 225.542 273.219 225.833C273.087 226.118 272.993 226.448 272.938 226.823C272.882 227.198 272.854 227.594 272.854 228.01V228.406C272.854 228.823 272.91 229.201 273.021 229.542C273.139 229.882 273.306 230.174 273.521 230.417C273.743 230.653 274.007 230.837 274.313 230.969C274.625 231.101 274.979 231.167 275.375 231.167C275.854 231.167 276.326 231.076 276.792 230.896C277.257 230.715 277.656 230.417 277.99 230L279.583 231.896C279.354 232.222 279.028 232.538 278.604 232.844C278.188 233.149 277.688 233.399 277.104 233.594C276.521 233.781 275.868 233.875 275.146 233.875Z" fill="white"/>
<rect x="347" y="201.667" width="208" height="49.3333" rx="4.66667" fill="#888888" stroke="#888888" stroke-width="4"/>
<path d="M427.073 230.854V233.667H419.406V230.854H427.073ZM420.708 218.5V233.667H417.052V218.5H420.708ZM434.302 230.833V226.188C434.302 225.868 434.257 225.594 434.167 225.365C434.076 225.135 433.934 224.958 433.74 224.833C433.545 224.701 433.285 224.635 432.958 224.635C432.694 224.635 432.469 224.681 432.281 224.771C432.094 224.861 431.951 224.997 431.854 225.177C431.757 225.358 431.708 225.587 431.708 225.865H428.198C428.198 225.344 428.312 224.861 428.542 224.417C428.778 223.965 429.111 223.573 429.542 223.24C429.979 222.906 430.5 222.649 431.104 222.469C431.715 222.281 432.396 222.188 433.146 222.188C434.042 222.188 434.84 222.337 435.542 222.635C436.25 222.934 436.809 223.382 437.219 223.979C437.628 224.569 437.833 225.313 437.833 226.208V230.823C437.833 231.559 437.875 232.118 437.958 232.5C438.042 232.875 438.16 233.205 438.312 233.49V233.667H434.792C434.625 233.319 434.5 232.896 434.417 232.396C434.34 231.889 434.302 231.368 434.302 230.833ZM434.729 226.781L434.75 228.656H433.198C432.872 228.656 432.594 228.701 432.365 228.792C432.142 228.882 431.962 229.007 431.823 229.167C431.691 229.319 431.594 229.493 431.531 229.688C431.476 229.882 431.448 230.087 431.448 230.302C431.448 230.51 431.497 230.698 431.594 230.865C431.698 231.024 431.837 231.149 432.01 231.24C432.184 231.33 432.378 231.375 432.594 231.375C432.983 231.375 433.312 231.302 433.583 231.156C433.861 231.003 434.073 230.819 434.219 230.604C434.365 230.389 434.437 230.188 434.437 230L435.208 231.438C435.069 231.715 434.91 231.997 434.729 232.281C434.556 232.566 434.337 232.83 434.073 233.073C433.816 233.309 433.5 233.503 433.125 233.656C432.75 233.802 432.295 233.875 431.76 233.875C431.066 233.875 430.427 233.733 429.844 233.448C429.267 233.163 428.806 232.767 428.458 232.26C428.111 231.747 427.937 231.156 427.937 230.49C427.937 229.906 428.042 229.385 428.25 228.927C428.465 228.469 428.788 228.08 429.219 227.76C429.649 227.441 430.198 227.198 430.865 227.031C431.531 226.865 432.316 226.781 433.219 226.781H434.729ZM443.323 225.188V233.667H439.812V222.396H443.094L443.323 225.188ZM446.656 222.313L446.594 225.573C446.455 225.559 446.267 225.542 446.031 225.521C445.795 225.5 445.597 225.49 445.437 225.49C445.028 225.49 444.674 225.538 444.375 225.635C444.083 225.726 443.84 225.865 443.646 226.052C443.458 226.233 443.319 226.462 443.229 226.74C443.146 227.017 443.108 227.34 443.115 227.708L442.479 227.292C442.479 226.535 442.552 225.847 442.698 225.229C442.851 224.604 443.066 224.066 443.344 223.615C443.622 223.156 443.958 222.806 444.354 222.563C444.75 222.313 445.194 222.188 445.687 222.188C445.861 222.188 446.031 222.198 446.198 222.219C446.372 222.24 446.524 222.271 446.656 222.313ZM453.406 230.833V226.188C453.406 225.868 453.361 225.594 453.271 225.365C453.181 225.135 453.038 224.958 452.844 224.833C452.649 224.701 452.389 224.635 452.063 224.635C451.799 224.635 451.573 224.681 451.385 224.771C451.198 224.861 451.056 224.997 450.958 225.177C450.861 225.358 450.813 225.587 450.813 225.865H447.302C447.302 225.344 447.417 224.861 447.646 224.417C447.882 223.965 448.215 223.573 448.646 223.24C449.083 222.906 449.604 222.649 450.208 222.469C450.819 222.281 451.5 222.188 452.25 222.188C453.146 222.188 453.944 222.337 454.646 222.635C455.354 222.934 455.913 223.382 456.323 223.979C456.733 224.569 456.938 225.313 456.938 226.208V230.823C456.938 231.559 456.979 232.118 457.063 232.5C457.146 232.875 457.264 233.205 457.417 233.49V233.667H453.896C453.729 233.319 453.604 232.896 453.521 232.396C453.444 231.889 453.406 231.368 453.406 230.833ZM453.833 226.781L453.854 228.656H452.302C451.976 228.656 451.698 228.701 451.469 228.792C451.247 228.882 451.066 229.007 450.927 229.167C450.795 229.319 450.698 229.493 450.635 229.688C450.58 229.882 450.552 230.087 450.552 230.302C450.552 230.51 450.601 230.698 450.698 230.865C450.802 231.024 450.941 231.149 451.115 231.24C451.288 231.33 451.483 231.375 451.698 231.375C452.087 231.375 452.417 231.302 452.688 231.156C452.965 231.003 453.177 230.819 453.323 230.604C453.469 230.389 453.542 230.188 453.542 230L454.313 231.438C454.174 231.715 454.014 231.997 453.833 232.281C453.66 232.566 453.441 232.83 453.177 233.073C452.92 233.309 452.604 233.503 452.229 233.656C451.854 233.802 451.399 233.875 450.865 233.875C450.17 233.875 449.531 233.733 448.948 233.448C448.372 233.163 447.91 232.767 447.563 232.26C447.215 231.747 447.042 231.156 447.042 230.49C447.042 229.906 447.146 229.385 447.354 228.927C447.569 228.469 447.892 228.08 448.323 227.76C448.753 227.441 449.302 227.198 449.969 227.031C450.635 226.865 451.42 226.781 452.323 226.781H453.833ZM462.781 231.26L465 222.396H468.698L465.01 233.667H462.823L462.781 231.26ZM461.469 222.396L463.656 231.26L463.635 233.667H461.437L457.76 222.396H461.469ZM475.052 233.875C474.135 233.875 473.316 233.733 472.594 233.448C471.872 233.156 471.26 232.757 470.76 232.25C470.267 231.743 469.889 231.16 469.625 230.5C469.368 229.84 469.24 229.142 469.24 228.406V228.01C469.24 227.184 469.354 226.42 469.583 225.719C469.812 225.01 470.153 224.392 470.604 223.865C471.056 223.337 471.622 222.927 472.302 222.635C472.983 222.337 473.774 222.188 474.677 222.188C475.476 222.188 476.191 222.316 476.823 222.573C477.455 222.83 477.99 223.198 478.427 223.677C478.872 224.156 479.208 224.736 479.437 225.417C479.674 226.097 479.792 226.861 479.792 227.708V229.135H470.583V226.938H476.365V226.667C476.372 226.292 476.306 225.972 476.167 225.708C476.035 225.444 475.84 225.243 475.583 225.104C475.326 224.965 475.014 224.896 474.646 224.896C474.264 224.896 473.948 224.979 473.698 225.146C473.455 225.313 473.264 225.542 473.125 225.833C472.993 226.118 472.899 226.448 472.844 226.823C472.788 227.198 472.76 227.594 472.76 228.01V228.406C472.76 228.823 472.816 229.201 472.927 229.542C473.045 229.882 473.212 230.174 473.427 230.417C473.649 230.653 473.913 230.837 474.219 230.969C474.531 231.101 474.885 231.167 475.281 231.167C475.76 231.167 476.233 231.076 476.698 230.896C477.163 230.715 477.562 230.417 477.896 230L479.49 231.896C479.26 232.222 478.934 232.538 478.51 232.844C478.094 233.149 477.594 233.399 477.01 233.594C476.427 233.781 475.774 233.875 475.052 233.875ZM484.927 217.667V233.667H481.406V217.667H484.927Z" fill="white"/>
<rect x="579" y="201.667" width="208" height="49.3333" rx="4.66667" fill="#888888" stroke="#888888" stroke-width="4"/>
<path d="M651.26 218.5H654.24L657.625 229.052L661.01 218.5H663.99L658.833 233.667H656.417L651.26 218.5ZM649.448 218.5H652.531L653.104 230.125V233.667H649.448V218.5ZM662.719 218.5H665.812V233.667H662.146V230.125L662.719 218.5ZM671.448 232.344L674.365 222.396H678.135L673.604 235.344C673.507 235.628 673.378 235.934 673.219 236.26C673.059 236.594 672.84 236.91 672.563 237.208C672.285 237.507 671.927 237.75 671.49 237.938C671.059 238.125 670.524 238.219 669.885 238.219C669.545 238.219 669.295 238.201 669.135 238.167C668.983 238.139 668.747 238.087 668.427 238.01V235.5C668.517 235.5 668.594 235.5 668.656 235.5C668.726 235.5 668.802 235.5 668.885 235.5C669.26 235.5 669.559 235.462 669.781 235.385C670.01 235.309 670.184 235.198 670.302 235.052C670.427 234.906 670.524 234.729 670.594 234.521L671.448 232.344ZM670.708 222.396L672.927 230.281L673.313 234H670.958L666.948 222.396H670.708ZM687.031 229.635C687.031 229.399 686.997 229.188 686.927 229C686.858 228.806 686.729 228.625 686.542 228.458C686.354 228.292 686.083 228.125 685.729 227.958C685.382 227.785 684.924 227.604 684.354 227.417C683.688 227.194 683.045 226.944 682.427 226.667C681.809 226.382 681.257 226.052 680.771 225.677C680.285 225.295 679.899 224.851 679.615 224.344C679.33 223.83 679.188 223.233 679.188 222.552C679.188 221.899 679.333 221.313 679.625 220.792C679.917 220.264 680.323 219.816 680.844 219.448C681.372 219.073 681.99 218.788 682.698 218.594C683.406 218.392 684.181 218.292 685.021 218.292C686.132 218.292 687.111 218.486 687.958 218.875C688.813 219.257 689.479 219.802 689.958 220.51C690.444 221.212 690.688 222.042 690.688 223H687.052C687.052 222.618 686.972 222.281 686.813 221.99C686.66 221.698 686.427 221.469 686.115 221.302C685.802 221.135 685.41 221.052 684.938 221.052C684.479 221.052 684.094 221.122 683.781 221.26C683.469 221.399 683.233 221.587 683.073 221.823C682.913 222.052 682.833 222.306 682.833 222.583C682.833 222.813 682.896 223.021 683.021 223.208C683.153 223.389 683.337 223.559 683.573 223.719C683.816 223.878 684.108 224.031 684.448 224.177C684.795 224.323 685.184 224.465 685.615 224.604C686.42 224.861 687.135 225.149 687.76 225.469C688.392 225.781 688.924 226.139 689.354 226.542C689.792 226.938 690.122 227.389 690.344 227.896C690.573 228.403 690.688 228.976 690.688 229.615C690.688 230.295 690.556 230.899 690.292 231.427C690.028 231.955 689.649 232.403 689.156 232.771C688.663 233.132 688.073 233.406 687.385 233.594C686.698 233.781 685.931 233.875 685.083 233.875C684.306 233.875 683.538 233.778 682.781 233.583C682.031 233.382 681.351 233.076 680.74 232.667C680.128 232.25 679.639 231.719 679.271 231.073C678.91 230.42 678.729 229.646 678.729 228.75H682.396C682.396 229.194 682.455 229.569 682.573 229.875C682.691 230.181 682.865 230.427 683.094 230.615C683.323 230.795 683.604 230.927 683.938 231.01C684.271 231.087 684.653 231.125 685.083 231.125C685.549 231.125 685.924 231.059 686.208 230.927C686.493 230.788 686.701 230.608 686.833 230.385C686.965 230.156 687.031 229.906 687.031 229.635ZM701.031 231.167L705.26 234.521L702.99 236.438L698.833 233.083L701.031 231.167ZM705.437 225.781V226.396C705.437 227.556 705.274 228.597 704.948 229.521C704.628 230.438 704.17 231.222 703.573 231.875C702.983 232.521 702.285 233.017 701.479 233.365C700.674 233.705 699.785 233.875 698.812 233.875C697.833 233.875 696.937 233.705 696.125 233.365C695.319 233.017 694.618 232.521 694.021 231.875C693.431 231.222 692.972 230.438 692.646 229.521C692.326 228.597 692.167 227.556 692.167 226.396V225.781C692.167 224.622 692.326 223.58 692.646 222.656C692.972 221.733 693.427 220.948 694.01 220.302C694.601 219.649 695.299 219.153 696.104 218.813C696.917 218.465 697.812 218.292 698.792 218.292C699.764 218.292 700.653 218.465 701.458 218.813C702.271 219.153 702.972 219.649 703.562 220.302C704.16 220.948 704.622 221.733 704.948 222.656C705.274 223.58 705.437 224.622 705.437 225.781ZM701.719 226.396V225.76C701.719 225.01 701.653 224.351 701.521 223.781C701.396 223.205 701.208 222.722 700.958 222.333C700.708 221.944 700.399 221.653 700.031 221.458C699.67 221.257 699.257 221.156 698.792 221.156C698.306 221.156 697.882 221.257 697.521 221.458C697.16 221.653 696.858 221.944 696.615 222.333C696.372 222.722 696.187 223.205 696.062 223.781C695.944 224.351 695.885 225.01 695.885 225.76V226.396C695.885 227.139 695.944 227.799 696.062 228.375C696.187 228.944 696.372 229.427 696.615 229.823C696.865 230.219 697.17 230.517 697.531 230.719C697.899 230.92 698.326 231.021 698.812 231.021C699.278 231.021 699.691 230.92 700.052 230.719C700.413 230.517 700.715 230.219 700.958 229.823C701.208 229.427 701.396 228.944 701.521 228.375C701.653 227.799 701.719 227.139 701.719 226.396ZM717.323 230.854V233.667H709.656V230.854H717.323ZM710.958 218.5V233.667H707.302V218.5H710.958Z" fill="white"/>
<rect x="811" y="201.667" width="208" height="49.3333" rx="4.66667" fill="#888888" stroke="#888888" stroke-width="4"/>
<path d="M878.333 218.5V233.667H874.677V218.5H878.333ZM884.229 224.813V227.625H877.292V224.813H884.229ZM884.823 218.5V221.323H877.292V218.5H884.823ZM889.885 222.396V233.667H886.365V222.396H889.885ZM886.156 219.49C886.156 218.99 886.337 218.58 886.698 218.26C887.059 217.941 887.528 217.781 888.104 217.781C888.681 217.781 889.149 217.941 889.51 218.26C889.872 218.58 890.052 218.99 890.052 219.49C890.052 219.99 889.872 220.399 889.51 220.719C889.149 221.038 888.681 221.198 888.104 221.198C887.528 221.198 887.059 221.038 886.698 220.719C886.337 220.399 886.156 219.99 886.156 219.49ZM895.594 225.188V233.667H892.083V222.396H895.365L895.594 225.188ZM898.927 222.313L898.865 225.573C898.726 225.559 898.538 225.542 898.302 225.521C898.066 225.5 897.868 225.49 897.708 225.49C897.299 225.49 896.944 225.538 896.646 225.635C896.354 225.726 896.111 225.865 895.917 226.052C895.729 226.233 895.59 226.462 895.5 226.74C895.417 227.017 895.378 227.34 895.385 227.708L894.75 227.292C894.75 226.535 894.823 225.847 894.969 225.229C895.122 224.604 895.337 224.066 895.615 223.615C895.892 223.156 896.229 222.806 896.625 222.563C897.021 222.313 897.465 222.188 897.958 222.188C898.132 222.188 898.302 222.198 898.469 222.219C898.642 222.24 898.795 222.271 898.927 222.313ZM905.385 233.875C904.469 233.875 903.649 233.733 902.927 233.448C902.205 233.156 901.594 232.757 901.094 232.25C900.601 231.743 900.222 231.16 899.958 230.5C899.701 229.84 899.573 229.142 899.573 228.406V228.01C899.573 227.184 899.688 226.42 899.917 225.719C900.146 225.01 900.486 224.392 900.938 223.865C901.389 223.337 901.955 222.927 902.635 222.635C903.316 222.337 904.108 222.188 905.01 222.188C905.809 222.188 906.524 222.316 907.156 222.573C907.788 222.83 908.323 223.198 908.76 223.677C909.205 224.156 909.542 224.736 909.771 225.417C910.007 226.097 910.125 226.861 910.125 227.708V229.135H900.917V226.938H906.698V226.667C906.705 226.292 906.639 225.972 906.5 225.708C906.368 225.444 906.174 225.243 905.917 225.104C905.66 224.965 905.347 224.896 904.979 224.896C904.597 224.896 904.281 224.979 904.031 225.146C903.788 225.313 903.597 225.542 903.458 225.833C903.326 226.118 903.233 226.448 903.177 226.823C903.122 227.198 903.094 227.594 903.094 228.01V228.406C903.094 228.823 903.149 229.201 903.26 229.542C903.378 229.882 903.545 230.174 903.76 230.417C903.983 230.653 904.247 230.837 904.552 230.969C904.865 231.101 905.219 231.167 905.615 231.167C906.094 231.167 906.566 231.076 907.031 230.896C907.497 230.715 907.896 230.417 908.229 230L909.823 231.896C909.594 232.222 909.267 232.538 908.844 232.844C908.427 233.149 907.927 233.399 907.344 233.594C906.76 233.781 906.108 233.875 905.385 233.875ZM911.583 217.667H915.094V230.896L914.729 233.667H911.583V217.667ZM922.01 227.906V228.125C922.01 228.979 921.924 229.757 921.75 230.458C921.576 231.16 921.309 231.767 920.948 232.281C920.587 232.788 920.132 233.181 919.583 233.458C919.035 233.736 918.385 233.875 917.635 233.875C916.955 233.875 916.372 233.729 915.885 233.438C915.399 233.139 914.993 232.729 914.667 232.208C914.34 231.681 914.076 231.073 913.875 230.385C913.674 229.691 913.514 228.948 913.396 228.156V227.896C913.514 227.111 913.674 226.375 913.875 225.688C914.076 224.993 914.34 224.385 914.667 223.865C914.993 223.337 915.396 222.927 915.875 222.635C916.361 222.337 916.941 222.188 917.615 222.188C918.372 222.188 919.024 222.33 919.573 222.615C920.128 222.899 920.587 223.299 920.948 223.813C921.309 224.326 921.576 224.931 921.75 225.625C921.924 226.319 922.01 227.08 922.01 227.906ZM918.5 228.125V227.906C918.5 227.497 918.476 227.111 918.427 226.75C918.378 226.389 918.292 226.069 918.167 225.792C918.042 225.514 917.865 225.295 917.635 225.135C917.406 224.976 917.108 224.896 916.74 224.896C916.365 224.896 916.049 224.958 915.792 225.083C915.542 225.208 915.34 225.389 915.188 225.625C915.042 225.854 914.938 226.139 914.875 226.479C914.813 226.813 914.785 227.191 914.792 227.615V228.438C914.778 229.014 914.83 229.507 914.948 229.917C915.066 230.326 915.271 230.639 915.563 230.854C915.854 231.069 916.253 231.177 916.76 231.177C917.135 231.177 917.438 231.104 917.667 230.958C917.903 230.813 918.08 230.604 918.198 230.333C918.316 230.063 918.396 229.74 918.438 229.365C918.479 228.99 918.5 228.576 918.5 228.125ZM929.427 230.833V226.188C929.427 225.868 929.382 225.594 929.292 225.365C929.201 225.135 929.059 224.958 928.865 224.833C928.67 224.701 928.41 224.635 928.083 224.635C927.819 224.635 927.594 224.681 927.406 224.771C927.219 224.861 927.076 224.997 926.979 225.177C926.882 225.358 926.833 225.587 926.833 225.865H923.323C923.323 225.344 923.437 224.861 923.667 224.417C923.903 223.965 924.236 223.573 924.667 223.24C925.104 222.906 925.625 222.649 926.229 222.469C926.84 222.281 927.521 222.188 928.271 222.188C929.167 222.188 929.965 222.337 930.667 222.635C931.375 222.934 931.934 223.382 932.344 223.979C932.753 224.569 932.958 225.313 932.958 226.208V230.823C932.958 231.559 933 232.118 933.083 232.5C933.167 232.875 933.285 233.205 933.437 233.49V233.667H929.917C929.75 233.319 929.625 232.896 929.542 232.396C929.465 231.889 929.427 231.368 929.427 230.833ZM929.854 226.781L929.875 228.656H928.323C927.997 228.656 927.719 228.701 927.49 228.792C927.267 228.882 927.087 229.007 926.948 229.167C926.816 229.319 926.719 229.493 926.656 229.688C926.601 229.882 926.573 230.087 926.573 230.302C926.573 230.51 926.622 230.698 926.719 230.865C926.823 231.024 926.962 231.149 927.135 231.24C927.309 231.33 927.503 231.375 927.719 231.375C928.108 231.375 928.437 231.302 928.708 231.156C928.986 231.003 929.198 230.819 929.344 230.604C929.49 230.389 929.562 230.188 929.562 230L930.333 231.438C930.194 231.715 930.035 231.997 929.854 232.281C929.681 232.566 929.462 232.83 929.198 233.073C928.941 233.309 928.625 233.503 928.25 233.656C927.875 233.802 927.42 233.875 926.885 233.875C926.191 233.875 925.552 233.733 924.969 233.448C924.392 233.163 923.931 232.767 923.583 232.26C923.236 231.747 923.062 231.156 923.062 230.49C923.062 229.906 923.167 229.385 923.375 228.927C923.59 228.469 923.913 228.08 924.344 227.76C924.774 227.441 925.323 227.198 925.99 227.031C926.656 226.865 927.441 226.781 928.344 226.781H929.854ZM940.812 230.5C940.812 230.306 940.747 230.139 940.615 230C940.49 229.854 940.267 229.722 939.948 229.604C939.628 229.479 939.181 229.354 938.604 229.229C938.056 229.111 937.538 228.955 937.052 228.76C936.573 228.566 936.153 228.33 935.792 228.052C935.431 227.774 935.146 227.444 934.937 227.063C934.736 226.681 934.635 226.243 934.635 225.75C934.635 225.271 934.736 224.819 934.937 224.396C935.146 223.965 935.448 223.587 935.844 223.26C936.247 222.927 936.736 222.667 937.312 222.479C937.889 222.285 938.545 222.188 939.281 222.188C940.295 222.188 941.17 222.344 941.906 222.656C942.642 222.962 943.208 223.392 943.604 223.948C944.007 224.497 944.208 225.132 944.208 225.854H940.698C940.698 225.569 940.649 225.326 940.552 225.125C940.462 224.924 940.312 224.771 940.104 224.667C939.896 224.556 939.618 224.5 939.271 224.5C939.028 224.5 938.806 224.545 938.604 224.635C938.41 224.726 938.253 224.851 938.135 225.01C938.017 225.17 937.958 225.358 937.958 225.573C937.958 225.726 937.993 225.865 938.062 225.99C938.139 226.108 938.253 226.219 938.406 226.323C938.559 226.42 938.753 226.51 938.99 226.594C939.226 226.67 939.51 226.74 939.844 226.802C940.601 226.941 941.309 227.139 941.969 227.396C942.628 227.653 943.163 228.017 943.573 228.49C943.99 228.962 944.198 229.597 944.198 230.396C944.198 230.896 944.083 231.358 943.854 231.781C943.625 232.198 943.295 232.566 942.865 232.885C942.434 233.198 941.917 233.441 941.312 233.615C940.708 233.788 940.028 233.875 939.271 233.875C938.194 233.875 937.285 233.684 936.542 233.302C935.799 232.913 935.236 232.427 934.854 231.844C934.479 231.253 934.292 230.656 934.292 230.052H937.562C937.576 230.399 937.66 230.684 937.812 230.906C937.972 231.128 938.184 231.292 938.448 231.396C938.712 231.5 939.017 231.552 939.365 231.552C939.684 231.552 939.948 231.507 940.156 231.417C940.372 231.326 940.535 231.205 940.646 231.052C940.757 230.892 940.812 230.708 940.812 230.5ZM951.302 233.875C950.385 233.875 949.566 233.733 948.844 233.448C948.122 233.156 947.51 232.757 947.01 232.25C946.517 231.743 946.139 231.16 945.875 230.5C945.618 229.84 945.49 229.142 945.49 228.406V228.01C945.49 227.184 945.604 226.42 945.833 225.719C946.062 225.01 946.403 224.392 946.854 223.865C947.306 223.337 947.872 222.927 948.552 222.635C949.233 222.337 950.024 222.188 950.927 222.188C951.726 222.188 952.441 222.316 953.073 222.573C953.705 222.83 954.24 223.198 954.677 223.677C955.122 224.156 955.458 224.736 955.687 225.417C955.924 226.097 956.042 226.861 956.042 227.708V229.135H946.833V226.938H952.615V226.667C952.622 226.292 952.556 225.972 952.417 225.708C952.285 225.444 952.09 225.243 951.833 225.104C951.576 224.965 951.264 224.896 950.896 224.896C950.514 224.896 950.198 224.979 949.948 225.146C949.705 225.313 949.514 225.542 949.375 225.833C949.243 226.118 949.149 226.448 949.094 226.823C949.038 227.198 949.01 227.594 949.01 228.01V228.406C949.01 228.823 949.066 229.201 949.177 229.542C949.295 229.882 949.462 230.174 949.677 230.417C949.899 230.653 950.163 230.837 950.469 230.969C950.781 231.101 951.135 231.167 951.531 231.167C952.01 231.167 952.483 231.076 952.948 230.896C953.413 230.715 953.812 230.417 954.146 230L955.74 231.896C955.51 232.222 955.184 232.538 954.76 232.844C954.344 233.149 953.844 233.399 953.26 233.594C952.677 233.781 952.024 233.875 951.302 233.875Z" fill="white"/>
</svg>
