<svg width="1363" height="167" viewBox="0 0 1363 167" fill="none" xmlns="http://www.w3.org/2000/svg">
<rect width="1363" height="167" rx="15" fill="#F0F0F0"/>
<path d="M0 15C0 6.71573 6.71573 0 15 0H37V167H15C6.71573 167 0 160.284 0 152V15Z" fill="#424241"/>
<path d="M100.906 50.9219L93.3945 48.2383V45.0859L103.602 49.375V51.6367L100.906 50.9219ZM93.3945 53.1719L100.918 50.4297L103.602 49.7852V52.0352L93.3945 56.3242V53.1719ZM121.789 52.3398H125.293C125.223 53.4883 124.906 54.5078 124.344 55.3984C123.789 56.2891 123.012 56.9844 122.012 57.4844C121.02 57.9844 119.824 58.2344 118.426 58.2344C117.332 58.2344 116.352 58.0469 115.484 57.6719C114.617 57.2891 113.875 56.7422 113.258 56.0312C112.648 55.3203 112.184 54.4609 111.863 53.4531C111.543 52.4453 111.383 51.3164 111.383 50.0664V48.8828C111.383 47.6328 111.547 46.5039 111.875 45.4961C112.211 44.4805 112.688 43.6172 113.305 42.9062C113.93 42.1953 114.676 41.6484 115.543 41.2656C116.41 40.8828 117.379 40.6914 118.449 40.6914C119.871 40.6914 121.07 40.9492 122.047 41.4648C123.031 41.9805 123.793 42.6914 124.332 43.5977C124.879 44.5039 125.207 45.5352 125.316 46.6914H121.801C121.762 46.0039 121.625 45.4219 121.391 44.9453C121.156 44.4609 120.801 44.0977 120.324 43.8555C119.855 43.6055 119.23 43.4805 118.449 43.4805C117.863 43.4805 117.352 43.5898 116.914 43.8086C116.477 44.0273 116.109 44.3594 115.812 44.8047C115.516 45.25 115.293 45.8125 115.145 46.4922C115.004 47.1641 114.934 47.9531 114.934 48.8594V50.0664C114.934 50.9492 115 51.7266 115.133 52.3984C115.266 53.0625 115.469 53.625 115.742 54.0859C116.023 54.5391 116.383 54.8828 116.82 55.1172C117.266 55.3438 117.801 55.457 118.426 55.457C119.16 55.457 119.766 55.3398 120.242 55.1055C120.719 54.8711 121.082 54.5234 121.332 54.0625C121.59 53.6016 121.742 53.0273 121.789 52.3398ZM126.852 51.7891V51.543C126.852 50.6133 126.984 49.7578 127.25 48.9766C127.516 48.1875 127.902 47.5039 128.41 46.9258C128.918 46.3477 129.543 45.8984 130.285 45.5781C131.027 45.25 131.879 45.0859 132.84 45.0859C133.801 45.0859 134.656 45.25 135.406 45.5781C136.156 45.8984 136.785 46.3477 137.293 46.9258C137.809 47.5039 138.199 48.1875 138.465 48.9766C138.73 49.7578 138.863 50.6133 138.863 51.543V51.7891C138.863 52.7109 138.73 53.5664 138.465 54.3555C138.199 55.1367 137.809 55.8203 137.293 56.4062C136.785 56.9844 136.16 57.4336 135.418 57.7539C134.676 58.0742 133.824 58.2344 132.863 58.2344C131.902 58.2344 131.047 58.0742 130.297 57.7539C129.555 57.4336 128.926 56.9844 128.41 56.4062C127.902 55.8203 127.516 55.1367 127.25 54.3555C126.984 53.5664 126.852 52.7109 126.852 51.7891ZM130.227 51.543V51.7891C130.227 52.3203 130.273 52.8164 130.367 53.2773C130.461 53.7383 130.609 54.1445 130.812 54.4961C131.023 54.8398 131.297 55.1094 131.633 55.3047C131.969 55.5 132.379 55.5977 132.863 55.5977C133.332 55.5977 133.734 55.5 134.07 55.3047C134.406 55.1094 134.676 54.8398 134.879 54.4961C135.082 54.1445 135.23 53.7383 135.324 53.2773C135.426 52.8164 135.477 52.3203 135.477 51.7891V51.543C135.477 51.0273 135.426 50.543 135.324 50.0898C135.23 49.6289 135.078 49.2227 134.867 48.8711C134.664 48.5117 134.395 48.2305 134.059 48.0273C133.723 47.8242 133.316 47.7227 132.84 47.7227C132.363 47.7227 131.957 47.8242 131.621 48.0273C131.293 48.2305 131.023 48.5117 130.812 48.8711C130.609 49.2227 130.461 49.6289 130.367 50.0898C130.273 50.543 130.227 51.0273 130.227 51.543ZM144.312 47.9453V58H140.926V45.3203H144.102L144.312 47.9453ZM143.844 51.2148H142.906C142.906 50.332 143.012 49.5195 143.223 48.7773C143.441 48.0273 143.758 47.3789 144.172 46.832C144.594 46.2773 145.113 45.8477 145.73 45.543C146.348 45.2383 147.062 45.0859 147.875 45.0859C148.438 45.0859 148.953 45.1719 149.422 45.3438C149.891 45.5078 150.293 45.7695 150.629 46.1289C150.973 46.4805 151.238 46.9414 151.426 47.5117C151.613 48.0742 151.707 48.75 151.707 49.5391V58H148.332V49.9141C148.332 49.3359 148.254 48.8906 148.098 48.5781C147.941 48.2656 147.719 48.0469 147.43 47.9219C147.148 47.7969 146.809 47.7344 146.41 47.7344C145.973 47.7344 145.59 47.8242 145.262 48.0039C144.941 48.1836 144.676 48.4336 144.465 48.7539C144.254 49.0664 144.098 49.4336 143.996 49.8555C143.895 50.2773 143.844 50.7305 143.844 51.2148ZM151.391 50.8281L150.184 50.9805C150.184 50.1523 150.285 49.3828 150.488 48.6719C150.699 47.9609 151.008 47.3359 151.414 46.7969C151.828 46.2578 152.34 45.8398 152.949 45.543C153.559 45.2383 154.262 45.0859 155.059 45.0859C155.668 45.0859 156.223 45.1758 156.723 45.3555C157.223 45.5273 157.648 45.8047 158 46.1875C158.359 46.5625 158.633 47.0547 158.82 47.6641C159.016 48.2734 159.113 49.0195 159.113 49.9023V58H155.727V49.9023C155.727 49.3164 155.648 48.8711 155.492 48.5664C155.344 48.2539 155.125 48.0391 154.836 47.9219C154.555 47.7969 154.219 47.7344 153.828 47.7344C153.422 47.7344 153.066 47.8164 152.762 47.9805C152.457 48.1367 152.203 48.3555 152 48.6367C151.797 48.918 151.645 49.2461 151.543 49.6211C151.441 49.9883 151.391 50.3906 151.391 50.8281ZM165.102 47.7578V62.875H161.727V45.3203H164.855L165.102 47.7578ZM173.129 51.5195V51.7656C173.129 52.6875 173.02 53.543 172.801 54.332C172.59 55.1211 172.277 55.8086 171.863 56.3945C171.449 56.9727 170.934 57.4258 170.316 57.7539C169.707 58.0742 169.004 58.2344 168.207 58.2344C167.434 58.2344 166.762 58.0781 166.191 57.7656C165.621 57.4531 165.141 57.0156 164.75 56.4531C164.367 55.8828 164.059 55.2227 163.824 54.4727C163.59 53.7227 163.41 52.918 163.285 52.0586V51.4141C163.41 50.4922 163.59 49.6484 163.824 48.8828C164.059 48.1094 164.367 47.4414 164.75 46.8789C165.141 46.3086 165.617 45.8672 166.18 45.5547C166.75 45.2422 167.418 45.0859 168.184 45.0859C168.988 45.0859 169.695 45.2383 170.305 45.543C170.922 45.8477 171.438 46.2852 171.852 46.8555C172.273 47.4258 172.59 48.1055 172.801 48.8945C173.02 49.6836 173.129 50.5586 173.129 51.5195ZM169.742 51.7656V51.5195C169.742 50.9805 169.695 50.4844 169.602 50.0312C169.516 49.5703 169.375 49.168 169.18 48.8242C168.992 48.4805 168.742 48.2148 168.43 48.0273C168.125 47.832 167.754 47.7344 167.316 47.7344C166.855 47.7344 166.461 47.8086 166.133 47.957C165.812 48.1055 165.551 48.3203 165.348 48.6016C165.145 48.8828 164.992 49.2188 164.891 49.6094C164.789 50 164.727 50.4414 164.703 50.9336V52.5625C164.742 53.1406 164.852 53.6602 165.031 54.1211C165.211 54.5742 165.488 54.9336 165.863 55.1992C166.238 55.4648 166.73 55.5977 167.34 55.5977C167.785 55.5977 168.16 55.5 168.465 55.3047C168.77 55.1016 169.016 54.8242 169.203 54.4727C169.398 54.1211 169.535 53.7148 169.613 53.2539C169.699 52.793 169.742 52.2969 169.742 51.7656ZM181.438 45.3203V47.7109H174.055V45.3203H181.438ZM175.883 42.1914H179.258V54.1797C179.258 54.5469 179.305 54.8281 179.398 55.0234C179.5 55.2188 179.648 55.3555 179.844 55.4336C180.039 55.5039 180.285 55.5391 180.582 55.5391C180.793 55.5391 180.98 55.5312 181.145 55.5156C181.316 55.4922 181.461 55.4688 181.578 55.4453L181.59 57.9297C181.301 58.0234 180.988 58.0977 180.652 58.1523C180.316 58.207 179.945 58.2344 179.539 58.2344C178.797 58.2344 178.148 58.1133 177.594 57.8711C177.047 57.6211 176.625 57.2227 176.328 56.6758C176.031 56.1289 175.883 55.4102 175.883 54.5195V42.1914ZM190.859 54.9648V45.3203H194.234V58H191.059L190.859 54.9648ZM191.234 52.3633L192.23 52.3398C192.23 53.1836 192.133 53.9688 191.938 54.6953C191.742 55.4141 191.449 56.0391 191.059 56.5703C190.668 57.0938 190.176 57.5039 189.582 57.8008C188.988 58.0898 188.289 58.2344 187.484 58.2344C186.867 58.2344 186.297 58.1484 185.773 57.9766C185.258 57.7969 184.812 57.5195 184.438 57.1445C184.07 56.7617 183.781 56.2734 183.57 55.6797C183.367 55.0781 183.266 54.3555 183.266 53.5117V45.3203H186.641V53.5352C186.641 53.9102 186.684 54.2266 186.77 54.4844C186.863 54.7422 186.992 54.9531 187.156 55.1172C187.32 55.2812 187.512 55.3984 187.73 55.4688C187.957 55.5391 188.207 55.5742 188.48 55.5742C189.176 55.5742 189.723 55.4336 190.121 55.1523C190.527 54.8711 190.812 54.4883 190.977 54.0039C191.148 53.5117 191.234 52.9648 191.234 52.3633ZM203.023 45.3203V47.7109H195.641V45.3203H203.023ZM197.469 42.1914H200.844V54.1797C200.844 54.5469 200.891 54.8281 200.984 55.0234C201.086 55.2188 201.234 55.3555 201.43 55.4336C201.625 55.5039 201.871 55.5391 202.168 55.5391C202.379 55.5391 202.566 55.5312 202.73 55.5156C202.902 55.4922 203.047 55.4688 203.164 55.4453L203.176 57.9297C202.887 58.0234 202.574 58.0977 202.238 58.1523C201.902 58.207 201.531 58.2344 201.125 58.2344C200.383 58.2344 199.734 58.1133 199.18 57.8711C198.633 57.6211 198.211 57.2227 197.914 56.6758C197.617 56.1289 197.469 55.4102 197.469 54.5195V42.1914ZM204.102 51.7891V51.543C204.102 50.6133 204.234 49.7578 204.5 48.9766C204.766 48.1875 205.152 47.5039 205.66 46.9258C206.168 46.3477 206.793 45.8984 207.535 45.5781C208.277 45.25 209.129 45.0859 210.09 45.0859C211.051 45.0859 211.906 45.25 212.656 45.5781C213.406 45.8984 214.035 46.3477 214.543 46.9258C215.059 47.5039 215.449 48.1875 215.715 48.9766C215.98 49.7578 216.113 50.6133 216.113 51.543V51.7891C216.113 52.7109 215.98 53.5664 215.715 54.3555C215.449 55.1367 215.059 55.8203 214.543 56.4062C214.035 56.9844 213.41 57.4336 212.668 57.7539C211.926 58.0742 211.074 58.2344 210.113 58.2344C209.152 58.2344 208.297 58.0742 207.547 57.7539C206.805 57.4336 206.176 56.9844 205.66 56.4062C205.152 55.8203 204.766 55.1367 204.5 54.3555C204.234 53.5664 204.102 52.7109 204.102 51.7891ZM207.477 51.543V51.7891C207.477 52.3203 207.523 52.8164 207.617 53.2773C207.711 53.7383 207.859 54.1445 208.062 54.4961C208.273 54.8398 208.547 55.1094 208.883 55.3047C209.219 55.5 209.629 55.5977 210.113 55.5977C210.582 55.5977 210.984 55.5 211.32 55.3047C211.656 55.1094 211.926 54.8398 212.129 54.4961C212.332 54.1445 212.48 53.7383 212.574 53.2773C212.676 52.8164 212.727 52.3203 212.727 51.7891V51.543C212.727 51.0273 212.676 50.543 212.574 50.0898C212.48 49.6289 212.328 49.2227 212.117 48.8711C211.914 48.5117 211.645 48.2305 211.309 48.0273C210.973 47.8242 210.566 47.7227 210.09 47.7227C209.613 47.7227 209.207 47.8242 208.871 48.0273C208.543 48.2305 208.273 48.5117 208.062 48.8711C207.859 49.2227 207.711 49.6289 207.617 50.0898C207.523 50.543 207.477 51.0273 207.477 51.543ZM221.562 48.0859V58H218.188V45.3203H221.363L221.562 48.0859ZM225.383 45.2383L225.324 48.3672C225.16 48.3438 224.961 48.3242 224.727 48.3086C224.5 48.2852 224.293 48.2734 224.105 48.2734C223.629 48.2734 223.215 48.3359 222.863 48.4609C222.52 48.5781 222.23 48.7539 221.996 48.9883C221.77 49.2227 221.598 49.5078 221.48 49.8438C221.371 50.1797 221.309 50.5625 221.293 50.9922L220.613 50.7812C220.613 49.9609 220.695 49.207 220.859 48.5195C221.023 47.8242 221.262 47.2188 221.574 46.7031C221.895 46.1875 222.285 45.7891 222.746 45.5078C223.207 45.2266 223.734 45.0859 224.328 45.0859C224.516 45.0859 224.707 45.1016 224.902 45.1328C225.098 45.1562 225.258 45.1914 225.383 45.2383Z" fill="#888888"/>
<path d="M101.822 115.1L108.194 86.0078H111.995L114.061 88.4907L107.271 118H103.074L101.822 115.1ZM100.13 86.0078L105.513 115.319L104.129 118H99.2729L92.4834 86.0078H100.13ZM117.554 115.166L122.894 86.0078H130.518L123.729 118H118.895L117.554 115.166ZM114.742 86.0078L121.268 115.275L119.949 118H115.752L108.809 88.4468L110.962 86.0078H114.742ZM141.021 94.2256V118H133.594V94.2256H141.021ZM133.155 88.0952C133.155 87.0405 133.536 86.1763 134.297 85.5024C135.059 84.8286 136.048 84.4917 137.264 84.4917C138.479 84.4917 139.468 84.8286 140.23 85.5024C140.992 86.1763 141.373 87.0405 141.373 88.0952C141.373 89.1499 140.992 90.0142 140.23 90.688C139.468 91.3618 138.479 91.6987 137.264 91.6987C136.048 91.6987 135.059 91.3618 134.297 90.688C133.536 90.0142 133.155 89.1499 133.155 88.0952ZM153.062 100.114V118H145.657V94.2256H152.579L153.062 100.114ZM160.093 94.0498L159.961 100.927C159.668 100.898 159.273 100.861 158.775 100.817C158.277 100.773 157.859 100.751 157.522 100.751C156.658 100.751 155.911 100.854 155.281 101.059C154.666 101.25 154.153 101.542 153.743 101.938C153.348 102.319 153.055 102.802 152.864 103.388C152.688 103.974 152.608 104.655 152.623 105.432L151.282 104.553C151.282 102.956 151.436 101.506 151.744 100.202C152.066 98.8838 152.52 97.7485 153.106 96.7964C153.692 95.8296 154.402 95.0898 155.237 94.5771C156.072 94.0498 157.01 93.7861 158.05 93.7861C158.416 93.7861 158.775 93.8081 159.126 93.8521C159.493 93.896 159.815 93.9619 160.093 94.0498ZM173.716 118.439C171.783 118.439 170.054 118.139 168.531 117.539C167.007 116.923 165.718 116.081 164.664 115.012C163.624 113.942 162.825 112.712 162.269 111.32C161.727 109.929 161.456 108.457 161.456 106.904V106.069C161.456 104.326 161.697 102.714 162.181 101.235C162.664 99.7407 163.382 98.437 164.334 97.3237C165.286 96.2104 166.48 95.3462 167.916 94.731C169.351 94.1011 171.021 93.7861 172.925 93.7861C174.61 93.7861 176.119 94.0571 177.452 94.5991C178.785 95.1411 179.913 95.9175 180.835 96.9282C181.773 97.939 182.483 99.1621 182.967 100.598C183.465 102.033 183.714 103.645 183.714 105.432V108.442H164.29V103.806H176.485V103.234C176.5 102.443 176.36 101.77 176.067 101.213C175.789 100.656 175.379 100.231 174.837 99.9385C174.295 99.6455 173.636 99.499 172.859 99.499C172.054 99.499 171.387 99.6748 170.86 100.026C170.347 100.378 169.944 100.861 169.651 101.477C169.373 102.077 169.175 102.773 169.058 103.564C168.941 104.355 168.882 105.19 168.882 106.069V106.904C168.882 107.783 169 108.581 169.234 109.299C169.483 110.017 169.834 110.632 170.289 111.145C170.757 111.643 171.314 112.031 171.958 112.309C172.618 112.587 173.365 112.727 174.2 112.727C175.21 112.727 176.207 112.536 177.188 112.155C178.169 111.774 179.012 111.145 179.715 110.266L183.077 114.265C182.593 114.953 181.905 115.62 181.011 116.264C180.132 116.909 179.078 117.436 177.847 117.846C176.617 118.242 175.24 118.439 173.716 118.439ZM195.799 118H188.35V92.292C188.35 90.4463 188.724 88.8936 189.471 87.6338C190.218 86.374 191.272 85.4219 192.635 84.7773C193.997 84.1182 195.608 83.7886 197.469 83.7886C198.113 83.7886 198.721 83.8325 199.292 83.9204C199.864 84.0083 200.42 84.1182 200.962 84.25L200.984 89.6992C200.721 89.626 200.45 89.5747 200.171 89.5454C199.893 89.5161 199.549 89.5015 199.139 89.5015C198.421 89.5015 197.813 89.6113 197.315 89.8311C196.817 90.0361 196.436 90.3511 196.172 90.7759C195.923 91.186 195.799 91.6914 195.799 92.292V118ZM200.413 94.2256V99.3672H184.922V94.2256H200.413ZM210.542 100.114V118H203.138V94.2256H210.059L210.542 100.114ZM217.574 94.0498L217.442 100.927C217.149 100.898 216.753 100.861 216.255 100.817C215.757 100.773 215.34 100.751 215.003 100.751C214.139 100.751 213.392 100.854 212.762 101.059C212.146 101.25 211.634 101.542 211.224 101.938C210.828 102.319 210.535 102.802 210.345 103.388C210.169 103.974 210.088 104.655 210.103 105.432L208.763 104.553C208.763 102.956 208.917 101.506 209.224 100.202C209.546 98.8838 210 97.7485 210.586 96.7964C211.172 95.8296 211.883 95.0898 212.718 94.5771C213.553 94.0498 214.49 93.7861 215.53 93.7861C215.896 93.7861 216.255 93.8081 216.607 93.8521C216.973 93.896 217.295 93.9619 217.574 94.0498ZM231.812 112.023V102.224C231.812 101.55 231.717 100.971 231.526 100.488C231.336 100.004 231.036 99.6309 230.625 99.3672C230.215 99.0889 229.666 98.9497 228.978 98.9497C228.421 98.9497 227.945 99.0449 227.549 99.2354C227.154 99.4258 226.854 99.7114 226.648 100.092C226.443 100.473 226.341 100.957 226.341 101.542H218.936C218.936 100.444 219.178 99.4258 219.661 98.4883C220.159 97.5361 220.862 96.7085 221.771 96.0054C222.693 95.3022 223.792 94.7603 225.066 94.3794C226.355 93.9839 227.791 93.7861 229.373 93.7861C231.263 93.7861 232.947 94.1011 234.427 94.731C235.921 95.3608 237.1 96.3057 237.964 97.5654C238.829 98.8105 239.261 100.378 239.261 102.268V112.001C239.261 113.554 239.349 114.733 239.524 115.539C239.7 116.33 239.949 117.026 240.271 117.626V118H232.845C232.493 117.268 232.229 116.374 232.054 115.319C231.893 114.25 231.812 113.151 231.812 112.023ZM232.713 103.476L232.757 107.431H229.483C228.794 107.431 228.208 107.526 227.725 107.717C227.256 107.907 226.875 108.171 226.583 108.508C226.304 108.83 226.099 109.196 225.967 109.606C225.85 110.017 225.792 110.449 225.792 110.903C225.792 111.342 225.894 111.738 226.099 112.089C226.319 112.426 226.612 112.69 226.978 112.88C227.344 113.071 227.754 113.166 228.208 113.166C229.029 113.166 229.725 113.012 230.296 112.705C230.882 112.382 231.329 111.994 231.636 111.54C231.944 111.086 232.098 110.661 232.098 110.266L233.724 113.298C233.431 113.884 233.094 114.477 232.713 115.078C232.347 115.678 231.885 116.235 231.329 116.748C230.787 117.246 230.12 117.656 229.329 117.978C228.538 118.286 227.579 118.439 226.451 118.439C224.986 118.439 223.638 118.139 222.408 117.539C221.192 116.938 220.218 116.103 219.485 115.034C218.753 113.95 218.387 112.705 218.387 111.298C218.387 110.068 218.606 108.969 219.046 108.002C219.5 107.036 220.181 106.215 221.089 105.542C221.998 104.868 223.155 104.355 224.561 104.003C225.967 103.652 227.623 103.476 229.527 103.476H232.713ZM250.84 99.2573V118H243.436V94.2256H250.379L250.84 99.2573ZM249.939 105.3L248.248 105.344C248.248 103.674 248.445 102.136 248.841 100.729C249.236 99.3232 249.822 98.1001 250.599 97.0601C251.375 96.02 252.327 95.2144 253.455 94.6431C254.598 94.0718 255.916 93.7861 257.41 93.7861C258.45 93.7861 259.395 93.9473 260.245 94.2695C261.094 94.5771 261.827 95.0679 262.442 95.7417C263.057 96.4009 263.526 97.2651 263.848 98.3345C264.185 99.3892 264.354 100.656 264.354 102.136V118H256.949V103.081C256.949 102.07 256.832 101.308 256.597 100.795C256.377 100.283 256.055 99.9385 255.63 99.7627C255.206 99.5869 254.686 99.499 254.07 99.499C253.426 99.499 252.847 99.6455 252.334 99.9385C251.822 100.231 251.382 100.642 251.016 101.169C250.665 101.682 250.394 102.29 250.203 102.993C250.027 103.696 249.939 104.465 249.939 105.3ZM263.519 105.3L261.453 105.344C261.453 103.674 261.636 102.136 262.002 100.729C262.383 99.3232 262.947 98.1001 263.694 97.0601C264.456 96.02 265.401 95.2144 266.529 94.6431C267.657 94.0718 268.968 93.7861 270.462 93.7861C271.546 93.7861 272.542 93.9473 273.45 94.2695C274.358 94.5918 275.142 95.1118 275.801 95.8296C276.46 96.5474 276.973 97.4995 277.339 98.686C277.706 99.8579 277.889 101.308 277.889 103.037V118H270.462V103.037C270.462 102.055 270.345 101.315 270.11 100.817C269.891 100.305 269.568 99.9604 269.144 99.7847C268.719 99.5942 268.213 99.499 267.627 99.499C266.924 99.499 266.316 99.6455 265.804 99.9385C265.291 100.231 264.859 100.642 264.507 101.169C264.17 101.682 263.921 102.29 263.76 102.993C263.599 103.696 263.519 104.465 263.519 105.3ZM293.643 118.439C291.709 118.439 289.981 118.139 288.458 117.539C286.934 116.923 285.645 116.081 284.59 115.012C283.55 113.942 282.752 112.712 282.195 111.32C281.653 109.929 281.382 108.457 281.382 106.904V106.069C281.382 104.326 281.624 102.714 282.107 101.235C282.591 99.7407 283.309 98.437 284.261 97.3237C285.213 96.2104 286.407 95.3462 287.842 94.731C289.278 94.1011 290.948 93.7861 292.852 93.7861C294.537 93.7861 296.045 94.0571 297.378 94.5991C298.711 95.1411 299.839 95.9175 300.762 96.9282C301.7 97.939 302.41 99.1621 302.894 100.598C303.392 102.033 303.641 103.645 303.641 105.432V108.442H284.217V103.806H296.412V103.234C296.426 102.443 296.287 101.77 295.994 101.213C295.716 100.656 295.306 100.231 294.764 99.9385C294.222 99.6455 293.562 99.499 292.786 99.499C291.98 99.499 291.314 99.6748 290.787 100.026C290.274 100.378 289.871 100.861 289.578 101.477C289.3 102.077 289.102 102.773 288.985 103.564C288.868 104.355 288.809 105.19 288.809 106.069V106.904C288.809 107.783 288.926 108.581 289.161 109.299C289.41 110.017 289.761 110.632 290.215 111.145C290.684 111.643 291.241 112.031 291.885 112.309C292.544 112.587 293.292 112.727 294.126 112.727C295.137 112.727 296.133 112.536 297.115 112.155C298.096 111.774 298.938 111.145 299.642 110.266L303.003 114.265C302.52 114.953 301.832 115.62 300.938 116.264C300.059 116.909 299.004 117.436 297.774 117.846C296.543 118.242 295.167 118.439 293.643 118.439ZM319.109 111.32C319.109 110.91 318.97 110.559 318.692 110.266C318.428 109.958 317.959 109.68 317.286 109.431C316.612 109.167 315.667 108.903 314.451 108.64C313.294 108.391 312.203 108.061 311.177 107.651C310.167 107.241 309.28 106.743 308.519 106.157C307.757 105.571 307.156 104.875 306.717 104.069C306.292 103.264 306.08 102.341 306.08 101.301C306.08 100.29 306.292 99.3379 306.717 98.4443C307.156 97.5361 307.793 96.7378 308.628 96.0493C309.478 95.3462 310.511 94.7969 311.727 94.4014C312.942 93.9912 314.327 93.7861 315.879 93.7861C318.018 93.7861 319.864 94.1157 321.417 94.7749C322.969 95.4194 324.163 96.3276 324.998 97.4995C325.848 98.6567 326.272 99.9971 326.272 101.521H318.868C318.868 100.92 318.765 100.407 318.56 99.9824C318.37 99.5576 318.055 99.2354 317.615 99.0156C317.176 98.7812 316.59 98.6641 315.857 98.6641C315.345 98.6641 314.876 98.7593 314.451 98.9497C314.041 99.1401 313.711 99.4038 313.462 99.7407C313.213 100.078 313.089 100.473 313.089 100.927C313.089 101.25 313.162 101.542 313.309 101.806C313.47 102.055 313.711 102.29 314.034 102.509C314.356 102.714 314.766 102.905 315.264 103.081C315.762 103.242 316.363 103.388 317.066 103.52C318.663 103.813 320.157 104.23 321.548 104.772C322.94 105.314 324.068 106.083 324.932 107.08C325.811 108.076 326.25 109.416 326.25 111.101C326.25 112.155 326.009 113.129 325.525 114.023C325.042 114.902 324.346 115.678 323.438 116.352C322.53 117.011 321.438 117.524 320.164 117.89C318.89 118.256 317.454 118.439 315.857 118.439C313.587 118.439 311.668 118.037 310.101 117.231C308.533 116.411 307.347 115.385 306.541 114.155C305.75 112.91 305.354 111.65 305.354 110.375H312.254C312.283 111.108 312.459 111.708 312.781 112.177C313.118 112.646 313.565 112.99 314.122 113.21C314.678 113.43 315.323 113.54 316.055 113.54C316.729 113.54 317.286 113.444 317.725 113.254C318.179 113.063 318.523 112.807 318.758 112.485C318.992 112.148 319.109 111.76 319.109 111.32Z" fill="#424241"/>
<path d="M1363 15C1363 6.71573 1356.28 0 1348 0H1134V167H1348C1356.28 167 1363 160.284 1363 152V15Z" fill="#1877F2"/>
<path fill-rule="evenodd" clip-rule="evenodd" d="M1203 49C1203 47.8954 1203.9 47 1205 47H1292.5C1293.6 47 1294.5 47.8954 1294.5 49V118.996C1294.5 120.101 1293.6 120.996 1292.5 120.996H1205C1203.9 120.996 1203 120.101 1203 118.996V49ZM1207 51V55.4945H1290.5V51H1207ZM1290.5 59.4945H1235.44V116.996H1290.5V59.4945ZM1231.44 116.996V59.4945H1207V116.996H1231.44Z" fill="white"/>
<path fill-rule="evenodd" clip-rule="evenodd" d="M1209.97 64.8004C1209.97 63.6958 1210.87 62.8004 1211.97 62.8004H1225.97C1227.08 62.8004 1227.97 63.6958 1227.97 64.8004V84.1956C1227.97 85.3001 1227.08 86.1956 1225.97 86.1956H1211.97C1210.87 86.1956 1209.97 85.3001 1209.97 84.1956V64.8004ZM1213.97 66.8004V82.1956H1223.97V66.8004H1213.97ZM1239.58 65.6964C1239.58 64.5918 1240.47 63.6964 1241.58 63.6964H1284.5C1285.61 63.6964 1286.5 64.5918 1286.5 65.6964V111.905C1286.5 113.01 1285.61 113.905 1284.5 113.905H1241.58C1240.47 113.905 1239.58 113.01 1239.58 111.905V65.6964ZM1243.58 67.6964V109.905H1282.5V67.6964H1243.58ZM1209.81 95.9363C1209.81 94.8317 1210.71 93.9363 1211.81 93.9363H1220.73C1221.84 93.9363 1222.73 94.8317 1222.73 95.9363C1222.73 97.0409 1221.84 97.9363 1220.73 97.9363H1211.81C1210.71 97.9363 1209.81 97.0409 1209.81 95.9363ZM1209.81 102.936C1209.81 101.832 1210.71 100.936 1211.81 100.936H1226.35C1227.46 100.936 1228.35 101.832 1228.35 102.936C1228.35 104.041 1227.46 104.936 1226.35 104.936H1211.81C1210.71 104.936 1209.81 104.041 1209.81 102.936ZM1209.81 109.936C1209.81 108.832 1210.71 107.936 1211.81 107.936H1220.73C1221.84 107.936 1222.73 108.832 1222.73 109.936C1222.73 111.041 1221.84 111.936 1220.73 111.936H1211.81C1210.71 111.936 1209.81 111.041 1209.81 109.936Z" fill="white"/>
</svg>
