<svg width="1363" height="301" viewBox="0 0 1363 301" fill="none" xmlns="http://www.w3.org/2000/svg">
<rect width="1363" height="301" rx="15" fill="#F0F0F0"/>
<path d="M0 15C0 6.71573 6.71573 0 15 0H37V301H15C6.71573 301 0 294.284 0 286V15Z" fill="#1877F2"/>
<path d="M117.217 130.76H126.617C126.491 133.482 125.757 135.881 124.415 137.958C123.072 140.034 121.21 141.655 118.829 142.818C116.465 143.964 113.672 144.537 110.45 144.537C107.836 144.537 105.499 144.098 103.44 143.221C101.399 142.344 99.6628 141.082 98.2305 139.435C96.8161 137.787 95.7329 135.791 94.981 133.446C94.2469 131.1 93.8799 128.46 93.8799 125.523V123.402C93.8799 120.466 94.2648 117.825 95.0347 115.479C95.8224 113.116 96.9325 111.111 98.3647 109.464C99.8149 107.799 101.552 106.528 103.575 105.65C105.598 104.773 107.845 104.334 110.315 104.334C113.717 104.334 116.591 104.943 118.936 106.161C121.281 107.378 123.099 109.052 124.388 111.183C125.677 113.295 126.438 115.703 126.67 118.407H117.271C117.235 116.939 116.985 115.712 116.519 114.728C116.054 113.725 115.319 112.973 114.317 112.472C113.314 111.97 111.98 111.72 110.315 111.72C109.152 111.72 108.14 111.935 107.281 112.364C106.421 112.794 105.705 113.474 105.132 114.405C104.559 115.336 104.13 116.545 103.843 118.031C103.575 119.499 103.44 121.271 103.44 123.348V125.523C103.44 127.6 103.566 129.373 103.816 130.841C104.067 132.309 104.47 133.508 105.025 134.439C105.58 135.37 106.296 136.06 107.173 136.507C108.069 136.937 109.161 137.152 110.45 137.152C111.882 137.152 113.09 136.928 114.075 136.48C115.06 136.015 115.821 135.317 116.358 134.386C116.895 133.437 117.181 132.228 117.217 130.76ZM129.517 129.767V129.203C129.517 127.072 129.821 125.112 130.43 123.321C131.039 121.513 131.934 119.946 133.116 118.622C134.297 117.297 135.757 116.267 137.493 115.533C139.23 114.781 141.235 114.405 143.509 114.405C145.8 114.405 147.815 114.781 149.551 115.533C151.306 116.267 152.774 117.297 153.956 118.622C155.137 119.946 156.032 121.513 156.641 123.321C157.25 125.112 157.554 127.072 157.554 129.203V129.767C157.554 131.879 157.25 133.84 156.641 135.648C156.032 137.438 155.137 139.005 153.956 140.348C152.774 141.673 151.315 142.702 149.578 143.436C147.841 144.17 145.836 144.537 143.562 144.537C141.289 144.537 139.275 144.17 137.52 143.436C135.765 142.702 134.297 141.673 133.116 140.348C131.934 139.005 131.039 137.438 130.43 135.648C129.821 133.84 129.517 131.879 129.517 129.767ZM138.567 129.203V129.767C138.567 130.859 138.648 131.879 138.809 132.828C138.97 133.777 139.239 134.61 139.615 135.326C139.991 136.024 140.501 136.57 141.146 136.964C141.79 137.358 142.596 137.555 143.562 137.555C144.511 137.555 145.299 137.358 145.926 136.964C146.57 136.57 147.081 136.024 147.457 135.326C147.833 134.61 148.101 133.777 148.262 132.828C148.423 131.879 148.504 130.859 148.504 129.767V129.203C148.504 128.146 148.423 127.153 148.262 126.222C148.101 125.273 147.833 124.44 147.457 123.724C147.081 122.99 146.57 122.417 145.926 122.005C145.281 121.594 144.476 121.388 143.509 121.388C142.56 121.388 141.763 121.594 141.119 122.005C140.492 122.417 139.991 122.99 139.615 123.724C139.239 124.44 138.97 125.273 138.809 126.222C138.648 127.153 138.567 128.146 138.567 129.203ZM170.713 121.092V144H161.663V114.942H170.149L170.713 121.092ZM169.612 128.478L167.544 128.531C167.544 126.49 167.786 124.61 168.27 122.892C168.753 121.173 169.469 119.678 170.418 118.407C171.367 117.136 172.531 116.151 173.909 115.453C175.306 114.754 176.917 114.405 178.743 114.405C180.014 114.405 181.169 114.602 182.208 114.996C183.246 115.372 184.141 115.972 184.893 116.795C185.645 117.601 186.218 118.657 186.612 119.964C187.024 121.253 187.229 122.802 187.229 124.61V144H178.179V125.765C178.179 124.53 178.036 123.599 177.75 122.972C177.481 122.346 177.087 121.925 176.568 121.71C176.049 121.495 175.413 121.388 174.661 121.388C173.873 121.388 173.166 121.567 172.54 121.925C171.913 122.283 171.376 122.784 170.928 123.429C170.499 124.055 170.167 124.798 169.935 125.658C169.72 126.517 169.612 127.457 169.612 128.478ZM186.209 128.478L183.685 128.531C183.685 126.49 183.908 124.61 184.356 122.892C184.821 121.173 185.511 119.678 186.424 118.407C187.355 117.136 188.51 116.151 189.888 115.453C191.267 114.754 192.869 114.405 194.695 114.405C196.02 114.405 197.238 114.602 198.348 114.996C199.458 115.39 200.416 116.026 201.221 116.903C202.027 117.78 202.653 118.944 203.101 120.394C203.549 121.826 203.772 123.599 203.772 125.711V144H194.695V125.711C194.695 124.512 194.552 123.608 194.266 122.999C193.997 122.372 193.603 121.952 193.084 121.737C192.565 121.504 191.947 121.388 191.231 121.388C190.372 121.388 189.629 121.567 189.002 121.925C188.375 122.283 187.847 122.784 187.417 123.429C187.006 124.055 186.701 124.798 186.504 125.658C186.307 126.517 186.209 127.457 186.209 128.478ZM218.086 120.528V155.172H209.036V114.942H217.469L218.086 120.528ZM235.918 129.122V129.686C235.918 131.799 235.677 133.759 235.193 135.567C234.71 137.376 233.994 138.951 233.045 140.294C232.096 141.637 230.914 142.684 229.5 143.436C228.104 144.17 226.483 144.537 224.639 144.537C222.903 144.537 221.408 144.152 220.154 143.382C218.901 142.612 217.854 141.547 217.012 140.187C216.171 138.826 215.49 137.268 214.971 135.514C214.452 133.759 214.04 131.906 213.736 129.955V129.229C214.04 127.135 214.452 125.192 214.971 123.402C215.49 121.594 216.171 120.018 217.012 118.675C217.854 117.333 218.892 116.285 220.127 115.533C221.381 114.781 222.876 114.405 224.612 114.405C226.456 114.405 228.077 114.754 229.473 115.453C230.888 116.151 232.069 117.153 233.018 118.46C233.985 119.75 234.71 121.298 235.193 123.106C235.677 124.915 235.918 126.92 235.918 129.122ZM226.868 129.686V129.122C226.868 127.994 226.788 126.965 226.626 126.034C226.465 125.085 226.206 124.261 225.848 123.563C225.507 122.865 225.051 122.328 224.478 121.952C223.905 121.576 223.198 121.388 222.356 121.388C221.39 121.388 220.575 121.54 219.913 121.844C219.268 122.131 218.749 122.578 218.355 123.187C217.979 123.778 217.71 124.521 217.549 125.416C217.406 126.293 217.343 127.323 217.361 128.504V130.707C217.326 132.067 217.46 133.267 217.764 134.305C218.069 135.326 218.597 136.122 219.349 136.695C220.101 137.268 221.121 137.555 222.41 137.555C223.27 137.555 223.986 137.358 224.559 136.964C225.132 136.552 225.588 135.988 225.928 135.272C226.268 134.538 226.51 133.696 226.653 132.748C226.797 131.799 226.868 130.778 226.868 129.686ZM255.254 114.942V121.227H237.745V114.942H255.254ZM241.424 107.718H250.474V134.52C250.474 135.29 250.564 135.89 250.743 136.319C250.922 136.731 251.226 137.027 251.656 137.206C252.103 137.367 252.694 137.447 253.428 137.447C253.947 137.447 254.377 137.438 254.717 137.42C255.057 137.385 255.38 137.34 255.684 137.286V143.758C254.914 144.009 254.109 144.197 253.267 144.322C252.426 144.465 251.53 144.537 250.582 144.537C248.648 144.537 246.992 144.233 245.613 143.624C244.253 143.015 243.214 142.057 242.498 140.75C241.782 139.444 241.424 137.743 241.424 135.648V107.718ZM275.826 136.937V114.942H284.903V144H276.417L275.826 136.937ZM276.685 131.029L279.048 130.975C279.048 132.927 278.816 134.735 278.35 136.4C277.885 138.047 277.195 139.479 276.282 140.697C275.387 141.914 274.277 142.863 272.952 143.543C271.645 144.206 270.132 144.537 268.414 144.537C266.981 144.537 265.665 144.34 264.466 143.946C263.284 143.535 262.264 142.899 261.404 142.04C260.545 141.162 259.874 140.043 259.39 138.683C258.925 137.304 258.692 135.657 258.692 133.741V114.942H267.742V133.795C267.742 134.439 267.823 134.994 267.984 135.46C268.145 135.925 268.378 136.319 268.682 136.642C268.986 136.946 269.362 137.179 269.81 137.34C270.276 137.483 270.804 137.555 271.395 137.555C272.755 137.555 273.82 137.268 274.59 136.695C275.36 136.122 275.897 135.344 276.202 134.359C276.524 133.374 276.685 132.264 276.685 131.029ZM305.206 114.942V121.227H287.696V114.942H305.206ZM291.375 107.718H300.425V134.52C300.425 135.29 300.515 135.89 300.694 136.319C300.873 136.731 301.177 137.027 301.607 137.206C302.055 137.367 302.645 137.447 303.379 137.447C303.899 137.447 304.328 137.438 304.668 137.42C305.009 137.385 305.331 137.34 305.635 137.286V143.758C304.865 144.009 304.06 144.197 303.218 144.322C302.377 144.465 301.482 144.537 300.533 144.537C298.599 144.537 296.943 144.233 295.564 143.624C294.204 143.015 293.165 142.057 292.449 140.75C291.733 139.444 291.375 137.743 291.375 135.648V107.718ZM306.871 129.767V129.203C306.871 127.072 307.175 125.112 307.784 123.321C308.392 121.513 309.288 119.946 310.469 118.622C311.651 117.297 313.11 116.267 314.847 115.533C316.583 114.781 318.589 114.405 320.862 114.405C323.154 114.405 325.168 114.781 326.905 115.533C328.659 116.267 330.127 117.297 331.309 118.622C332.491 119.946 333.386 121.513 333.995 123.321C334.603 125.112 334.908 127.072 334.908 129.203V129.767C334.908 131.879 334.603 133.84 333.995 135.648C333.386 137.438 332.491 139.005 331.309 140.348C330.127 141.673 328.668 142.702 326.932 143.436C325.195 144.17 323.19 144.537 320.916 144.537C318.642 144.537 316.628 144.17 314.874 143.436C313.119 142.702 311.651 141.673 310.469 140.348C309.288 139.005 308.392 137.438 307.784 135.648C307.175 133.84 306.871 131.879 306.871 129.767ZM315.921 129.203V129.767C315.921 130.859 316.001 131.879 316.163 132.828C316.324 133.777 316.592 134.61 316.968 135.326C317.344 136.024 317.854 136.57 318.499 136.964C319.144 137.358 319.949 137.555 320.916 137.555C321.865 137.555 322.653 137.358 323.279 136.964C323.924 136.57 324.434 136.024 324.81 135.326C325.186 134.61 325.455 133.777 325.616 132.828C325.777 131.879 325.857 130.859 325.857 129.767V129.203C325.857 128.146 325.777 127.153 325.616 126.222C325.455 125.273 325.186 124.44 324.81 123.724C324.434 122.99 323.924 122.417 323.279 122.005C322.635 121.594 321.829 121.388 320.862 121.388C319.913 121.388 319.117 121.594 318.472 122.005C317.846 122.417 317.344 122.99 316.968 123.724C316.592 124.44 316.324 125.273 316.163 126.222C316.001 127.153 315.921 128.146 315.921 129.203ZM348.067 122.14V144H339.017V114.942H347.476L348.067 122.14ZM356.661 114.728L356.5 123.133C356.141 123.097 355.658 123.053 355.049 122.999C354.441 122.945 353.93 122.918 353.519 122.918C352.462 122.918 351.549 123.044 350.779 123.294C350.027 123.527 349.401 123.885 348.899 124.369C348.416 124.834 348.058 125.425 347.825 126.141C347.61 126.857 347.512 127.69 347.53 128.639L345.892 127.564C345.892 125.613 346.08 123.84 346.456 122.247C346.849 120.636 347.404 119.248 348.121 118.084C348.837 116.903 349.705 115.999 350.726 115.372C351.746 114.728 352.892 114.405 354.163 114.405C354.611 114.405 355.049 114.432 355.479 114.486C355.927 114.54 356.32 114.62 356.661 114.728Z" fill="black"/>
<path d="M96.563 55.1172H100.904L107.295 73.3862L113.687 55.1172H118.028L109.039 80H105.552L96.563 55.1172ZM94.2217 55.1172H98.5454L99.3315 72.9248V80H94.2217V55.1172ZM116.045 55.1172H120.386V80H115.259V72.9248L116.045 55.1172ZM123.787 70.9424V70.5835C123.787 69.2277 123.981 67.9801 124.368 66.8408C124.756 65.6901 125.319 64.6932 126.06 63.8501C126.801 63.007 127.712 62.3519 128.794 61.8848C129.877 61.4062 131.119 61.167 132.52 61.167C133.921 61.167 135.169 61.4062 136.263 61.8848C137.356 62.3519 138.274 63.007 139.014 63.8501C139.766 64.6932 140.336 65.6901 140.723 66.8408C141.111 67.9801 141.304 69.2277 141.304 70.5835V70.9424C141.304 72.2868 141.111 73.5343 140.723 74.6851C140.336 75.8244 139.766 76.8213 139.014 77.6758C138.274 78.5189 137.362 79.174 136.28 79.6411C135.197 80.1082 133.956 80.3418 132.554 80.3418C131.153 80.3418 129.905 80.1082 128.812 79.6411C127.729 79.174 126.812 78.5189 126.06 77.6758C125.319 76.8213 124.756 75.8244 124.368 74.6851C123.981 73.5343 123.787 72.2868 123.787 70.9424ZM128.709 70.5835V70.9424C128.709 71.7171 128.777 72.4406 128.914 73.1128C129.051 73.785 129.267 74.3774 129.563 74.8901C129.871 75.3914 130.27 75.7845 130.76 76.0693C131.25 76.3542 131.848 76.4966 132.554 76.4966C133.238 76.4966 133.825 76.3542 134.314 76.0693C134.804 75.7845 135.197 75.3914 135.494 74.8901C135.79 74.3774 136.006 73.785 136.143 73.1128C136.291 72.4406 136.365 71.7171 136.365 70.9424V70.5835C136.365 69.8315 136.291 69.1252 136.143 68.4644C136.006 67.7922 135.784 67.1997 135.477 66.687C135.18 66.1629 134.787 65.7528 134.297 65.4565C133.807 65.1603 133.215 65.0122 132.52 65.0122C131.825 65.0122 131.233 65.1603 130.743 65.4565C130.264 65.7528 129.871 66.1629 129.563 66.687C129.267 67.1997 129.051 67.7922 128.914 68.4644C128.777 69.1252 128.709 69.8315 128.709 70.5835ZM149.131 53.75V80H144.209V53.75H149.131ZM148.431 70.105H147.081C147.092 68.8175 147.263 67.6326 147.593 66.5503C147.924 65.4565 148.396 64.5109 149.012 63.7134C149.627 62.9045 150.362 62.2778 151.216 61.8335C152.082 61.3892 153.039 61.167 154.087 61.167C154.999 61.167 155.825 61.298 156.565 61.5601C157.317 61.8107 157.961 62.2209 158.497 62.7905C159.043 63.3488 159.465 64.0837 159.761 64.9951C160.057 65.9066 160.206 67.0117 160.206 68.3105V80H155.25V68.2764C155.25 67.4561 155.13 66.8123 154.891 66.3452C154.663 65.8667 154.327 65.5306 153.882 65.3369C153.449 65.1318 152.914 65.0293 152.276 65.0293C151.569 65.0293 150.966 65.1603 150.464 65.4224C149.974 65.6844 149.581 66.049 149.285 66.5161C148.989 66.9718 148.772 67.5073 148.636 68.1226C148.499 68.7378 148.431 69.3986 148.431 70.105ZM173.929 75.8301V67.5928C173.929 67.0003 173.832 66.4933 173.638 66.0718C173.444 65.6388 173.143 65.3027 172.732 65.0635C172.334 64.8242 171.815 64.7046 171.177 64.7046C170.63 64.7046 170.158 64.8014 169.759 64.9951C169.36 65.1774 169.052 65.4451 168.836 65.7983C168.619 66.1401 168.511 66.5446 168.511 67.0117H163.589C163.589 66.2256 163.772 65.4793 164.136 64.7729C164.501 64.0666 165.031 63.4456 165.726 62.9102C166.421 62.3633 167.247 61.936 168.204 61.6284C169.172 61.3208 170.254 61.167 171.451 61.167C172.886 61.167 174.162 61.4062 175.279 61.8848C176.395 62.3633 177.273 63.0811 177.911 64.0381C178.56 64.9951 178.885 66.1914 178.885 67.627V75.5396C178.885 76.5535 178.947 77.3853 179.073 78.0347C179.198 78.6727 179.38 79.231 179.62 79.7095V80H174.646C174.407 79.4987 174.225 78.8721 174.1 78.1201C173.986 77.3568 173.929 76.5934 173.929 75.8301ZM174.578 68.7378L174.612 71.5234H171.861C171.211 71.5234 170.647 71.5975 170.169 71.7456C169.69 71.8937 169.297 72.1045 168.99 72.3779C168.682 72.64 168.454 72.9476 168.306 73.3008C168.169 73.654 168.101 74.0413 168.101 74.4629C168.101 74.8844 168.198 75.2661 168.392 75.6079C168.585 75.9383 168.864 76.2004 169.229 76.394C169.594 76.5763 170.021 76.6675 170.511 76.6675C171.251 76.6675 171.895 76.5194 172.442 76.2231C172.989 75.9269 173.41 75.5623 173.707 75.1294C174.014 74.6965 174.174 74.2863 174.185 73.8989L175.484 75.9839C175.302 76.451 175.051 76.9352 174.732 77.4365C174.424 77.9378 174.031 78.4106 173.553 78.855C173.074 79.2879 172.499 79.6468 171.827 79.9316C171.154 80.2051 170.357 80.3418 169.434 80.3418C168.261 80.3418 167.195 80.1082 166.238 79.6411C165.293 79.1626 164.541 78.5075 163.982 77.6758C163.436 76.8327 163.162 75.8757 163.162 74.8047C163.162 73.8363 163.344 72.9761 163.709 72.2241C164.074 71.4722 164.609 70.8398 165.315 70.3271C166.033 69.8031 166.928 69.41 167.999 69.1479C169.069 68.8745 170.311 68.7378 171.724 68.7378H174.578ZM187.601 65.3369V80H182.662V61.5088H187.293L187.601 65.3369ZM186.917 70.105H185.55C185.55 68.8175 185.704 67.6326 186.011 66.5503C186.33 65.4565 186.792 64.5109 187.396 63.7134C188.011 62.9045 188.768 62.2778 189.668 61.8335C190.569 61.3892 191.611 61.167 192.796 61.167C193.616 61.167 194.368 61.2923 195.052 61.543C195.735 61.7822 196.322 62.1639 196.812 62.688C197.313 63.2007 197.701 63.8729 197.974 64.7046C198.248 65.5249 198.384 66.5104 198.384 67.6611V80H193.462V68.208C193.462 67.3649 193.348 66.7155 193.121 66.2598C192.893 65.804 192.568 65.485 192.146 65.3027C191.736 65.1204 191.241 65.0293 190.66 65.0293C190.022 65.0293 189.463 65.1603 188.985 65.4224C188.518 65.6844 188.13 66.049 187.823 66.5161C187.515 66.9718 187.287 67.5073 187.139 68.1226C186.991 68.7378 186.917 69.3986 186.917 70.105ZM197.923 69.541L196.163 69.7632C196.163 68.5555 196.311 67.4333 196.607 66.3965C196.915 65.3597 197.365 64.4482 197.957 63.6621C198.561 62.876 199.307 62.2664 200.196 61.8335C201.084 61.3892 202.11 61.167 203.272 61.167C204.161 61.167 204.97 61.298 205.699 61.5601C206.428 61.8107 207.049 62.2152 207.562 62.7734C208.086 63.3203 208.484 64.0381 208.758 64.9268C209.043 65.8154 209.185 66.9035 209.185 68.1909V80H204.246V68.1909C204.246 67.3364 204.132 66.687 203.904 66.2427C203.688 65.7869 203.369 65.4736 202.947 65.3027C202.537 65.1204 202.047 65.0293 201.478 65.0293C200.885 65.0293 200.367 65.1489 199.922 65.3882C199.478 65.616 199.108 65.9351 198.812 66.3452C198.515 66.7554 198.293 67.2339 198.145 67.7808C197.997 68.3162 197.923 68.903 197.923 69.541ZM217.918 65.3369V80H212.979V61.5088H217.61L217.918 65.3369ZM217.234 70.105H215.867C215.867 68.8175 216.021 67.6326 216.329 66.5503C216.648 65.4565 217.109 64.5109 217.713 63.7134C218.328 62.9045 219.086 62.2778 219.986 61.8335C220.886 61.3892 221.928 61.167 223.113 61.167C223.934 61.167 224.686 61.2923 225.369 61.543C226.053 61.7822 226.639 62.1639 227.129 62.688C227.631 63.2007 228.018 63.8729 228.292 64.7046C228.565 65.5249 228.702 66.5104 228.702 67.6611V80H223.78V68.208C223.78 67.3649 223.666 66.7155 223.438 66.2598C223.21 65.804 222.885 65.485 222.464 65.3027C222.054 65.1204 221.558 65.0293 220.977 65.0293C220.339 65.0293 219.781 65.1603 219.302 65.4224C218.835 65.6844 218.448 66.049 218.14 66.5161C217.833 66.9718 217.605 67.5073 217.457 68.1226C217.308 68.7378 217.234 69.3986 217.234 70.105ZM228.24 69.541L226.48 69.7632C226.48 68.5555 226.628 67.4333 226.924 66.3965C227.232 65.3597 227.682 64.4482 228.274 63.6621C228.878 62.876 229.625 62.2664 230.513 61.8335C231.402 61.3892 232.427 61.167 233.589 61.167C234.478 61.167 235.287 61.298 236.016 61.5601C236.745 61.8107 237.366 62.2152 237.879 62.7734C238.403 63.3203 238.802 64.0381 239.075 64.9268C239.36 65.8154 239.502 66.9035 239.502 68.1909V80H234.563V68.1909C234.563 67.3364 234.45 66.687 234.222 66.2427C234.005 65.7869 233.686 65.4736 233.265 65.3027C232.854 65.1204 232.365 65.0293 231.795 65.0293C231.202 65.0293 230.684 65.1489 230.24 65.3882C229.795 65.616 229.425 65.9351 229.129 66.3452C228.833 66.7554 228.611 67.2339 228.462 67.7808C228.314 68.3162 228.24 68.903 228.24 69.541ZM253.294 75.8301V67.5928C253.294 67.0003 253.197 66.4933 253.003 66.0718C252.81 65.6388 252.508 65.3027 252.098 65.0635C251.699 64.8242 251.181 64.7046 250.542 64.7046C249.996 64.7046 249.523 64.8014 249.124 64.9951C248.725 65.1774 248.418 65.4451 248.201 65.7983C247.985 66.1401 247.876 66.5446 247.876 67.0117H242.955C242.955 66.2256 243.137 65.4793 243.501 64.7729C243.866 64.0666 244.396 63.4456 245.091 62.9102C245.786 62.3633 246.612 61.936 247.569 61.6284C248.537 61.3208 249.62 61.167 250.816 61.167C252.251 61.167 253.528 61.4062 254.644 61.8848C255.761 62.3633 256.638 63.0811 257.276 64.0381C257.925 64.9951 258.25 66.1914 258.25 67.627V75.5396C258.25 76.5535 258.313 77.3853 258.438 78.0347C258.563 78.6727 258.746 79.231 258.985 79.7095V80H254.012C253.772 79.4987 253.59 78.8721 253.465 78.1201C253.351 77.3568 253.294 76.5934 253.294 75.8301ZM253.943 68.7378L253.978 71.5234H251.226C250.577 71.5234 250.013 71.5975 249.534 71.7456C249.056 71.8937 248.663 72.1045 248.355 72.3779C248.047 72.64 247.819 72.9476 247.671 73.3008C247.535 73.654 247.466 74.0413 247.466 74.4629C247.466 74.8844 247.563 75.2661 247.757 75.6079C247.951 75.9383 248.23 76.2004 248.594 76.394C248.959 76.5763 249.386 76.6675 249.876 76.6675C250.617 76.6675 251.26 76.5194 251.807 76.2231C252.354 75.9269 252.776 75.5623 253.072 75.1294C253.379 74.6965 253.539 74.2863 253.55 73.8989L254.849 75.9839C254.667 76.451 254.416 76.9352 254.097 77.4365C253.79 77.9378 253.396 78.4106 252.918 78.855C252.439 79.2879 251.864 79.6468 251.192 79.9316C250.52 80.2051 249.722 80.3418 248.799 80.3418C247.626 80.3418 246.561 80.1082 245.604 79.6411C244.658 79.1626 243.906 78.5075 243.348 77.6758C242.801 76.8327 242.527 75.8757 242.527 74.8047C242.527 73.8363 242.71 72.9761 243.074 72.2241C243.439 71.4722 243.974 70.8398 244.681 70.3271C245.398 69.8031 246.293 69.41 247.364 69.1479C248.435 68.8745 249.677 68.7378 251.089 68.7378H253.943ZM272.964 75.9668V53.75H277.92V80H273.46L272.964 75.9668ZM261.275 70.9766V70.6177C261.275 69.2049 261.434 67.9232 261.753 66.7725C262.072 65.6104 262.54 64.6134 263.155 63.7817C263.77 62.95 264.528 62.3063 265.428 61.8506C266.328 61.3949 267.353 61.167 268.504 61.167C269.586 61.167 270.532 61.3949 271.341 61.8506C272.161 62.3063 272.856 62.9557 273.426 63.7988C274.007 64.6305 274.474 65.616 274.827 66.7554C275.18 67.8833 275.437 69.1195 275.596 70.4639V71.25C275.437 72.5374 275.18 73.7337 274.827 74.8389C274.474 75.944 274.007 76.9124 273.426 77.7441C272.856 78.5645 272.161 79.2025 271.341 79.6582C270.521 80.1139 269.563 80.3418 268.47 80.3418C267.319 80.3418 266.294 80.1082 265.394 79.6411C264.505 79.174 263.753 78.5189 263.138 77.6758C262.534 76.8327 262.072 75.8415 261.753 74.7021C261.434 73.5628 261.275 72.321 261.275 70.9766ZM266.197 70.6177V70.9766C266.197 71.7399 266.254 72.452 266.368 73.1128C266.493 73.7736 266.692 74.3604 266.966 74.873C267.251 75.3743 267.615 75.7674 268.06 76.0522C268.515 76.3257 269.068 76.4624 269.717 76.4624C270.56 76.4624 271.255 76.2744 271.802 75.8984C272.349 75.5111 272.765 74.9813 273.05 74.3091C273.346 73.6369 273.517 72.8621 273.562 71.9849V69.7461C273.528 69.0283 273.426 68.3846 273.255 67.8149C273.095 67.2339 272.856 66.7383 272.537 66.3281C272.229 65.918 271.842 65.599 271.375 65.3711C270.919 65.1432 270.378 65.0293 269.751 65.0293C269.113 65.0293 268.567 65.1774 268.111 65.4736C267.655 65.7585 267.285 66.1515 267 66.6528C266.727 67.1541 266.521 67.7466 266.385 68.4302C266.259 69.1024 266.197 69.8315 266.197 70.6177ZM295.916 55.1172V80H290.789V55.1172H295.916ZM310.818 55.1172L300.958 67.4048L295.267 73.5229L294.344 68.6694L298.189 63.4058L304.529 55.1172H310.818ZM304.991 80L297.659 68.4985L301.453 65.3198L311.058 80H304.991ZM322.713 75.8301V67.5928C322.713 67.0003 322.616 66.4933 322.422 66.0718C322.229 65.6388 321.927 65.3027 321.517 65.0635C321.118 64.8242 320.599 64.7046 319.961 64.7046C319.415 64.7046 318.942 64.8014 318.543 64.9951C318.144 65.1774 317.837 65.4451 317.62 65.7983C317.404 66.1401 317.295 66.5446 317.295 67.0117H312.374C312.374 66.2256 312.556 65.4793 312.92 64.7729C313.285 64.0666 313.815 63.4456 314.51 62.9102C315.205 62.3633 316.031 61.936 316.988 61.6284C317.956 61.3208 319.039 61.167 320.235 61.167C321.67 61.167 322.946 61.4062 324.063 61.8848C325.18 62.3633 326.057 63.0811 326.695 64.0381C327.344 64.9951 327.669 66.1914 327.669 67.627V75.5396C327.669 76.5535 327.732 77.3853 327.857 78.0347C327.982 78.6727 328.165 79.231 328.404 79.7095V80H323.431C323.191 79.4987 323.009 78.8721 322.884 78.1201C322.77 77.3568 322.713 76.5934 322.713 75.8301ZM323.362 68.7378L323.396 71.5234H320.645C319.996 71.5234 319.432 71.5975 318.953 71.7456C318.475 71.8937 318.082 72.1045 317.774 72.3779C317.466 72.64 317.238 72.9476 317.09 73.3008C316.954 73.654 316.885 74.0413 316.885 74.4629C316.885 74.8844 316.982 75.2661 317.176 75.6079C317.369 75.9383 317.649 76.2004 318.013 76.394C318.378 76.5763 318.805 76.6675 319.295 76.6675C320.035 76.6675 320.679 76.5194 321.226 76.2231C321.773 75.9269 322.194 75.5623 322.491 75.1294C322.798 74.6965 322.958 74.2863 322.969 73.8989L324.268 75.9839C324.086 76.451 323.835 76.9352 323.516 77.4365C323.208 77.9378 322.815 78.4106 322.337 78.855C321.858 79.2879 321.283 79.6468 320.611 79.9316C319.939 80.2051 319.141 80.3418 318.218 80.3418C317.045 80.3418 315.979 80.1082 315.022 79.6411C314.077 79.1626 313.325 78.5075 312.767 77.6758C312.22 76.8327 311.946 75.8757 311.946 74.8047C311.946 73.8363 312.129 72.9761 312.493 72.2241C312.858 71.4722 313.393 70.8398 314.1 70.3271C314.817 69.8031 315.712 69.41 316.783 69.1479C317.854 68.8745 319.096 68.7378 320.508 68.7378H323.362ZM341.46 74.8901C341.46 74.5369 341.358 74.2179 341.153 73.9331C340.948 73.6483 340.566 73.3862 340.008 73.147C339.461 72.8963 338.669 72.6685 337.632 72.4634C336.698 72.2583 335.826 72.002 335.018 71.6943C334.22 71.3753 333.525 70.9937 332.933 70.5493C332.352 70.105 331.896 69.5809 331.565 68.9771C331.235 68.3618 331.07 67.6611 331.07 66.875C331.07 66.1003 331.235 65.3711 331.565 64.6875C331.907 64.0039 332.391 63.4001 333.018 62.876C333.656 62.3405 334.431 61.9246 335.342 61.6284C336.265 61.3208 337.302 61.167 338.453 61.167C340.059 61.167 341.438 61.4233 342.588 61.936C343.75 62.4487 344.639 63.1551 345.254 64.0552C345.881 64.9438 346.194 65.9578 346.194 67.0972H341.272C341.272 66.6187 341.17 66.1914 340.965 65.8154C340.771 65.4281 340.464 65.1261 340.042 64.9097C339.632 64.6818 339.096 64.5679 338.436 64.5679C337.889 64.5679 337.416 64.6647 337.017 64.8584C336.618 65.0407 336.311 65.2913 336.094 65.6104C335.889 65.918 335.787 66.2598 335.787 66.6357C335.787 66.9206 335.844 67.1769 335.958 67.4048C336.083 67.6213 336.282 67.8206 336.556 68.0029C336.829 68.1852 337.182 68.3561 337.615 68.5156C338.06 68.6637 338.606 68.8005 339.256 68.9258C340.589 69.1992 341.779 69.5581 342.828 70.0024C343.876 70.4354 344.708 71.0278 345.323 71.7798C345.938 72.5203 346.246 73.4945 346.246 74.7021C346.246 75.5225 346.063 76.2744 345.699 76.958C345.334 77.6416 344.81 78.2397 344.126 78.7524C343.443 79.2537 342.623 79.6468 341.666 79.9316C340.72 80.2051 339.655 80.3418 338.47 80.3418C336.749 80.3418 335.291 80.0342 334.095 79.4189C332.91 78.8037 332.01 78.0233 331.395 77.0776C330.791 76.1206 330.489 75.1408 330.489 74.1382H335.154C335.177 74.8104 335.348 75.3516 335.667 75.7617C335.997 76.1719 336.413 76.4681 336.915 76.6504C337.427 76.8327 337.98 76.9238 338.572 76.9238C339.21 76.9238 339.74 76.8384 340.162 76.6675C340.583 76.4852 340.902 76.2459 341.119 75.9497C341.347 75.6421 341.46 75.2889 341.46 74.8901ZM359.439 74.8901C359.439 74.5369 359.336 74.2179 359.131 73.9331C358.926 73.6483 358.545 73.3862 357.986 73.147C357.439 72.8963 356.648 72.6685 355.611 72.4634C354.677 72.2583 353.805 72.002 352.996 71.6943C352.199 71.3753 351.504 70.9937 350.911 70.5493C350.33 70.105 349.874 69.5809 349.544 68.9771C349.214 68.3618 349.048 67.6611 349.048 66.875C349.048 66.1003 349.214 65.3711 349.544 64.6875C349.886 64.0039 350.37 63.4001 350.997 62.876C351.635 62.3405 352.409 61.9246 353.321 61.6284C354.244 61.3208 355.28 61.167 356.431 61.167C358.038 61.167 359.416 61.4233 360.567 61.936C361.729 62.4487 362.618 63.1551 363.233 64.0552C363.86 64.9438 364.173 65.9578 364.173 67.0972H359.251C359.251 66.6187 359.148 66.1914 358.943 65.8154C358.75 65.4281 358.442 65.1261 358.021 64.9097C357.61 64.6818 357.075 64.5679 356.414 64.5679C355.867 64.5679 355.394 64.6647 354.996 64.8584C354.597 65.0407 354.289 65.2913 354.073 65.6104C353.868 65.918 353.765 66.2598 353.765 66.6357C353.765 66.9206 353.822 67.1769 353.936 67.4048C354.061 67.6213 354.261 67.8206 354.534 68.0029C354.808 68.1852 355.161 68.3561 355.594 68.5156C356.038 68.6637 356.585 68.8005 357.234 68.9258C358.567 69.1992 359.758 69.5581 360.806 70.0024C361.854 70.4354 362.686 71.0278 363.301 71.7798C363.917 72.5203 364.224 73.4945 364.224 74.7021C364.224 75.5225 364.042 76.2744 363.677 76.958C363.313 77.6416 362.789 78.2397 362.105 78.7524C361.421 79.2537 360.601 79.6468 359.644 79.9316C358.698 80.2051 357.633 80.3418 356.448 80.3418C354.728 80.3418 353.27 80.0342 352.073 79.4189C350.888 78.8037 349.988 78.0233 349.373 77.0776C348.769 76.1206 348.467 75.1408 348.467 74.1382H353.133C353.156 74.8104 353.326 75.3516 353.646 75.7617C353.976 76.1719 354.392 76.4681 354.893 76.6504C355.406 76.8327 355.958 76.9238 356.551 76.9238C357.189 76.9238 357.719 76.8384 358.14 76.6675C358.562 76.4852 358.881 76.2459 359.097 75.9497C359.325 75.6421 359.439 75.2889 359.439 74.8901ZM375.931 80.3418C374.495 80.3418 373.208 80.1139 372.068 79.6582C370.929 79.1911 369.961 78.5474 369.163 77.7271C368.377 76.9067 367.773 75.9554 367.352 74.873C366.93 73.7793 366.719 72.6172 366.719 71.3867V70.7031C366.719 69.3018 366.919 68.02 367.317 66.8579C367.716 65.6958 368.286 64.6875 369.026 63.833C369.778 62.9785 370.69 62.3234 371.761 61.8677C372.832 61.4006 374.039 61.167 375.384 61.167C376.694 61.167 377.856 61.3835 378.87 61.8164C379.884 62.2493 380.733 62.8646 381.417 63.6621C382.111 64.4596 382.636 65.4167 382.989 66.5332C383.342 67.6383 383.519 68.8688 383.519 70.2246V72.2754H368.821V68.9941H378.682V68.6182C378.682 67.9346 378.557 67.325 378.306 66.7896C378.067 66.2427 377.702 65.8097 377.212 65.4907C376.722 65.1717 376.096 65.0122 375.333 65.0122C374.683 65.0122 374.125 65.1546 373.658 65.4395C373.191 65.7243 372.809 66.123 372.513 66.6357C372.228 67.1484 372.011 67.7523 371.863 68.4473C371.727 69.1309 371.658 69.8828 371.658 70.7031V71.3867C371.658 72.1273 371.761 72.8109 371.966 73.4375C372.182 74.0641 372.484 74.6053 372.872 75.061C373.27 75.5168 373.749 75.87 374.307 76.1206C374.877 76.3713 375.521 76.4966 376.238 76.4966C377.127 76.4966 377.953 76.3257 378.716 75.9839C379.491 75.6307 380.158 75.1009 380.716 74.3945L383.108 76.9922C382.721 77.5505 382.191 78.0859 381.519 78.5986C380.858 79.1113 380.061 79.5329 379.126 79.8633C378.192 80.1823 377.127 80.3418 375.931 80.3418ZM391.243 65.3369V80H386.304V61.5088H390.936L391.243 65.3369ZM390.56 70.105H389.192C389.192 68.8175 389.346 67.6326 389.654 66.5503C389.973 65.4565 390.434 64.5109 391.038 63.7134C391.653 62.9045 392.411 62.2778 393.311 61.8335C394.211 61.3892 395.254 61.167 396.438 61.167C397.259 61.167 398.011 61.2923 398.694 61.543C399.378 61.7822 399.965 62.1639 400.455 62.688C400.956 63.2007 401.343 63.8729 401.617 64.7046C401.89 65.5249 402.027 66.5104 402.027 67.6611V80H397.105V68.208C397.105 67.3649 396.991 66.7155 396.763 66.2598C396.535 65.804 396.211 65.485 395.789 65.3027C395.379 65.1204 394.883 65.0293 394.302 65.0293C393.664 65.0293 393.106 65.1603 392.627 65.4224C392.16 65.6844 391.773 66.049 391.465 66.5161C391.158 66.9718 390.93 67.5073 390.782 68.1226C390.634 68.7378 390.56 69.3986 390.56 70.105ZM401.565 69.541L399.805 69.7632C399.805 68.5555 399.953 67.4333 400.25 66.3965C400.557 65.3597 401.007 64.4482 401.6 63.6621C402.203 62.876 402.95 62.2664 403.838 61.8335C404.727 61.3892 405.752 61.167 406.915 61.167C407.803 61.167 408.612 61.298 409.341 61.5601C410.07 61.8107 410.691 62.2152 411.204 62.7734C411.728 63.3203 412.127 64.0381 412.4 64.9268C412.685 65.8154 412.828 66.9035 412.828 68.1909V80H407.889V68.1909C407.889 67.3364 407.775 66.687 407.547 66.2427C407.33 65.7869 407.011 65.4736 406.59 65.3027C406.18 65.1204 405.69 65.0293 405.12 65.0293C404.528 65.0293 404.009 65.1489 403.565 65.3882C403.121 65.616 402.75 65.9351 402.454 66.3452C402.158 66.7554 401.936 67.2339 401.788 67.7808C401.639 68.3162 401.565 68.903 401.565 69.541Z" fill="#888888"/>
<rect x="92" y="181" width="1179" height="80" rx="13.3333" fill="#CCCCCC"/>
<rect x="107" y="196.333" width="208" height="49.3333" rx="4.66667" fill="#888888" stroke="#888888" stroke-width="4"/>
<path d="M150.833 213.167H156.802C157.969 213.167 158.983 213.34 159.844 213.687C160.705 214.035 161.368 214.549 161.833 215.229C162.306 215.91 162.542 216.75 162.542 217.75C162.542 218.618 162.406 219.344 162.135 219.927C161.865 220.51 161.486 220.993 161 221.375C160.521 221.75 159.962 222.059 159.323 222.302L158.125 222.979H153.115L153.094 220.156H156.802C157.267 220.156 157.653 220.073 157.958 219.906C158.264 219.74 158.493 219.503 158.646 219.198C158.806 218.885 158.885 218.514 158.885 218.083C158.885 217.646 158.806 217.271 158.646 216.958C158.486 216.646 158.25 216.406 157.937 216.24C157.632 216.073 157.253 215.99 156.802 215.99H154.49V228.333H150.833V213.167ZM159.135 228.333L155.781 221.625L159.656 221.604L163.052 228.177V228.333H159.135ZM170.042 228.542C169.125 228.542 168.306 228.399 167.583 228.115C166.861 227.823 166.25 227.424 165.75 226.917C165.257 226.41 164.878 225.826 164.615 225.167C164.358 224.507 164.229 223.809 164.229 223.073V222.677C164.229 221.851 164.344 221.087 164.573 220.385C164.802 219.677 165.142 219.059 165.594 218.531C166.045 218.003 166.611 217.594 167.292 217.302C167.972 217.003 168.764 216.854 169.667 216.854C170.465 216.854 171.181 216.983 171.813 217.24C172.444 217.497 172.979 217.865 173.417 218.344C173.861 218.823 174.198 219.403 174.427 220.083C174.663 220.764 174.781 221.528 174.781 222.375V223.802H165.573V221.604H171.354V221.333C171.361 220.958 171.295 220.639 171.156 220.375C171.024 220.111 170.83 219.91 170.573 219.771C170.316 219.632 170.003 219.562 169.635 219.562C169.253 219.562 168.938 219.646 168.688 219.812C168.444 219.979 168.253 220.208 168.115 220.5C167.983 220.785 167.889 221.115 167.833 221.49C167.778 221.865 167.75 222.26 167.75 222.677V223.073C167.75 223.49 167.806 223.868 167.917 224.208C168.035 224.549 168.201 224.84 168.417 225.083C168.639 225.319 168.903 225.503 169.208 225.635C169.521 225.767 169.875 225.833 170.271 225.833C170.75 225.833 171.222 225.743 171.688 225.562C172.153 225.382 172.552 225.083 172.885 224.667L174.479 226.562C174.25 226.889 173.924 227.205 173.5 227.51C173.083 227.816 172.583 228.066 172 228.26C171.417 228.448 170.764 228.542 170.042 228.542ZM182.063 225.5V220.854C182.063 220.535 182.017 220.26 181.927 220.031C181.837 219.802 181.694 219.625 181.5 219.5C181.306 219.368 181.045 219.302 180.719 219.302C180.455 219.302 180.229 219.347 180.042 219.437C179.854 219.528 179.712 219.663 179.615 219.844C179.517 220.024 179.469 220.253 179.469 220.531H175.958C175.958 220.01 176.073 219.528 176.302 219.083C176.538 218.632 176.872 218.24 177.302 217.906C177.74 217.573 178.26 217.316 178.865 217.135C179.476 216.948 180.156 216.854 180.906 216.854C181.802 216.854 182.601 217.003 183.302 217.302C184.01 217.601 184.569 218.049 184.979 218.646C185.389 219.236 185.594 219.979 185.594 220.875V225.49C185.594 226.226 185.635 226.785 185.719 227.167C185.802 227.542 185.92 227.872 186.073 228.156V228.333H182.552C182.385 227.986 182.26 227.562 182.177 227.062C182.101 226.556 182.063 226.035 182.063 225.5ZM182.49 221.448L182.51 223.323H180.958C180.632 223.323 180.354 223.368 180.125 223.458C179.903 223.549 179.722 223.674 179.583 223.833C179.451 223.986 179.354 224.16 179.292 224.354C179.236 224.549 179.208 224.753 179.208 224.969C179.208 225.177 179.257 225.365 179.354 225.531C179.458 225.691 179.597 225.816 179.771 225.906C179.944 225.997 180.139 226.042 180.354 226.042C180.743 226.042 181.073 225.969 181.344 225.823C181.622 225.67 181.833 225.486 181.979 225.271C182.125 225.056 182.198 224.854 182.198 224.667L182.969 226.104C182.83 226.382 182.67 226.663 182.49 226.948C182.316 227.233 182.097 227.497 181.833 227.74C181.576 227.976 181.26 228.17 180.885 228.323C180.51 228.469 180.056 228.542 179.521 228.542C178.826 228.542 178.188 228.399 177.604 228.115C177.028 227.83 176.566 227.434 176.219 226.927C175.872 226.413 175.698 225.823 175.698 225.156C175.698 224.573 175.802 224.052 176.01 223.594C176.226 223.135 176.549 222.747 176.979 222.427C177.41 222.108 177.958 221.865 178.625 221.698C179.292 221.531 180.076 221.448 180.979 221.448H182.49ZM192.302 225.833C192.628 225.833 192.906 225.774 193.135 225.656C193.372 225.531 193.549 225.358 193.667 225.135C193.792 224.906 193.851 224.632 193.844 224.312H197.146C197.153 225.16 196.944 225.903 196.521 226.542C196.104 227.174 195.535 227.667 194.812 228.021C194.097 228.368 193.288 228.542 192.385 228.542C191.503 228.542 190.733 228.399 190.073 228.115C189.413 227.823 188.861 227.42 188.417 226.906C187.979 226.385 187.649 225.778 187.427 225.083C187.212 224.389 187.104 223.635 187.104 222.823V222.583C187.104 221.771 187.212 221.017 187.427 220.323C187.649 219.622 187.979 219.014 188.417 218.5C188.861 217.979 189.41 217.576 190.062 217.292C190.722 217 191.49 216.854 192.365 216.854C193.302 216.854 194.128 217.031 194.844 217.385C195.566 217.74 196.132 218.253 196.542 218.927C196.951 219.601 197.153 220.417 197.146 221.375H193.844C193.851 221.035 193.799 220.729 193.687 220.458C193.576 220.187 193.403 219.972 193.167 219.812C192.937 219.646 192.642 219.562 192.281 219.562C191.92 219.562 191.628 219.642 191.406 219.802C191.184 219.962 191.014 220.184 190.896 220.469C190.785 220.747 190.708 221.066 190.667 221.427C190.632 221.788 190.615 222.174 190.615 222.583V222.823C190.615 223.24 190.632 223.632 190.667 224C190.708 224.361 190.788 224.681 190.906 224.958C191.024 225.229 191.194 225.444 191.417 225.604C191.639 225.757 191.934 225.833 192.302 225.833ZM204.583 217.062V219.5H197.792V217.062H204.583ZM199.219 214.26H202.729V224.656C202.729 224.955 202.764 225.187 202.833 225.354C202.903 225.514 203.021 225.628 203.188 225.698C203.361 225.76 203.59 225.792 203.875 225.792C204.076 225.792 204.243 225.788 204.375 225.781C204.507 225.767 204.632 225.75 204.75 225.729V228.24C204.451 228.337 204.139 228.41 203.813 228.458C203.486 228.514 203.139 228.542 202.771 228.542C202.021 228.542 201.378 228.424 200.844 228.187C200.316 227.951 199.913 227.58 199.635 227.073C199.358 226.566 199.219 225.906 199.219 225.094V214.26ZM224.125 213.167V228.333H220.479L215.115 218.896V228.333H211.458V213.167H215.115L220.479 222.604V213.167H224.125ZM232.125 225.5V220.854C232.125 220.535 232.08 220.26 231.99 220.031C231.899 219.802 231.757 219.625 231.563 219.5C231.368 219.368 231.108 219.302 230.781 219.302C230.517 219.302 230.292 219.347 230.104 219.437C229.917 219.528 229.774 219.663 229.677 219.844C229.58 220.024 229.531 220.253 229.531 220.531H226.021C226.021 220.01 226.135 219.528 226.365 219.083C226.601 218.632 226.934 218.24 227.365 217.906C227.802 217.573 228.323 217.316 228.927 217.135C229.538 216.948 230.219 216.854 230.969 216.854C231.865 216.854 232.663 217.003 233.365 217.302C234.073 217.601 234.632 218.049 235.042 218.646C235.451 219.236 235.656 219.979 235.656 220.875V225.49C235.656 226.226 235.698 226.785 235.781 227.167C235.865 227.542 235.983 227.872 236.135 228.156V228.333H232.615C232.448 227.986 232.323 227.562 232.24 227.062C232.163 226.556 232.125 226.035 232.125 225.5ZM232.552 221.448L232.573 223.323H231.021C230.694 223.323 230.417 223.368 230.188 223.458C229.965 223.549 229.785 223.674 229.646 223.833C229.514 223.986 229.417 224.16 229.354 224.354C229.299 224.549 229.271 224.753 229.271 224.969C229.271 225.177 229.319 225.365 229.417 225.531C229.521 225.691 229.66 225.816 229.833 225.906C230.007 225.997 230.201 226.042 230.417 226.042C230.806 226.042 231.135 225.969 231.406 225.823C231.684 225.67 231.896 225.486 232.042 225.271C232.188 225.056 232.26 224.854 232.26 224.667L233.031 226.104C232.892 226.382 232.733 226.663 232.552 226.948C232.378 227.233 232.16 227.497 231.896 227.74C231.639 227.976 231.323 228.17 230.948 228.323C230.573 228.469 230.118 228.542 229.583 228.542C228.889 228.542 228.25 228.399 227.667 228.115C227.09 227.83 226.628 227.434 226.281 226.927C225.934 226.413 225.76 225.823 225.76 225.156C225.76 224.573 225.865 224.052 226.073 223.594C226.288 223.135 226.611 222.747 227.042 222.427C227.472 222.108 228.021 221.865 228.688 221.698C229.354 221.531 230.139 221.448 231.042 221.448H232.552ZM243.542 217.062V219.5H236.75V217.062H243.542ZM238.177 214.26H241.687V224.656C241.687 224.955 241.722 225.187 241.792 225.354C241.861 225.514 241.979 225.628 242.146 225.698C242.319 225.76 242.549 225.792 242.833 225.792C243.035 225.792 243.201 225.788 243.333 225.781C243.465 225.767 243.59 225.75 243.708 225.729V228.24C243.41 228.337 243.097 228.41 242.771 228.458C242.444 228.514 242.097 228.542 241.729 228.542C240.979 228.542 240.337 228.424 239.802 228.187C239.274 227.951 238.872 227.58 238.594 227.073C238.316 226.566 238.177 225.906 238.177 225.094V214.26ZM248.646 217.062V228.333H245.125V217.062H248.646ZM244.917 214.156C244.917 213.656 245.097 213.247 245.458 212.927C245.819 212.608 246.288 212.448 246.865 212.448C247.441 212.448 247.91 212.608 248.271 212.927C248.632 213.247 248.813 213.656 248.813 214.156C248.813 214.656 248.632 215.066 248.271 215.385C247.91 215.705 247.441 215.865 246.865 215.865C246.288 215.865 245.819 215.705 245.458 215.385C245.097 215.066 244.917 214.656 244.917 214.156ZM254.875 225.927L257.094 217.062H260.792L257.104 228.333H254.917L254.875 225.927ZM253.563 217.062L255.75 225.927L255.729 228.333H253.531L249.854 217.062H253.563ZM267.146 228.542C266.229 228.542 265.41 228.399 264.688 228.115C263.965 227.823 263.354 227.424 262.854 226.917C262.361 226.41 261.983 225.826 261.719 225.167C261.462 224.507 261.333 223.809 261.333 223.073V222.677C261.333 221.851 261.448 221.087 261.677 220.385C261.906 219.677 262.247 219.059 262.698 218.531C263.149 218.003 263.715 217.594 264.396 217.302C265.076 217.003 265.868 216.854 266.771 216.854C267.569 216.854 268.285 216.983 268.917 217.24C269.549 217.497 270.083 217.865 270.521 218.344C270.965 218.823 271.302 219.403 271.531 220.083C271.767 220.764 271.885 221.528 271.885 222.375V223.802H262.677V221.604H268.458V221.333C268.465 220.958 268.399 220.639 268.26 220.375C268.128 220.111 267.934 219.91 267.677 219.771C267.42 219.632 267.108 219.562 266.74 219.562C266.358 219.562 266.042 219.646 265.792 219.812C265.549 219.979 265.358 220.208 265.219 220.5C265.087 220.785 264.993 221.115 264.938 221.49C264.882 221.865 264.854 222.26 264.854 222.677V223.073C264.854 223.49 264.91 223.868 265.021 224.208C265.139 224.549 265.306 224.84 265.521 225.083C265.743 225.319 266.007 225.503 266.313 225.635C266.625 225.767 266.979 225.833 267.375 225.833C267.854 225.833 268.326 225.743 268.792 225.562C269.257 225.382 269.656 225.083 269.99 224.667L271.583 226.562C271.354 226.889 271.028 227.205 270.604 227.51C270.188 227.816 269.688 228.066 269.104 228.26C268.521 228.448 267.868 228.542 267.146 228.542Z" fill="white"/>
<rect x="339" y="196.333" width="208" height="49.3333" rx="4.66667" fill="#888888" stroke="#888888" stroke-width="4"/>
<path d="M419.073 225.521V228.333H411.406V225.521H419.073ZM412.708 213.167V228.333H409.052V213.167H412.708ZM426.302 225.5V220.854C426.302 220.535 426.257 220.26 426.167 220.031C426.076 219.802 425.934 219.625 425.74 219.5C425.545 219.368 425.285 219.302 424.958 219.302C424.694 219.302 424.469 219.347 424.281 219.437C424.094 219.528 423.951 219.663 423.854 219.844C423.757 220.024 423.708 220.253 423.708 220.531H420.198C420.198 220.01 420.312 219.528 420.542 219.083C420.778 218.632 421.111 218.24 421.542 217.906C421.979 217.573 422.5 217.316 423.104 217.135C423.715 216.948 424.396 216.854 425.146 216.854C426.042 216.854 426.84 217.003 427.542 217.302C428.25 217.601 428.809 218.049 429.219 218.646C429.628 219.236 429.833 219.979 429.833 220.875V225.49C429.833 226.226 429.875 226.785 429.958 227.167C430.042 227.542 430.16 227.872 430.312 228.156V228.333H426.792C426.625 227.986 426.5 227.562 426.417 227.062C426.34 226.556 426.302 226.035 426.302 225.5ZM426.729 221.448L426.75 223.323H425.198C424.872 223.323 424.594 223.368 424.365 223.458C424.142 223.549 423.962 223.674 423.823 223.833C423.691 223.986 423.594 224.16 423.531 224.354C423.476 224.549 423.448 224.753 423.448 224.969C423.448 225.177 423.497 225.365 423.594 225.531C423.698 225.691 423.837 225.816 424.01 225.906C424.184 225.997 424.378 226.042 424.594 226.042C424.983 226.042 425.312 225.969 425.583 225.823C425.861 225.67 426.073 225.486 426.219 225.271C426.365 225.056 426.437 224.854 426.437 224.667L427.208 226.104C427.069 226.382 426.91 226.663 426.729 226.948C426.556 227.233 426.337 227.497 426.073 227.74C425.816 227.976 425.5 228.17 425.125 228.323C424.75 228.469 424.295 228.542 423.76 228.542C423.066 228.542 422.427 228.399 421.844 228.115C421.267 227.83 420.806 227.434 420.458 226.927C420.111 226.413 419.937 225.823 419.937 225.156C419.937 224.573 420.042 224.052 420.25 223.594C420.465 223.135 420.788 222.747 421.219 222.427C421.649 222.108 422.198 221.865 422.865 221.698C423.531 221.531 424.316 221.448 425.219 221.448H426.729ZM435.323 219.854V228.333H431.812V217.062H435.094L435.323 219.854ZM438.656 216.979L438.594 220.24C438.455 220.226 438.267 220.208 438.031 220.187C437.795 220.167 437.597 220.156 437.437 220.156C437.028 220.156 436.674 220.205 436.375 220.302C436.083 220.392 435.84 220.531 435.646 220.719C435.458 220.899 435.319 221.128 435.229 221.406C435.146 221.684 435.108 222.007 435.115 222.375L434.479 221.958C434.479 221.201 434.552 220.514 434.698 219.896C434.851 219.271 435.066 218.733 435.344 218.281C435.622 217.823 435.958 217.472 436.354 217.229C436.75 216.979 437.194 216.854 437.687 216.854C437.861 216.854 438.031 216.865 438.198 216.885C438.372 216.906 438.524 216.937 438.656 216.979ZM445.406 225.5V220.854C445.406 220.535 445.361 220.26 445.271 220.031C445.181 219.802 445.038 219.625 444.844 219.5C444.649 219.368 444.389 219.302 444.063 219.302C443.799 219.302 443.573 219.347 443.385 219.437C443.198 219.528 443.056 219.663 442.958 219.844C442.861 220.024 442.813 220.253 442.813 220.531H439.302C439.302 220.01 439.417 219.528 439.646 219.083C439.882 218.632 440.215 218.24 440.646 217.906C441.083 217.573 441.604 217.316 442.208 217.135C442.819 216.948 443.5 216.854 444.25 216.854C445.146 216.854 445.944 217.003 446.646 217.302C447.354 217.601 447.913 218.049 448.323 218.646C448.733 219.236 448.938 219.979 448.938 220.875V225.49C448.938 226.226 448.979 226.785 449.063 227.167C449.146 227.542 449.264 227.872 449.417 228.156V228.333H445.896C445.729 227.986 445.604 227.562 445.521 227.062C445.444 226.556 445.406 226.035 445.406 225.5ZM445.833 221.448L445.854 223.323H444.302C443.976 223.323 443.698 223.368 443.469 223.458C443.247 223.549 443.066 223.674 442.927 223.833C442.795 223.986 442.698 224.16 442.635 224.354C442.58 224.549 442.552 224.753 442.552 224.969C442.552 225.177 442.601 225.365 442.698 225.531C442.802 225.691 442.941 225.816 443.115 225.906C443.288 225.997 443.483 226.042 443.698 226.042C444.087 226.042 444.417 225.969 444.688 225.823C444.965 225.67 445.177 225.486 445.323 225.271C445.469 225.056 445.542 224.854 445.542 224.667L446.313 226.104C446.174 226.382 446.014 226.663 445.833 226.948C445.66 227.233 445.441 227.497 445.177 227.74C444.92 227.976 444.604 228.17 444.229 228.323C443.854 228.469 443.399 228.542 442.865 228.542C442.17 228.542 441.531 228.399 440.948 228.115C440.372 227.83 439.91 227.434 439.563 226.927C439.215 226.413 439.042 225.823 439.042 225.156C439.042 224.573 439.146 224.052 439.354 223.594C439.569 223.135 439.892 222.747 440.323 222.427C440.753 222.108 441.302 221.865 441.969 221.698C442.635 221.531 443.42 221.448 444.323 221.448H445.833ZM454.781 225.927L457 217.062H460.698L457.01 228.333H454.823L454.781 225.927ZM453.469 217.062L455.656 225.927L455.635 228.333H453.437L449.76 217.062H453.469ZM467.052 228.542C466.135 228.542 465.316 228.399 464.594 228.115C463.872 227.823 463.26 227.424 462.76 226.917C462.267 226.41 461.889 225.826 461.625 225.167C461.368 224.507 461.24 223.809 461.24 223.073V222.677C461.24 221.851 461.354 221.087 461.583 220.385C461.812 219.677 462.153 219.059 462.604 218.531C463.056 218.003 463.622 217.594 464.302 217.302C464.983 217.003 465.774 216.854 466.677 216.854C467.476 216.854 468.191 216.983 468.823 217.24C469.455 217.497 469.99 217.865 470.427 218.344C470.872 218.823 471.208 219.403 471.437 220.083C471.674 220.764 471.792 221.528 471.792 222.375V223.802H462.583V221.604H468.365V221.333C468.372 220.958 468.306 220.639 468.167 220.375C468.035 220.111 467.84 219.91 467.583 219.771C467.326 219.632 467.014 219.562 466.646 219.562C466.264 219.562 465.948 219.646 465.698 219.812C465.455 219.979 465.264 220.208 465.125 220.5C464.993 220.785 464.899 221.115 464.844 221.49C464.788 221.865 464.76 222.26 464.76 222.677V223.073C464.76 223.49 464.816 223.868 464.927 224.208C465.045 224.549 465.212 224.84 465.427 225.083C465.649 225.319 465.913 225.503 466.219 225.635C466.531 225.767 466.885 225.833 467.281 225.833C467.76 225.833 468.233 225.743 468.698 225.562C469.163 225.382 469.562 225.083 469.896 224.667L471.49 226.562C471.26 226.889 470.934 227.205 470.51 227.51C470.094 227.816 469.594 228.066 469.01 228.26C468.427 228.448 467.774 228.542 467.052 228.542ZM476.927 212.333V228.333H473.406V212.333H476.927Z" fill="white"/>
<rect x="571" y="196.333" width="208" height="49.3333" rx="4.66667" fill="#888888" stroke="#888888" stroke-width="4"/>
<path d="M643.26 213.167H646.24L649.625 223.719L653.01 213.167H655.99L650.833 228.333H648.417L643.26 213.167ZM641.448 213.167H644.531L645.104 224.792V228.333H641.448V213.167ZM654.719 213.167H657.812V228.333H654.146V224.792L654.719 213.167ZM663.448 227.01L666.365 217.062H670.135L665.604 230.01C665.507 230.295 665.378 230.601 665.219 230.927C665.059 231.26 664.84 231.576 664.563 231.875C664.285 232.174 663.927 232.417 663.49 232.604C663.059 232.792 662.524 232.885 661.885 232.885C661.545 232.885 661.295 232.868 661.135 232.833C660.983 232.806 660.747 232.753 660.427 232.677V230.167C660.517 230.167 660.594 230.167 660.656 230.167C660.726 230.167 660.802 230.167 660.885 230.167C661.26 230.167 661.559 230.128 661.781 230.052C662.01 229.976 662.184 229.865 662.302 229.719C662.427 229.573 662.524 229.396 662.594 229.187L663.448 227.01ZM662.708 217.062L664.927 224.948L665.313 228.667H662.958L658.948 217.062H662.708ZM679.031 224.302C679.031 224.066 678.997 223.854 678.927 223.667C678.858 223.472 678.729 223.292 678.542 223.125C678.354 222.958 678.083 222.792 677.729 222.625C677.382 222.451 676.924 222.271 676.354 222.083C675.688 221.861 675.045 221.611 674.427 221.333C673.809 221.049 673.257 220.719 672.771 220.344C672.285 219.962 671.899 219.517 671.615 219.01C671.33 218.497 671.188 217.899 671.188 217.219C671.188 216.566 671.333 215.979 671.625 215.458C671.917 214.931 672.323 214.483 672.844 214.115C673.372 213.74 673.99 213.455 674.698 213.26C675.406 213.059 676.181 212.958 677.021 212.958C678.132 212.958 679.111 213.153 679.958 213.542C680.813 213.924 681.479 214.469 681.958 215.177C682.444 215.878 682.688 216.708 682.688 217.667H679.052C679.052 217.285 678.972 216.948 678.813 216.656C678.66 216.365 678.427 216.135 678.115 215.969C677.802 215.802 677.41 215.719 676.938 215.719C676.479 215.719 676.094 215.788 675.781 215.927C675.469 216.066 675.233 216.253 675.073 216.49C674.913 216.719 674.833 216.972 674.833 217.25C674.833 217.479 674.896 217.687 675.021 217.875C675.153 218.056 675.337 218.226 675.573 218.385C675.816 218.545 676.108 218.698 676.448 218.844C676.795 218.99 677.184 219.132 677.615 219.271C678.42 219.528 679.135 219.816 679.76 220.135C680.392 220.448 680.924 220.806 681.354 221.208C681.792 221.604 682.122 222.056 682.344 222.562C682.573 223.069 682.688 223.642 682.688 224.281C682.688 224.962 682.556 225.566 682.292 226.094C682.028 226.622 681.649 227.069 681.156 227.437C680.663 227.799 680.073 228.073 679.385 228.26C678.698 228.448 677.931 228.542 677.083 228.542C676.306 228.542 675.538 228.444 674.781 228.25C674.031 228.049 673.351 227.743 672.74 227.333C672.128 226.917 671.639 226.385 671.271 225.74C670.91 225.087 670.729 224.312 670.729 223.417H674.396C674.396 223.861 674.455 224.236 674.573 224.542C674.691 224.847 674.865 225.094 675.094 225.281C675.323 225.462 675.604 225.594 675.938 225.677C676.271 225.753 676.653 225.792 677.083 225.792C677.549 225.792 677.924 225.726 678.208 225.594C678.493 225.455 678.701 225.274 678.833 225.052C678.965 224.823 679.031 224.573 679.031 224.302ZM693.031 225.833L697.26 229.187L694.99 231.104L690.833 227.75L693.031 225.833ZM697.437 220.448V221.062C697.437 222.222 697.274 223.264 696.948 224.187C696.628 225.104 696.17 225.889 695.573 226.542C694.983 227.187 694.285 227.684 693.479 228.031C692.674 228.372 691.785 228.542 690.812 228.542C689.833 228.542 688.937 228.372 688.125 228.031C687.319 227.684 686.618 227.187 686.021 226.542C685.431 225.889 684.972 225.104 684.646 224.187C684.326 223.264 684.167 222.222 684.167 221.062V220.448C684.167 219.288 684.326 218.247 684.646 217.323C684.972 216.399 685.427 215.615 686.01 214.969C686.601 214.316 687.299 213.819 688.104 213.479C688.917 213.132 689.812 212.958 690.792 212.958C691.764 212.958 692.653 213.132 693.458 213.479C694.271 213.819 694.972 214.316 695.562 214.969C696.16 215.615 696.622 216.399 696.948 217.323C697.274 218.247 697.437 219.288 697.437 220.448ZM693.719 221.062V220.427C693.719 219.677 693.653 219.017 693.521 218.448C693.396 217.872 693.208 217.389 692.958 217C692.708 216.611 692.399 216.319 692.031 216.125C691.67 215.924 691.257 215.823 690.792 215.823C690.306 215.823 689.882 215.924 689.521 216.125C689.16 216.319 688.858 216.611 688.615 217C688.372 217.389 688.187 217.872 688.062 218.448C687.944 219.017 687.885 219.677 687.885 220.427V221.062C687.885 221.806 687.944 222.465 688.062 223.042C688.187 223.611 688.372 224.094 688.615 224.49C688.865 224.885 689.17 225.184 689.531 225.385C689.899 225.587 690.326 225.687 690.812 225.687C691.278 225.687 691.691 225.587 692.052 225.385C692.413 225.184 692.715 224.885 692.958 224.49C693.208 224.094 693.396 223.611 693.521 223.042C693.653 222.465 693.719 221.806 693.719 221.062ZM709.323 225.521V228.333H701.656V225.521H709.323ZM702.958 213.167V228.333H699.302V213.167H702.958Z" fill="white"/>
<rect x="803" y="196.333" width="208" height="49.3333" rx="4.66667" fill="#888888" stroke="#888888" stroke-width="4"/>
<path d="M870.333 213.167V228.333H866.677V213.167H870.333ZM876.229 219.479V222.292H869.292V219.479H876.229ZM876.823 213.167V215.99H869.292V213.167H876.823ZM881.885 217.062V228.333H878.365V217.062H881.885ZM878.156 214.156C878.156 213.656 878.337 213.247 878.698 212.927C879.059 212.608 879.528 212.448 880.104 212.448C880.681 212.448 881.149 212.608 881.51 212.927C881.872 213.247 882.052 213.656 882.052 214.156C882.052 214.656 881.872 215.066 881.51 215.385C881.149 215.705 880.681 215.865 880.104 215.865C879.528 215.865 879.059 215.705 878.698 215.385C878.337 215.066 878.156 214.656 878.156 214.156ZM887.594 219.854V228.333H884.083V217.062H887.365L887.594 219.854ZM890.927 216.979L890.865 220.24C890.726 220.226 890.538 220.208 890.302 220.187C890.066 220.167 889.868 220.156 889.708 220.156C889.299 220.156 888.944 220.205 888.646 220.302C888.354 220.392 888.111 220.531 887.917 220.719C887.729 220.899 887.59 221.128 887.5 221.406C887.417 221.684 887.378 222.007 887.385 222.375L886.75 221.958C886.75 221.201 886.823 220.514 886.969 219.896C887.122 219.271 887.337 218.733 887.615 218.281C887.892 217.823 888.229 217.472 888.625 217.229C889.021 216.979 889.465 216.854 889.958 216.854C890.132 216.854 890.302 216.865 890.469 216.885C890.642 216.906 890.795 216.937 890.927 216.979ZM897.385 228.542C896.469 228.542 895.649 228.399 894.927 228.115C894.205 227.823 893.594 227.424 893.094 226.917C892.601 226.41 892.222 225.826 891.958 225.167C891.701 224.507 891.573 223.809 891.573 223.073V222.677C891.573 221.851 891.688 221.087 891.917 220.385C892.146 219.677 892.486 219.059 892.938 218.531C893.389 218.003 893.955 217.594 894.635 217.302C895.316 217.003 896.108 216.854 897.01 216.854C897.809 216.854 898.524 216.983 899.156 217.24C899.788 217.497 900.323 217.865 900.76 218.344C901.205 218.823 901.542 219.403 901.771 220.083C902.007 220.764 902.125 221.528 902.125 222.375V223.802H892.917V221.604H898.698V221.333C898.705 220.958 898.639 220.639 898.5 220.375C898.368 220.111 898.174 219.91 897.917 219.771C897.66 219.632 897.347 219.562 896.979 219.562C896.597 219.562 896.281 219.646 896.031 219.812C895.788 219.979 895.597 220.208 895.458 220.5C895.326 220.785 895.233 221.115 895.177 221.49C895.122 221.865 895.094 222.26 895.094 222.677V223.073C895.094 223.49 895.149 223.868 895.26 224.208C895.378 224.549 895.545 224.84 895.76 225.083C895.983 225.319 896.247 225.503 896.552 225.635C896.865 225.767 897.219 225.833 897.615 225.833C898.094 225.833 898.566 225.743 899.031 225.562C899.497 225.382 899.896 225.083 900.229 224.667L901.823 226.562C901.594 226.889 901.267 227.205 900.844 227.51C900.427 227.816 899.927 228.066 899.344 228.26C898.76 228.448 898.108 228.542 897.385 228.542ZM903.583 212.333H907.094V225.562L906.729 228.333H903.583V212.333ZM914.01 222.573V222.792C914.01 223.646 913.924 224.424 913.75 225.125C913.576 225.826 913.309 226.434 912.948 226.948C912.587 227.455 912.132 227.847 911.583 228.125C911.035 228.403 910.385 228.542 909.635 228.542C908.955 228.542 908.372 228.396 907.885 228.104C907.399 227.806 906.993 227.396 906.667 226.875C906.34 226.347 906.076 225.74 905.875 225.052C905.674 224.358 905.514 223.615 905.396 222.823V222.562C905.514 221.778 905.674 221.042 905.875 220.354C906.076 219.66 906.34 219.052 906.667 218.531C906.993 218.003 907.396 217.594 907.875 217.302C908.361 217.003 908.941 216.854 909.615 216.854C910.372 216.854 911.024 216.997 911.573 217.281C912.128 217.566 912.587 217.965 912.948 218.479C913.309 218.993 913.576 219.597 913.75 220.292C913.924 220.986 914.01 221.747 914.01 222.573ZM910.5 222.792V222.573C910.5 222.163 910.476 221.778 910.427 221.417C910.378 221.056 910.292 220.736 910.167 220.458C910.042 220.181 909.865 219.962 909.635 219.802C909.406 219.642 909.108 219.562 908.74 219.562C908.365 219.562 908.049 219.625 907.792 219.75C907.542 219.875 907.34 220.056 907.188 220.292C907.042 220.521 906.938 220.806 906.875 221.146C906.813 221.479 906.785 221.858 906.792 222.281V223.104C906.778 223.681 906.83 224.174 906.948 224.583C907.066 224.993 907.271 225.306 907.563 225.521C907.854 225.736 908.253 225.844 908.76 225.844C909.135 225.844 909.438 225.771 909.667 225.625C909.903 225.479 910.08 225.271 910.198 225C910.316 224.729 910.396 224.406 910.438 224.031C910.479 223.656 910.5 223.243 910.5 222.792ZM921.427 225.5V220.854C921.427 220.535 921.382 220.26 921.292 220.031C921.201 219.802 921.059 219.625 920.865 219.5C920.67 219.368 920.41 219.302 920.083 219.302C919.819 219.302 919.594 219.347 919.406 219.437C919.219 219.528 919.076 219.663 918.979 219.844C918.882 220.024 918.833 220.253 918.833 220.531H915.323C915.323 220.01 915.437 219.528 915.667 219.083C915.903 218.632 916.236 218.24 916.667 217.906C917.104 217.573 917.625 217.316 918.229 217.135C918.84 216.948 919.521 216.854 920.271 216.854C921.167 216.854 921.965 217.003 922.667 217.302C923.375 217.601 923.934 218.049 924.344 218.646C924.753 219.236 924.958 219.979 924.958 220.875V225.49C924.958 226.226 925 226.785 925.083 227.167C925.167 227.542 925.285 227.872 925.437 228.156V228.333H921.917C921.75 227.986 921.625 227.562 921.542 227.062C921.465 226.556 921.427 226.035 921.427 225.5ZM921.854 221.448L921.875 223.323H920.323C919.997 223.323 919.719 223.368 919.49 223.458C919.267 223.549 919.087 223.674 918.948 223.833C918.816 223.986 918.719 224.16 918.656 224.354C918.601 224.549 918.573 224.753 918.573 224.969C918.573 225.177 918.622 225.365 918.719 225.531C918.823 225.691 918.962 225.816 919.135 225.906C919.309 225.997 919.503 226.042 919.719 226.042C920.108 226.042 920.437 225.969 920.708 225.823C920.986 225.67 921.198 225.486 921.344 225.271C921.49 225.056 921.562 224.854 921.562 224.667L922.333 226.104C922.194 226.382 922.035 226.663 921.854 226.948C921.681 227.233 921.462 227.497 921.198 227.74C920.941 227.976 920.625 228.17 920.25 228.323C919.875 228.469 919.42 228.542 918.885 228.542C918.191 228.542 917.552 228.399 916.969 228.115C916.392 227.83 915.931 227.434 915.583 226.927C915.236 226.413 915.062 225.823 915.062 225.156C915.062 224.573 915.167 224.052 915.375 223.594C915.59 223.135 915.913 222.747 916.344 222.427C916.774 222.108 917.323 221.865 917.99 221.698C918.656 221.531 919.441 221.448 920.344 221.448H921.854ZM932.812 225.167C932.812 224.972 932.747 224.806 932.615 224.667C932.49 224.521 932.267 224.389 931.948 224.271C931.628 224.146 931.181 224.021 930.604 223.896C930.056 223.778 929.538 223.622 929.052 223.427C928.573 223.233 928.153 222.997 927.792 222.719C927.431 222.441 927.146 222.111 926.937 221.729C926.736 221.347 926.635 220.91 926.635 220.417C926.635 219.937 926.736 219.486 926.937 219.062C927.146 218.632 927.448 218.253 927.844 217.927C928.247 217.594 928.736 217.333 929.312 217.146C929.889 216.951 930.545 216.854 931.281 216.854C932.295 216.854 933.17 217.01 933.906 217.323C934.642 217.628 935.208 218.059 935.604 218.615C936.007 219.163 936.208 219.799 936.208 220.521H932.698C932.698 220.236 932.649 219.993 932.552 219.792C932.462 219.59 932.312 219.437 932.104 219.333C931.896 219.222 931.618 219.167 931.271 219.167C931.028 219.167 930.806 219.212 930.604 219.302C930.41 219.392 930.253 219.517 930.135 219.677C930.017 219.837 929.958 220.024 929.958 220.24C929.958 220.392 929.993 220.531 930.062 220.656C930.139 220.774 930.253 220.885 930.406 220.99C930.559 221.087 930.753 221.177 930.99 221.26C931.226 221.337 931.51 221.406 931.844 221.469C932.601 221.608 933.309 221.806 933.969 222.062C934.628 222.319 935.163 222.684 935.573 223.156C935.99 223.628 936.198 224.264 936.198 225.062C936.198 225.562 936.083 226.024 935.854 226.448C935.625 226.865 935.295 227.233 934.865 227.552C934.434 227.865 933.917 228.108 933.312 228.281C932.708 228.455 932.028 228.542 931.271 228.542C930.194 228.542 929.285 228.351 928.542 227.969C927.799 227.58 927.236 227.094 926.854 226.51C926.479 225.92 926.292 225.323 926.292 224.719H929.562C929.576 225.066 929.66 225.351 929.812 225.573C929.972 225.795 930.184 225.958 930.448 226.062C930.712 226.167 931.017 226.219 931.365 226.219C931.684 226.219 931.948 226.174 932.156 226.083C932.372 225.993 932.535 225.872 932.646 225.719C932.757 225.559 932.812 225.375 932.812 225.167ZM943.302 228.542C942.385 228.542 941.566 228.399 940.844 228.115C940.122 227.823 939.51 227.424 939.01 226.917C938.517 226.41 938.139 225.826 937.875 225.167C937.618 224.507 937.49 223.809 937.49 223.073V222.677C937.49 221.851 937.604 221.087 937.833 220.385C938.062 219.677 938.403 219.059 938.854 218.531C939.306 218.003 939.872 217.594 940.552 217.302C941.233 217.003 942.024 216.854 942.927 216.854C943.726 216.854 944.441 216.983 945.073 217.24C945.705 217.497 946.24 217.865 946.677 218.344C947.122 218.823 947.458 219.403 947.687 220.083C947.924 220.764 948.042 221.528 948.042 222.375V223.802H938.833V221.604H944.615V221.333C944.622 220.958 944.556 220.639 944.417 220.375C944.285 220.111 944.09 219.91 943.833 219.771C943.576 219.632 943.264 219.562 942.896 219.562C942.514 219.562 942.198 219.646 941.948 219.812C941.705 219.979 941.514 220.208 941.375 220.5C941.243 220.785 941.149 221.115 941.094 221.49C941.038 221.865 941.01 222.26 941.01 222.677V223.073C941.01 223.49 941.066 223.868 941.177 224.208C941.295 224.549 941.462 224.84 941.677 225.083C941.899 225.319 942.163 225.503 942.469 225.635C942.781 225.767 943.135 225.833 943.531 225.833C944.01 225.833 944.483 225.743 944.948 225.562C945.413 225.382 945.812 225.083 946.146 224.667L947.74 226.562C947.51 226.889 947.184 227.205 946.76 227.51C946.344 227.816 945.844 228.066 945.26 228.26C944.677 228.448 944.024 228.542 943.302 228.542Z" fill="white"/>
</svg>
