<svg width="1363" height="167" viewBox="0 0 1363 167" fill="none" xmlns="http://www.w3.org/2000/svg">
<rect width="1363" height="167" rx="15" fill="#F0F0F0"/>
<path d="M0 15C0 6.71573 6.71573 0 15 0H37V167H15C6.71573 167 0 160.284 0 152V15Z" fill="#424241"/>
<path d="M100.906 50.9219L93.3945 48.2383V45.0859L103.602 49.375V51.6367L100.906 50.9219ZM93.3945 53.1719L100.918 50.4297L103.602 49.7852V52.0352L93.3945 56.3242V53.1719ZM121.789 52.3398H125.293C125.223 53.4883 124.906 54.5078 124.344 55.3984C123.789 56.2891 123.012 56.9844 122.012 57.4844C121.02 57.9844 119.824 58.2344 118.426 58.2344C117.332 58.2344 116.352 58.0469 115.484 57.6719C114.617 57.2891 113.875 56.7422 113.258 56.0312C112.648 55.3203 112.184 54.4609 111.863 53.4531C111.543 52.4453 111.383 51.3164 111.383 50.0664V48.8828C111.383 47.6328 111.547 46.5039 111.875 45.4961C112.211 44.4805 112.688 43.6172 113.305 42.9062C113.93 42.1953 114.676 41.6484 115.543 41.2656C116.41 40.8828 117.379 40.6914 118.449 40.6914C119.871 40.6914 121.07 40.9492 122.047 41.4648C123.031 41.9805 123.793 42.6914 124.332 43.5977C124.879 44.5039 125.207 45.5352 125.316 46.6914H121.801C121.762 46.0039 121.625 45.4219 121.391 44.9453C121.156 44.4609 120.801 44.0977 120.324 43.8555C119.855 43.6055 119.23 43.4805 118.449 43.4805C117.863 43.4805 117.352 43.5898 116.914 43.8086C116.477 44.0273 116.109 44.3594 115.812 44.8047C115.516 45.25 115.293 45.8125 115.145 46.4922C115.004 47.1641 114.934 47.9531 114.934 48.8594V50.0664C114.934 50.9492 115 51.7266 115.133 52.3984C115.266 53.0625 115.469 53.625 115.742 54.0859C116.023 54.5391 116.383 54.8828 116.82 55.1172C117.266 55.3438 117.801 55.457 118.426 55.457C119.16 55.457 119.766 55.3398 120.242 55.1055C120.719 54.8711 121.082 54.5234 121.332 54.0625C121.59 53.6016 121.742 53.0273 121.789 52.3398ZM126.852 51.7891V51.543C126.852 50.6133 126.984 49.7578 127.25 48.9766C127.516 48.1875 127.902 47.5039 128.41 46.9258C128.918 46.3477 129.543 45.8984 130.285 45.5781C131.027 45.25 131.879 45.0859 132.84 45.0859C133.801 45.0859 134.656 45.25 135.406 45.5781C136.156 45.8984 136.785 46.3477 137.293 46.9258C137.809 47.5039 138.199 48.1875 138.465 48.9766C138.73 49.7578 138.863 50.6133 138.863 51.543V51.7891C138.863 52.7109 138.73 53.5664 138.465 54.3555C138.199 55.1367 137.809 55.8203 137.293 56.4062C136.785 56.9844 136.16 57.4336 135.418 57.7539C134.676 58.0742 133.824 58.2344 132.863 58.2344C131.902 58.2344 131.047 58.0742 130.297 57.7539C129.555 57.4336 128.926 56.9844 128.41 56.4062C127.902 55.8203 127.516 55.1367 127.25 54.3555C126.984 53.5664 126.852 52.7109 126.852 51.7891ZM130.227 51.543V51.7891C130.227 52.3203 130.273 52.8164 130.367 53.2773C130.461 53.7383 130.609 54.1445 130.812 54.4961C131.023 54.8398 131.297 55.1094 131.633 55.3047C131.969 55.5 132.379 55.5977 132.863 55.5977C133.332 55.5977 133.734 55.5 134.07 55.3047C134.406 55.1094 134.676 54.8398 134.879 54.4961C135.082 54.1445 135.23 53.7383 135.324 53.2773C135.426 52.8164 135.477 52.3203 135.477 51.7891V51.543C135.477 51.0273 135.426 50.543 135.324 50.0898C135.23 49.6289 135.078 49.2227 134.867 48.8711C134.664 48.5117 134.395 48.2305 134.059 48.0273C133.723 47.8242 133.316 47.7227 132.84 47.7227C132.363 47.7227 131.957 47.8242 131.621 48.0273C131.293 48.2305 131.023 48.5117 130.812 48.8711C130.609 49.2227 130.461 49.6289 130.367 50.0898C130.273 50.543 130.227 51.0273 130.227 51.543ZM144.312 47.9453V58H140.926V45.3203H144.102L144.312 47.9453ZM143.844 51.2148H142.906C142.906 50.332 143.012 49.5195 143.223 48.7773C143.441 48.0273 143.758 47.3789 144.172 46.832C144.594 46.2773 145.113 45.8477 145.73 45.543C146.348 45.2383 147.062 45.0859 147.875 45.0859C148.438 45.0859 148.953 45.1719 149.422 45.3438C149.891 45.5078 150.293 45.7695 150.629 46.1289C150.973 46.4805 151.238 46.9414 151.426 47.5117C151.613 48.0742 151.707 48.75 151.707 49.5391V58H148.332V49.9141C148.332 49.3359 148.254 48.8906 148.098 48.5781C147.941 48.2656 147.719 48.0469 147.43 47.9219C147.148 47.7969 146.809 47.7344 146.41 47.7344C145.973 47.7344 145.59 47.8242 145.262 48.0039C144.941 48.1836 144.676 48.4336 144.465 48.7539C144.254 49.0664 144.098 49.4336 143.996 49.8555C143.895 50.2773 143.844 50.7305 143.844 51.2148ZM151.391 50.8281L150.184 50.9805C150.184 50.1523 150.285 49.3828 150.488 48.6719C150.699 47.9609 151.008 47.3359 151.414 46.7969C151.828 46.2578 152.34 45.8398 152.949 45.543C153.559 45.2383 154.262 45.0859 155.059 45.0859C155.668 45.0859 156.223 45.1758 156.723 45.3555C157.223 45.5273 157.648 45.8047 158 46.1875C158.359 46.5625 158.633 47.0547 158.82 47.6641C159.016 48.2734 159.113 49.0195 159.113 49.9023V58H155.727V49.9023C155.727 49.3164 155.648 48.8711 155.492 48.5664C155.344 48.2539 155.125 48.0391 154.836 47.9219C154.555 47.7969 154.219 47.7344 153.828 47.7344C153.422 47.7344 153.066 47.8164 152.762 47.9805C152.457 48.1367 152.203 48.3555 152 48.6367C151.797 48.918 151.645 49.2461 151.543 49.6211C151.441 49.9883 151.391 50.3906 151.391 50.8281ZM165.102 47.7578V62.875H161.727V45.3203H164.855L165.102 47.7578ZM173.129 51.5195V51.7656C173.129 52.6875 173.02 53.543 172.801 54.332C172.59 55.1211 172.277 55.8086 171.863 56.3945C171.449 56.9727 170.934 57.4258 170.316 57.7539C169.707 58.0742 169.004 58.2344 168.207 58.2344C167.434 58.2344 166.762 58.0781 166.191 57.7656C165.621 57.4531 165.141 57.0156 164.75 56.4531C164.367 55.8828 164.059 55.2227 163.824 54.4727C163.59 53.7227 163.41 52.918 163.285 52.0586V51.4141C163.41 50.4922 163.59 49.6484 163.824 48.8828C164.059 48.1094 164.367 47.4414 164.75 46.8789C165.141 46.3086 165.617 45.8672 166.18 45.5547C166.75 45.2422 167.418 45.0859 168.184 45.0859C168.988 45.0859 169.695 45.2383 170.305 45.543C170.922 45.8477 171.438 46.2852 171.852 46.8555C172.273 47.4258 172.59 48.1055 172.801 48.8945C173.02 49.6836 173.129 50.5586 173.129 51.5195ZM169.742 51.7656V51.5195C169.742 50.9805 169.695 50.4844 169.602 50.0312C169.516 49.5703 169.375 49.168 169.18 48.8242C168.992 48.4805 168.742 48.2148 168.43 48.0273C168.125 47.832 167.754 47.7344 167.316 47.7344C166.855 47.7344 166.461 47.8086 166.133 47.957C165.812 48.1055 165.551 48.3203 165.348 48.6016C165.145 48.8828 164.992 49.2188 164.891 49.6094C164.789 50 164.727 50.4414 164.703 50.9336V52.5625C164.742 53.1406 164.852 53.6602 165.031 54.1211C165.211 54.5742 165.488 54.9336 165.863 55.1992C166.238 55.4648 166.73 55.5977 167.34 55.5977C167.785 55.5977 168.16 55.5 168.465 55.3047C168.77 55.1016 169.016 54.8242 169.203 54.4727C169.398 54.1211 169.535 53.7148 169.613 53.2539C169.699 52.793 169.742 52.2969 169.742 51.7656ZM181.438 45.3203V47.7109H174.055V45.3203H181.438ZM175.883 42.1914H179.258V54.1797C179.258 54.5469 179.305 54.8281 179.398 55.0234C179.5 55.2188 179.648 55.3555 179.844 55.4336C180.039 55.5039 180.285 55.5391 180.582 55.5391C180.793 55.5391 180.98 55.5312 181.145 55.5156C181.316 55.4922 181.461 55.4688 181.578 55.4453L181.59 57.9297C181.301 58.0234 180.988 58.0977 180.652 58.1523C180.316 58.207 179.945 58.2344 179.539 58.2344C178.797 58.2344 178.148 58.1133 177.594 57.8711C177.047 57.6211 176.625 57.2227 176.328 56.6758C176.031 56.1289 175.883 55.4102 175.883 54.5195V42.1914ZM190.859 54.9648V45.3203H194.234V58H191.059L190.859 54.9648ZM191.234 52.3633L192.23 52.3398C192.23 53.1836 192.133 53.9688 191.938 54.6953C191.742 55.4141 191.449 56.0391 191.059 56.5703C190.668 57.0938 190.176 57.5039 189.582 57.8008C188.988 58.0898 188.289 58.2344 187.484 58.2344C186.867 58.2344 186.297 58.1484 185.773 57.9766C185.258 57.7969 184.812 57.5195 184.438 57.1445C184.07 56.7617 183.781 56.2734 183.57 55.6797C183.367 55.0781 183.266 54.3555 183.266 53.5117V45.3203H186.641V53.5352C186.641 53.9102 186.684 54.2266 186.77 54.4844C186.863 54.7422 186.992 54.9531 187.156 55.1172C187.32 55.2812 187.512 55.3984 187.73 55.4688C187.957 55.5391 188.207 55.5742 188.48 55.5742C189.176 55.5742 189.723 55.4336 190.121 55.1523C190.527 54.8711 190.812 54.4883 190.977 54.0039C191.148 53.5117 191.234 52.9648 191.234 52.3633ZM203.023 45.3203V47.7109H195.641V45.3203H203.023ZM197.469 42.1914H200.844V54.1797C200.844 54.5469 200.891 54.8281 200.984 55.0234C201.086 55.2188 201.234 55.3555 201.43 55.4336C201.625 55.5039 201.871 55.5391 202.168 55.5391C202.379 55.5391 202.566 55.5312 202.73 55.5156C202.902 55.4922 203.047 55.4688 203.164 55.4453L203.176 57.9297C202.887 58.0234 202.574 58.0977 202.238 58.1523C201.902 58.207 201.531 58.2344 201.125 58.2344C200.383 58.2344 199.734 58.1133 199.18 57.8711C198.633 57.6211 198.211 57.2227 197.914 56.6758C197.617 56.1289 197.469 55.4102 197.469 54.5195V42.1914ZM204.102 51.7891V51.543C204.102 50.6133 204.234 49.7578 204.5 48.9766C204.766 48.1875 205.152 47.5039 205.66 46.9258C206.168 46.3477 206.793 45.8984 207.535 45.5781C208.277 45.25 209.129 45.0859 210.09 45.0859C211.051 45.0859 211.906 45.25 212.656 45.5781C213.406 45.8984 214.035 46.3477 214.543 46.9258C215.059 47.5039 215.449 48.1875 215.715 48.9766C215.98 49.7578 216.113 50.6133 216.113 51.543V51.7891C216.113 52.7109 215.98 53.5664 215.715 54.3555C215.449 55.1367 215.059 55.8203 214.543 56.4062C214.035 56.9844 213.41 57.4336 212.668 57.7539C211.926 58.0742 211.074 58.2344 210.113 58.2344C209.152 58.2344 208.297 58.0742 207.547 57.7539C206.805 57.4336 206.176 56.9844 205.66 56.4062C205.152 55.8203 204.766 55.1367 204.5 54.3555C204.234 53.5664 204.102 52.7109 204.102 51.7891ZM207.477 51.543V51.7891C207.477 52.3203 207.523 52.8164 207.617 53.2773C207.711 53.7383 207.859 54.1445 208.062 54.4961C208.273 54.8398 208.547 55.1094 208.883 55.3047C209.219 55.5 209.629 55.5977 210.113 55.5977C210.582 55.5977 210.984 55.5 211.32 55.3047C211.656 55.1094 211.926 54.8398 212.129 54.4961C212.332 54.1445 212.48 53.7383 212.574 53.2773C212.676 52.8164 212.727 52.3203 212.727 51.7891V51.543C212.727 51.0273 212.676 50.543 212.574 50.0898C212.48 49.6289 212.328 49.2227 212.117 48.8711C211.914 48.5117 211.645 48.2305 211.309 48.0273C210.973 47.8242 210.566 47.7227 210.09 47.7227C209.613 47.7227 209.207 47.8242 208.871 48.0273C208.543 48.2305 208.273 48.5117 208.062 48.8711C207.859 49.2227 207.711 49.6289 207.617 50.0898C207.523 50.543 207.477 51.0273 207.477 51.543ZM221.562 48.0859V58H218.188V45.3203H221.363L221.562 48.0859ZM225.383 45.2383L225.324 48.3672C225.16 48.3438 224.961 48.3242 224.727 48.3086C224.5 48.2852 224.293 48.2734 224.105 48.2734C223.629 48.2734 223.215 48.3359 222.863 48.4609C222.52 48.5781 222.23 48.7539 221.996 48.9883C221.77 49.2227 221.598 49.5078 221.48 49.8438C221.371 50.1797 221.309 50.5625 221.293 50.9922L220.613 50.7812C220.613 49.9609 220.695 49.207 220.859 48.5195C221.023 47.8242 221.262 47.2188 221.574 46.7031C221.895 46.1875 222.285 45.7891 222.746 45.5078C223.207 45.2266 223.734 45.0859 224.328 45.0859C224.516 45.0859 224.707 45.1016 224.902 45.1328C225.098 45.1562 225.258 45.1914 225.383 45.2383Z" fill="#888888"/>
<path d="M115.994 98.708V104.641H99.5806V98.708H115.994ZM102.151 86.0078V118H94.439V86.0078H102.151ZM121.18 86.0078V118H113.489V86.0078H121.18ZM124.805 106.354V105.893C124.805 104.15 125.054 102.546 125.552 101.081C126.05 99.6016 126.783 98.3198 127.75 97.2358C128.716 96.1519 129.91 95.3096 131.331 94.709C132.752 94.0938 134.393 93.7861 136.253 93.7861C138.128 93.7861 139.776 94.0938 141.197 94.709C142.632 95.3096 143.833 96.1519 144.8 97.2358C145.767 98.3198 146.5 99.6016 146.998 101.081C147.496 102.546 147.745 104.15 147.745 105.893V106.354C147.745 108.083 147.496 109.687 146.998 111.167C146.5 112.631 145.767 113.913 144.8 115.012C143.833 116.096 142.64 116.938 141.219 117.539C139.798 118.139 138.157 118.439 136.297 118.439C134.437 118.439 132.789 118.139 131.353 117.539C129.917 116.938 128.716 116.096 127.75 115.012C126.783 113.913 126.05 112.631 125.552 111.167C125.054 109.687 124.805 108.083 124.805 106.354ZM132.21 105.893V106.354C132.21 107.248 132.276 108.083 132.408 108.859C132.54 109.636 132.759 110.317 133.067 110.903C133.375 111.474 133.792 111.921 134.319 112.243C134.847 112.565 135.506 112.727 136.297 112.727C137.073 112.727 137.718 112.565 138.23 112.243C138.758 111.921 139.175 111.474 139.483 110.903C139.791 110.317 140.01 109.636 140.142 108.859C140.274 108.083 140.34 107.248 140.34 106.354V105.893C140.34 105.029 140.274 104.216 140.142 103.454C140.01 102.678 139.791 101.997 139.483 101.411C139.175 100.81 138.758 100.341 138.23 100.004C137.703 99.6675 137.044 99.499 136.253 99.499C135.477 99.499 134.825 99.6675 134.297 100.004C133.785 100.341 133.375 100.81 133.067 101.411C132.759 101.997 132.54 102.678 132.408 103.454C132.276 104.216 132.21 105.029 132.21 105.893ZM158.27 110.925L162.664 94.2256H167.3L165.652 102.597L161.302 118H157.588L158.27 110.925ZM156.534 94.2256L159.258 110.793L159.566 118H155.062L149.437 94.2256H156.534ZM171.211 110.441L173.958 94.2256H181.055L175.474 118H170.97L171.211 110.441ZM167.828 94.2256L172.266 110.881L172.947 118H169.19L164.927 102.641L163.345 94.2256H167.828ZM209.466 86.0078V118H201.753V86.0078H209.466ZM219.09 86.0078V91.9624H192.349V86.0078H219.09ZM216.475 106.354V105.893C216.475 104.15 216.724 102.546 217.222 101.081C217.72 99.6016 218.453 98.3198 219.419 97.2358C220.386 96.1519 221.58 95.3096 223.001 94.709C224.422 94.0938 226.062 93.7861 227.923 93.7861C229.798 93.7861 231.446 94.0938 232.867 94.709C234.302 95.3096 235.503 96.1519 236.47 97.2358C237.437 98.3198 238.169 99.6016 238.667 101.081C239.166 102.546 239.415 104.15 239.415 105.893V106.354C239.415 108.083 239.166 109.687 238.667 111.167C238.169 112.631 237.437 113.913 236.47 115.012C235.503 116.096 234.31 116.938 232.889 117.539C231.468 118.139 229.827 118.439 227.967 118.439C226.106 118.439 224.458 118.139 223.023 117.539C221.587 116.938 220.386 116.096 219.419 115.012C218.453 113.913 217.72 112.631 217.222 111.167C216.724 109.687 216.475 108.083 216.475 106.354ZM223.88 105.893V106.354C223.88 107.248 223.946 108.083 224.078 108.859C224.209 109.636 224.429 110.317 224.737 110.903C225.044 111.474 225.462 111.921 225.989 112.243C226.517 112.565 227.176 112.727 227.967 112.727C228.743 112.727 229.388 112.565 229.9 112.243C230.428 111.921 230.845 111.474 231.153 110.903C231.46 110.317 231.68 109.636 231.812 108.859C231.944 108.083 232.01 107.248 232.01 106.354V105.893C232.01 105.029 231.944 104.216 231.812 103.454C231.68 102.678 231.46 101.997 231.153 101.411C230.845 100.81 230.428 100.341 229.9 100.004C229.373 99.6675 228.714 99.499 227.923 99.499C227.146 99.499 226.495 99.6675 225.967 100.004C225.455 100.341 225.044 100.81 224.737 101.411C224.429 101.997 224.209 102.678 224.078 103.454C223.946 104.216 223.88 105.029 223.88 105.893ZM254.268 86.0078H266.858C269.319 86.0078 271.458 86.374 273.274 87.1064C275.091 87.8389 276.49 88.9229 277.471 90.3584C278.467 91.7939 278.965 93.5664 278.965 95.6758C278.965 97.5068 278.68 99.0376 278.108 100.268C277.537 101.499 276.739 102.517 275.713 103.322C274.703 104.113 273.523 104.765 272.176 105.278L269.649 106.706H259.08L259.036 100.751H266.858C267.84 100.751 268.653 100.576 269.297 100.224C269.942 99.8726 270.425 99.3745 270.748 98.73C271.084 98.0708 271.253 97.2871 271.253 96.3789C271.253 95.4561 271.084 94.665 270.748 94.0059C270.411 93.3467 269.913 92.8413 269.253 92.4897C268.609 92.1382 267.811 91.9624 266.858 91.9624H261.98V118H254.268V86.0078ZM271.78 118L264.705 103.85L272.879 103.806L280.042 117.67V118H271.78ZM297.159 112.221V94.2256H304.585V118H297.642L297.159 112.221ZM297.862 107.387L299.795 107.343C299.795 108.94 299.605 110.419 299.224 111.782C298.843 113.129 298.279 114.301 297.532 115.297C296.8 116.293 295.892 117.07 294.808 117.626C293.738 118.168 292.5 118.439 291.094 118.439C289.922 118.439 288.846 118.278 287.864 117.956C286.897 117.619 286.062 117.099 285.359 116.396C284.656 115.678 284.107 114.763 283.711 113.649C283.331 112.521 283.14 111.174 283.14 109.606V94.2256H290.545V109.65C290.545 110.178 290.611 110.632 290.743 111.013C290.875 111.394 291.065 111.716 291.314 111.979C291.563 112.229 291.871 112.419 292.237 112.551C292.618 112.668 293.05 112.727 293.533 112.727C294.646 112.727 295.518 112.492 296.148 112.023C296.778 111.555 297.217 110.917 297.466 110.112C297.73 109.306 297.862 108.398 297.862 107.387ZM315.945 99.3013V118H308.541V94.2256H315.484L315.945 99.3013ZM315.066 105.3L313.331 105.344C313.331 103.527 313.55 101.909 313.99 100.488C314.429 99.0522 315.052 97.8364 315.857 96.8403C316.663 95.8442 317.623 95.0898 318.736 94.5771C319.864 94.0498 321.116 93.7861 322.493 93.7861C323.592 93.7861 324.595 93.9473 325.503 94.2695C326.426 94.5918 327.217 95.1118 327.876 95.8296C328.55 96.5474 329.063 97.4995 329.415 98.686C329.781 99.8579 329.964 101.308 329.964 103.037V118H322.515V103.015C322.515 102.062 322.383 101.337 322.12 100.839C321.856 100.327 321.475 99.9751 320.977 99.7847C320.479 99.5942 319.871 99.499 319.153 99.499C318.392 99.499 317.747 99.6455 317.22 99.9385C316.692 100.231 316.268 100.642 315.945 101.169C315.638 101.682 315.411 102.29 315.264 102.993C315.132 103.696 315.066 104.465 315.066 105.3ZM345.85 107.871H339.544C339.544 106.582 339.632 105.446 339.808 104.465C339.998 103.469 340.32 102.575 340.774 101.784C341.229 100.993 341.844 100.261 342.62 99.5869C343.309 99.0156 343.902 98.4663 344.4 97.939C344.898 97.4116 345.279 96.877 345.542 96.335C345.806 95.793 345.938 95.2144 345.938 94.5991C345.938 93.8374 345.828 93.2148 345.608 92.7314C345.403 92.248 345.088 91.8892 344.664 91.6548C344.253 91.4058 343.733 91.2812 343.104 91.2812C342.591 91.2812 342.107 91.4058 341.653 91.6548C341.214 91.9038 340.855 92.292 340.577 92.8193C340.298 93.332 340.145 94.0132 340.115 94.8628H332.667C332.71 92.6802 333.194 90.9077 334.117 89.5454C335.054 88.1685 336.299 87.165 337.852 86.5352C339.419 85.8906 341.17 85.5684 343.104 85.5684C345.242 85.5684 347.081 85.8979 348.619 86.5571C350.157 87.2163 351.336 88.1978 352.156 89.5015C352.977 90.7905 353.387 92.3799 353.387 94.2695C353.387 95.5293 353.145 96.6279 352.662 97.5654C352.193 98.4883 351.556 99.3525 350.75 100.158C349.959 100.949 349.073 101.799 348.091 102.707C347.242 103.454 346.663 104.216 346.355 104.992C346.048 105.754 345.879 106.713 345.85 107.871ZM338.643 114.55C338.643 113.496 339.024 112.617 339.786 111.914C340.547 111.196 341.536 110.837 342.752 110.837C343.968 110.837 344.957 111.196 345.718 111.914C346.48 112.617 346.861 113.496 346.861 114.55C346.861 115.605 346.48 116.491 345.718 117.209C344.957 117.912 343.968 118.264 342.752 118.264C341.536 118.264 340.547 117.912 339.786 117.209C339.024 116.491 338.643 115.605 338.643 114.55Z" fill="#424241"/>
<path d="M1363 15C1363 6.71573 1356.28 0 1348 0H1134V167H1348C1356.28 167 1363 160.284 1363 152V15Z" fill="#1877F2"/>
<path d="M1260.77 81.3079C1263.96 81.3079 1267.09 82.2553 1269.74 84.0303C1272.4 85.8053 1274.47 88.3282 1275.69 91.2799C1276.92 94.2316 1277.24 97.4796 1276.61 100.613C1275.99 103.747 1274.45 106.625 1272.19 108.884C1269.93 111.143 1267.05 112.682 1263.92 113.305C1260.79 113.928 1257.54 113.608 1254.59 112.386C1251.64 111.163 1249.11 109.093 1247.34 106.436C1245.56 103.78 1244.62 100.657 1244.62 97.4617C1244.62 93.1774 1246.32 89.0686 1249.35 86.0392C1252.38 83.0098 1256.48 81.3079 1260.77 81.3079ZM1260.77 75.9233C1256.51 75.9233 1252.35 77.1865 1248.8 79.5532C1245.26 81.9198 1242.5 85.2837 1240.87 89.2193C1239.24 93.1549 1238.81 97.4856 1239.64 101.664C1240.48 105.842 1242.53 109.679 1245.54 112.692C1248.55 115.704 1252.39 117.755 1256.57 118.586C1260.75 119.417 1265.08 118.991 1269.01 117.361C1272.95 115.73 1276.31 112.97 1278.68 109.428C1281.04 105.886 1282.31 101.722 1282.31 97.4617C1282.31 91.7493 1280.04 86.271 1276 82.2317C1271.96 78.1925 1266.48 75.9233 1260.77 75.9233Z" fill="white"/>
<path d="M1274.23 49H1220.38C1218.96 49 1217.59 49.5673 1216.58 50.5771C1215.57 51.5869 1215 52.9565 1215 54.3846V108.231C1215 109.659 1215.57 111.028 1216.58 112.038C1217.59 113.048 1218.96 113.615 1220.38 113.615H1231.15V108.231H1220.38V70.5384H1279.62V54.3846C1279.62 52.9565 1279.05 51.5869 1278.04 50.5771C1277.03 49.5673 1275.66 49 1274.23 49ZM1220.38 65.1538V54.3846H1274.23V65.1538H1220.38Z" fill="white"/>
<path d="M1255.38 89.3849V105.539L1268.85 97.4618L1255.38 89.3849Z" fill="white"/>
</svg>
