<svg width="1363" height="167" viewBox="0 0 1363 167" fill="none" xmlns="http://www.w3.org/2000/svg">
<rect width="1363" height="167" rx="15" fill="#F0F0F0"/>
<path d="M0 15C0 6.71573 6.71573 0 15 0H37V167H15C6.71573 167 0 160.284 0 152V15Z" fill="#424241"/>
<path d="M100.906 50.9219L93.3945 48.2383V45.0859L103.602 49.375V51.6367L100.906 50.9219ZM93.3945 53.1719L100.918 50.4297L103.602 49.7852V52.0352L93.3945 56.3242V53.1719ZM121.789 52.3398H125.293C125.223 53.4883 124.906 54.5078 124.344 55.3984C123.789 56.2891 123.012 56.9844 122.012 57.4844C121.02 57.9844 119.824 58.2344 118.426 58.2344C117.332 58.2344 116.352 58.0469 115.484 57.6719C114.617 57.2891 113.875 56.7422 113.258 56.0312C112.648 55.3203 112.184 54.4609 111.863 53.4531C111.543 52.4453 111.383 51.3164 111.383 50.0664V48.8828C111.383 47.6328 111.547 46.5039 111.875 45.4961C112.211 44.4805 112.688 43.6172 113.305 42.9062C113.93 42.1953 114.676 41.6484 115.543 41.2656C116.41 40.8828 117.379 40.6914 118.449 40.6914C119.871 40.6914 121.07 40.9492 122.047 41.4648C123.031 41.9805 123.793 42.6914 124.332 43.5977C124.879 44.5039 125.207 45.5352 125.316 46.6914H121.801C121.762 46.0039 121.625 45.4219 121.391 44.9453C121.156 44.4609 120.801 44.0977 120.324 43.8555C119.855 43.6055 119.23 43.4805 118.449 43.4805C117.863 43.4805 117.352 43.5898 116.914 43.8086C116.477 44.0273 116.109 44.3594 115.812 44.8047C115.516 45.25 115.293 45.8125 115.145 46.4922C115.004 47.1641 114.934 47.9531 114.934 48.8594V50.0664C114.934 50.9492 115 51.7266 115.133 52.3984C115.266 53.0625 115.469 53.625 115.742 54.0859C116.023 54.5391 116.383 54.8828 116.82 55.1172C117.266 55.3438 117.801 55.457 118.426 55.457C119.16 55.457 119.766 55.3398 120.242 55.1055C120.719 54.8711 121.082 54.5234 121.332 54.0625C121.59 53.6016 121.742 53.0273 121.789 52.3398ZM126.852 51.7891V51.543C126.852 50.6133 126.984 49.7578 127.25 48.9766C127.516 48.1875 127.902 47.5039 128.41 46.9258C128.918 46.3477 129.543 45.8984 130.285 45.5781C131.027 45.25 131.879 45.0859 132.84 45.0859C133.801 45.0859 134.656 45.25 135.406 45.5781C136.156 45.8984 136.785 46.3477 137.293 46.9258C137.809 47.5039 138.199 48.1875 138.465 48.9766C138.73 49.7578 138.863 50.6133 138.863 51.543V51.7891C138.863 52.7109 138.73 53.5664 138.465 54.3555C138.199 55.1367 137.809 55.8203 137.293 56.4062C136.785 56.9844 136.16 57.4336 135.418 57.7539C134.676 58.0742 133.824 58.2344 132.863 58.2344C131.902 58.2344 131.047 58.0742 130.297 57.7539C129.555 57.4336 128.926 56.9844 128.41 56.4062C127.902 55.8203 127.516 55.1367 127.25 54.3555C126.984 53.5664 126.852 52.7109 126.852 51.7891ZM130.227 51.543V51.7891C130.227 52.3203 130.273 52.8164 130.367 53.2773C130.461 53.7383 130.609 54.1445 130.812 54.4961C131.023 54.8398 131.297 55.1094 131.633 55.3047C131.969 55.5 132.379 55.5977 132.863 55.5977C133.332 55.5977 133.734 55.5 134.07 55.3047C134.406 55.1094 134.676 54.8398 134.879 54.4961C135.082 54.1445 135.23 53.7383 135.324 53.2773C135.426 52.8164 135.477 52.3203 135.477 51.7891V51.543C135.477 51.0273 135.426 50.543 135.324 50.0898C135.23 49.6289 135.078 49.2227 134.867 48.8711C134.664 48.5117 134.395 48.2305 134.059 48.0273C133.723 47.8242 133.316 47.7227 132.84 47.7227C132.363 47.7227 131.957 47.8242 131.621 48.0273C131.293 48.2305 131.023 48.5117 130.812 48.8711C130.609 49.2227 130.461 49.6289 130.367 50.0898C130.273 50.543 130.227 51.0273 130.227 51.543ZM144.312 47.9453V58H140.926V45.3203H144.102L144.312 47.9453ZM143.844 51.2148H142.906C142.906 50.332 143.012 49.5195 143.223 48.7773C143.441 48.0273 143.758 47.3789 144.172 46.832C144.594 46.2773 145.113 45.8477 145.73 45.543C146.348 45.2383 147.062 45.0859 147.875 45.0859C148.438 45.0859 148.953 45.1719 149.422 45.3438C149.891 45.5078 150.293 45.7695 150.629 46.1289C150.973 46.4805 151.238 46.9414 151.426 47.5117C151.613 48.0742 151.707 48.75 151.707 49.5391V58H148.332V49.9141C148.332 49.3359 148.254 48.8906 148.098 48.5781C147.941 48.2656 147.719 48.0469 147.43 47.9219C147.148 47.7969 146.809 47.7344 146.41 47.7344C145.973 47.7344 145.59 47.8242 145.262 48.0039C144.941 48.1836 144.676 48.4336 144.465 48.7539C144.254 49.0664 144.098 49.4336 143.996 49.8555C143.895 50.2773 143.844 50.7305 143.844 51.2148ZM151.391 50.8281L150.184 50.9805C150.184 50.1523 150.285 49.3828 150.488 48.6719C150.699 47.9609 151.008 47.3359 151.414 46.7969C151.828 46.2578 152.34 45.8398 152.949 45.543C153.559 45.2383 154.262 45.0859 155.059 45.0859C155.668 45.0859 156.223 45.1758 156.723 45.3555C157.223 45.5273 157.648 45.8047 158 46.1875C158.359 46.5625 158.633 47.0547 158.82 47.6641C159.016 48.2734 159.113 49.0195 159.113 49.9023V58H155.727V49.9023C155.727 49.3164 155.648 48.8711 155.492 48.5664C155.344 48.2539 155.125 48.0391 154.836 47.9219C154.555 47.7969 154.219 47.7344 153.828 47.7344C153.422 47.7344 153.066 47.8164 152.762 47.9805C152.457 48.1367 152.203 48.3555 152 48.6367C151.797 48.918 151.645 49.2461 151.543 49.6211C151.441 49.9883 151.391 50.3906 151.391 50.8281ZM165.102 47.7578V62.875H161.727V45.3203H164.855L165.102 47.7578ZM173.129 51.5195V51.7656C173.129 52.6875 173.02 53.543 172.801 54.332C172.59 55.1211 172.277 55.8086 171.863 56.3945C171.449 56.9727 170.934 57.4258 170.316 57.7539C169.707 58.0742 169.004 58.2344 168.207 58.2344C167.434 58.2344 166.762 58.0781 166.191 57.7656C165.621 57.4531 165.141 57.0156 164.75 56.4531C164.367 55.8828 164.059 55.2227 163.824 54.4727C163.59 53.7227 163.41 52.918 163.285 52.0586V51.4141C163.41 50.4922 163.59 49.6484 163.824 48.8828C164.059 48.1094 164.367 47.4414 164.75 46.8789C165.141 46.3086 165.617 45.8672 166.18 45.5547C166.75 45.2422 167.418 45.0859 168.184 45.0859C168.988 45.0859 169.695 45.2383 170.305 45.543C170.922 45.8477 171.438 46.2852 171.852 46.8555C172.273 47.4258 172.59 48.1055 172.801 48.8945C173.02 49.6836 173.129 50.5586 173.129 51.5195ZM169.742 51.7656V51.5195C169.742 50.9805 169.695 50.4844 169.602 50.0312C169.516 49.5703 169.375 49.168 169.18 48.8242C168.992 48.4805 168.742 48.2148 168.43 48.0273C168.125 47.832 167.754 47.7344 167.316 47.7344C166.855 47.7344 166.461 47.8086 166.133 47.957C165.812 48.1055 165.551 48.3203 165.348 48.6016C165.145 48.8828 164.992 49.2188 164.891 49.6094C164.789 50 164.727 50.4414 164.703 50.9336V52.5625C164.742 53.1406 164.852 53.6602 165.031 54.1211C165.211 54.5742 165.488 54.9336 165.863 55.1992C166.238 55.4648 166.73 55.5977 167.34 55.5977C167.785 55.5977 168.16 55.5 168.465 55.3047C168.77 55.1016 169.016 54.8242 169.203 54.4727C169.398 54.1211 169.535 53.7148 169.613 53.2539C169.699 52.793 169.742 52.2969 169.742 51.7656ZM181.438 45.3203V47.7109H174.055V45.3203H181.438ZM175.883 42.1914H179.258V54.1797C179.258 54.5469 179.305 54.8281 179.398 55.0234C179.5 55.2188 179.648 55.3555 179.844 55.4336C180.039 55.5039 180.285 55.5391 180.582 55.5391C180.793 55.5391 180.98 55.5312 181.145 55.5156C181.316 55.4922 181.461 55.4688 181.578 55.4453L181.59 57.9297C181.301 58.0234 180.988 58.0977 180.652 58.1523C180.316 58.207 179.945 58.2344 179.539 58.2344C178.797 58.2344 178.148 58.1133 177.594 57.8711C177.047 57.6211 176.625 57.2227 176.328 56.6758C176.031 56.1289 175.883 55.4102 175.883 54.5195V42.1914ZM190.859 54.9648V45.3203H194.234V58H191.059L190.859 54.9648ZM191.234 52.3633L192.23 52.3398C192.23 53.1836 192.133 53.9688 191.938 54.6953C191.742 55.4141 191.449 56.0391 191.059 56.5703C190.668 57.0938 190.176 57.5039 189.582 57.8008C188.988 58.0898 188.289 58.2344 187.484 58.2344C186.867 58.2344 186.297 58.1484 185.773 57.9766C185.258 57.7969 184.812 57.5195 184.438 57.1445C184.07 56.7617 183.781 56.2734 183.57 55.6797C183.367 55.0781 183.266 54.3555 183.266 53.5117V45.3203H186.641V53.5352C186.641 53.9102 186.684 54.2266 186.77 54.4844C186.863 54.7422 186.992 54.9531 187.156 55.1172C187.32 55.2812 187.512 55.3984 187.73 55.4688C187.957 55.5391 188.207 55.5742 188.48 55.5742C189.176 55.5742 189.723 55.4336 190.121 55.1523C190.527 54.8711 190.812 54.4883 190.977 54.0039C191.148 53.5117 191.234 52.9648 191.234 52.3633ZM203.023 45.3203V47.7109H195.641V45.3203H203.023ZM197.469 42.1914H200.844V54.1797C200.844 54.5469 200.891 54.8281 200.984 55.0234C201.086 55.2188 201.234 55.3555 201.43 55.4336C201.625 55.5039 201.871 55.5391 202.168 55.5391C202.379 55.5391 202.566 55.5312 202.73 55.5156C202.902 55.4922 203.047 55.4688 203.164 55.4453L203.176 57.9297C202.887 58.0234 202.574 58.0977 202.238 58.1523C201.902 58.207 201.531 58.2344 201.125 58.2344C200.383 58.2344 199.734 58.1133 199.18 57.8711C198.633 57.6211 198.211 57.2227 197.914 56.6758C197.617 56.1289 197.469 55.4102 197.469 54.5195V42.1914ZM204.102 51.7891V51.543C204.102 50.6133 204.234 49.7578 204.5 48.9766C204.766 48.1875 205.152 47.5039 205.66 46.9258C206.168 46.3477 206.793 45.8984 207.535 45.5781C208.277 45.25 209.129 45.0859 210.09 45.0859C211.051 45.0859 211.906 45.25 212.656 45.5781C213.406 45.8984 214.035 46.3477 214.543 46.9258C215.059 47.5039 215.449 48.1875 215.715 48.9766C215.98 49.7578 216.113 50.6133 216.113 51.543V51.7891C216.113 52.7109 215.98 53.5664 215.715 54.3555C215.449 55.1367 215.059 55.8203 214.543 56.4062C214.035 56.9844 213.41 57.4336 212.668 57.7539C211.926 58.0742 211.074 58.2344 210.113 58.2344C209.152 58.2344 208.297 58.0742 207.547 57.7539C206.805 57.4336 206.176 56.9844 205.66 56.4062C205.152 55.8203 204.766 55.1367 204.5 54.3555C204.234 53.5664 204.102 52.7109 204.102 51.7891ZM207.477 51.543V51.7891C207.477 52.3203 207.523 52.8164 207.617 53.2773C207.711 53.7383 207.859 54.1445 208.062 54.4961C208.273 54.8398 208.547 55.1094 208.883 55.3047C209.219 55.5 209.629 55.5977 210.113 55.5977C210.582 55.5977 210.984 55.5 211.32 55.3047C211.656 55.1094 211.926 54.8398 212.129 54.4961C212.332 54.1445 212.48 53.7383 212.574 53.2773C212.676 52.8164 212.727 52.3203 212.727 51.7891V51.543C212.727 51.0273 212.676 50.543 212.574 50.0898C212.48 49.6289 212.328 49.2227 212.117 48.8711C211.914 48.5117 211.645 48.2305 211.309 48.0273C210.973 47.8242 210.566 47.7227 210.09 47.7227C209.613 47.7227 209.207 47.8242 208.871 48.0273C208.543 48.2305 208.273 48.5117 208.062 48.8711C207.859 49.2227 207.711 49.6289 207.617 50.0898C207.523 50.543 207.477 51.0273 207.477 51.543ZM221.562 48.0859V58H218.188V45.3203H221.363L221.562 48.0859ZM225.383 45.2383L225.324 48.3672C225.16 48.3438 224.961 48.3242 224.727 48.3086C224.5 48.2852 224.293 48.2734 224.105 48.2734C223.629 48.2734 223.215 48.3359 222.863 48.4609C222.52 48.5781 222.23 48.7539 221.996 48.9883C221.77 49.2227 221.598 49.5078 221.48 49.8438C221.371 50.1797 221.309 50.5625 221.293 50.9922L220.613 50.7812C220.613 49.9609 220.695 49.207 220.859 48.5195C221.023 47.8242 221.262 47.2188 221.574 46.7031C221.895 46.1875 222.285 45.7891 222.746 45.5078C223.207 45.2266 223.734 45.0859 224.328 45.0859C224.516 45.0859 224.707 45.1016 224.902 45.1328C225.098 45.1562 225.258 45.1914 225.383 45.2383Z" fill="#888888"/>
<path d="M109.93 86.0078V118H102.217V86.0078H109.93ZM119.554 86.0078V91.9624H92.813V86.0078H119.554ZM132.012 118.439C130.079 118.439 128.35 118.139 126.827 117.539C125.303 116.923 124.014 116.081 122.959 115.012C121.919 113.942 121.121 112.712 120.564 111.32C120.022 109.929 119.751 108.457 119.751 106.904V106.069C119.751 104.326 119.993 102.714 120.477 101.235C120.96 99.7407 121.678 98.437 122.63 97.3237C123.582 96.2104 124.776 95.3462 126.211 94.731C127.647 94.1011 129.317 93.7861 131.221 93.7861C132.906 93.7861 134.415 94.0571 135.748 94.5991C137.081 95.1411 138.208 95.9175 139.131 96.9282C140.069 97.939 140.779 99.1621 141.263 100.598C141.761 102.033 142.01 103.645 142.01 105.432V108.442H122.586V103.806H134.781V103.234C134.795 102.443 134.656 101.77 134.363 101.213C134.085 100.656 133.675 100.231 133.133 99.9385C132.591 99.6455 131.932 99.499 131.155 99.499C130.35 99.499 129.683 99.6748 129.156 100.026C128.643 100.378 128.24 100.861 127.947 101.477C127.669 102.077 127.471 102.773 127.354 103.564C127.237 104.355 127.178 105.19 127.178 106.069V106.904C127.178 107.783 127.295 108.581 127.53 109.299C127.779 110.017 128.13 110.632 128.584 111.145C129.053 111.643 129.61 112.031 130.254 112.309C130.914 112.587 131.661 112.727 132.496 112.727C133.506 112.727 134.502 112.536 135.484 112.155C136.465 111.774 137.308 111.145 138.011 110.266L141.373 114.265C140.889 114.953 140.201 115.62 139.307 116.264C138.428 116.909 137.374 117.436 136.143 117.846C134.913 118.242 133.536 118.439 132.012 118.439ZM155.062 112.727C155.75 112.727 156.336 112.602 156.819 112.353C157.317 112.089 157.691 111.723 157.94 111.254C158.204 110.771 158.328 110.192 158.313 109.519H165.279C165.293 111.306 164.854 112.873 163.96 114.221C163.082 115.554 161.88 116.594 160.357 117.341C158.848 118.073 157.142 118.439 155.237 118.439C153.377 118.439 151.751 118.139 150.359 117.539C148.968 116.923 147.803 116.074 146.866 114.99C145.943 113.891 145.247 112.609 144.778 111.145C144.324 109.68 144.097 108.09 144.097 106.376V105.871C144.097 104.157 144.324 102.568 144.778 101.103C145.247 99.6235 145.943 98.3418 146.866 97.2578C147.803 96.1592 148.96 95.3096 150.337 94.709C151.729 94.0938 153.348 93.7861 155.193 93.7861C157.171 93.7861 158.914 94.1597 160.423 94.9067C161.946 95.6538 163.14 96.7378 164.004 98.1587C164.869 99.5796 165.293 101.301 165.279 103.322H158.313C158.328 102.604 158.218 101.96 157.984 101.389C157.75 100.817 157.383 100.363 156.885 100.026C156.402 99.6748 155.779 99.499 155.018 99.499C154.256 99.499 153.641 99.6675 153.172 100.004C152.703 100.341 152.344 100.81 152.095 101.411C151.861 101.997 151.7 102.67 151.612 103.432C151.539 104.194 151.502 105.007 151.502 105.871V106.376C151.502 107.255 151.539 108.083 151.612 108.859C151.7 109.621 151.868 110.295 152.117 110.881C152.366 111.452 152.725 111.906 153.194 112.243C153.663 112.565 154.285 112.727 155.062 112.727ZM175.694 84.25V118H168.289V84.25H175.694ZM174.815 105.3L173.079 105.344C173.079 103.674 173.284 102.136 173.694 100.729C174.104 99.3232 174.69 98.1001 175.452 97.0601C176.214 96.02 177.129 95.2144 178.199 94.6431C179.268 94.0718 180.455 93.7861 181.758 93.7861C182.93 93.7861 184 93.9546 184.966 94.2915C185.948 94.6284 186.79 95.1704 187.493 95.9175C188.211 96.6646 188.76 97.6387 189.141 98.8398C189.537 100.041 189.734 101.506 189.734 103.234V118H182.286V103.19C182.286 102.224 182.146 101.477 181.868 100.949C181.604 100.407 181.224 100.034 180.726 99.8286C180.228 99.6089 179.62 99.499 178.902 99.499C178.038 99.499 177.334 99.6455 176.792 99.9385C176.25 100.231 175.833 100.642 175.54 101.169C175.262 101.682 175.071 102.29 174.969 102.993C174.866 103.696 174.815 104.465 174.815 105.3ZM221.88 109.497C221.88 108.999 221.807 108.552 221.661 108.156C221.514 107.746 221.243 107.365 220.848 107.014C220.452 106.662 219.881 106.311 219.134 105.959C218.401 105.593 217.435 105.212 216.233 104.816C214.827 104.348 213.472 103.82 212.168 103.234C210.865 102.634 209.7 101.938 208.675 101.147C207.649 100.341 206.836 99.4038 206.236 98.3345C205.635 97.2505 205.335 95.9907 205.335 94.5552C205.335 93.1782 205.643 91.9404 206.258 90.8418C206.873 89.7285 207.73 88.7837 208.829 88.0073C209.942 87.2163 211.246 86.6157 212.74 86.2056C214.234 85.7808 215.867 85.5684 217.64 85.5684C219.983 85.5684 222.049 85.9785 223.836 86.7988C225.638 87.6045 227.044 88.7544 228.055 90.2485C229.08 91.728 229.593 93.4785 229.593 95.5H221.924C221.924 94.6943 221.756 93.9839 221.419 93.3687C221.097 92.7534 220.606 92.27 219.947 91.9185C219.288 91.5669 218.46 91.3911 217.464 91.3911C216.497 91.3911 215.684 91.5376 215.025 91.8306C214.366 92.1235 213.868 92.519 213.531 93.0171C213.194 93.5005 213.025 94.0352 213.025 94.6211C213.025 95.1045 213.157 95.5439 213.421 95.9395C213.699 96.3203 214.087 96.6792 214.585 97.0161C215.098 97.353 215.713 97.6753 216.431 97.9829C217.164 98.2905 217.984 98.5908 218.892 98.8838C220.591 99.4258 222.1 100.034 223.418 100.708C224.751 101.367 225.872 102.121 226.78 102.971C227.703 103.806 228.399 104.758 228.868 105.827C229.351 106.896 229.593 108.105 229.593 109.453C229.593 110.888 229.314 112.163 228.758 113.276C228.201 114.389 227.403 115.334 226.363 116.11C225.323 116.872 224.078 117.451 222.627 117.846C221.177 118.242 219.559 118.439 217.771 118.439C216.131 118.439 214.512 118.234 212.916 117.824C211.333 117.399 209.898 116.755 208.609 115.891C207.32 115.012 206.287 113.891 205.511 112.529C204.749 111.152 204.368 109.519 204.368 107.629H212.103C212.103 108.566 212.227 109.357 212.476 110.002C212.725 110.646 213.091 111.167 213.575 111.562C214.058 111.943 214.651 112.221 215.354 112.397C216.058 112.558 216.863 112.639 217.771 112.639C218.753 112.639 219.544 112.5 220.145 112.221C220.745 111.928 221.185 111.547 221.463 111.079C221.741 110.595 221.88 110.068 221.88 109.497ZM245.743 94.2256V99.3672H231.417V94.2256H245.743ZM234.427 88.3149H241.832V110.244C241.832 110.874 241.905 111.364 242.051 111.716C242.198 112.053 242.447 112.294 242.798 112.441C243.165 112.573 243.648 112.639 244.249 112.639C244.673 112.639 245.025 112.631 245.303 112.617C245.582 112.587 245.845 112.551 246.094 112.507V117.802C245.464 118.007 244.805 118.161 244.117 118.264C243.428 118.381 242.696 118.439 241.919 118.439C240.337 118.439 238.982 118.19 237.854 117.692C236.741 117.194 235.892 116.411 235.306 115.341C234.72 114.272 234.427 112.88 234.427 111.167V88.3149ZM261.036 112.023V102.224C261.036 101.55 260.94 100.971 260.75 100.488C260.56 100.004 260.259 99.6309 259.849 99.3672C259.439 99.0889 258.89 98.9497 258.201 98.9497C257.645 98.9497 257.168 99.0449 256.773 99.2354C256.377 99.4258 256.077 99.7114 255.872 100.092C255.667 100.473 255.564 100.957 255.564 101.542H248.16C248.16 100.444 248.401 99.4258 248.885 98.4883C249.383 97.5361 250.086 96.7085 250.994 96.0054C251.917 95.3022 253.016 94.7603 254.29 94.3794C255.579 93.9839 257.015 93.7861 258.597 93.7861C260.486 93.7861 262.171 94.1011 263.65 94.731C265.145 95.3608 266.324 96.3057 267.188 97.5654C268.052 98.8105 268.484 100.378 268.484 102.268V112.001C268.484 113.554 268.572 114.733 268.748 115.539C268.924 116.33 269.173 117.026 269.495 117.626V118H262.068C261.717 117.268 261.453 116.374 261.277 115.319C261.116 114.25 261.036 113.151 261.036 112.023ZM261.937 103.476L261.98 107.431H258.707C258.018 107.431 257.432 107.526 256.949 107.717C256.48 107.907 256.099 108.171 255.806 108.508C255.528 108.83 255.323 109.196 255.191 109.606C255.074 110.017 255.015 110.449 255.015 110.903C255.015 111.342 255.118 111.738 255.323 112.089C255.542 112.426 255.835 112.69 256.202 112.88C256.568 113.071 256.978 113.166 257.432 113.166C258.252 113.166 258.948 113.012 259.52 112.705C260.105 112.382 260.552 111.994 260.86 111.54C261.167 111.086 261.321 110.661 261.321 110.266L262.947 113.298C262.654 113.884 262.317 114.477 261.937 115.078C261.57 115.678 261.109 116.235 260.552 116.748C260.01 117.246 259.344 117.656 258.553 117.978C257.762 118.286 256.802 118.439 255.674 118.439C254.209 118.439 252.862 118.139 251.631 117.539C250.416 116.938 249.441 116.103 248.709 115.034C247.977 113.95 247.61 112.705 247.61 111.298C247.61 110.068 247.83 108.969 248.27 108.002C248.724 107.036 249.405 106.215 250.313 105.542C251.221 104.868 252.378 104.355 253.785 104.003C255.191 103.652 256.846 103.476 258.75 103.476H261.937ZM282.635 112.727C283.323 112.727 283.909 112.602 284.393 112.353C284.891 112.089 285.264 111.723 285.513 111.254C285.777 110.771 285.901 110.192 285.887 109.519H292.852C292.867 111.306 292.427 112.873 291.534 114.221C290.655 115.554 289.454 116.594 287.93 117.341C286.421 118.073 284.715 118.439 282.811 118.439C280.95 118.439 279.324 118.139 277.933 117.539C276.541 116.923 275.376 116.074 274.439 114.99C273.516 113.891 272.82 112.609 272.352 111.145C271.897 109.68 271.67 108.09 271.67 106.376V105.871C271.67 104.157 271.897 102.568 272.352 101.103C272.82 99.6235 273.516 98.3418 274.439 97.2578C275.376 96.1592 276.534 95.3096 277.911 94.709C279.302 94.0938 280.921 93.7861 282.767 93.7861C284.744 93.7861 286.487 94.1597 287.996 94.9067C289.52 95.6538 290.713 96.7378 291.578 98.1587C292.442 99.5796 292.867 101.301 292.852 103.322H285.887C285.901 102.604 285.792 101.96 285.557 101.389C285.323 100.817 284.957 100.363 284.458 100.026C283.975 99.6748 283.353 99.499 282.591 99.499C281.829 99.499 281.214 99.6675 280.745 100.004C280.276 100.341 279.917 100.81 279.668 101.411C279.434 101.997 279.273 102.67 279.185 103.432C279.112 104.194 279.075 105.007 279.075 105.871V106.376C279.075 107.255 279.112 108.083 279.185 108.859C279.273 109.621 279.441 110.295 279.69 110.881C279.939 111.452 280.298 111.906 280.767 112.243C281.236 112.565 281.858 112.727 282.635 112.727ZM303.487 84.228V118H296.082V84.228H303.487ZM318.692 94.2256L308.365 106.333L302.959 111.738L299.729 107.036L304.234 101.169L309.815 94.2256H318.692ZM310.76 118L304.41 107.167L309.881 103.278L319.241 118H310.76Z" fill="#424241"/>
<path d="M1363 15C1363 6.71573 1356.28 0 1348 0H1134V167H1348C1356.28 167 1363 160.284 1363 152V15Z" fill="#1877F2"/>
<path fill-rule="evenodd" clip-rule="evenodd" d="M1218.5 55C1218.37 55 1218.24 55.0527 1218.15 55.1464C1218.05 55.2402 1218 55.3674 1218 55.5V111.5C1218 111.633 1218.05 111.76 1218.15 111.854C1218.24 111.947 1218.37 112 1218.5 112H1278C1278.13 112 1278.26 111.947 1278.35 111.854C1278.45 111.76 1278.5 111.633 1278.5 111.5V66C1278.5 65.8674 1278.45 65.7402 1278.35 65.6464C1278.26 65.5527 1278.13 65.5 1278 65.5H1248.25C1247.36 65.5 1246.52 65.1045 1245.95 64.4206L1238.09 55H1218.5ZM1213.9 50.9038C1215.12 49.6848 1216.78 49 1218.5 49H1239.5C1240.39 49 1241.23 49.3955 1241.8 50.0794L1249.66 59.5H1278C1279.72 59.5 1281.38 60.1848 1282.6 61.4038C1283.82 62.6228 1284.5 64.2761 1284.5 66V111.5C1284.5 113.224 1283.82 114.877 1282.6 116.096C1281.38 117.315 1279.72 118 1278 118H1218.5C1216.78 118 1215.12 117.315 1213.9 116.096C1212.68 114.877 1212 113.224 1212 111.5V55.5C1212 53.7761 1212.68 52.1228 1213.9 50.9038Z" fill="white"/>
<path fill-rule="evenodd" clip-rule="evenodd" d="M1243.72 77.5251C1245.09 78.892 1245.09 81.108 1243.72 82.4749L1237.45 88.75L1243.72 95.0251C1245.09 96.392 1245.09 98.608 1243.72 99.9749C1242.36 101.342 1240.14 101.342 1238.78 99.9749L1230.03 91.2249C1228.66 89.858 1228.66 87.642 1230.03 86.2751L1238.78 77.5251C1240.14 76.1583 1242.36 76.1583 1243.72 77.5251Z" fill="white"/>
<path fill-rule="evenodd" clip-rule="evenodd" d="M1252.03 99.9749C1250.66 98.608 1250.66 96.392 1252.03 95.0251L1258.3 88.75L1252.03 82.4749C1250.66 81.108 1250.66 78.892 1252.03 77.5251C1253.39 76.1583 1255.61 76.1583 1256.97 77.5251L1265.72 86.2751C1267.09 87.642 1267.09 89.858 1265.72 91.2249L1256.97 99.9749C1255.61 101.342 1253.39 101.342 1252.03 99.9749Z" fill="white"/>
</svg>
